<?xml version="1.0" encoding="UTF-8" standalone="no"?><svg xmlns="http://www.w3.org/2000/svg" xmlns:xlink="http://www.w3.org/1999/xlink" contentScriptType="application/ecmascript" contentStyleType="text/css" height="297px" preserveAspectRatio="none" style="width:256px;height:297px;" version="1.1" viewBox="0 0 256 297" width="256px" zoomAndPan="magnify"><defs><filter height="300%" id="fej9s4vjisu08" width="300%" x="-1" y="-1"><feGaussianBlur result="blurOut" stdDeviation="2.0"/><feColorMatrix in="blurOut" result="blurOut2" type="matrix" values="0 0 0 0 0 0 0 0 0 0 0 0 0 0 0 0 0 0 .4 0"/><feOffset dx="4.0" dy="4.0" in="blurOut2" result="blurOut3"/><feBlend in="SourceGraphic" in2="blurOut3" mode="normal"/></filter></defs><g><!--MD5=[967557f35a53cee30591e2c51027f273]
class com.prog.world.UI.BackGround--><a href="..\..\..\..\..\com\prog\world\UI\BackGround.html" target="_top" title="..\..\..\..\..\com\prog\world\UI\BackGround.html" xlink:actuate="onRequest" xlink:href="..\..\..\..\..\com\prog\world\UI\BackGround.html" xlink:show="new" xlink:title="..\..\..\..\..\com\prog\world\UI\BackGround.html" xlink:type="simple"><rect codeLine="5" fill="#FEFECE" filter="url(#fej9s4vjisu08)" height="103.5313" id="com.prog.world.UI.BackGround" style="stroke: #A80036; stroke-width: 1.5;" width="230" x="7" y="157"/><ellipse cx="74.75" cy="177.0938" fill="#ADD1B2" rx="11" ry="11" style="stroke: #A80036; stroke-width: 1.0;"/><path d="M77.5156,172.9688 Q77.6719,172.75 77.8594,172.6406 Q78.0469,172.5313 78.2656,172.5313 Q78.6406,172.5313 78.875,172.7969 Q79.1094,173.0469 79.1094,173.6563 L79.1094,175.1094 Q79.1094,175.7188 78.875,175.9844 Q78.6406,176.25 78.2656,176.25 Q77.9219,176.25 77.7188,176.0469 Q77.5156,175.8594 77.4063,175.3438 Q77.3594,174.9844 77.1719,174.7969 Q76.8438,174.4219 76.2344,174.2031 Q75.625,173.9844 75,173.9844 Q74.2344,173.9844 73.5938,174.3125 Q72.9688,174.6406 72.4688,175.3906 Q71.9844,176.1406 71.9844,177.1719 L71.9844,178.2656 Q71.9844,179.5 72.875,180.3281 Q73.7656,181.1406 75.3594,181.1406 Q76.2969,181.1406 76.9531,180.8906 Q77.3438,180.7344 77.7656,180.2969 Q78.0313,180.0313 78.1719,179.9531 Q78.3281,179.875 78.5313,179.875 Q78.8594,179.875 79.1094,180.1406 Q79.375,180.3906 79.375,180.7344 Q79.375,181.0781 79.0313,181.4844 Q78.5313,182.0625 77.7344,182.3906 Q76.6563,182.8438 75.3594,182.8438 Q73.8438,182.8438 72.6406,182.2188 Q71.6563,181.7188 70.9688,180.6563 Q70.2813,179.5781 70.2813,178.2969 L70.2813,177.1406 Q70.2813,175.8125 70.8906,174.6719 Q71.5156,173.5156 72.6094,172.9063 Q73.7031,172.2813 74.9375,172.2813 Q75.6719,172.2813 76.3125,172.4531 Q76.9688,172.6094 77.5156,172.9688 Z "/><text fill="#000000" font-family="sans-serif" font-size="14" lengthAdjust="spacingAndGlyphs" textLength="79" x="98.75" y="176.5332">BackGround</text><text fill="#000000" font-family="sans-serif" font-size="10" lengthAdjust="spacingAndGlyphs" textLength="86" x="95.25" y="189.9902">com.prog.world.UI</text><line style="stroke: #A80036; stroke-width: 1.5;" x1="8" x2="236" y1="197.1875" y2="197.1875"/><ellipse cx="18" cy="208.1875" fill="#84BE84" rx="3" ry="3" style="stroke: #038048; stroke-width: 1.0;"/><text fill="#000000" font-family="sans-serif" font-size="11" lengthAdjust="spacingAndGlyphs" textLength="204" x="27" y="212.6064">BackGround(float, float, float, float, String)</text><ellipse cx="18" cy="222.0234" fill="#84BE84" rx="3" ry="3" style="stroke: #038048; stroke-width: 1.0;"/><text fill="#000000" font-family="sans-serif" font-size="11" lengthAdjust="spacingAndGlyphs" textLength="60" x="27" y="226.4424">draw(): void</text><ellipse cx="18" cy="235.8594" fill="#84BE84" rx="3" ry="3" style="stroke: #038048; stroke-width: 1.0;"/><text fill="#000000" font-family="sans-serif" font-size="11" lengthAdjust="spacingAndGlyphs" textLength="67" x="27" y="240.2783">update(): void</text><ellipse cx="18" cy="249.6953" fill="#84BE84" rx="3" ry="3" style="stroke: #038048; stroke-width: 1.0;"/><text fill="#000000" font-family="sans-serif" font-size="11" lengthAdjust="spacingAndGlyphs" textLength="72" x="27" y="254.1143">dispose(): void</text></a><!--MD5=[f989ba781f17cc18e36ce3b4258c656f]
class com.prog.world.UI.UIElement--><a href="..\..\..\..\..\com\prog\world\UI\UIElement.html" target="_top" title="..\..\..\..\..\com\prog\world\UI\UIElement.html" xlink:actuate="onRequest" xlink:href="..\..\..\..\..\com\prog\world\UI\UIElement.html" xlink:show="new" xlink:title="..\..\..\..\..\com\prog\world\UI\UIElement.html" xlink:type="simple"><rect codeLine="12" fill="#FEFECE" filter="url(#fej9s4vjisu08)" height="89.6953" id="com.prog.world.UI.UIElement" style="stroke: #A80036; stroke-width: 1.5;" width="115" x="64.5" y="7"/><ellipse cx="79.5" cy="27.0938" fill="#B4A7E5" rx="11" ry="11" style="stroke: #A80036; stroke-width: 1.0;"/><path d="M80.4531,23.7344 L80.4531,30.3906 L82.1719,30.3906 Q82.7813,30.3906 83.0469,30.625 Q83.3125,30.8594 83.3125,31.25 Q83.3125,31.625 83.0469,31.8594 Q82.7813,32.0938 82.1719,32.0938 L77.0313,32.0938 Q76.4219,32.0938 76.1563,31.8594 Q75.8906,31.625 75.8906,31.2344 Q75.8906,30.8594 76.1563,30.625 Q76.4219,30.3906 77.0313,30.3906 L78.75,30.3906 L78.75,23.7344 L77.0313,23.7344 Q76.4219,23.7344 76.1563,23.5 Q75.8906,23.2656 75.8906,22.875 Q75.8906,22.5 76.1563,22.2656 Q76.4219,22.0313 77.0313,22.0313 L82.1719,22.0313 Q82.7813,22.0313 83.0469,22.2656 Q83.3125,22.5 83.3125,22.875 Q83.3125,23.2656 83.0469,23.5 Q82.7813,23.7344 82.1719,23.7344 L80.4531,23.7344 Z "/><text fill="#000000" font-family="sans-serif" font-size="14" font-style="italic" lengthAdjust="spacingAndGlyphs" textLength="65" x="102.5" y="26.5332">UIElement</text><text fill="#000000" font-family="sans-serif" font-size="10" font-style="italic" lengthAdjust="spacingAndGlyphs" textLength="83" x="93.5" y="39.9902">com.prog.world.UI</text><line style="stroke: #A80036; stroke-width: 1.5;" x1="65.5" x2="178.5" y1="47.1875" y2="47.1875"/><ellipse cx="75.5" cy="58.1875" fill="#84BE84" rx="3" ry="3" style="stroke: #038048; stroke-width: 1.0;"/><text fill="#000000" font-family="sans-serif" font-size="11" font-style="italic" lengthAdjust="spacingAndGlyphs" textLength="57" x="84.5" y="62.6064">draw(): void</text><ellipse cx="75.5" cy="72.0234" fill="#84BE84" rx="3" ry="3" style="stroke: #038048; stroke-width: 1.0;"/><text fill="#000000" font-family="sans-serif" font-size="11" font-style="italic" lengthAdjust="spacingAndGlyphs" textLength="67" x="84.5" y="76.4424">update(): void</text><ellipse cx="75.5" cy="85.8594" fill="#84BE84" rx="3" ry="3" style="stroke: #038048; stroke-width: 1.0;"/><text fill="#000000" font-family="sans-serif" font-size="11" font-style="italic" lengthAdjust="spacingAndGlyphs" textLength="73" x="84.5" y="90.2783">dispose(): void</text></a><!--MD5=[a1e23acece3e0953b5302c514980c91e]
reverse link com.prog.world.UI.UIElement to com.prog.world.UI.BackGround--><path codeLine="18" d="M122,117.1 C122,130.32 122,144.07 122,156.76 " fill="none" id="com.prog.world.UI.UIElement-backto-com.prog.world.UI.BackGround" style="stroke: #A80036; stroke-width: 1.0; stroke-dasharray: 7.0,7.0;"/><polygon fill="none" points="115,117,122,97,129,117,115,117" style="stroke: #A80036; stroke-width: 1.0;"/><text fill="#888888" font-family="sans-serif" font-size="10" lengthAdjust="spacingAndGlyphs" textLength="190" x="24" y="283.9121">UMLDoclet 2.0.12, PlantUML 1.2020.16</text><!--MD5=[0da93beb3704e58ac3af2fffdd7d72a5]
@startuml
    set namespaceSeparator none
    hide empty fields
    hide empty methods

    class "<size:14>BackGround\n<size:10>com.prog.world.UI" as com.prog.world.UI.BackGround [[..\..\..\..\..\com\prog\world\UI\BackGround.html]] {
        +BackGround(float, float, float, float, String)
        +draw(): void
        +update(): void
        +dispose(): void
    }

    interface "<size:14>UIElement\n<size:10>com.prog.world.UI" as com.prog.world.UI.UIElement [[..\..\..\..\..\com\prog\world\UI\UIElement.html]] {
        {abstract} +draw(): void
        {abstract} +update(): void
        {abstract} +dispose(): void
    }

    com.prog.world.UI.UIElement <|.. com.prog.world.UI.BackGround

    center footer UMLDoclet 2.0.12, PlantUML 1.2020.16
@enduml

PlantUML version 1.2020.16(Sun Aug 23 22:20:43 CEST 2020)
(APACHE source distribution)
Java Runtime: Java(TM) SE Runtime Environment
JVM: Java HotSpot(TM) 64-Bit Server VM
Default Encoding: Cp1252
Language: it
Country: IT
--></g></svg>