<?xml version="1.0" encoding="UTF-8" standalone="no"?><svg xmlns="http://www.w3.org/2000/svg" xmlns:xlink="http://www.w3.org/1999/xlink" contentScriptType="application/ecmascript" contentStyleType="text/css" height="297px" preserveAspectRatio="none" style="width:257px;height:297px;" version="1.1" viewBox="0 0 257 297" width="257px" zoomAndPan="magnify"><defs><filter height="300%" id="f1j9a1shq0w04l" width="300%" x="-1" y="-1"><feGaussianBlur result="blurOut" stdDeviation="2.0"/><feColorMatrix in="blurOut" result="blurOut2" type="matrix" values="0 0 0 0 0 0 0 0 0 0 0 0 0 0 0 0 0 0 .4 0"/><feOffset dx="4.0" dy="4.0" in="blurOut2" result="blurOut3"/><feBlend in="SourceGraphic" in2="blurOut3" mode="normal"/></filter></defs><g><!--MD5=[32c4c5e9ba8ab93e4e967a3ed44793b4]
class com.prog.world.UI.HealthShade--><a href="..\..\..\..\..\com\prog\world\UI\HealthShade.html" target="_top" title="..\..\..\..\..\com\prog\world\UI\HealthShade.html" xlink:actuate="onRequest" xlink:href="..\..\..\..\..\com\prog\world\UI\HealthShade.html" xlink:show="new" xlink:title="..\..\..\..\..\com\prog\world\UI\HealthShade.html" xlink:type="simple"><rect codeLine="5" fill="#FEFECE" filter="url(#f1j9a1shq0w04l)" height="103.5313" id="com.prog.world.UI.HealthShade" style="stroke: #A80036; stroke-width: 1.5;" width="231" x="7" y="157"/><ellipse cx="75.25" cy="177.0938" fill="#ADD1B2" rx="11" ry="11" style="stroke: #A80036; stroke-width: 1.0;"/><path d="M78.0156,172.9688 Q78.1719,172.75 78.3594,172.6406 Q78.5469,172.5313 78.7656,172.5313 Q79.1406,172.5313 79.375,172.7969 Q79.6094,173.0469 79.6094,173.6563 L79.6094,175.1094 Q79.6094,175.7188 79.375,175.9844 Q79.1406,176.25 78.7656,176.25 Q78.4219,176.25 78.2188,176.0469 Q78.0156,175.8594 77.9063,175.3438 Q77.8594,174.9844 77.6719,174.7969 Q77.3438,174.4219 76.7344,174.2031 Q76.125,173.9844 75.5,173.9844 Q74.7344,173.9844 74.0938,174.3125 Q73.4688,174.6406 72.9688,175.3906 Q72.4844,176.1406 72.4844,177.1719 L72.4844,178.2656 Q72.4844,179.5 73.375,180.3281 Q74.2656,181.1406 75.8594,181.1406 Q76.7969,181.1406 77.4531,180.8906 Q77.8438,180.7344 78.2656,180.2969 Q78.5313,180.0313 78.6719,179.9531 Q78.8281,179.875 79.0313,179.875 Q79.3594,179.875 79.6094,180.1406 Q79.875,180.3906 79.875,180.7344 Q79.875,181.0781 79.5313,181.4844 Q79.0313,182.0625 78.2344,182.3906 Q77.1563,182.8438 75.8594,182.8438 Q74.3438,182.8438 73.1406,182.2188 Q72.1563,181.7188 71.4688,180.6563 Q70.7813,179.5781 70.7813,178.2969 L70.7813,177.1406 Q70.7813,175.8125 71.3906,174.6719 Q72.0156,173.5156 73.1094,172.9063 Q74.2031,172.2813 75.4375,172.2813 Q76.1719,172.2813 76.8125,172.4531 Q77.4688,172.6094 78.0156,172.9688 Z "/><text fill="#000000" font-family="sans-serif" font-size="14" lengthAdjust="spacingAndGlyphs" textLength="81" x="98.25" y="176.5332">HealthShade</text><text fill="#000000" font-family="sans-serif" font-size="10" lengthAdjust="spacingAndGlyphs" textLength="86" x="95.75" y="189.9902">com.prog.world.UI</text><line style="stroke: #A80036; stroke-width: 1.5;" x1="8" x2="237" y1="197.1875" y2="197.1875"/><ellipse cx="18" cy="208.1875" fill="#84BE84" rx="3" ry="3" style="stroke: #038048; stroke-width: 1.0;"/><text fill="#000000" font-family="sans-serif" font-size="11" lengthAdjust="spacingAndGlyphs" textLength="205" x="27" y="212.6064">HealthShade(float, float, float, float, String)</text><ellipse cx="18" cy="222.0234" fill="#84BE84" rx="3" ry="3" style="stroke: #038048; stroke-width: 1.0;"/><text fill="#000000" font-family="sans-serif" font-size="11" lengthAdjust="spacingAndGlyphs" textLength="60" x="27" y="226.4424">draw(): void</text><ellipse cx="18" cy="235.8594" fill="#84BE84" rx="3" ry="3" style="stroke: #038048; stroke-width: 1.0;"/><text fill="#000000" font-family="sans-serif" font-size="11" lengthAdjust="spacingAndGlyphs" textLength="67" x="27" y="240.2783">update(): void</text><ellipse cx="18" cy="249.6953" fill="#84BE84" rx="3" ry="3" style="stroke: #038048; stroke-width: 1.0;"/><text fill="#000000" font-family="sans-serif" font-size="11" lengthAdjust="spacingAndGlyphs" textLength="72" x="27" y="254.1143">dispose(): void</text></a><!--MD5=[f989ba781f17cc18e36ce3b4258c656f]
class com.prog.world.UI.UIElement--><a href="..\..\..\..\..\com\prog\world\UI\UIElement.html" target="_top" title="..\..\..\..\..\com\prog\world\UI\UIElement.html" xlink:actuate="onRequest" xlink:href="..\..\..\..\..\com\prog\world\UI\UIElement.html" xlink:show="new" xlink:title="..\..\..\..\..\com\prog\world\UI\UIElement.html" xlink:type="simple"><rect codeLine="12" fill="#FEFECE" filter="url(#f1j9a1shq0w04l)" height="89.6953" id="com.prog.world.UI.UIElement" style="stroke: #A80036; stroke-width: 1.5;" width="115" x="65" y="7"/><ellipse cx="80" cy="27.0938" fill="#B4A7E5" rx="11" ry="11" style="stroke: #A80036; stroke-width: 1.0;"/><path d="M80.9531,23.7344 L80.9531,30.3906 L82.6719,30.3906 Q83.2813,30.3906 83.5469,30.625 Q83.8125,30.8594 83.8125,31.25 Q83.8125,31.625 83.5469,31.8594 Q83.2813,32.0938 82.6719,32.0938 L77.5313,32.0938 Q76.9219,32.0938 76.6563,31.8594 Q76.3906,31.625 76.3906,31.2344 Q76.3906,30.8594 76.6563,30.625 Q76.9219,30.3906 77.5313,30.3906 L79.25,30.3906 L79.25,23.7344 L77.5313,23.7344 Q76.9219,23.7344 76.6563,23.5 Q76.3906,23.2656 76.3906,22.875 Q76.3906,22.5 76.6563,22.2656 Q76.9219,22.0313 77.5313,22.0313 L82.6719,22.0313 Q83.2813,22.0313 83.5469,22.2656 Q83.8125,22.5 83.8125,22.875 Q83.8125,23.2656 83.5469,23.5 Q83.2813,23.7344 82.6719,23.7344 L80.9531,23.7344 Z "/><text fill="#000000" font-family="sans-serif" font-size="14" font-style="italic" lengthAdjust="spacingAndGlyphs" textLength="65" x="103" y="26.5332">UIElement</text><text fill="#000000" font-family="sans-serif" font-size="10" font-style="italic" lengthAdjust="spacingAndGlyphs" textLength="83" x="94" y="39.9902">com.prog.world.UI</text><line style="stroke: #A80036; stroke-width: 1.5;" x1="66" x2="179" y1="47.1875" y2="47.1875"/><ellipse cx="76" cy="58.1875" fill="#84BE84" rx="3" ry="3" style="stroke: #038048; stroke-width: 1.0;"/><text fill="#000000" font-family="sans-serif" font-size="11" font-style="italic" lengthAdjust="spacingAndGlyphs" textLength="57" x="85" y="62.6064">draw(): void</text><ellipse cx="76" cy="72.0234" fill="#84BE84" rx="3" ry="3" style="stroke: #038048; stroke-width: 1.0;"/><text fill="#000000" font-family="sans-serif" font-size="11" font-style="italic" lengthAdjust="spacingAndGlyphs" textLength="67" x="85" y="76.4424">update(): void</text><ellipse cx="76" cy="85.8594" fill="#84BE84" rx="3" ry="3" style="stroke: #038048; stroke-width: 1.0;"/><text fill="#000000" font-family="sans-serif" font-size="11" font-style="italic" lengthAdjust="spacingAndGlyphs" textLength="73" x="85" y="90.2783">dispose(): void</text></a><!--MD5=[ac9efdd1df6c4fc1de3788fd71b3992a]
reverse link com.prog.world.UI.UIElement to com.prog.world.UI.HealthShade--><path codeLine="18" d="M122.5,117.1 C122.5,130.32 122.5,144.07 122.5,156.76 " fill="none" id="com.prog.world.UI.UIElement-backto-com.prog.world.UI.HealthShade" style="stroke: #A80036; stroke-width: 1.0; stroke-dasharray: 7.0,7.0;"/><polygon fill="none" points="115.5,117,122.5,97,129.5,117,115.5,117" style="stroke: #A80036; stroke-width: 1.0;"/><text fill="#888888" font-family="sans-serif" font-size="10" lengthAdjust="spacingAndGlyphs" textLength="190" x="24.5" y="283.9121">UMLDoclet 2.0.12, PlantUML 1.2020.16</text><!--MD5=[efe2274f8e75232f0ccba2fbcc54302f]
@startuml
    set namespaceSeparator none
    hide empty fields
    hide empty methods

    class "<size:14>HealthShade\n<size:10>com.prog.world.UI" as com.prog.world.UI.HealthShade [[..\..\..\..\..\com\prog\world\UI\HealthShade.html]] {
        +HealthShade(float, float, float, float, String)
        +draw(): void
        +update(): void
        +dispose(): void
    }

    interface "<size:14>UIElement\n<size:10>com.prog.world.UI" as com.prog.world.UI.UIElement [[..\..\..\..\..\com\prog\world\UI\UIElement.html]] {
        {abstract} +draw(): void
        {abstract} +update(): void
        {abstract} +dispose(): void
    }

    com.prog.world.UI.UIElement <|.. com.prog.world.UI.HealthShade

    center footer UMLDoclet 2.0.12, PlantUML 1.2020.16
@enduml

PlantUML version 1.2020.16(Sun Aug 23 22:20:43 CEST 2020)
(APACHE source distribution)
Java Runtime: Java(TM) SE Runtime Environment
JVM: Java HotSpot(TM) 64-Bit Server VM
Default Encoding: Cp1252
Language: it
Country: IT
--></g></svg>