<?xml version="1.0" encoding="UTF-8" standalone="no"?><svg xmlns="http://www.w3.org/2000/svg" xmlns:xlink="http://www.w3.org/1999/xlink" contentScriptType="application/ecmascript" contentStyleType="text/css" height="297px" preserveAspectRatio="none" style="width:294px;height:297px;" version="1.1" viewBox="0 0 294 297" width="294px" zoomAndPan="magnify"><defs><filter height="300%" id="fx3rxvo81nm0w" width="300%" x="-1" y="-1"><feGaussianBlur result="blurOut" stdDeviation="2.0"/><feColorMatrix in="blurOut" result="blurOut2" type="matrix" values="0 0 0 0 0 0 0 0 0 0 0 0 0 0 0 0 0 0 .4 0"/><feOffset dx="4.0" dy="4.0" in="blurOut2" result="blurOut3"/><feBlend in="SourceGraphic" in2="blurOut3" mode="normal"/></filter></defs><g><!--MD5=[367bbee65e4b949c58502c5ae78a2a32]
class com.prog.world.UI.MBar--><a href="..\..\..\..\..\com\prog\world\UI\MBar.html" target="_top" title="..\..\..\..\..\com\prog\world\UI\MBar.html" xlink:actuate="onRequest" xlink:href="..\..\..\..\..\com\prog\world\UI\MBar.html" xlink:show="new" xlink:title="..\..\..\..\..\com\prog\world\UI\MBar.html" xlink:type="simple"><rect codeLine="5" fill="#FEFECE" filter="url(#fx3rxvo81nm0w)" height="103.5313" id="com.prog.world.UI.MBar" style="stroke: #A80036; stroke-width: 1.5;" width="195" x="44.5" y="157"/><ellipse cx="94.75" cy="177.0938" fill="#ADD1B2" rx="11" ry="11" style="stroke: #A80036; stroke-width: 1.0;"/><path d="M97.5156,172.9688 Q97.6719,172.75 97.8594,172.6406 Q98.0469,172.5313 98.2656,172.5313 Q98.6406,172.5313 98.875,172.7969 Q99.1094,173.0469 99.1094,173.6563 L99.1094,175.1094 Q99.1094,175.7188 98.875,175.9844 Q98.6406,176.25 98.2656,176.25 Q97.9219,176.25 97.7188,176.0469 Q97.5156,175.8594 97.4063,175.3438 Q97.3594,174.9844 97.1719,174.7969 Q96.8438,174.4219 96.2344,174.2031 Q95.625,173.9844 95,173.9844 Q94.2344,173.9844 93.5938,174.3125 Q92.9688,174.6406 92.4688,175.3906 Q91.9844,176.1406 91.9844,177.1719 L91.9844,178.2656 Q91.9844,179.5 92.875,180.3281 Q93.7656,181.1406 95.3594,181.1406 Q96.2969,181.1406 96.9531,180.8906 Q97.3438,180.7344 97.7656,180.2969 Q98.0313,180.0313 98.1719,179.9531 Q98.3281,179.875 98.5313,179.875 Q98.8594,179.875 99.1094,180.1406 Q99.375,180.3906 99.375,180.7344 Q99.375,181.0781 99.0313,181.4844 Q98.5313,182.0625 97.7344,182.3906 Q96.6563,182.8438 95.3594,182.8438 Q93.8438,182.8438 92.6406,182.2188 Q91.6563,181.7188 90.9688,180.6563 Q90.2813,179.5781 90.2813,178.2969 L90.2813,177.1406 Q90.2813,175.8125 90.8906,174.6719 Q91.5156,173.5156 92.6094,172.9063 Q93.7031,172.2813 94.9375,172.2813 Q95.6719,172.2813 96.3125,172.4531 Q96.9688,172.6094 97.5156,172.9688 Z "/><text fill="#000000" font-family="sans-serif" font-size="14" lengthAdjust="spacingAndGlyphs" textLength="33" x="141.75" y="176.5332">MBar</text><text fill="#000000" font-family="sans-serif" font-size="10" lengthAdjust="spacingAndGlyphs" textLength="86" x="115.25" y="189.9902">com.prog.world.UI</text><line style="stroke: #A80036; stroke-width: 1.5;" x1="45.5" x2="238.5" y1="197.1875" y2="197.1875"/><ellipse cx="55.5" cy="208.1875" fill="#84BE84" rx="3" ry="3" style="stroke: #038048; stroke-width: 1.0;"/><text fill="#000000" font-family="sans-serif" font-size="11" lengthAdjust="spacingAndGlyphs" textLength="169" x="64.5" y="212.6064">MBar(float, float, float, float, String)</text><ellipse cx="55.5" cy="222.0234" fill="#84BE84" rx="3" ry="3" style="stroke: #038048; stroke-width: 1.0;"/><text fill="#000000" font-family="sans-serif" font-size="11" lengthAdjust="spacingAndGlyphs" textLength="60" x="64.5" y="226.4424">draw(): void</text><ellipse cx="55.5" cy="235.8594" fill="#84BE84" rx="3" ry="3" style="stroke: #038048; stroke-width: 1.0;"/><text fill="#000000" font-family="sans-serif" font-size="11" lengthAdjust="spacingAndGlyphs" textLength="67" x="64.5" y="240.2783">update(): void</text><ellipse cx="55.5" cy="249.6953" fill="#84BE84" rx="3" ry="3" style="stroke: #038048; stroke-width: 1.0;"/><text fill="#000000" font-family="sans-serif" font-size="11" lengthAdjust="spacingAndGlyphs" textLength="72" x="64.5" y="254.1143">dispose(): void</text></a><!--MD5=[fa953ba6f1424a493565f0502dda7b16]
class com.prog.world.UI.Bar--><a href="..\..\..\..\..\com\prog\world\UI\Bar.html" target="_top" title="..\..\..\..\..\com\prog\world\UI\Bar.html" xlink:actuate="onRequest" xlink:href="..\..\..\..\..\com\prog\world\UI\Bar.html" xlink:show="new" xlink:title="..\..\..\..\..\com\prog\world\UI\Bar.html" xlink:type="simple"><rect codeLine="12" fill="#FEFECE" filter="url(#fx3rxvo81nm0w)" height="40.1875" id="com.prog.world.UI.Bar" style="stroke: #A80036; stroke-width: 1.5;" width="118" x="7" y="32"/><ellipse cx="22" cy="52.0938" fill="#ADD1B2" rx="11" ry="11" style="stroke: #A80036; stroke-width: 1.0;"/><path d="M24.7656,47.9688 Q24.9219,47.75 25.1094,47.6406 Q25.2969,47.5313 25.5156,47.5313 Q25.8906,47.5313 26.125,47.7969 Q26.3594,48.0469 26.3594,48.6563 L26.3594,50.1094 Q26.3594,50.7188 26.125,50.9844 Q25.8906,51.25 25.5156,51.25 Q25.1719,51.25 24.9688,51.0469 Q24.7656,50.8594 24.6563,50.3438 Q24.6094,49.9844 24.4219,49.7969 Q24.0938,49.4219 23.4844,49.2031 Q22.875,48.9844 22.25,48.9844 Q21.4844,48.9844 20.8438,49.3125 Q20.2188,49.6406 19.7188,50.3906 Q19.2344,51.1406 19.2344,52.1719 L19.2344,53.2656 Q19.2344,54.5 20.125,55.3281 Q21.0156,56.1406 22.6094,56.1406 Q23.5469,56.1406 24.2031,55.8906 Q24.5938,55.7344 25.0156,55.2969 Q25.2813,55.0313 25.4219,54.9531 Q25.5781,54.875 25.7813,54.875 Q26.1094,54.875 26.3594,55.1406 Q26.625,55.3906 26.625,55.7344 Q26.625,56.0781 26.2813,56.4844 Q25.7813,57.0625 24.9844,57.3906 Q23.9063,57.8438 22.6094,57.8438 Q21.0938,57.8438 19.8906,57.2188 Q18.9063,56.7188 18.2188,55.6563 Q17.5313,54.5781 17.5313,53.2969 L17.5313,52.1406 Q17.5313,50.8125 18.1406,49.6719 Q18.7656,48.5156 19.8594,47.9063 Q20.9531,47.2813 22.1875,47.2813 Q22.9219,47.2813 23.5625,47.4531 Q24.2188,47.6094 24.7656,47.9688 Z "/><text fill="#000000" font-family="sans-serif" font-size="14" lengthAdjust="spacingAndGlyphs" textLength="22" x="68" y="51.5332">Bar</text><text fill="#000000" font-family="sans-serif" font-size="10" lengthAdjust="spacingAndGlyphs" textLength="86" x="36" y="64.9902">com.prog.world.UI</text></a><!--MD5=[f989ba781f17cc18e36ce3b4258c656f]
class com.prog.world.UI.UIElement--><a href="..\..\..\..\..\com\prog\world\UI\UIElement.html" target="_top" title="..\..\..\..\..\com\prog\world\UI\UIElement.html" xlink:actuate="onRequest" xlink:href="..\..\..\..\..\com\prog\world\UI\UIElement.html" xlink:show="new" xlink:title="..\..\..\..\..\com\prog\world\UI\UIElement.html" xlink:type="simple"><rect codeLine="13" fill="#FEFECE" filter="url(#fx3rxvo81nm0w)" height="89.6953" id="com.prog.world.UI.UIElement" style="stroke: #A80036; stroke-width: 1.5;" width="115" x="160.5" y="7"/><ellipse cx="175.5" cy="27.0938" fill="#B4A7E5" rx="11" ry="11" style="stroke: #A80036; stroke-width: 1.0;"/><path d="M176.4531,23.7344 L176.4531,30.3906 L178.1719,30.3906 Q178.7813,30.3906 179.0469,30.625 Q179.3125,30.8594 179.3125,31.25 Q179.3125,31.625 179.0469,31.8594 Q178.7813,32.0938 178.1719,32.0938 L173.0313,32.0938 Q172.4219,32.0938 172.1563,31.8594 Q171.8906,31.625 171.8906,31.2344 Q171.8906,30.8594 172.1563,30.625 Q172.4219,30.3906 173.0313,30.3906 L174.75,30.3906 L174.75,23.7344 L173.0313,23.7344 Q172.4219,23.7344 172.1563,23.5 Q171.8906,23.2656 171.8906,22.875 Q171.8906,22.5 172.1563,22.2656 Q172.4219,22.0313 173.0313,22.0313 L178.1719,22.0313 Q178.7813,22.0313 179.0469,22.2656 Q179.3125,22.5 179.3125,22.875 Q179.3125,23.2656 179.0469,23.5 Q178.7813,23.7344 178.1719,23.7344 L176.4531,23.7344 Z "/><text fill="#000000" font-family="sans-serif" font-size="14" font-style="italic" lengthAdjust="spacingAndGlyphs" textLength="65" x="198.5" y="26.5332">UIElement</text><text fill="#000000" font-family="sans-serif" font-size="10" font-style="italic" lengthAdjust="spacingAndGlyphs" textLength="83" x="189.5" y="39.9902">com.prog.world.UI</text><line style="stroke: #A80036; stroke-width: 1.5;" x1="161.5" x2="274.5" y1="47.1875" y2="47.1875"/><ellipse cx="171.5" cy="58.1875" fill="#84BE84" rx="3" ry="3" style="stroke: #038048; stroke-width: 1.0;"/><text fill="#000000" font-family="sans-serif" font-size="11" font-style="italic" lengthAdjust="spacingAndGlyphs" textLength="57" x="180.5" y="62.6064">draw(): void</text><ellipse cx="171.5" cy="72.0234" fill="#84BE84" rx="3" ry="3" style="stroke: #038048; stroke-width: 1.0;"/><text fill="#000000" font-family="sans-serif" font-size="11" font-style="italic" lengthAdjust="spacingAndGlyphs" textLength="67" x="180.5" y="76.4424">update(): void</text><ellipse cx="171.5" cy="85.8594" fill="#84BE84" rx="3" ry="3" style="stroke: #038048; stroke-width: 1.0;"/><text fill="#000000" font-family="sans-serif" font-size="11" font-style="italic" lengthAdjust="spacingAndGlyphs" textLength="73" x="180.5" y="90.2783">dispose(): void</text></a><!--MD5=[dfa2584ef103e584c4cfb0050ed624e2]
reverse link com.prog.world.UI.Bar to com.prog.world.UI.MBar--><path codeLine="19" d="M84.16,90.04 C93.97,110.04 106.23,135.04 116.93,156.87 " fill="none" id="com.prog.world.UI.Bar-backto-com.prog.world.UI.MBar" style="stroke: #A80036; stroke-width: 1.0;"/><polygon fill="none" points="77.84,93.05,75.32,72.01,90.41,86.88,77.84,93.05" style="stroke: #A80036; stroke-width: 1.0;"/><!--MD5=[7ed177e52fd3f82f1f215c29b7f669fe]
reverse link com.prog.world.UI.UIElement to com.prog.world.UI.MBar--><path codeLine="20" d="M187.49,115.22 C180.73,129.01 173.64,143.47 167.12,156.76 " fill="none" id="com.prog.world.UI.UIElement-backto-com.prog.world.UI.MBar" style="stroke: #A80036; stroke-width: 1.0; stroke-dasharray: 7.0,7.0;"/><polygon fill="none" points="181.33,111.88,196.42,97,193.9,118.04,181.33,111.88" style="stroke: #A80036; stroke-width: 1.0;"/><text fill="#888888" font-family="sans-serif" font-size="10" lengthAdjust="spacingAndGlyphs" textLength="190" x="43.25" y="283.9121">UMLDoclet 2.0.12, PlantUML 1.2020.16</text><!--MD5=[c7646f56ba973088fcd1740a16cc0fc5]
@startuml
    set namespaceSeparator none
    hide empty fields
    hide empty methods

    class "<size:14>MBar\n<size:10>com.prog.world.UI" as com.prog.world.UI.MBar [[..\..\..\..\..\com\prog\world\UI\MBar.html]] {
        +MBar(float, float, float, float, String)
        +draw(): void
        +update(): void
        +dispose(): void
    }

    class "<size:14>Bar\n<size:10>com.prog.world.UI" as com.prog.world.UI.Bar [[..\..\..\..\..\com\prog\world\UI\Bar.html]]
    interface "<size:14>UIElement\n<size:10>com.prog.world.UI" as com.prog.world.UI.UIElement [[..\..\..\..\..\com\prog\world\UI\UIElement.html]] {
        {abstract} +draw(): void
        {abstract} +update(): void
        {abstract} +dispose(): void
    }

    com.prog.world.UI.Bar <|- - com.prog.world.UI.MBar
    com.prog.world.UI.UIElement <|.. com.prog.world.UI.MBar

    center footer UMLDoclet 2.0.12, PlantUML 1.2020.16
@enduml

PlantUML version 1.2020.16(Sun Aug 23 22:20:43 CEST 2020)
(APACHE source distribution)
Java Runtime: Java(TM) SE Runtime Environment
JVM: Java HotSpot(TM) 64-Bit Server VM
Default Encoding: Cp1252
Language: it
Country: IT
--></g></svg>