<?xml version="1.0" encoding="UTF-8" standalone="no"?><svg xmlns="http://www.w3.org/2000/svg" xmlns:xlink="http://www.w3.org/1999/xlink" contentScriptType="application/ecmascript" contentStyleType="text/css" height="297px" preserveAspectRatio="none" style="width:236px;height:297px;" version="1.1" viewBox="0 0 236 297" width="236px" zoomAndPan="magnify"><defs><filter height="300%" id="f1bokp0ie6gf3t" width="300%" x="-1" y="-1"><feGaussianBlur result="blurOut" stdDeviation="2.0"/><feColorMatrix in="blurOut" result="blurOut2" type="matrix" values="0 0 0 0 0 0 0 0 0 0 0 0 0 0 0 0 0 0 .4 0"/><feOffset dx="4.0" dy="4.0" in="blurOut2" result="blurOut3"/><feBlend in="SourceGraphic" in2="blurOut3" mode="normal"/></filter></defs><g><!--MD5=[cb58aa83465ebfacc454273ecfd601d2]
class com.prog.world.UI.Selector--><a href="..\..\..\..\..\com\prog\world\UI\Selector.html" target="_top" title="..\..\..\..\..\com\prog\world\UI\Selector.html" xlink:actuate="onRequest" xlink:href="..\..\..\..\..\com\prog\world\UI\Selector.html" xlink:show="new" xlink:title="..\..\..\..\..\com\prog\world\UI\Selector.html" xlink:type="simple"><rect codeLine="5" fill="#FEFECE" filter="url(#f1bokp0ie6gf3t)" height="103.5313" id="com.prog.world.UI.Selector" style="stroke: #A80036; stroke-width: 1.5;" width="210" x="7" y="157"/><ellipse cx="64.75" cy="177.0938" fill="#ADD1B2" rx="11" ry="11" style="stroke: #A80036; stroke-width: 1.0;"/><path d="M67.5156,172.9688 Q67.6719,172.75 67.8594,172.6406 Q68.0469,172.5313 68.2656,172.5313 Q68.6406,172.5313 68.875,172.7969 Q69.1094,173.0469 69.1094,173.6563 L69.1094,175.1094 Q69.1094,175.7188 68.875,175.9844 Q68.6406,176.25 68.2656,176.25 Q67.9219,176.25 67.7188,176.0469 Q67.5156,175.8594 67.4063,175.3438 Q67.3594,174.9844 67.1719,174.7969 Q66.8438,174.4219 66.2344,174.2031 Q65.625,173.9844 65,173.9844 Q64.2344,173.9844 63.5938,174.3125 Q62.9688,174.6406 62.4688,175.3906 Q61.9844,176.1406 61.9844,177.1719 L61.9844,178.2656 Q61.9844,179.5 62.875,180.3281 Q63.7656,181.1406 65.3594,181.1406 Q66.2969,181.1406 66.9531,180.8906 Q67.3438,180.7344 67.7656,180.2969 Q68.0313,180.0313 68.1719,179.9531 Q68.3281,179.875 68.5313,179.875 Q68.8594,179.875 69.1094,180.1406 Q69.375,180.3906 69.375,180.7344 Q69.375,181.0781 69.0313,181.4844 Q68.5313,182.0625 67.7344,182.3906 Q66.6563,182.8438 65.3594,182.8438 Q63.8438,182.8438 62.6406,182.2188 Q61.6563,181.7188 60.9688,180.6563 Q60.2813,179.5781 60.2813,178.2969 L60.2813,177.1406 Q60.2813,175.8125 60.8906,174.6719 Q61.5156,173.5156 62.6094,172.9063 Q63.7031,172.2813 64.9375,172.2813 Q65.6719,172.2813 66.3125,172.4531 Q66.9688,172.6094 67.5156,172.9688 Z "/><text fill="#000000" font-family="sans-serif" font-size="14" lengthAdjust="spacingAndGlyphs" textLength="52" x="102.25" y="176.5332">Selector</text><text fill="#000000" font-family="sans-serif" font-size="10" lengthAdjust="spacingAndGlyphs" textLength="86" x="85.25" y="189.9902">com.prog.world.UI</text><line style="stroke: #A80036; stroke-width: 1.5;" x1="8" x2="216" y1="197.1875" y2="197.1875"/><ellipse cx="18" cy="208.1875" fill="#84BE84" rx="3" ry="3" style="stroke: #038048; stroke-width: 1.0;"/><text fill="#000000" font-family="sans-serif" font-size="11" lengthAdjust="spacingAndGlyphs" textLength="184" x="27" y="212.6064">Selector(float, float, float, float, String)</text><ellipse cx="18" cy="222.0234" fill="#84BE84" rx="3" ry="3" style="stroke: #038048; stroke-width: 1.0;"/><text fill="#000000" font-family="sans-serif" font-size="11" lengthAdjust="spacingAndGlyphs" textLength="60" x="27" y="226.4424">draw(): void</text><ellipse cx="18" cy="235.8594" fill="#84BE84" rx="3" ry="3" style="stroke: #038048; stroke-width: 1.0;"/><text fill="#000000" font-family="sans-serif" font-size="11" lengthAdjust="spacingAndGlyphs" textLength="67" x="27" y="240.2783">update(): void</text><ellipse cx="18" cy="249.6953" fill="#84BE84" rx="3" ry="3" style="stroke: #038048; stroke-width: 1.0;"/><text fill="#000000" font-family="sans-serif" font-size="11" lengthAdjust="spacingAndGlyphs" textLength="72" x="27" y="254.1143">dispose(): void</text></a><!--MD5=[f989ba781f17cc18e36ce3b4258c656f]
class com.prog.world.UI.UIElement--><a href="..\..\..\..\..\com\prog\world\UI\UIElement.html" target="_top" title="..\..\..\..\..\com\prog\world\UI\UIElement.html" xlink:actuate="onRequest" xlink:href="..\..\..\..\..\com\prog\world\UI\UIElement.html" xlink:show="new" xlink:title="..\..\..\..\..\com\prog\world\UI\UIElement.html" xlink:type="simple"><rect codeLine="12" fill="#FEFECE" filter="url(#f1bokp0ie6gf3t)" height="89.6953" id="com.prog.world.UI.UIElement" style="stroke: #A80036; stroke-width: 1.5;" width="115" x="54.5" y="7"/><ellipse cx="69.5" cy="27.0938" fill="#B4A7E5" rx="11" ry="11" style="stroke: #A80036; stroke-width: 1.0;"/><path d="M70.4531,23.7344 L70.4531,30.3906 L72.1719,30.3906 Q72.7813,30.3906 73.0469,30.625 Q73.3125,30.8594 73.3125,31.25 Q73.3125,31.625 73.0469,31.8594 Q72.7813,32.0938 72.1719,32.0938 L67.0313,32.0938 Q66.4219,32.0938 66.1563,31.8594 Q65.8906,31.625 65.8906,31.2344 Q65.8906,30.8594 66.1563,30.625 Q66.4219,30.3906 67.0313,30.3906 L68.75,30.3906 L68.75,23.7344 L67.0313,23.7344 Q66.4219,23.7344 66.1563,23.5 Q65.8906,23.2656 65.8906,22.875 Q65.8906,22.5 66.1563,22.2656 Q66.4219,22.0313 67.0313,22.0313 L72.1719,22.0313 Q72.7813,22.0313 73.0469,22.2656 Q73.3125,22.5 73.3125,22.875 Q73.3125,23.2656 73.0469,23.5 Q72.7813,23.7344 72.1719,23.7344 L70.4531,23.7344 Z "/><text fill="#000000" font-family="sans-serif" font-size="14" font-style="italic" lengthAdjust="spacingAndGlyphs" textLength="65" x="92.5" y="26.5332">UIElement</text><text fill="#000000" font-family="sans-serif" font-size="10" font-style="italic" lengthAdjust="spacingAndGlyphs" textLength="83" x="83.5" y="39.9902">com.prog.world.UI</text><line style="stroke: #A80036; stroke-width: 1.5;" x1="55.5" x2="168.5" y1="47.1875" y2="47.1875"/><ellipse cx="65.5" cy="58.1875" fill="#84BE84" rx="3" ry="3" style="stroke: #038048; stroke-width: 1.0;"/><text fill="#000000" font-family="sans-serif" font-size="11" font-style="italic" lengthAdjust="spacingAndGlyphs" textLength="57" x="74.5" y="62.6064">draw(): void</text><ellipse cx="65.5" cy="72.0234" fill="#84BE84" rx="3" ry="3" style="stroke: #038048; stroke-width: 1.0;"/><text fill="#000000" font-family="sans-serif" font-size="11" font-style="italic" lengthAdjust="spacingAndGlyphs" textLength="67" x="74.5" y="76.4424">update(): void</text><ellipse cx="65.5" cy="85.8594" fill="#84BE84" rx="3" ry="3" style="stroke: #038048; stroke-width: 1.0;"/><text fill="#000000" font-family="sans-serif" font-size="11" font-style="italic" lengthAdjust="spacingAndGlyphs" textLength="73" x="74.5" y="90.2783">dispose(): void</text></a><!--MD5=[228246723be1523c344e8c4dabfc6231]
reverse link com.prog.world.UI.UIElement to com.prog.world.UI.Selector--><path codeLine="18" d="M112,117.1 C112,130.32 112,144.07 112,156.76 " fill="none" id="com.prog.world.UI.UIElement-backto-com.prog.world.UI.Selector" style="stroke: #A80036; stroke-width: 1.0; stroke-dasharray: 7.0,7.0;"/><polygon fill="none" points="105,117,112,97,119,117,105,117" style="stroke: #A80036; stroke-width: 1.0;"/><text fill="#888888" font-family="sans-serif" font-size="10" lengthAdjust="spacingAndGlyphs" textLength="190" x="14" y="283.9121">UMLDoclet 2.0.12, PlantUML 1.2020.16</text><!--MD5=[fb629cb54c51911fa07bab75419239b8]
@startuml
    set namespaceSeparator none
    hide empty fields
    hide empty methods

    class "<size:14>Selector\n<size:10>com.prog.world.UI" as com.prog.world.UI.Selector [[..\..\..\..\..\com\prog\world\UI\Selector.html]] {
        +Selector(float, float, float, float, String)
        +draw(): void
        +update(): void
        +dispose(): void
    }

    interface "<size:14>UIElement\n<size:10>com.prog.world.UI" as com.prog.world.UI.UIElement [[..\..\..\..\..\com\prog\world\UI\UIElement.html]] {
        {abstract} +draw(): void
        {abstract} +update(): void
        {abstract} +dispose(): void
    }

    com.prog.world.UI.UIElement <|.. com.prog.world.UI.Selector

    center footer UMLDoclet 2.0.12, PlantUML 1.2020.16
@enduml

PlantUML version 1.2020.16(Sun Aug 23 22:20:43 CEST 2020)
(APACHE source distribution)
Java Runtime: Java(TM) SE Runtime Environment
JVM: Java HotSpot(TM) 64-Bit Server VM
Default Encoding: Cp1252
Language: it
Country: IT
--></g></svg>