<?xml version="1.0" encoding="UTF-8" standalone="no"?><svg xmlns="http://www.w3.org/2000/svg" xmlns:xlink="http://www.w3.org/1999/xlink" contentScriptType="application/ecmascript" contentStyleType="text/css" height="169px" preserveAspectRatio="none" style="width:202px;height:169px;" version="1.1" viewBox="0 0 202 169" width="202px" zoomAndPan="magnify"><defs><filter height="300%" id="f1efqaokxayd1b" width="300%" x="-1" y="-1"><feGaussianBlur result="blurOut" stdDeviation="2.0"/><feColorMatrix in="blurOut" result="blurOut2" type="matrix" values="0 0 0 0 0 0 0 0 0 0 0 0 0 0 0 0 0 0 .4 0"/><feOffset dx="4.0" dy="4.0" in="blurOut2" result="blurOut3"/><feBlend in="SourceGraphic" in2="blurOut3" mode="normal"/></filter></defs><g><!--MD5=[549cc097bd0bf7bf6483c6e393f35922]
class com.prog.world.UI.UI--><a href="..\..\..\..\..\com\prog\world\UI\UI.html" target="_top" title="..\..\..\..\..\com\prog\world\UI\UI.html" xlink:actuate="onRequest" xlink:href="..\..\..\..\..\com\prog\world\UI\UI.html" xlink:show="new" xlink:title="..\..\..\..\..\com\prog\world\UI\UI.html" xlink:type="simple"><rect codeLine="5" fill="#FEFECE" filter="url(#f1efqaokxayd1b)" height="131.2031" id="com.prog.world.UI.UI" style="stroke: #A80036; stroke-width: 1.5;" width="124" x="33" y="7"/><ellipse cx="50.7" cy="27.0938" fill="#ADD1B2" rx="11" ry="11" style="stroke: #A80036; stroke-width: 1.0;"/><path d="M53.4656,22.9688 Q53.6219,22.75 53.8094,22.6406 Q53.9969,22.5313 54.2156,22.5313 Q54.5906,22.5313 54.825,22.7969 Q55.0594,23.0469 55.0594,23.6563 L55.0594,25.1094 Q55.0594,25.7188 54.825,25.9844 Q54.5906,26.25 54.2156,26.25 Q53.8719,26.25 53.6688,26.0469 Q53.4656,25.8594 53.3563,25.3438 Q53.3094,24.9844 53.1219,24.7969 Q52.7938,24.4219 52.1844,24.2031 Q51.575,23.9844 50.95,23.9844 Q50.1844,23.9844 49.5438,24.3125 Q48.9188,24.6406 48.4188,25.3906 Q47.9344,26.1406 47.9344,27.1719 L47.9344,28.2656 Q47.9344,29.5 48.825,30.3281 Q49.7156,31.1406 51.3094,31.1406 Q52.2469,31.1406 52.9031,30.8906 Q53.2938,30.7344 53.7156,30.2969 Q53.9813,30.0313 54.1219,29.9531 Q54.2781,29.875 54.4813,29.875 Q54.8094,29.875 55.0594,30.1406 Q55.325,30.3906 55.325,30.7344 Q55.325,31.0781 54.9813,31.4844 Q54.4813,32.0625 53.6844,32.3906 Q52.6063,32.8438 51.3094,32.8438 Q49.7938,32.8438 48.5906,32.2188 Q47.6063,31.7188 46.9188,30.6563 Q46.2313,29.5781 46.2313,28.2969 L46.2313,27.1406 Q46.2313,25.8125 46.8406,24.6719 Q47.4656,23.5156 48.5594,22.9063 Q49.6531,22.2813 50.8875,22.2813 Q51.6219,22.2813 52.2625,22.4531 Q52.9188,22.6094 53.4656,22.9688 Z "/><text fill="#000000" font-family="sans-serif" font-size="14" lengthAdjust="spacingAndGlyphs" textLength="12" x="102.3" y="26.5332">UI</text><text fill="#000000" font-family="sans-serif" font-size="10" lengthAdjust="spacingAndGlyphs" textLength="86" x="65.3" y="39.9902">com.prog.world.UI</text><line style="stroke: #A80036; stroke-width: 1.5;" x1="34" x2="156" y1="47.1875" y2="47.1875"/><ellipse cx="44" cy="58.1875" fill="#84BE84" rx="3" ry="3" style="stroke: #038048; stroke-width: 1.0;"/><text fill="#000000" font-family="sans-serif" font-size="11" lengthAdjust="spacingAndGlyphs" textLength="65" x="53" y="62.6064">UI(float, float)</text><ellipse cx="44" cy="72.0234" fill="#84BE84" rx="3" ry="3" style="stroke: #038048; stroke-width: 1.0;"/><text fill="#000000" font-family="sans-serif" font-size="11" lengthAdjust="spacingAndGlyphs" textLength="60" x="53" y="76.4424">draw(): void</text><ellipse cx="44" cy="85.8594" fill="#84BE84" rx="3" ry="3" style="stroke: #038048; stroke-width: 1.0;"/><text fill="#000000" font-family="sans-serif" font-size="11" lengthAdjust="spacingAndGlyphs" textLength="67" x="53" y="90.2783">update(): void</text><ellipse cx="44" cy="99.6953" fill="#84BE84" rx="3" ry="3" style="stroke: #038048; stroke-width: 1.0;"/><text fill="#000000" font-family="sans-serif" font-size="11" lengthAdjust="spacingAndGlyphs" textLength="92" x="53" y="104.1143">resize(int, int): void</text><ellipse cx="44" cy="113.5313" fill="#84BE84" rx="3" ry="3" style="stroke: #038048; stroke-width: 1.0;"/><text fill="#000000" font-family="sans-serif" font-size="11" lengthAdjust="spacingAndGlyphs" textLength="98" x="53" y="117.9502">add(UIElement): void</text><ellipse cx="44" cy="127.3672" fill="#84BE84" rx="3" ry="3" style="stroke: #038048; stroke-width: 1.0;"/><text fill="#000000" font-family="sans-serif" font-size="11" lengthAdjust="spacingAndGlyphs" textLength="72" x="53" y="131.7861">dispose(): void</text></a><text fill="#888888" font-family="sans-serif" font-size="10" lengthAdjust="spacingAndGlyphs" textLength="190" x="0" y="155.584">UMLDoclet 2.0.12, PlantUML 1.2020.16</text><!--MD5=[60d8d2035c2cb37f78d40e4e6ea32d7a]
@startuml
    set namespaceSeparator none
    hide empty fields
    hide empty methods

    class "<size:14>UI\n<size:10>com.prog.world.UI" as com.prog.world.UI.UI [[..\..\..\..\..\com\prog\world\UI\UI.html]] {
        +UI(float, float)
        +draw(): void
        +update(): void
        +resize(int, int): void
        +add(UIElement): void
        +dispose(): void
    }

    center footer UMLDoclet 2.0.12, PlantUML 1.2020.16
@enduml

PlantUML version 1.2020.16(Sun Aug 23 22:20:43 CEST 2020)
(APACHE source distribution)
Java Runtime: Java(TM) SE Runtime Environment
JVM: Java HotSpot(TM) 64-Bit Server VM
Default Encoding: Cp1252
Language: it
Country: IT
--></g></svg>