<?xml version="1.0" encoding="UTF-8" standalone="no"?><svg xmlns="http://www.w3.org/2000/svg" xmlns:xlink="http://www.w3.org/1999/xlink" contentScriptType="application/ecmascript" contentStyleType="text/css" height="127px" preserveAspectRatio="none" style="width:202px;height:127px;" version="1.1" viewBox="0 0 202 127" width="202px" zoomAndPan="magnify"><defs><filter height="300%" id="ftvqe5o84ibwc" width="300%" x="-1" y="-1"><feGaussianBlur result="blurOut" stdDeviation="2.0"/><feColorMatrix in="blurOut" result="blurOut2" type="matrix" values="0 0 0 0 0 0 0 0 0 0 0 0 0 0 0 0 0 0 .4 0"/><feOffset dx="4.0" dy="4.0" in="blurOut2" result="blurOut3"/><feBlend in="SourceGraphic" in2="blurOut3" mode="normal"/></filter></defs><g><!--MD5=[f989ba781f17cc18e36ce3b4258c656f]
class com.prog.world.UI.UIElement--><a href="..\..\..\..\..\com\prog\world\UI\UIElement.html" target="_top" title="..\..\..\..\..\com\prog\world\UI\UIElement.html" xlink:actuate="onRequest" xlink:href="..\..\..\..\..\com\prog\world\UI\UIElement.html" xlink:show="new" xlink:title="..\..\..\..\..\com\prog\world\UI\UIElement.html" xlink:type="simple"><rect codeLine="5" fill="#FEFECE" filter="url(#ftvqe5o84ibwc)" height="89.6953" id="com.prog.world.UI.UIElement" style="stroke: #A80036; stroke-width: 1.5;" width="115" x="37.5" y="7"/><ellipse cx="52.5" cy="27.0938" fill="#B4A7E5" rx="11" ry="11" style="stroke: #A80036; stroke-width: 1.0;"/><path d="M53.4531,23.7344 L53.4531,30.3906 L55.1719,30.3906 Q55.7813,30.3906 56.0469,30.625 Q56.3125,30.8594 56.3125,31.25 Q56.3125,31.625 56.0469,31.8594 Q55.7813,32.0938 55.1719,32.0938 L50.0313,32.0938 Q49.4219,32.0938 49.1563,31.8594 Q48.8906,31.625 48.8906,31.2344 Q48.8906,30.8594 49.1563,30.625 Q49.4219,30.3906 50.0313,30.3906 L51.75,30.3906 L51.75,23.7344 L50.0313,23.7344 Q49.4219,23.7344 49.1563,23.5 Q48.8906,23.2656 48.8906,22.875 Q48.8906,22.5 49.1563,22.2656 Q49.4219,22.0313 50.0313,22.0313 L55.1719,22.0313 Q55.7813,22.0313 56.0469,22.2656 Q56.3125,22.5 56.3125,22.875 Q56.3125,23.2656 56.0469,23.5 Q55.7813,23.7344 55.1719,23.7344 L53.4531,23.7344 Z "/><text fill="#000000" font-family="sans-serif" font-size="14" font-style="italic" lengthAdjust="spacingAndGlyphs" textLength="65" x="75.5" y="26.5332">UIElement</text><text fill="#000000" font-family="sans-serif" font-size="10" font-style="italic" lengthAdjust="spacingAndGlyphs" textLength="83" x="66.5" y="39.9902">com.prog.world.UI</text><line style="stroke: #A80036; stroke-width: 1.5;" x1="38.5" x2="151.5" y1="47.1875" y2="47.1875"/><ellipse cx="48.5" cy="58.1875" fill="#84BE84" rx="3" ry="3" style="stroke: #038048; stroke-width: 1.0;"/><text fill="#000000" font-family="sans-serif" font-size="11" font-style="italic" lengthAdjust="spacingAndGlyphs" textLength="57" x="57.5" y="62.6064">draw(): void</text><ellipse cx="48.5" cy="72.0234" fill="#84BE84" rx="3" ry="3" style="stroke: #038048; stroke-width: 1.0;"/><text fill="#000000" font-family="sans-serif" font-size="11" font-style="italic" lengthAdjust="spacingAndGlyphs" textLength="67" x="57.5" y="76.4424">update(): void</text><ellipse cx="48.5" cy="85.8594" fill="#84BE84" rx="3" ry="3" style="stroke: #038048; stroke-width: 1.0;"/><text fill="#000000" font-family="sans-serif" font-size="11" font-style="italic" lengthAdjust="spacingAndGlyphs" textLength="73" x="57.5" y="90.2783">dispose(): void</text></a><text fill="#888888" font-family="sans-serif" font-size="10" lengthAdjust="spacingAndGlyphs" textLength="190" x="0" y="114.0762">UMLDoclet 2.0.12, PlantUML 1.2020.16</text><!--MD5=[8b2702854734764976226d03db91cbc4]
@startuml
    set namespaceSeparator none
    hide empty fields
    hide empty methods

    interface "<size:14>UIElement\n<size:10>com.prog.world.UI" as com.prog.world.UI.UIElement [[..\..\..\..\..\com\prog\world\UI\UIElement.html]] {
        {abstract} +draw(): void
        {abstract} +update(): void
        {abstract} +dispose(): void
    }

    center footer UMLDoclet 2.0.12, PlantUML 1.2020.16
@enduml

PlantUML version 1.2020.16(Sun Aug 23 22:20:43 CEST 2020)
(APACHE source distribution)
Java Runtime: Java(TM) SE Runtime Environment
JVM: Java HotSpot(TM) 64-Bit Server VM
Default Encoding: Cp1252
Language: it
Country: IT
--></g></svg>