<?xml version="1.0" encoding="UTF-8" standalone="no"?><svg xmlns="http://www.w3.org/2000/svg" xmlns:xlink="http://www.w3.org/1999/xlink" contentScriptType="application/ecmascript" contentStyleType="text/css" height="297px" preserveAspectRatio="none" style="width:202px;height:297px;" version="1.1" viewBox="0 0 202 297" width="202px" zoomAndPan="magnify"><defs><filter height="300%" id="f1gkgzd1x0p9c8" width="300%" x="-1" y="-1"><feGaussianBlur result="blurOut" stdDeviation="2.0"/><feColorMatrix in="blurOut" result="blurOut2" type="matrix" values="0 0 0 0 0 0 0 0 0 0 0 0 0 0 0 0 0 0 .4 0"/><feOffset dx="4.0" dy="4.0" in="blurOut2" result="blurOut3"/><feBlend in="SourceGraphic" in2="blurOut3" mode="normal"/></filter></defs><g><!--MD5=[d6a948c8bdae931f75aafe430297719c]
class com.prog.world.UI.UIText--><a href="..\..\..\..\..\com\prog\world\UI\UIText.html" target="_top" title="..\..\..\..\..\com\prog\world\UI\UIText.html" xlink:actuate="onRequest" xlink:href="..\..\..\..\..\com\prog\world\UI\UIText.html" xlink:show="new" xlink:title="..\..\..\..\..\com\prog\world\UI\UIText.html" xlink:type="simple"><rect codeLine="5" fill="#FEFECE" filter="url(#f1gkgzd1x0p9c8)" height="103.5313" id="com.prog.world.UI.UIText" style="stroke: #A80036; stroke-width: 1.5;" width="166" x="15" y="157"/><ellipse cx="51.6" cy="177.0938" fill="#ADD1B2" rx="11" ry="11" style="stroke: #A80036; stroke-width: 1.0;"/><path d="M54.3656,172.9688 Q54.5219,172.75 54.7094,172.6406 Q54.8969,172.5313 55.1156,172.5313 Q55.4906,172.5313 55.725,172.7969 Q55.9594,173.0469 55.9594,173.6563 L55.9594,175.1094 Q55.9594,175.7188 55.725,175.9844 Q55.4906,176.25 55.1156,176.25 Q54.7719,176.25 54.5688,176.0469 Q54.3656,175.8594 54.2563,175.3438 Q54.2094,174.9844 54.0219,174.7969 Q53.6938,174.4219 53.0844,174.2031 Q52.475,173.9844 51.85,173.9844 Q51.0844,173.9844 50.4438,174.3125 Q49.8188,174.6406 49.3188,175.3906 Q48.8344,176.1406 48.8344,177.1719 L48.8344,178.2656 Q48.8344,179.5 49.725,180.3281 Q50.6156,181.1406 52.2094,181.1406 Q53.1469,181.1406 53.8031,180.8906 Q54.1938,180.7344 54.6156,180.2969 Q54.8813,180.0313 55.0219,179.9531 Q55.1781,179.875 55.3813,179.875 Q55.7094,179.875 55.9594,180.1406 Q56.225,180.3906 56.225,180.7344 Q56.225,181.0781 55.8813,181.4844 Q55.3813,182.0625 54.5844,182.3906 Q53.5063,182.8438 52.2094,182.8438 Q50.6938,182.8438 49.4906,182.2188 Q48.5063,181.7188 47.8188,180.6563 Q47.1313,179.5781 47.1313,178.2969 L47.1313,177.1406 Q47.1313,175.8125 47.7406,174.6719 Q48.3656,173.5156 49.4594,172.9063 Q50.5531,172.2813 51.7875,172.2813 Q52.5219,172.2813 53.1625,172.4531 Q53.8188,172.6094 54.3656,172.9688 Z "/><text fill="#000000" font-family="sans-serif" font-size="14" lengthAdjust="spacingAndGlyphs" textLength="39" x="93.9" y="176.5332">UIText</text><text fill="#000000" font-family="sans-serif" font-size="10" lengthAdjust="spacingAndGlyphs" textLength="86" x="70.4" y="189.9902">com.prog.world.UI</text><line style="stroke: #A80036; stroke-width: 1.5;" x1="16" x2="180" y1="197.1875" y2="197.1875"/><ellipse cx="26" cy="208.1875" fill="#84BE84" rx="3" ry="3" style="stroke: #038048; stroke-width: 1.0;"/><text fill="#000000" font-family="sans-serif" font-size="11" lengthAdjust="spacingAndGlyphs" textLength="140" x="35" y="212.6064">UIText(float, float, float, float)</text><ellipse cx="26" cy="222.0234" fill="#84BE84" rx="3" ry="3" style="stroke: #038048; stroke-width: 1.0;"/><text fill="#000000" font-family="sans-serif" font-size="11" lengthAdjust="spacingAndGlyphs" textLength="60" x="35" y="226.4424">draw(): void</text><ellipse cx="26" cy="235.8594" fill="#84BE84" rx="3" ry="3" style="stroke: #038048; stroke-width: 1.0;"/><text fill="#000000" font-family="sans-serif" font-size="11" lengthAdjust="spacingAndGlyphs" textLength="72" x="35" y="240.2783">dispose(): void</text><ellipse cx="26" cy="249.6953" fill="#84BE84" rx="3" ry="3" style="stroke: #038048; stroke-width: 1.0;"/><text fill="#000000" font-family="sans-serif" font-size="11" lengthAdjust="spacingAndGlyphs" textLength="67" x="35" y="254.1143">update(): void</text></a><!--MD5=[f989ba781f17cc18e36ce3b4258c656f]
class com.prog.world.UI.UIElement--><a href="..\..\..\..\..\com\prog\world\UI\UIElement.html" target="_top" title="..\..\..\..\..\com\prog\world\UI\UIElement.html" xlink:actuate="onRequest" xlink:href="..\..\..\..\..\com\prog\world\UI\UIElement.html" xlink:show="new" xlink:title="..\..\..\..\..\com\prog\world\UI\UIElement.html" xlink:type="simple"><rect codeLine="12" fill="#FEFECE" filter="url(#f1gkgzd1x0p9c8)" height="89.6953" id="com.prog.world.UI.UIElement" style="stroke: #A80036; stroke-width: 1.5;" width="115" x="40.5" y="7"/><ellipse cx="55.5" cy="27.0938" fill="#B4A7E5" rx="11" ry="11" style="stroke: #A80036; stroke-width: 1.0;"/><path d="M56.4531,23.7344 L56.4531,30.3906 L58.1719,30.3906 Q58.7813,30.3906 59.0469,30.625 Q59.3125,30.8594 59.3125,31.25 Q59.3125,31.625 59.0469,31.8594 Q58.7813,32.0938 58.1719,32.0938 L53.0313,32.0938 Q52.4219,32.0938 52.1563,31.8594 Q51.8906,31.625 51.8906,31.2344 Q51.8906,30.8594 52.1563,30.625 Q52.4219,30.3906 53.0313,30.3906 L54.75,30.3906 L54.75,23.7344 L53.0313,23.7344 Q52.4219,23.7344 52.1563,23.5 Q51.8906,23.2656 51.8906,22.875 Q51.8906,22.5 52.1563,22.2656 Q52.4219,22.0313 53.0313,22.0313 L58.1719,22.0313 Q58.7813,22.0313 59.0469,22.2656 Q59.3125,22.5 59.3125,22.875 Q59.3125,23.2656 59.0469,23.5 Q58.7813,23.7344 58.1719,23.7344 L56.4531,23.7344 Z "/><text fill="#000000" font-family="sans-serif" font-size="14" font-style="italic" lengthAdjust="spacingAndGlyphs" textLength="65" x="78.5" y="26.5332">UIElement</text><text fill="#000000" font-family="sans-serif" font-size="10" font-style="italic" lengthAdjust="spacingAndGlyphs" textLength="83" x="69.5" y="39.9902">com.prog.world.UI</text><line style="stroke: #A80036; stroke-width: 1.5;" x1="41.5" x2="154.5" y1="47.1875" y2="47.1875"/><ellipse cx="51.5" cy="58.1875" fill="#84BE84" rx="3" ry="3" style="stroke: #038048; stroke-width: 1.0;"/><text fill="#000000" font-family="sans-serif" font-size="11" font-style="italic" lengthAdjust="spacingAndGlyphs" textLength="57" x="60.5" y="62.6064">draw(): void</text><ellipse cx="51.5" cy="72.0234" fill="#84BE84" rx="3" ry="3" style="stroke: #038048; stroke-width: 1.0;"/><text fill="#000000" font-family="sans-serif" font-size="11" font-style="italic" lengthAdjust="spacingAndGlyphs" textLength="67" x="60.5" y="76.4424">update(): void</text><ellipse cx="51.5" cy="85.8594" fill="#84BE84" rx="3" ry="3" style="stroke: #038048; stroke-width: 1.0;"/><text fill="#000000" font-family="sans-serif" font-size="11" font-style="italic" lengthAdjust="spacingAndGlyphs" textLength="73" x="60.5" y="90.2783">dispose(): void</text></a><!--MD5=[a15acaf9c72a4e74ed5430e484e745fa]
reverse link com.prog.world.UI.UIElement to com.prog.world.UI.UIText--><path codeLine="18" d="M98,117.1 C98,130.32 98,144.07 98,156.76 " fill="none" id="com.prog.world.UI.UIElement-backto-com.prog.world.UI.UIText" style="stroke: #A80036; stroke-width: 1.0; stroke-dasharray: 7.0,7.0;"/><polygon fill="none" points="91,117,98,97,105,117,91,117" style="stroke: #A80036; stroke-width: 1.0;"/><text fill="#888888" font-family="sans-serif" font-size="10" lengthAdjust="spacingAndGlyphs" textLength="190" x="0" y="283.9121">UMLDoclet 2.0.12, PlantUML 1.2020.16</text><!--MD5=[f494b2de6a49757d3639dea31848d52e]
@startuml
    set namespaceSeparator none
    hide empty fields
    hide empty methods

    class "<size:14>UIText\n<size:10>com.prog.world.UI" as com.prog.world.UI.UIText [[..\..\..\..\..\com\prog\world\UI\UIText.html]] {
        +UIText(float, float, float, float)
        +draw(): void
        +dispose(): void
        +update(): void
    }

    interface "<size:14>UIElement\n<size:10>com.prog.world.UI" as com.prog.world.UI.UIElement [[..\..\..\..\..\com\prog\world\UI\UIElement.html]] {
        {abstract} +draw(): void
        {abstract} +update(): void
        {abstract} +dispose(): void
    }

    com.prog.world.UI.UIElement <|.. com.prog.world.UI.UIText

    center footer UMLDoclet 2.0.12, PlantUML 1.2020.16
@enduml

PlantUML version 1.2020.16(Sun Aug 23 22:20:43 CEST 2020)
(APACHE source distribution)
Java Runtime: Java(TM) SE Runtime Environment
JVM: Java HotSpot(TM) 64-Bit Server VM
Default Encoding: Cp1252
Language: it
Country: IT
--></g></svg>