<?xml version="1.0" encoding="UTF-8" standalone="no"?><svg xmlns="http://www.w3.org/2000/svg" xmlns:xlink="http://www.w3.org/1999/xlink" contentScriptType="application/ecmascript" contentStyleType="text/css" height="325px" preserveAspectRatio="none" style="width:255px;height:325px;" version="1.1" viewBox="0 0 255 325" width="255px" zoomAndPan="magnify"><defs><filter height="300%" id="fw1hve140efet" width="300%" x="-1" y="-1"><feGaussianBlur result="blurOut" stdDeviation="2.0"/><feColorMatrix in="blurOut" result="blurOut2" type="matrix" values="0 0 0 0 0 0 0 0 0 0 0 0 0 0 0 0 0 0 .4 0"/><feOffset dx="4.0" dy="4.0" in="blurOut2" result="blurOut3"/><feBlend in="SourceGraphic" in2="blurOut3" mode="normal"/></filter></defs><g><!--MD5=[7edf659de1532412ed9aaf8019e88474]
class com.prog.collision.MenuContactListener--><a href="..\..\..\..\com\prog\collision\MenuContactListener.html" target="_top" title="..\..\..\..\com\prog\collision\MenuContactListener.html" xlink:actuate="onRequest" xlink:href="..\..\..\..\com\prog\collision\MenuContactListener.html" xlink:show="new" xlink:title="..\..\..\..\com\prog\collision\MenuContactListener.html" xlink:type="simple"><rect codeLine="5" fill="#FEFECE" filter="url(#fw1hve140efet)" height="117.3672" id="com.prog.collision.MenuContactListener" style="stroke: #A80036; stroke-width: 1.5;" width="224" x="9.5" y="171"/><ellipse cx="50.15" cy="191.0938" fill="#ADD1B2" rx="11" ry="11" style="stroke: #A80036; stroke-width: 1.0;"/><path d="M52.9156,186.9688 Q53.0719,186.75 53.2594,186.6406 Q53.4469,186.5313 53.6656,186.5313 Q54.0406,186.5313 54.275,186.7969 Q54.5094,187.0469 54.5094,187.6563 L54.5094,189.1094 Q54.5094,189.7188 54.275,189.9844 Q54.0406,190.25 53.6656,190.25 Q53.3219,190.25 53.1188,190.0469 Q52.9156,189.8594 52.8063,189.3438 Q52.7594,188.9844 52.5719,188.7969 Q52.2438,188.4219 51.6344,188.2031 Q51.025,187.9844 50.4,187.9844 Q49.6344,187.9844 48.9938,188.3125 Q48.3688,188.6406 47.8688,189.3906 Q47.3844,190.1406 47.3844,191.1719 L47.3844,192.2656 Q47.3844,193.5 48.275,194.3281 Q49.1656,195.1406 50.7594,195.1406 Q51.6969,195.1406 52.3531,194.8906 Q52.7438,194.7344 53.1656,194.2969 Q53.4313,194.0313 53.5719,193.9531 Q53.7281,193.875 53.9313,193.875 Q54.2594,193.875 54.5094,194.1406 Q54.775,194.3906 54.775,194.7344 Q54.775,195.0781 54.4313,195.4844 Q53.9313,196.0625 53.1344,196.3906 Q52.0563,196.8438 50.7594,196.8438 Q49.2438,196.8438 48.0406,196.2188 Q47.0563,195.7188 46.3688,194.6563 Q45.6813,193.5781 45.6813,192.2969 L45.6813,191.1406 Q45.6813,189.8125 46.2906,188.6719 Q46.9156,187.5156 48.0094,186.9063 Q49.1031,186.2813 50.3375,186.2813 Q51.0719,186.2813 51.7125,186.4531 Q52.3688,186.6094 52.9156,186.9688 Z "/><text fill="#000000" font-family="sans-serif" font-size="14" lengthAdjust="spacingAndGlyphs" textLength="135" x="69.85" y="190.5332">MenuContactListener</text><text fill="#000000" font-family="sans-serif" font-size="10" lengthAdjust="spacingAndGlyphs" textLength="88" x="93.35" y="203.9902">com.prog.collision</text><line style="stroke: #A80036; stroke-width: 1.5;" x1="10.5" x2="232.5" y1="211.1875" y2="211.1875"/><ellipse cx="20.5" cy="222.1875" fill="#84BE84" rx="3" ry="3" style="stroke: #038048; stroke-width: 1.0;"/><text fill="#000000" font-family="sans-serif" font-size="11" lengthAdjust="spacingAndGlyphs" textLength="134" x="29.5" y="226.6064">beginContact(Contact): void</text><ellipse cx="20.5" cy="236.0234" fill="#84BE84" rx="3" ry="3" style="stroke: #038048; stroke-width: 1.0;"/><text fill="#000000" font-family="sans-serif" font-size="11" lengthAdjust="spacingAndGlyphs" textLength="126" x="29.5" y="240.4424">endContact(Contact): void</text><ellipse cx="20.5" cy="249.8594" fill="#84BE84" rx="3" ry="3" style="stroke: #038048; stroke-width: 1.0;"/><text fill="#000000" font-family="sans-serif" font-size="11" lengthAdjust="spacingAndGlyphs" textLength="160" x="29.5" y="254.2783">preSolve(Contact, Manifold): void</text><ellipse cx="20.5" cy="263.6953" fill="#84BE84" rx="3" ry="3" style="stroke: #038048; stroke-width: 1.0;"/><text fill="#000000" font-family="sans-serif" font-size="11" lengthAdjust="spacingAndGlyphs" textLength="198" x="29.5" y="268.1143">postSolve(Contact, ContactImpulse): void</text><ellipse cx="20.5" cy="277.5313" fill="#84BE84" rx="3" ry="3" style="stroke: #038048; stroke-width: 1.0;"/><text fill="#000000" font-family="sans-serif" font-size="11" lengthAdjust="spacingAndGlyphs" textLength="104" x="29.5" y="281.9502">getCollided(): boolean</text></a><!--MD5=[c704a8b41d7f9c15d9480e184d43275f]
class com.badlogic.gdx.physics.box2d.ContactListener--><rect codeLine="13" fill="#FEFECE" filter="url(#fw1hve140efet)" height="103.5313" id="com.badlogic.gdx.physics.box2d.ContactListener" style="stroke: #A80036; stroke-width: 1.5;" width="229" x="7" y="7"/><ellipse cx="42.25" cy="27.0938" fill="#B4A7E5" rx="11" ry="11" style="stroke: #A80036; stroke-width: 1.0;"/><path d="M43.2031,23.7344 L43.2031,30.3906 L44.9219,30.3906 Q45.5313,30.3906 45.7969,30.625 Q46.0625,30.8594 46.0625,31.25 Q46.0625,31.625 45.7969,31.8594 Q45.5313,32.0938 44.9219,32.0938 L39.7813,32.0938 Q39.1719,32.0938 38.9063,31.8594 Q38.6406,31.625 38.6406,31.2344 Q38.6406,30.8594 38.9063,30.625 Q39.1719,30.3906 39.7813,30.3906 L41.5,30.3906 L41.5,23.7344 L39.7813,23.7344 Q39.1719,23.7344 38.9063,23.5 Q38.6406,23.2656 38.6406,22.875 Q38.6406,22.5 38.9063,22.2656 Q39.1719,22.0313 39.7813,22.0313 L44.9219,22.0313 Q45.5313,22.0313 45.7969,22.2656 Q46.0625,22.5 46.0625,22.875 Q46.0625,23.2656 45.7969,23.5 Q45.5313,23.7344 44.9219,23.7344 L43.2031,23.7344 Z "/><text fill="#000000" font-family="sans-serif" font-size="14" font-style="italic" lengthAdjust="spacingAndGlyphs" textLength="100" x="86.75" y="26.5332">ContactListener</text><text fill="#000000" font-family="sans-serif" font-size="10" font-style="italic" lengthAdjust="spacingAndGlyphs" textLength="152" x="60.75" y="39.9902">com.badlogic.gdx.physics.box2d</text><line style="stroke: #A80036; stroke-width: 1.5;" x1="8" x2="235" y1="47.1875" y2="47.1875"/><ellipse cx="18" cy="58.1875" fill="#84BE84" rx="3" ry="3" style="stroke: #038048; stroke-width: 1.0;"/><text fill="#000000" font-family="sans-serif" font-size="11" font-style="italic" lengthAdjust="spacingAndGlyphs" textLength="138" x="27" y="62.6064">beginContact(Contact): void</text><ellipse cx="18" cy="72.0234" fill="#84BE84" rx="3" ry="3" style="stroke: #038048; stroke-width: 1.0;"/><text fill="#000000" font-family="sans-serif" font-size="11" font-style="italic" lengthAdjust="spacingAndGlyphs" textLength="128" x="27" y="76.4424">endContact(Contact): void</text><ellipse cx="18" cy="85.8594" fill="#84BE84" rx="3" ry="3" style="stroke: #038048; stroke-width: 1.0;"/><text fill="#000000" font-family="sans-serif" font-size="11" font-style="italic" lengthAdjust="spacingAndGlyphs" textLength="163" x="27" y="90.2783">preSolve(Contact, Manifold): void</text><ellipse cx="18" cy="99.6953" fill="#84BE84" rx="3" ry="3" style="stroke: #038048; stroke-width: 1.0;"/><text fill="#000000" font-family="sans-serif" font-size="11" font-style="italic" lengthAdjust="spacingAndGlyphs" textLength="203" x="27" y="104.1143">postSolve(Contact, ContactImpulse): void</text><!--MD5=[c5f710662ae052176d7708b860fcb3eb]
reverse link com.badlogic.gdx.physics.box2d.ContactListener to com.prog.collision.MenuContactListener--><path codeLine="20" d="M121.5,131.24 C121.5,144.46 121.5,158.12 121.5,170.88 " fill="none" id="com.badlogic.gdx.physics.box2d.ContactListener-backto-com.prog.collision.MenuContactListener" style="stroke: #A80036; stroke-width: 1.0; stroke-dasharray: 7.0,7.0;"/><polygon fill="none" points="114.5,131.01,121.5,111.01,128.5,131.01,114.5,131.01" style="stroke: #A80036; stroke-width: 1.0;"/><text fill="#888888" font-family="sans-serif" font-size="10" lengthAdjust="spacingAndGlyphs" textLength="190" x="23.5" y="311.748">UMLDoclet 2.0.12, PlantUML 1.2020.16</text><!--MD5=[3398fa8f170b1a964a3f7f3c5bba712c]
@startuml
    set namespaceSeparator none
    hide empty fields
    hide empty methods

    class "<size:14>MenuContactListener\n<size:10>com.prog.collision" as com.prog.collision.MenuContactListener [[..\..\..\..\com\prog\collision\MenuContactListener.html]] {
        +beginContact(Contact): void
        +endContact(Contact): void
        +preSolve(Contact, Manifold): void
        +postSolve(Contact, ContactImpulse): void
        +getCollided(): boolean
    }

    interface "<size:14>ContactListener\n<size:10>com.badlogic.gdx.physics.box2d" as com.badlogic.gdx.physics.box2d.ContactListener {
        {abstract} +beginContact(Contact): void
        {abstract} +endContact(Contact): void
        {abstract} +preSolve(Contact, Manifold): void
        {abstract} +postSolve(Contact, ContactImpulse): void
    }

    com.badlogic.gdx.physics.box2d.ContactListener <|.. com.prog.collision.MenuContactListener

    center footer UMLDoclet 2.0.12, PlantUML 1.2020.16
@enduml

PlantUML version 1.2020.16(Sun Aug 23 22:20:43 CEST 2020)
(APACHE source distribution)
Java Runtime: Java(TM) SE Runtime Environment
JVM: Java HotSpot(TM) 64-Bit Server VM
Default Encoding: Cp1252
Language: it
Country: IT
--></g></svg>