<?xml version="1.0" encoding="UTF-8" standalone="no"?><svg xmlns="http://www.w3.org/2000/svg" xmlns:xlink="http://www.w3.org/1999/xlink" contentScriptType="application/ecmascript" contentStyleType="text/css" height="325px" preserveAspectRatio="none" style="width:255px;height:325px;" version="1.1" viewBox="0 0 255 325" width="255px" zoomAndPan="magnify"><defs><filter height="300%" id="f7mgc37tpxl7j" width="300%" x="-1" y="-1"><feGaussianBlur result="blurOut" stdDeviation="2.0"/><feColorMatrix in="blurOut" result="blurOut2" type="matrix" values="0 0 0 0 0 0 0 0 0 0 0 0 0 0 0 0 0 0 .4 0"/><feOffset dx="4.0" dy="4.0" in="blurOut2" result="blurOut3"/><feBlend in="SourceGraphic" in2="blurOut3" mode="normal"/></filter></defs><g><!--MD5=[a83c4ba5f7fa6c9a7c44263ccc81c46f]
class com.prog.collision.OpzioniContactListener--><a href="..\..\..\..\com\prog\collision\OpzioniContactListener.html" target="_top" title="..\..\..\..\com\prog\collision\OpzioniContactListener.html" xlink:actuate="onRequest" xlink:href="..\..\..\..\com\prog\collision\OpzioniContactListener.html" xlink:show="new" xlink:title="..\..\..\..\com\prog\collision\OpzioniContactListener.html" xlink:type="simple"><rect codeLine="5" fill="#FEFECE" filter="url(#f7mgc37tpxl7j)" height="117.3672" id="com.prog.collision.OpzioniContactListener" style="stroke: #A80036; stroke-width: 1.5;" width="224" x="9.5" y="171"/><ellipse cx="44.75" cy="191.0938" fill="#ADD1B2" rx="11" ry="11" style="stroke: #A80036; stroke-width: 1.0;"/><path d="M47.5156,186.9688 Q47.6719,186.75 47.8594,186.6406 Q48.0469,186.5313 48.2656,186.5313 Q48.6406,186.5313 48.875,186.7969 Q49.1094,187.0469 49.1094,187.6563 L49.1094,189.1094 Q49.1094,189.7188 48.875,189.9844 Q48.6406,190.25 48.2656,190.25 Q47.9219,190.25 47.7188,190.0469 Q47.5156,189.8594 47.4063,189.3438 Q47.3594,188.9844 47.1719,188.7969 Q46.8438,188.4219 46.2344,188.2031 Q45.625,187.9844 45,187.9844 Q44.2344,187.9844 43.5938,188.3125 Q42.9688,188.6406 42.4688,189.3906 Q41.9844,190.1406 41.9844,191.1719 L41.9844,192.2656 Q41.9844,193.5 42.875,194.3281 Q43.7656,195.1406 45.3594,195.1406 Q46.2969,195.1406 46.9531,194.8906 Q47.3438,194.7344 47.7656,194.2969 Q48.0313,194.0313 48.1719,193.9531 Q48.3281,193.875 48.5313,193.875 Q48.8594,193.875 49.1094,194.1406 Q49.375,194.3906 49.375,194.7344 Q49.375,195.0781 49.0313,195.4844 Q48.5313,196.0625 47.7344,196.3906 Q46.6563,196.8438 45.3594,196.8438 Q43.8438,196.8438 42.6406,196.2188 Q41.6563,195.7188 40.9688,194.6563 Q40.2813,193.5781 40.2813,192.2969 L40.2813,191.1406 Q40.2813,189.8125 40.8906,188.6719 Q41.5156,187.5156 42.6094,186.9063 Q43.7031,186.2813 44.9375,186.2813 Q45.6719,186.2813 46.3125,186.4531 Q46.9688,186.6094 47.5156,186.9688 Z "/><text fill="#000000" font-family="sans-serif" font-size="14" lengthAdjust="spacingAndGlyphs" textLength="147" x="63.25" y="190.5332">OpzioniContactListener</text><text fill="#000000" font-family="sans-serif" font-size="10" lengthAdjust="spacingAndGlyphs" textLength="88" x="92.75" y="203.9902">com.prog.collision</text><line style="stroke: #A80036; stroke-width: 1.5;" x1="10.5" x2="232.5" y1="211.1875" y2="211.1875"/><ellipse cx="20.5" cy="222.1875" fill="#84BE84" rx="3" ry="3" style="stroke: #038048; stroke-width: 1.0;"/><text fill="#000000" font-family="sans-serif" font-size="11" lengthAdjust="spacingAndGlyphs" textLength="134" x="29.5" y="226.6064">beginContact(Contact): void</text><ellipse cx="20.5" cy="236.0234" fill="#84BE84" rx="3" ry="3" style="stroke: #038048; stroke-width: 1.0;"/><text fill="#000000" font-family="sans-serif" font-size="11" lengthAdjust="spacingAndGlyphs" textLength="126" x="29.5" y="240.4424">endContact(Contact): void</text><ellipse cx="20.5" cy="249.8594" fill="#84BE84" rx="3" ry="3" style="stroke: #038048; stroke-width: 1.0;"/><text fill="#000000" font-family="sans-serif" font-size="11" lengthAdjust="spacingAndGlyphs" textLength="160" x="29.5" y="254.2783">preSolve(Contact, Manifold): void</text><ellipse cx="20.5" cy="263.6953" fill="#84BE84" rx="3" ry="3" style="stroke: #038048; stroke-width: 1.0;"/><text fill="#000000" font-family="sans-serif" font-size="11" lengthAdjust="spacingAndGlyphs" textLength="198" x="29.5" y="268.1143">postSolve(Contact, ContactImpulse): void</text><ellipse cx="20.5" cy="277.5313" fill="#84BE84" rx="3" ry="3" style="stroke: #038048; stroke-width: 1.0;"/><text fill="#000000" font-family="sans-serif" font-size="11" lengthAdjust="spacingAndGlyphs" textLength="104" x="29.5" y="281.9502">getCollided(): boolean</text></a><!--MD5=[c704a8b41d7f9c15d9480e184d43275f]
class com.badlogic.gdx.physics.box2d.ContactListener--><rect codeLine="13" fill="#FEFECE" filter="url(#f7mgc37tpxl7j)" height="103.5313" id="com.badlogic.gdx.physics.box2d.ContactListener" style="stroke: #A80036; stroke-width: 1.5;" width="229" x="7" y="7"/><ellipse cx="42.25" cy="27.0938" fill="#B4A7E5" rx="11" ry="11" style="stroke: #A80036; stroke-width: 1.0;"/><path d="M43.2031,23.7344 L43.2031,30.3906 L44.9219,30.3906 Q45.5313,30.3906 45.7969,30.625 Q46.0625,30.8594 46.0625,31.25 Q46.0625,31.625 45.7969,31.8594 Q45.5313,32.0938 44.9219,32.0938 L39.7813,32.0938 Q39.1719,32.0938 38.9063,31.8594 Q38.6406,31.625 38.6406,31.2344 Q38.6406,30.8594 38.9063,30.625 Q39.1719,30.3906 39.7813,30.3906 L41.5,30.3906 L41.5,23.7344 L39.7813,23.7344 Q39.1719,23.7344 38.9063,23.5 Q38.6406,23.2656 38.6406,22.875 Q38.6406,22.5 38.9063,22.2656 Q39.1719,22.0313 39.7813,22.0313 L44.9219,22.0313 Q45.5313,22.0313 45.7969,22.2656 Q46.0625,22.5 46.0625,22.875 Q46.0625,23.2656 45.7969,23.5 Q45.5313,23.7344 44.9219,23.7344 L43.2031,23.7344 Z "/><text fill="#000000" font-family="sans-serif" font-size="14" font-style="italic" lengthAdjust="spacingAndGlyphs" textLength="100" x="86.75" y="26.5332">ContactListener</text><text fill="#000000" font-family="sans-serif" font-size="10" font-style="italic" lengthAdjust="spacingAndGlyphs" textLength="152" x="60.75" y="39.9902">com.badlogic.gdx.physics.box2d</text><line style="stroke: #A80036; stroke-width: 1.5;" x1="8" x2="235" y1="47.1875" y2="47.1875"/><ellipse cx="18" cy="58.1875" fill="#84BE84" rx="3" ry="3" style="stroke: #038048; stroke-width: 1.0;"/><text fill="#000000" font-family="sans-serif" font-size="11" font-style="italic" lengthAdjust="spacingAndGlyphs" textLength="138" x="27" y="62.6064">beginContact(Contact): void</text><ellipse cx="18" cy="72.0234" fill="#84BE84" rx="3" ry="3" style="stroke: #038048; stroke-width: 1.0;"/><text fill="#000000" font-family="sans-serif" font-size="11" font-style="italic" lengthAdjust="spacingAndGlyphs" textLength="128" x="27" y="76.4424">endContact(Contact): void</text><ellipse cx="18" cy="85.8594" fill="#84BE84" rx="3" ry="3" style="stroke: #038048; stroke-width: 1.0;"/><text fill="#000000" font-family="sans-serif" font-size="11" font-style="italic" lengthAdjust="spacingAndGlyphs" textLength="163" x="27" y="90.2783">preSolve(Contact, Manifold): void</text><ellipse cx="18" cy="99.6953" fill="#84BE84" rx="3" ry="3" style="stroke: #038048; stroke-width: 1.0;"/><text fill="#000000" font-family="sans-serif" font-size="11" font-style="italic" lengthAdjust="spacingAndGlyphs" textLength="203" x="27" y="104.1143">postSolve(Contact, ContactImpulse): void</text><!--MD5=[4850b7f9f6bf7beafec12a919e651976]
reverse link com.badlogic.gdx.physics.box2d.ContactListener to com.prog.collision.OpzioniContactListener--><path codeLine="20" d="M121.5,131.24 C121.5,144.46 121.5,158.12 121.5,170.88 " fill="none" id="com.badlogic.gdx.physics.box2d.ContactListener-backto-com.prog.collision.OpzioniContactListener" style="stroke: #A80036; stroke-width: 1.0; stroke-dasharray: 7.0,7.0;"/><polygon fill="none" points="114.5,131.01,121.5,111.01,128.5,131.01,114.5,131.01" style="stroke: #A80036; stroke-width: 1.0;"/><text fill="#888888" font-family="sans-serif" font-size="10" lengthAdjust="spacingAndGlyphs" textLength="190" x="23.5" y="311.748">UMLDoclet 2.0.12, PlantUML 1.2020.16</text><!--MD5=[297a68a11354105981ec6e38a632d9c5]
@startuml
    set namespaceSeparator none
    hide empty fields
    hide empty methods

    class "<size:14>OpzioniContactListener\n<size:10>com.prog.collision" as com.prog.collision.OpzioniContactListener [[..\..\..\..\com\prog\collision\OpzioniContactListener.html]] {
        +beginContact(Contact): void
        +endContact(Contact): void
        +preSolve(Contact, Manifold): void
        +postSolve(Contact, ContactImpulse): void
        +getCollided(): boolean
    }

    interface "<size:14>ContactListener\n<size:10>com.badlogic.gdx.physics.box2d" as com.badlogic.gdx.physics.box2d.ContactListener {
        {abstract} +beginContact(Contact): void
        {abstract} +endContact(Contact): void
        {abstract} +preSolve(Contact, Manifold): void
        {abstract} +postSolve(Contact, ContactImpulse): void
    }

    com.badlogic.gdx.physics.box2d.ContactListener <|.. com.prog.collision.OpzioniContactListener

    center footer UMLDoclet 2.0.12, PlantUML 1.2020.16
@enduml

PlantUML version 1.2020.16(Sun Aug 23 22:20:43 CEST 2020)
(APACHE source distribution)
Java Runtime: Java(TM) SE Runtime Environment
JVM: Java HotSpot(TM) 64-Bit Server VM
Default Encoding: Cp1252
Language: it
Country: IT
--></g></svg>