<?xml version="1.0" encoding="UTF-8" standalone="no"?><svg xmlns="http://www.w3.org/2000/svg" xmlns:xlink="http://www.w3.org/1999/xlink" contentScriptType="application/ecmascript" contentStyleType="text/css" height="383px" preserveAspectRatio="none" style="width:812px;height:383px;" version="1.1" viewBox="0 0 812 383" width="812px" zoomAndPan="magnify"><defs><filter height="300%" id="fyn3n7dax2i8a" width="300%" x="-1" y="-1"><feGaussianBlur result="blurOut" stdDeviation="2.0"/><feColorMatrix in="blurOut" result="blurOut2" type="matrix" values="0 0 0 0 0 0 0 0 0 0 0 0 0 0 0 0 0 0 .4 0"/><feOffset dx="4.0" dy="4.0" in="blurOut2" result="blurOut3"/><feBlend in="SourceGraphic" in2="blurOut3" mode="normal"/></filter></defs><g><!--MD5=[86b665edadd02bb7c34f9a8050a757e8]
cluster com.prog.collision--><polygon fill="#FFFFFF" filter="url(#fyn3n7dax2i8a)" points="16,185,151,185,158,208.6094,790,208.6094,790,354,16,354,16,185" style="stroke: #000000; stroke-width: 1.5;"/><line style="stroke: #000000; stroke-width: 1.5;" x1="16" x2="158" y1="208.6094" y2="208.6094"/><text fill="#000000" font-family="sans-serif" font-size="14" font-weight="bold" lengthAdjust="spacingAndGlyphs" textLength="129" x="20" y="201.5332">com.prog.collision</text><!--MD5=[04e4ae182fa8751b09c7fed6b7c55326]
cluster com.badlogic.gdx.physics.box2d--><polygon fill="#FFFFFF" filter="url(#fyn3n7dax2i8a)" points="272,6,505,6,512,29.6094,534,29.6094,534,161,272,161,272,6" style="stroke: #000000; stroke-width: 1.5;"/><line style="stroke: #000000; stroke-width: 1.5;" x1="272" x2="512" y1="29.6094" y2="29.6094"/><text fill="#000000" font-family="sans-serif" font-size="14" font-weight="bold" lengthAdjust="spacingAndGlyphs" textLength="227" x="276" y="22.5332">com.badlogic.gdx.physics.box2d</text><!--MD5=[b23613351c53661fad2b0abc6bc0a719]
class com.prog.collision.LevelContactListener--><a href="file:/C:/Users/Utente/Desktop/Evilian/core/build/docs/javadoc/com/prog/collision/LevelContactListener.html" target="_top" title="file:/C:/Users/Utente/Desktop/Evilian/core/build/docs/javadoc/com/prog/collision/LevelContactListener.html" xlink:actuate="onRequest" xlink:href="file:/C:/Users/Utente/Desktop/Evilian/core/build/docs/javadoc/com/prog/collision/LevelContactListener.html" xlink:show="new" xlink:title="file:/C:/Users/Utente/Desktop/Evilian/core/build/docs/javadoc/com/prog/collision/LevelContactListener.html" xlink:type="simple"><rect codeLine="3" fill="#FEFECE" filter="url(#fyn3n7dax2i8a)" height="117.1797" id="com.prog.collision.LevelContactListener" style="stroke: #A80036; stroke-width: 1.5;" width="224" x="550" y="221"/><ellipse cx="599.75" cy="237" fill="#ADD1B2" rx="11" ry="11" style="stroke: #A80036; stroke-width: 1.0;"/><path d="M602.5156,232.875 Q602.6719,232.6563 602.8594,232.5469 Q603.0469,232.4375 603.2656,232.4375 Q603.6406,232.4375 603.875,232.7031 Q604.1094,232.9531 604.1094,233.5625 L604.1094,235.0156 Q604.1094,235.625 603.875,235.8906 Q603.6406,236.1563 603.2656,236.1563 Q602.9219,236.1563 602.7188,235.9531 Q602.5156,235.7656 602.4063,235.25 Q602.3594,234.8906 602.1719,234.7031 Q601.8438,234.3281 601.2344,234.1094 Q600.625,233.8906 600,233.8906 Q599.2344,233.8906 598.5938,234.2188 Q597.9688,234.5469 597.4688,235.2969 Q596.9844,236.0469 596.9844,237.0781 L596.9844,238.1719 Q596.9844,239.4063 597.875,240.2344 Q598.7656,241.0469 600.3594,241.0469 Q601.2969,241.0469 601.9531,240.7969 Q602.3438,240.6406 602.7656,240.2031 Q603.0313,239.9375 603.1719,239.8594 Q603.3281,239.7813 603.5313,239.7813 Q603.8594,239.7813 604.1094,240.0469 Q604.375,240.2969 604.375,240.6406 Q604.375,240.9844 604.0313,241.3906 Q603.5313,241.9688 602.7344,242.2969 Q601.6563,242.75 600.3594,242.75 Q598.8438,242.75 597.6406,242.125 Q596.6563,241.625 595.9688,240.5625 Q595.2813,239.4844 595.2813,238.2031 L595.2813,237.0469 Q595.2813,235.7188 595.8906,234.5781 Q596.5156,233.4219 597.6094,232.8125 Q598.7031,232.1875 599.9375,232.1875 Q600.6719,232.1875 601.3125,232.3594 Q601.9688,232.5156 602.5156,232.875 Z "/><text fill="#000000" font-family="sans-serif" font-size="12" lengthAdjust="spacingAndGlyphs" textLength="116" x="620.25" y="241.9102">LevelContactListener</text><line style="stroke: #A80036; stroke-width: 1.5;" x1="551" x2="773" y1="253" y2="253"/><line style="stroke: #A80036; stroke-width: 1.5;" x1="551" x2="773" y1="261" y2="261"/><ellipse cx="561" cy="272" fill="#84BE84" rx="3" ry="3" style="stroke: #038048; stroke-width: 1.0;"/><text fill="#000000" font-family="sans-serif" font-size="11" lengthAdjust="spacingAndGlyphs" textLength="134" x="570" y="276.4189">beginContact(Contact): void</text><ellipse cx="561" cy="285.8359" fill="#84BE84" rx="3" ry="3" style="stroke: #038048; stroke-width: 1.0;"/><text fill="#000000" font-family="sans-serif" font-size="11" lengthAdjust="spacingAndGlyphs" textLength="126" x="570" y="290.2549">endContact(Contact): void</text><ellipse cx="561" cy="299.6719" fill="#84BE84" rx="3" ry="3" style="stroke: #038048; stroke-width: 1.0;"/><text fill="#000000" font-family="sans-serif" font-size="11" lengthAdjust="spacingAndGlyphs" textLength="160" x="570" y="304.0908">preSolve(Contact, Manifold): void</text><ellipse cx="561" cy="313.5078" fill="#84BE84" rx="3" ry="3" style="stroke: #038048; stroke-width: 1.0;"/><text fill="#000000" font-family="sans-serif" font-size="11" lengthAdjust="spacingAndGlyphs" textLength="198" x="570" y="317.9268">postSolve(Contact, ContactImpulse): void</text><ellipse cx="561" cy="327.3438" fill="#84BE84" rx="3" ry="3" style="stroke: #038048; stroke-width: 1.0;"/><text fill="#000000" font-family="sans-serif" font-size="11" lengthAdjust="spacingAndGlyphs" textLength="100" x="570" y="331.7627">check(Contact): void</text></a><!--MD5=[7edf659de1532412ed9aaf8019e88474]
class com.prog.collision.MenuContactListener--><a href="file:/C:/Users/Utente/Desktop/Evilian/core/build/docs/javadoc/com/prog/collision/MenuContactListener.html" target="_top" title="file:/C:/Users/Utente/Desktop/Evilian/core/build/docs/javadoc/com/prog/collision/MenuContactListener.html" xlink:actuate="onRequest" xlink:href="file:/C:/Users/Utente/Desktop/Evilian/core/build/docs/javadoc/com/prog/collision/MenuContactListener.html" xlink:show="new" xlink:title="file:/C:/Users/Utente/Desktop/Evilian/core/build/docs/javadoc/com/prog/collision/MenuContactListener.html" xlink:type="simple"><rect codeLine="11" fill="#FEFECE" filter="url(#fyn3n7dax2i8a)" height="117.1797" id="com.prog.collision.MenuContactListener" style="stroke: #A80036; stroke-width: 1.5;" width="224" x="291" y="221"/><ellipse cx="340.25" cy="237" fill="#ADD1B2" rx="11" ry="11" style="stroke: #A80036; stroke-width: 1.0;"/><path d="M343.0156,232.875 Q343.1719,232.6563 343.3594,232.5469 Q343.5469,232.4375 343.7656,232.4375 Q344.1406,232.4375 344.375,232.7031 Q344.6094,232.9531 344.6094,233.5625 L344.6094,235.0156 Q344.6094,235.625 344.375,235.8906 Q344.1406,236.1563 343.7656,236.1563 Q343.4219,236.1563 343.2188,235.9531 Q343.0156,235.7656 342.9063,235.25 Q342.8594,234.8906 342.6719,234.7031 Q342.3438,234.3281 341.7344,234.1094 Q341.125,233.8906 340.5,233.8906 Q339.7344,233.8906 339.0938,234.2188 Q338.4688,234.5469 337.9688,235.2969 Q337.4844,236.0469 337.4844,237.0781 L337.4844,238.1719 Q337.4844,239.4063 338.375,240.2344 Q339.2656,241.0469 340.8594,241.0469 Q341.7969,241.0469 342.4531,240.7969 Q342.8438,240.6406 343.2656,240.2031 Q343.5313,239.9375 343.6719,239.8594 Q343.8281,239.7813 344.0313,239.7813 Q344.3594,239.7813 344.6094,240.0469 Q344.875,240.2969 344.875,240.6406 Q344.875,240.9844 344.5313,241.3906 Q344.0313,241.9688 343.2344,242.2969 Q342.1563,242.75 340.8594,242.75 Q339.3438,242.75 338.1406,242.125 Q337.1563,241.625 336.4688,240.5625 Q335.7813,239.4844 335.7813,238.2031 L335.7813,237.0469 Q335.7813,235.7188 336.3906,234.5781 Q337.0156,233.4219 338.1094,232.8125 Q339.2031,232.1875 340.4375,232.1875 Q341.1719,232.1875 341.8125,232.3594 Q342.4688,232.5156 343.0156,232.875 Z "/><text fill="#000000" font-family="sans-serif" font-size="12" lengthAdjust="spacingAndGlyphs" textLength="117" x="360.75" y="241.9102">MenuContactListener</text><line style="stroke: #A80036; stroke-width: 1.5;" x1="292" x2="514" y1="253" y2="253"/><line style="stroke: #A80036; stroke-width: 1.5;" x1="292" x2="514" y1="261" y2="261"/><ellipse cx="302" cy="272" fill="#84BE84" rx="3" ry="3" style="stroke: #038048; stroke-width: 1.0;"/><text fill="#000000" font-family="sans-serif" font-size="11" lengthAdjust="spacingAndGlyphs" textLength="134" x="311" y="276.4189">beginContact(Contact): void</text><ellipse cx="302" cy="285.8359" fill="#84BE84" rx="3" ry="3" style="stroke: #038048; stroke-width: 1.0;"/><text fill="#000000" font-family="sans-serif" font-size="11" lengthAdjust="spacingAndGlyphs" textLength="126" x="311" y="290.2549">endContact(Contact): void</text><ellipse cx="302" cy="299.6719" fill="#84BE84" rx="3" ry="3" style="stroke: #038048; stroke-width: 1.0;"/><text fill="#000000" font-family="sans-serif" font-size="11" lengthAdjust="spacingAndGlyphs" textLength="160" x="311" y="304.0908">preSolve(Contact, Manifold): void</text><ellipse cx="302" cy="313.5078" fill="#84BE84" rx="3" ry="3" style="stroke: #038048; stroke-width: 1.0;"/><text fill="#000000" font-family="sans-serif" font-size="11" lengthAdjust="spacingAndGlyphs" textLength="198" x="311" y="317.9268">postSolve(Contact, ContactImpulse): void</text><ellipse cx="302" cy="327.3438" fill="#84BE84" rx="3" ry="3" style="stroke: #038048; stroke-width: 1.0;"/><text fill="#000000" font-family="sans-serif" font-size="11" lengthAdjust="spacingAndGlyphs" textLength="104" x="311" y="331.7627">getCollided(): boolean</text></a><!--MD5=[a83c4ba5f7fa6c9a7c44263ccc81c46f]
class com.prog.collision.OpzioniContactListener--><a href="file:/C:/Users/Utente/Desktop/Evilian/core/build/docs/javadoc/com/prog/collision/OpzioniContactListener.html" target="_top" title="file:/C:/Users/Utente/Desktop/Evilian/core/build/docs/javadoc/com/prog/collision/OpzioniContactListener.html" xlink:actuate="onRequest" xlink:href="file:/C:/Users/Utente/Desktop/Evilian/core/build/docs/javadoc/com/prog/collision/OpzioniContactListener.html" xlink:show="new" xlink:title="file:/C:/Users/Utente/Desktop/Evilian/core/build/docs/javadoc/com/prog/collision/OpzioniContactListener.html" xlink:type="simple"><rect codeLine="19" fill="#FEFECE" filter="url(#fyn3n7dax2i8a)" height="117.1797" id="com.prog.collision.OpzioniContactListener" style="stroke: #A80036; stroke-width: 1.5;" width="224" x="32" y="221"/><ellipse cx="75.8" cy="237" fill="#ADD1B2" rx="11" ry="11" style="stroke: #A80036; stroke-width: 1.0;"/><path d="M78.5656,232.875 Q78.7219,232.6563 78.9094,232.5469 Q79.0969,232.4375 79.3156,232.4375 Q79.6906,232.4375 79.925,232.7031 Q80.1594,232.9531 80.1594,233.5625 L80.1594,235.0156 Q80.1594,235.625 79.925,235.8906 Q79.6906,236.1563 79.3156,236.1563 Q78.9719,236.1563 78.7688,235.9531 Q78.5656,235.7656 78.4563,235.25 Q78.4094,234.8906 78.2219,234.7031 Q77.8938,234.3281 77.2844,234.1094 Q76.675,233.8906 76.05,233.8906 Q75.2844,233.8906 74.6438,234.2188 Q74.0188,234.5469 73.5188,235.2969 Q73.0344,236.0469 73.0344,237.0781 L73.0344,238.1719 Q73.0344,239.4063 73.925,240.2344 Q74.8156,241.0469 76.4094,241.0469 Q77.3469,241.0469 78.0031,240.7969 Q78.3938,240.6406 78.8156,240.2031 Q79.0813,239.9375 79.2219,239.8594 Q79.3781,239.7813 79.5813,239.7813 Q79.9094,239.7813 80.1594,240.0469 Q80.425,240.2969 80.425,240.6406 Q80.425,240.9844 80.0813,241.3906 Q79.5813,241.9688 78.7844,242.2969 Q77.7063,242.75 76.4094,242.75 Q74.8938,242.75 73.6906,242.125 Q72.7063,241.625 72.0188,240.5625 Q71.3313,239.4844 71.3313,238.2031 L71.3313,237.0469 Q71.3313,235.7188 71.9406,234.5781 Q72.5656,233.4219 73.6594,232.8125 Q74.7531,232.1875 75.9875,232.1875 Q76.7219,232.1875 77.3625,232.3594 Q78.0188,232.5156 78.5656,232.875 Z "/><text fill="#000000" font-family="sans-serif" font-size="12" lengthAdjust="spacingAndGlyphs" textLength="128" x="96.2" y="241.9102">OpzioniContactListener</text><line style="stroke: #A80036; stroke-width: 1.5;" x1="33" x2="255" y1="253" y2="253"/><line style="stroke: #A80036; stroke-width: 1.5;" x1="33" x2="255" y1="261" y2="261"/><ellipse cx="43" cy="272" fill="#84BE84" rx="3" ry="3" style="stroke: #038048; stroke-width: 1.0;"/><text fill="#000000" font-family="sans-serif" font-size="11" lengthAdjust="spacingAndGlyphs" textLength="134" x="52" y="276.4189">beginContact(Contact): void</text><ellipse cx="43" cy="285.8359" fill="#84BE84" rx="3" ry="3" style="stroke: #038048; stroke-width: 1.0;"/><text fill="#000000" font-family="sans-serif" font-size="11" lengthAdjust="spacingAndGlyphs" textLength="126" x="52" y="290.2549">endContact(Contact): void</text><ellipse cx="43" cy="299.6719" fill="#84BE84" rx="3" ry="3" style="stroke: #038048; stroke-width: 1.0;"/><text fill="#000000" font-family="sans-serif" font-size="11" lengthAdjust="spacingAndGlyphs" textLength="160" x="52" y="304.0908">preSolve(Contact, Manifold): void</text><ellipse cx="43" cy="313.5078" fill="#84BE84" rx="3" ry="3" style="stroke: #038048; stroke-width: 1.0;"/><text fill="#000000" font-family="sans-serif" font-size="11" lengthAdjust="spacingAndGlyphs" textLength="198" x="52" y="317.9268">postSolve(Contact, ContactImpulse): void</text><ellipse cx="43" cy="327.3438" fill="#84BE84" rx="3" ry="3" style="stroke: #038048; stroke-width: 1.0;"/><text fill="#000000" font-family="sans-serif" font-size="11" lengthAdjust="spacingAndGlyphs" textLength="104" x="52" y="331.7627">getCollided(): boolean</text></a><!--MD5=[c704a8b41d7f9c15d9480e184d43275f]
class com.badlogic.gdx.physics.box2d.ContactListener--><rect codeLine="33" fill="#FEFECE" filter="url(#fyn3n7dax2i8a)" height="103.3438" id="com.badlogic.gdx.physics.box2d.ContactListener" style="stroke: #A80036; stroke-width: 1.5;" width="229" x="288.5" y="42"/><ellipse cx="355.75" cy="58" fill="#B4A7E5" rx="11" ry="11" style="stroke: #A80036; stroke-width: 1.0;"/><path d="M356.7031,54.6406 L356.7031,61.2969 L358.4219,61.2969 Q359.0313,61.2969 359.2969,61.5313 Q359.5625,61.7656 359.5625,62.1563 Q359.5625,62.5313 359.2969,62.7656 Q359.0313,63 358.4219,63 L353.2813,63 Q352.6719,63 352.4063,62.7656 Q352.1406,62.5313 352.1406,62.1406 Q352.1406,61.7656 352.4063,61.5313 Q352.6719,61.2969 353.2813,61.2969 L355,61.2969 L355,54.6406 L353.2813,54.6406 Q352.6719,54.6406 352.4063,54.4063 Q352.1406,54.1719 352.1406,53.7813 Q352.1406,53.4063 352.4063,53.1719 Q352.6719,52.9375 353.2813,52.9375 L358.4219,52.9375 Q359.0313,52.9375 359.2969,53.1719 Q359.5625,53.4063 359.5625,53.7813 Q359.5625,54.1719 359.2969,54.4063 Q359.0313,54.6406 358.4219,54.6406 L356.7031,54.6406 Z "/><text fill="#000000" font-family="sans-serif" font-size="12" font-style="italic" lengthAdjust="spacingAndGlyphs" textLength="86" x="376.25" y="62.9102">ContactListener</text><line style="stroke: #A80036; stroke-width: 1.5;" x1="289.5" x2="516.5" y1="74" y2="74"/><line style="stroke: #A80036; stroke-width: 1.5;" x1="289.5" x2="516.5" y1="82" y2="82"/><ellipse cx="299.5" cy="93" fill="#84BE84" rx="3" ry="3" style="stroke: #038048; stroke-width: 1.0;"/><text fill="#000000" font-family="sans-serif" font-size="11" font-style="italic" lengthAdjust="spacingAndGlyphs" textLength="138" x="308.5" y="97.4189">beginContact(Contact): void</text><ellipse cx="299.5" cy="106.8359" fill="#84BE84" rx="3" ry="3" style="stroke: #038048; stroke-width: 1.0;"/><text fill="#000000" font-family="sans-serif" font-size="11" font-style="italic" lengthAdjust="spacingAndGlyphs" textLength="128" x="308.5" y="111.2549">endContact(Contact): void</text><ellipse cx="299.5" cy="120.6719" fill="#84BE84" rx="3" ry="3" style="stroke: #038048; stroke-width: 1.0;"/><text fill="#000000" font-family="sans-serif" font-size="11" font-style="italic" lengthAdjust="spacingAndGlyphs" textLength="163" x="308.5" y="125.0908">preSolve(Contact, Manifold): void</text><ellipse cx="299.5" cy="134.5078" fill="#84BE84" rx="3" ry="3" style="stroke: #038048; stroke-width: 1.0;"/><text fill="#000000" font-family="sans-serif" font-size="11" font-style="italic" lengthAdjust="spacingAndGlyphs" textLength="203" x="308.5" y="138.9268">postSolve(Contact, ContactImpulse): void</text><!--MD5=[cbdd24271b3e5e6883dbf8db9c361ac0]
reverse link com.badlogic.gdx.physics.box2d.ContactListener to com.prog.collision.LevelContactListener--><path codeLine="27" d="M502.53,156.2 C512.92,163.07 523.24,170.09 533,177 C552.3,190.67 572.65,206.14 591.34,220.81 " fill="none" id="com.badlogic.gdx.physics.box2d.ContactListener-backto-com.prog.collision.LevelContactListener" style="stroke: #A80036; stroke-width: 1.0; stroke-dasharray: 7.0,7.0;"/><polygon fill="none" points="498.58,161.98,485.66,145.19,506.24,150.26,498.58,161.98" style="stroke: #A80036; stroke-width: 1.0;"/><!--MD5=[c5f710662ae052176d7708b860fcb3eb]
reverse link com.badlogic.gdx.physics.box2d.ContactListener to com.prog.collision.MenuContactListener--><path codeLine="28" d="M403,165.3 C403,183.64 403,203.18 403,220.76 " fill="none" id="com.badlogic.gdx.physics.box2d.ContactListener-backto-com.prog.collision.MenuContactListener" style="stroke: #A80036; stroke-width: 1.0; stroke-dasharray: 7.0,7.0;"/><polygon fill="none" points="396,165.27,403,145.27,410,165.27,396,165.27" style="stroke: #A80036; stroke-width: 1.0;"/><!--MD5=[4850b7f9f6bf7beafec12a919e651976]
reverse link com.badlogic.gdx.physics.box2d.ContactListener to com.prog.collision.OpzioniContactListener--><path codeLine="29" d="M304.5,156.13 C294.11,163.04 283.78,170.08 274,177 C254.6,190.73 234.12,206.23 215.29,220.9 " fill="none" id="com.badlogic.gdx.physics.box2d.ContactListener-backto-com.prog.collision.OpzioniContactListener" style="stroke: #A80036; stroke-width: 1.0; stroke-dasharray: 7.0,7.0;"/><polygon fill="none" points="300.81,150.18,321.37,145.06,308.49,161.89,300.81,150.18" style="stroke: #A80036; stroke-width: 1.0;"/><text fill="#888888" font-family="sans-serif" font-size="10" lengthAdjust="spacingAndGlyphs" textLength="190" x="302" y="370.3809">UMLDoclet 2.0.12, PlantUML 1.2020.16</text><!--MD5=[a4696e6a65c1547d833457084ff1c417]
@startuml
    namespace com.prog.collision {

        class LevelContactListener [[file:/C:/Users/Utente/Desktop/Evilian/core/build/docs/javadoc/com/prog/collision/LevelContactListener.html]] {
            +beginContact(Contact): void
            +endContact(Contact): void
            +preSolve(Contact, Manifold): void
            +postSolve(Contact, ContactImpulse): void
            +check(Contact): void
        }

        class MenuContactListener [[file:/C:/Users/Utente/Desktop/Evilian/core/build/docs/javadoc/com/prog/collision/MenuContactListener.html]] {
            +beginContact(Contact): void
            +endContact(Contact): void
            +preSolve(Contact, Manifold): void
            +postSolve(Contact, ContactImpulse): void
            +getCollided(): boolean
        }

        class OpzioniContactListener [[file:/C:/Users/Utente/Desktop/Evilian/core/build/docs/javadoc/com/prog/collision/OpzioniContactListener.html]] {
            +beginContact(Contact): void
            +endContact(Contact): void
            +preSolve(Contact, Manifold): void
            +postSolve(Contact, ContactImpulse): void
            +getCollided(): boolean
        }

        com.badlogic.gdx.physics.box2d.ContactListener <|.. LevelContactListener
        com.badlogic.gdx.physics.box2d.ContactListener <|.. MenuContactListener
        com.badlogic.gdx.physics.box2d.ContactListener <|.. OpzioniContactListener
    }

    namespace com.badlogic.gdx.physics.box2d {
        interface ContactListener {
            {abstract} +beginContact(Contact): void
            {abstract} +endContact(Contact): void
            {abstract} +preSolve(Contact, Manifold): void
            {abstract} +postSolve(Contact, ContactImpulse): void
        }
    }

    center footer UMLDoclet 2.0.12, PlantUML 1.2020.16
@enduml

PlantUML version 1.2020.16(Sun Aug 23 22:20:43 CEST 2020)
(APACHE source distribution)
Java Runtime: Java(TM) SE Runtime Environment
JVM: Java HotSpot(TM) 64-Bit Server VM
Default Encoding: Cp1252
Language: it
Country: IT
--></g></svg>