<?xml version="1.0" encoding="UTF-8" standalone="no"?><svg xmlns="http://www.w3.org/2000/svg" xmlns:xlink="http://www.w3.org/1999/xlink" contentScriptType="application/ecmascript" contentStyleType="text/css" height="323px" preserveAspectRatio="none" style="width:2685px;height:323px;" version="1.1" viewBox="0 0 2685 323" width="2685px" zoomAndPan="magnify"><defs><filter height="300%" id="fl48ck3ouepb9" width="300%" x="-1" y="-1"><feGaussianBlur result="blurOut" stdDeviation="2.0"/><feColorMatrix in="blurOut" result="blurOut2" type="matrix" values="0 0 0 0 0 0 0 0 0 0 0 0 0 0 0 0 0 0 .4 0"/><feOffset dx="4.0" dy="4.0" in="blurOut2" result="blurOut3"/><feBlend in="SourceGraphic" in2="blurOut3" mode="normal"/></filter></defs><g><!--MD5=[bc4753cfd2ea87097172e27d4b8fe0e0]
class com.prog.collision--><a href="..\com\prog\collision\package-summary.html" target="_top" title="..\com\prog\collision\package-summary.html" xlink:actuate="onRequest" xlink:href="..\com\prog\collision\package-summary.html" xlink:show="new" xlink:title="..\com\prog\collision\package-summary.html" xlink:type="simple"><rect codeLine="40" fill="#FEFECE" filter="url(#fl48ck3ouepb9)" height="25.0938" id="com.prog.collision" style="stroke: #A80036; stroke-width: 1.5;" width="107" x="69.59" y="92"/><text fill="#000000" font-family="sans-serif" font-size="12" lengthAdjust="spacingAndGlyphs" textLength="101" x="72.59" y="109.457">com.prog.collision</text></a><!--MD5=[1d821e384422d82139cc7b834b53a1d5]
class com.badlogic.gdx.physics.box2d--><rect fill="#FEFECE" filter="url(#fl48ck3ouepb9)" height="25.0938" id="com.badlogic.gdx.physics.box2d" style="stroke: #A80036; stroke-width: 1.5;" width="183" x="31.59" y="262"/><text fill="#000000" font-family="sans-serif" font-size="12" lengthAdjust="spacingAndGlyphs" textLength="177" x="34.59" y="279.457">com.badlogic.gdx.physics.box2d</text><!--MD5=[5115cc66ff6f5843eabe1f90e912892d]
class com.prog.entity--><a href="..\com\prog\entity\package-summary.html" target="_top" title="..\com\prog\entity\package-summary.html" xlink:actuate="onRequest" xlink:href="..\com\prog\entity\package-summary.html" xlink:show="new" xlink:title="..\com\prog\entity\package-summary.html" xlink:type="simple"><rect codeLine="42" fill="#FEFECE" filter="url(#fl48ck3ouepb9)" height="25.0938" id="com.prog.entity" style="stroke: #A80036; stroke-width: 1.5;" width="89" x="354.59" y="177"/><text fill="#000000" font-family="sans-serif" font-size="12" lengthAdjust="spacingAndGlyphs" textLength="83" x="357.59" y="194.457">com.prog.entity</text></a><!--MD5=[32542f9c6de680d0145967b30c0467db]
class com.badlogic.gdx.graphics--><rect fill="#FEFECE" filter="url(#fl48ck3ouepb9)" height="25.0938" id="com.badlogic.gdx.graphics" style="stroke: #A80036; stroke-width: 1.5;" width="153" x="269.59" y="262"/><text fill="#000000" font-family="sans-serif" font-size="12" lengthAdjust="spacingAndGlyphs" textLength="147" x="272.59" y="279.457">com.badlogic.gdx.graphics</text><!--MD5=[eb9cbbcd54ce02be309589bcf9b07e28]
class com.badlogic.gdx.graphics.g2d--><rect fill="#FEFECE" filter="url(#fl48ck3ouepb9)" height="25.0938" id="com.badlogic.gdx.graphics.g2d" style="stroke: #A80036; stroke-width: 1.5;" width="177" x="457.59" y="262"/><text fill="#000000" font-family="sans-serif" font-size="12" lengthAdjust="spacingAndGlyphs" textLength="171" x="460.59" y="279.457">com.badlogic.gdx.graphics.g2d</text><!--MD5=[aea4c9a9ac1bd3a71a89e9e6b599e2fb]
class com.badlogic.gdx.math--><rect fill="#FEFECE" filter="url(#fl48ck3ouepb9)" height="25.0938" id="com.badlogic.gdx.math" style="stroke: #A80036; stroke-width: 1.5;" width="133" x="669.59" y="262"/><text fill="#000000" font-family="sans-serif" font-size="12" lengthAdjust="spacingAndGlyphs" textLength="127" x="672.59" y="279.457">com.badlogic.gdx.math</text><!--MD5=[b2c10d770809d2609e05e96dcf129264]
class com.badlogic.gdx.utils--><rect fill="#FEFECE" filter="url(#fl48ck3ouepb9)" height="25.0938" id="com.badlogic.gdx.utils" style="stroke: #A80036; stroke-width: 1.5;" width="128" x="857.09" y="262"/><text fill="#000000" font-family="sans-serif" font-size="12" lengthAdjust="spacingAndGlyphs" textLength="122" x="860.09" y="279.457">com.badlogic.gdx.utils</text><!--MD5=[25838967086826324ab77e433017a819]
class com.prog.evilian--><a href="..\com\prog\evilian\package-summary.html" target="_top" title="..\com\prog\evilian\package-summary.html" xlink:actuate="onRequest" xlink:href="..\com\prog\evilian\package-summary.html" xlink:show="new" xlink:title="..\com\prog\evilian\package-summary.html" xlink:type="simple"><rect codeLine="44" fill="#FEFECE" filter="url(#fl48ck3ouepb9)" height="25.0938" id="com.prog.evilian" style="stroke: #A80036; stroke-width: 1.5;" width="96" x="980.09" y="92"/><text fill="#000000" font-family="sans-serif" font-size="12" lengthAdjust="spacingAndGlyphs" textLength="90" x="983.09" y="109.457">com.prog.evilian</text></a><!--MD5=[cf0ecc9b631902fa3c3dc10109c6bcf4]
class com.badlogic.gdx--><rect fill="#FEFECE" filter="url(#fl48ck3ouepb9)" height="25.0938" id="com.badlogic.gdx" style="stroke: #A80036; stroke-width: 1.5;" width="102" x="1045.09" y="177"/><text fill="#000000" font-family="sans-serif" font-size="12" lengthAdjust="spacingAndGlyphs" textLength="96" x="1048.09" y="194.457">com.badlogic.gdx</text><!--MD5=[01dfffd125960c16be33489846737746]
class com.prog.world--><a href="..\com\prog\world\package-summary.html" target="_top" title="..\com\prog\world\package-summary.html" xlink:actuate="onRequest" xlink:href="..\com\prog\world\package-summary.html" xlink:show="new" xlink:title="..\com\prog\world\package-summary.html" xlink:type="simple"><rect codeLine="46" fill="#FEFECE" filter="url(#fl48ck3ouepb9)" height="25.0938" id="com.prog.world" style="stroke: #A80036; stroke-width: 1.5;" width="91" x="1154.59" y="7"/><text fill="#000000" font-family="sans-serif" font-size="12" lengthAdjust="spacingAndGlyphs" textLength="85" x="1157.59" y="24.457">com.prog.world</text></a><!--MD5=[2152a03f1a1dc5b29ca7d91bf9f3b8ff]
class com.badlogic.gdx.maps.tiled--><rect fill="#FEFECE" filter="url(#fl48ck3ouepb9)" height="25.0938" id="com.badlogic.gdx.maps.tiled" style="stroke: #A80036; stroke-width: 1.5;" width="163" x="1324.59" y="92"/><text fill="#000000" font-family="sans-serif" font-size="12" lengthAdjust="spacingAndGlyphs" textLength="157" x="1327.59" y="109.457">com.badlogic.gdx.maps.tiled</text><!--MD5=[2e44acae4f281adec39c9681a3ccfde0]
class com.badlogic.gdx.maps.tiled.renderers--><rect fill="#FEFECE" filter="url(#fl48ck3ouepb9)" height="25.0938" id="com.badlogic.gdx.maps.tiled.renderers" style="stroke: #A80036; stroke-width: 1.5;" width="220" x="1523.09" y="92"/><text fill="#000000" font-family="sans-serif" font-size="12" lengthAdjust="spacingAndGlyphs" textLength="214" x="1526.09" y="109.457">com.badlogic.gdx.maps.tiled.renderers</text><!--MD5=[7e81eebdb64ab62afccf3c66edb7801f]
class com.prog.world.UI--><a href="..\com\prog\world\UI\package-summary.html" target="_top" title="..\com\prog\world\UI\package-summary.html" xlink:actuate="onRequest" xlink:href="..\com\prog\world\UI\package-summary.html" xlink:show="new" xlink:title="..\com\prog\world\UI\package-summary.html" xlink:type="simple"><rect codeLine="48" fill="#FEFECE" filter="url(#fl48ck3ouepb9)" height="25.0938" id="com.prog.world.UI" style="stroke: #A80036; stroke-width: 1.5;" width="106" x="586.09" y="92"/><text fill="#000000" font-family="sans-serif" font-size="12" lengthAdjust="spacingAndGlyphs" textLength="100" x="589.09" y="109.457">com.prog.world.UI</text></a><!--MD5=[e9f3f041a5ef4ab879a082705277df0f]
class com.badlogic.gdx.maps--><rect fill="#FEFECE" filter="url(#fl48ck3ouepb9)" height="25.0938" id="com.badlogic.gdx.maps" style="stroke: #A80036; stroke-width: 1.5;" width="137" x="1778.59" y="92"/><text fill="#000000" font-family="sans-serif" font-size="12" lengthAdjust="spacingAndGlyphs" textLength="131" x="1781.59" y="109.457">com.badlogic.gdx.maps</text><!--MD5=[486d9ab536e028b6355e1af123bc1fbd]
class com.badlogic.gdx.maps.objects--><rect fill="#FEFECE" filter="url(#fl48ck3ouepb9)" height="25.0938" id="com.badlogic.gdx.maps.objects" style="stroke: #A80036; stroke-width: 1.5;" width="180" x="1951.09" y="92"/><text fill="#000000" font-family="sans-serif" font-size="12" lengthAdjust="spacingAndGlyphs" textLength="174" x="1954.09" y="109.457">com.badlogic.gdx.maps.objects</text><!--MD5=[9574c53c0789233f95abd3444b3949f3]
class com.badlogic.gdx.audio--><rect fill="#FEFECE" filter="url(#fl48ck3ouepb9)" height="25.0938" id="com.badlogic.gdx.audio" style="stroke: #A80036; stroke-width: 1.5;" width="136" x="2166.09" y="92"/><text fill="#000000" font-family="sans-serif" font-size="12" lengthAdjust="spacingAndGlyphs" textLength="130" x="2169.09" y="109.457">com.badlogic.gdx.audio</text><!--MD5=[727d75b5c2f33190c81ddbdd9d1f8ecf]
class com.crashinvaders.vfx--><rect fill="#FEFECE" filter="url(#fl48ck3ouepb9)" height="25.0938" id="com.crashinvaders.vfx" style="stroke: #A80036; stroke-width: 1.5;" width="127" x="2337.59" y="92"/><text fill="#000000" font-family="sans-serif" font-size="12" lengthAdjust="spacingAndGlyphs" textLength="121" x="2340.59" y="109.457">com.crashinvaders.vfx</text><!--MD5=[752e623f3d426644d8538d133d520d41]
class com.crashinvaders.vfx.effects--><rect fill="#FEFECE" filter="url(#fl48ck3ouepb9)" height="25.0938" id="com.crashinvaders.vfx.effects" style="stroke: #A80036; stroke-width: 1.5;" width="166" x="2500.09" y="92"/><text fill="#000000" font-family="sans-serif" font-size="12" lengthAdjust="spacingAndGlyphs" textLength="160" x="2503.09" y="109.457">com.crashinvaders.vfx.effects</text><!--MD5=[4caa516663dc56cb7c9eeaefa964280f]
class com.badlogic.gdx.utils.viewport--><rect fill="#FEFECE" filter="url(#fl48ck3ouepb9)" height="25.0938" id="com.badlogic.gdx.utils.viewport" style="stroke: #A80036; stroke-width: 1.5;" width="176" x="692.09" y="177"/><text fill="#000000" font-family="sans-serif" font-size="12" lengthAdjust="spacingAndGlyphs" textLength="170" x="695.09" y="194.457">com.badlogic.gdx.utils.viewport</text><!--MD5=[fb45794a677c80cecea3ffa27f19150f]
link com.prog.collision to com.badlogic.gdx.physics.box2d--><path codeLine="6" d="M123.09,117.05 C123.09,146.18 123.09,222.76 123.09,256.79 " fill="none" id="com.prog.collision-to-com.badlogic.gdx.physics.box2d" style="stroke: #A80036; stroke-width: 1.0;"/><polygon fill="#A80036" points="123.09,261.87,127.09,252.87,123.09,256.87,119.09,252.87,123.09,261.87" style="stroke: #A80036; stroke-width: 1.0;"/><!--MD5=[2b8c78a94f7ee57dc5cc6b4225f6adac]
link com.prog.collision to com.prog.entity--><path codeLine="7" d="M161.47,117.04 C212.41,132.36 302.12,159.34 355.54,175.4 " fill="none" id="com.prog.collision-to-com.prog.entity" style="stroke: #A80036; stroke-width: 1.0;"/><polygon fill="#A80036" points="360.6,176.92,353.1377,170.4923,355.8128,175.4767,350.8285,178.1518,360.6,176.92" style="stroke: #A80036; stroke-width: 1.0;"/><!--MD5=[16f128901e202a62379ff8a99818a375]
link com.prog.entity to com.badlogic.gdx.graphics--><path codeLine="8" d="M391.72,202.04 C382.52,216.45 366.72,241.19 356.34,257.45 " fill="none" id="com.prog.entity-to-com.badlogic.gdx.graphics" style="stroke: #A80036; stroke-width: 1.0;"/><polygon fill="#A80036" points="353.57,261.79,361.7932,256.3697,356.2673,257.5799,355.0571,252.0541,353.57,261.79" style="stroke: #A80036; stroke-width: 1.0;"/><!--MD5=[711fbac42b1efcc5130ad052270c6975]
link com.prog.entity to com.badlogic.gdx.graphics.g2d--><path codeLine="9" d="M419.53,202.04 C446.04,217.01 492.26,243.11 520.91,259.28 " fill="none" id="com.prog.entity-to-com.badlogic.gdx.graphics.g2d" style="stroke: #A80036; stroke-width: 1.0;"/><polygon fill="#A80036" points="525.35,261.79,519.4755,253.8849,520.9948,259.3339,515.5458,260.8533,525.35,261.79" style="stroke: #A80036; stroke-width: 1.0;"/><!--MD5=[59e9cb91115fca526527ecddbee2cf13]
link com.prog.entity to com.badlogic.gdx.math--><path codeLine="10" d="M443.84,201.52 C506.05,216.84 618.41,244.52 684.21,260.72 " fill="none" id="com.prog.entity-to-com.badlogic.gdx.math" style="stroke: #A80036; stroke-width: 1.0;"/><polygon fill="#A80036" points="689.26,261.97,681.4821,255.9281,684.4059,260.7708,679.5633,263.6946,689.26,261.97" style="stroke: #A80036; stroke-width: 1.0;"/><!--MD5=[12e35bd357e583254b570a56b36b89a2]
link com.prog.entity to com.badlogic.gdx.utils--><path codeLine="11" d="M443.6,197.58 C534.61,212.05 742.59,245.12 851.57,262.45 " fill="none" id="com.prog.entity-to-com.badlogic.gdx.utils" style="stroke: #A80036; stroke-width: 1.0;"/><polygon fill="#A80036" points="856.68,263.26,848.422,257.893,851.7424,262.4728,847.1625,265.7932,856.68,263.26" style="stroke: #A80036; stroke-width: 1.0;"/><!--MD5=[6ddb1eb9335ed52f5a6454d7e134db1d]
link com.prog.entity to com.badlogic.gdx.physics.box2d--><path codeLine="12" d="M360.71,202.04 C309.77,217.36 220.06,244.34 166.64,260.4 " fill="none" id="com.prog.entity-to-com.badlogic.gdx.physics.box2d" style="stroke: #A80036; stroke-width: 1.0;"/><polygon fill="#A80036" points="161.58,261.92,171.3515,263.1518,166.3672,260.4767,169.0423,255.4923,161.58,261.92" style="stroke: #A80036; stroke-width: 1.0;"/><!--MD5=[8f4c7d19c8346ee5c4695f3ae9929934]
link com.prog.evilian to com.badlogic.gdx--><path codeLine="13" d="M1037.55,117.04 C1049.45,131.58 1069.97,156.61 1083.28,172.86 " fill="none" id="com.prog.evilian-to-com.badlogic.gdx" style="stroke: #A80036; stroke-width: 1.0;"/><polygon fill="#A80036" points="1086.5,176.79,1083.891,167.293,1083.3315,172.9221,1077.7024,172.3626,1086.5,176.79" style="stroke: #A80036; stroke-width: 1.0;"/><!--MD5=[48c493e667a2dbd5b3ed04329994bb19]
link com.prog.evilian to com.badlogic.gdx.graphics.g2d--><path codeLine="14" d="M1014.92,117.01 C990.88,137.4 937.49,179.8 885.09,202 C805.99,235.51 709.64,253.89 639.9,263.58 " fill="none" id="com.prog.evilian-to-com.badlogic.gdx.graphics.g2d" style="stroke: #A80036; stroke-width: 1.0;"/><polygon fill="#A80036" points="634.92,264.27,644.3832,266.9991,639.8728,263.5849,643.287,259.0745,634.92,264.27" style="stroke: #A80036; stroke-width: 1.0;"/><!--MD5=[0c03d16ea73c23e0580959ff826d1766]
link com.prog.world to com.badlogic.gdx--><path codeLine="15" d="M1192.94,32.05 C1174.83,61.3 1127.11,138.39 1106.18,172.21 " fill="none" id="com.prog.world-to-com.badlogic.gdx" style="stroke: #A80036; stroke-width: 1.0;"/><polygon fill="#A80036" points="1103.29,176.87,1111.4218,171.3136,1105.9169,172.6156,1104.6148,167.1107,1103.29,176.87" style="stroke: #A80036; stroke-width: 1.0;"/><!--MD5=[930890260d5c327615902a91e5a6bcc8]
link com.prog.world to com.badlogic.gdx.graphics.g2d--><path codeLine="16" d="M1154.46,20.49 C988.81,21.6 424.35,35.81 337.09,177 C305.49,228.13 383.15,252.49 452.6,263.89 " fill="none" id="com.prog.world-to-com.badlogic.gdx.graphics.g2d" style="stroke: #A80036; stroke-width: 1.0;"/><polygon fill="#A80036" points="457.58,264.68,449.3196,259.3167,452.642,263.8951,448.0636,267.2175,457.58,264.68" style="stroke: #A80036; stroke-width: 1.0;"/><!--MD5=[e301968052359e5ce904ebb354f76d9c]
link com.prog.world to com.badlogic.gdx.utils--><path codeLine="17" d="M1201.52,32.05 C1204.76,63.68 1209.16,152.67 1164.09,202 C1120.06,250.2 1045.37,266.54 990.39,271.77 " fill="none" id="com.prog.world-to-com.badlogic.gdx.utils" style="stroke: #A80036; stroke-width: 1.0;"/><polygon fill="#A80036" points="985.14,272.24,994.4594,275.4257,990.1203,271.7964,993.7496,267.4572,985.14,272.24" style="stroke: #A80036; stroke-width: 1.0;"/><!--MD5=[ead1dfd88445287d662fc62f7402957e]
link com.prog.world to com.prog.evilian--><path codeLine="18" d="M1176.17,32.04 C1144.94,47.11 1090.32,73.47 1056.86,89.62 " fill="none" id="com.prog.world-to-com.prog.evilian" style="stroke: #A80036; stroke-width: 1.0;"/><polygon fill="#A80036" points="1052.08,91.92,1061.9244,91.6234,1056.5858,89.7526,1058.4566,84.4141,1052.08,91.92" style="stroke: #A80036; stroke-width: 1.0;"/><!--MD5=[36234d572e0db3575dec15a435709121]
link com.prog.world to com.prog.entity--><path codeLine="19" d="M1154.19,23.28 C1027.92,31.31 677.51,56.25 568.09,92 C509.62,111.1 448.85,151.83 418.61,173.78 " fill="none" id="com.prog.world-to-com.prog.entity" style="stroke: #A80036; stroke-width: 1.0;"/><polygon fill="#A80036" points="414.38,176.87,424.0021,174.7689,418.4107,173.9113,419.2682,168.3199,414.38,176.87" style="stroke: #A80036; stroke-width: 1.0;"/><!--MD5=[c900c99c855c5a8d7ec7881473ac991c]
link com.prog.world to com.badlogic.gdx.physics.box2d--><path codeLine="20" d="M1154.32,21.62 C945.35,26.94 90.49,51.14 52.09,92 C6,141.05 74.4,223.45 107.2,257.77 " fill="none" id="com.prog.world-to-com.badlogic.gdx.physics.box2d" style="stroke: #A80036; stroke-width: 1.0;"/><polygon fill="#A80036" points="111.01,261.71,107.6238,252.4616,107.5322,258.1177,101.8761,258.0261,111.01,261.71" style="stroke: #A80036; stroke-width: 1.0;"/><!--MD5=[1fce7bf20a1309e6a001690e10875866]
link com.prog.world to com.badlogic.gdx.maps.tiled--><path codeLine="21" d="M1228.73,32.04 C1266.45,47.24 1332.64,73.91 1372.62,90.01 " fill="none" id="com.prog.world-to-com.badlogic.gdx.maps.tiled" style="stroke: #A80036; stroke-width: 1.0;"/><polygon fill="#A80036" points="1377.36,91.92,1370.4893,84.8636,1372.7176,90.063,1367.5181,92.2914,1377.36,91.92" style="stroke: #A80036; stroke-width: 1.0;"/><!--MD5=[632867b8b95f39d1d41b190db757a425]
link com.prog.world to com.badlogic.gdx.maps.tiled.renderers--><path codeLine="22" d="M1245.61,29.23 C1322.75,44.01 1479.41,74.04 1568.09,91.04 " fill="none" id="com.prog.world-to-com.badlogic.gdx.maps.tiled.renderers" style="stroke: #A80036; stroke-width: 1.0;"/><polygon fill="#A80036" points="1573.04,91.99,1564.9549,86.3658,1568.1296,91.0479,1563.4475,94.2225,1573.04,91.99" style="stroke: #A80036; stroke-width: 1.0;"/><!--MD5=[ceb0fd2625376301f7ebfd4a76929aea]
link com.prog.world to com.badlogic.gdx.graphics--><path codeLine="23" d="M1154.35,20.69 C1006.64,21.91 544.16,30.65 410.09,92 C360.64,114.63 343.33,126.94 322.09,177 C310.65,203.96 324.91,237.56 335.83,257.16 " fill="none" id="com.prog.world-to-com.badlogic.gdx.graphics" style="stroke: #A80036; stroke-width: 1.0;"/><polygon fill="#A80036" points="338.52,261.83,337.5069,252.0334,336.0301,257.4941,330.5694,256.0173,338.52,261.83" style="stroke: #A80036; stroke-width: 1.0;"/><!--MD5=[d00ad406277ccc1dc9fdc356fc30fbc8]
link com.prog.world to com.prog.world.UI--><path codeLine="24" d="M1154.18,27.29 C1052.69,42.31 809.39,78.3 697.36,94.88 " fill="none" id="com.prog.world-to-com.prog.world.UI" style="stroke: #A80036; stroke-width: 1.0;"/><polygon fill="#A80036" points="692.13,95.65,701.6171,98.2948,697.0766,94.9209,700.4505,90.3803,692.13,95.65" style="stroke: #A80036; stroke-width: 1.0;"/><!--MD5=[589f76009df0eb4a33d43283c2a3c49b]
link com.prog.world to com.badlogic.gdx.maps--><path codeLine="25" d="M1245.92,26.24 C1341.63,38.26 1569.78,67.02 1761.09,92 C1765.17,92.53 1769.36,93.08 1773.58,93.64 " fill="none" id="com.prog.world-to-com.badlogic.gdx.maps" style="stroke: #A80036; stroke-width: 1.0;"/><polygon fill="#A80036" points="1778.56,94.3,1770.1637,89.152,1773.6034,93.6429,1769.1124,97.0826,1778.56,94.3" style="stroke: #A80036; stroke-width: 1.0;"/><!--MD5=[c4a6855bd749d4371684bf311af5fc87]
link com.prog.world to com.badlogic.gdx.maps.objects--><path codeLine="26" d="M1245.99,24.83 C1361.45,35.77 1673.28,65.5 1933.09,92 C1937.27,92.43 1941.54,92.87 1945.85,93.31 " fill="none" id="com.prog.world-to-com.badlogic.gdx.maps.objects" style="stroke: #A80036; stroke-width: 1.0;"/><polygon fill="#A80036" points="1950.93,93.84,1942.3894,88.9351,1945.9565,93.3255,1941.5662,96.8927,1950.93,93.84" style="stroke: #A80036; stroke-width: 1.0;"/><!--MD5=[68af9f9c6f171f8ff17a2a713094d37a]
link com.prog.world to com.prog.collision--><path codeLine="27" d="M1154.32,22.65 C1012.76,29.56 569.54,52.99 204.09,92 C196.86,92.77 189.28,93.69 181.79,94.68 " fill="none" id="com.prog.world-to-com.prog.collision" style="stroke: #A80036; stroke-width: 1.0;"/><polygon fill="#A80036" points="176.62,95.37,186.0676,98.1526,181.5766,94.7129,185.0163,90.222,176.62,95.37" style="stroke: #A80036; stroke-width: 1.0;"/><!--MD5=[e20053c73aa28290a3ad262904f69631]
link com.prog.world to com.badlogic.gdx.audio--><path codeLine="28" d="M1245.61,22.97 C1382.51,30.6 1802.38,55.52 2149.09,92 C2152.94,92.41 2156.89,92.85 2160.87,93.31 " fill="none" id="com.prog.world-to-com.badlogic.gdx.audio" style="stroke: #A80036; stroke-width: 1.0;"/><polygon fill="#A80036" points="2165.93,93.92,2157.4759,88.8675,2160.9662,93.3192,2156.5146,96.8096,2165.93,93.92" style="stroke: #A80036; stroke-width: 1.0;"/><!--MD5=[a7d6fa3ae127756136bcb4f7b3a668d6]
link com.prog.world to com.crashinvaders.vfx--><path codeLine="29" d="M1245.8,22.15 C1398.4,27.93 1904.1,49.26 2320.09,92 C2324.06,92.41 2328.14,92.87 2332.25,93.36 " fill="none" id="com.prog.world-to-com.crashinvaders.vfx" style="stroke: #A80036; stroke-width: 1.0;"/><polygon fill="#A80036" points="2337.48,93.99,2329.0241,88.9404,2332.516,93.3909,2328.0656,96.8828,2337.48,93.99" style="stroke: #A80036; stroke-width: 1.0;"/><!--MD5=[8a181d666e2f3db47e195ea8b652c9f9]
link com.prog.world to com.crashinvaders.vfx.effects--><path codeLine="30" d="M1245.86,22.1 C1412.06,28.1 1999.26,51.08 2482.09,92 C2486.26,92.35 2490.53,92.74 2494.83,93.15 " fill="none" id="com.prog.world-to-com.crashinvaders.vfx.effects" style="stroke: #A80036; stroke-width: 1.0;"/><polygon fill="#A80036" points="2499.9,93.64,2491.3316,88.7838,2494.9237,93.1538,2490.5537,96.7459,2499.9,93.64" style="stroke: #A80036; stroke-width: 1.0;"/><!--MD5=[03eed035147c724a8715590f226c5c8b]
link com.prog.world to com.badlogic.gdx.math--><path codeLine="31" d="M1201.83,32.34 C1205.84,64.73 1212.05,155.47 1164.09,202 C1151.39,214.32 926.62,247.09 808.04,263.64 " fill="none" id="com.prog.world-to-com.badlogic.gdx.math" style="stroke: #A80036; stroke-width: 1.0;"/><polygon fill="#A80036" points="802.82,264.37,812.2843,267.0953,807.7726,263.6829,811.185,259.1712,802.82,264.37" style="stroke: #A80036; stroke-width: 1.0;"/><!--MD5=[507764f50c734954580101cafef1506b]
link com.prog.world.UI to com.badlogic.gdx.graphics--><path codeLine="32" d="M618.95,117.05 C566.89,146.9 427.94,226.57 370.98,259.23 " fill="none" id="com.prog.world.UI-to-com.badlogic.gdx.graphics" style="stroke: #A80036; stroke-width: 1.0;"/><polygon fill="#A80036" points="366.37,261.87,376.1666,260.8569,370.7059,259.3801,372.1827,253.9194,366.37,261.87" style="stroke: #A80036; stroke-width: 1.0;"/><!--MD5=[3cfc452b1b37096f1c772e9dc3dfdf3a]
link com.prog.world.UI to com.badlogic.gdx.math--><path codeLine="33" d="M641.82,117.09 C646.55,135.84 657.39,173.57 674.09,202 C686.72,223.5 706.16,244.63 719.9,258.28 " fill="none" id="com.prog.world.UI-to-com.badlogic.gdx.math" style="stroke: #A80036; stroke-width: 1.0;"/><polygon fill="#A80036" points="723.61,261.92,719.9818,252.7638,720.0389,258.4204,714.3824,258.4775,723.61,261.92" style="stroke: #A80036; stroke-width: 1.0;"/><!--MD5=[e83379ab59715e163ce4e07e6c513065]
link com.prog.world.UI to com.prog.entity--><path codeLine="34" d="M605.72,117.04 C561.6,132.3 484.04,159.12 437.52,175.21 " fill="none" id="com.prog.world.UI-to-com.prog.entity" style="stroke: #A80036; stroke-width: 1.0;"/><polygon fill="#A80036" points="432.56,176.92,442.3728,177.7621,437.286,175.2874,439.7606,170.2006,432.56,176.92" style="stroke: #A80036; stroke-width: 1.0;"/><!--MD5=[f1cfddd765bf4089722ee85e62081456]
link com.prog.world.UI to com.badlogic.gdx.utils.viewport--><path codeLine="35" d="M658.7,117.04 C684.02,131.95 728.1,157.89 755.6,174.08 " fill="none" id="com.prog.world.UI-to-com.badlogic.gdx.utils.viewport" style="stroke: #A80036; stroke-width: 1.0;"/><polygon fill="#A80036" points="760.2,176.79,754.4893,168.7658,755.8962,174.2449,750.4171,175.6519,760.2,176.79" style="stroke: #A80036; stroke-width: 1.0;"/><!--MD5=[1f8818f7acd88f5f8e8f03302b10f12d]
link com.prog.world.UI to com.badlogic.gdx.utils--><path codeLine="36" d="M692.12,107.45 C747.02,112.22 832.04,127.75 885.09,177 C907.92,198.2 916.35,235.24 919.41,256.74 " fill="none" id="com.prog.world.UI-to-com.badlogic.gdx.utils" style="stroke: #A80036; stroke-width: 1.0;"/><polygon fill="#A80036" points="920.07,261.86,922.8793,252.4203,919.427,256.9015,914.9458,253.4492,920.07,261.86" style="stroke: #A80036; stroke-width: 1.0;"/><!--MD5=[ac576211458e5b993acfb9830995d7ef]
link com.prog.world.UI to com.badlogic.gdx.graphics.g2d--><path codeLine="37" d="M632.7,117.05 C616.5,146.3 573.83,223.39 555.11,257.21 " fill="none" id="com.prog.world.UI-to-com.badlogic.gdx.graphics.g2d" style="stroke: #A80036; stroke-width: 1.0;"/><polygon fill="#A80036" points="552.53,261.87,560.3826,255.9255,554.9473,257.4932,553.3796,252.0579,552.53,261.87" style="stroke: #A80036; stroke-width: 1.0;"/><text fill="#888888" font-family="sans-serif" font-size="10" lengthAdjust="spacingAndGlyphs" textLength="190" x="1238.545" y="310.4746">UMLDoclet 2.0.12, PlantUML 1.2020.16</text><!--MD5=[5545ebc2698a65ad09a5fd3c2839f91f]
@startuml
    set namespaceSeparator none
    hide circle
    hide empty fields
    hide empty methods

    com.prog.collision - -> com.badlogic.gdx.physics.box2d
    com.prog.collision - -> com.prog.entity
    com.prog.entity - -> com.badlogic.gdx.graphics
    com.prog.entity - -> com.badlogic.gdx.graphics.g2d
    com.prog.entity - -> com.badlogic.gdx.math
    com.prog.entity - -> com.badlogic.gdx.utils
    com.prog.entity - -> com.badlogic.gdx.physics.box2d
    com.prog.evilian - -> com.badlogic.gdx
    com.prog.evilian - -> com.badlogic.gdx.graphics.g2d
    com.prog.world - -> com.badlogic.gdx
    com.prog.world - -> com.badlogic.gdx.graphics.g2d
    com.prog.world - -> com.badlogic.gdx.utils
    com.prog.world - -> com.prog.evilian
    com.prog.world - -> com.prog.entity
    com.prog.world - -> com.badlogic.gdx.physics.box2d
    com.prog.world - -> com.badlogic.gdx.maps.tiled
    com.prog.world - -> com.badlogic.gdx.maps.tiled.renderers
    com.prog.world - -> com.badlogic.gdx.graphics
    com.prog.world - -> com.prog.world.UI
    com.prog.world - -> com.badlogic.gdx.maps
    com.prog.world - -> com.badlogic.gdx.maps.objects
    com.prog.world - -> com.prog.collision
    com.prog.world - -> com.badlogic.gdx.audio
    com.prog.world - -> com.crashinvaders.vfx
    com.prog.world - -> com.crashinvaders.vfx.effects
    com.prog.world - -> com.badlogic.gdx.math
    com.prog.world.UI - -> com.badlogic.gdx.graphics
    com.prog.world.UI - -> com.badlogic.gdx.math
    com.prog.world.UI - -> com.prog.entity
    com.prog.world.UI - -> com.badlogic.gdx.utils.viewport
    com.prog.world.UI - -> com.badlogic.gdx.utils
    com.prog.world.UI - -> com.badlogic.gdx.graphics.g2d

    ' Package links
    class "com.prog.collision" [[..\com\prog\collision\package-summary.html]] {
    }
    class "com.prog.entity" [[..\com\prog\entity\package-summary.html]] {
    }
    class "com.prog.evilian" [[..\com\prog\evilian\package-summary.html]] {
    }
    class "com.prog.world" [[..\com\prog\world\package-summary.html]] {
    }
    class "com.prog.world.UI" [[..\com\prog\world\UI\package-summary.html]] {
    }

    center footer UMLDoclet 2.0.12, PlantUML 1.2020.16
@enduml

@startuml
    set namespaceSeparator none
    hide circle
    hide empty fields
    hide empty methods

    com.prog.collision - -> com.badlogic.gdx.physics.box2d
    com.prog.collision - -> com.prog.entity
    com.prog.entity - -> com.badlogic.gdx.graphics
    com.prog.entity - -> com.badlogic.gdx.graphics.g2d
    com.prog.entity - -> com.badlogic.gdx.math
    com.prog.entity - -> com.badlogic.gdx.utils
    com.prog.entity - -> com.badlogic.gdx.physics.box2d
    com.prog.evilian - -> com.badlogic.gdx
    com.prog.evilian - -> com.badlogic.gdx.graphics.g2d
    com.prog.world - -> com.badlogic.gdx
    com.prog.world - -> com.badlogic.gdx.graphics.g2d
    com.prog.world - -> com.badlogic.gdx.utils
    com.prog.world - -> com.prog.evilian
    com.prog.world - -> com.prog.entity
    com.prog.world - -> com.badlogic.gdx.physics.box2d
    com.prog.world - -> com.badlogic.gdx.maps.tiled
    com.prog.world - -> com.badlogic.gdx.maps.tiled.renderers
    com.prog.world - -> com.badlogic.gdx.graphics
    com.prog.world - -> com.prog.world.UI
    com.prog.world - -> com.badlogic.gdx.maps
    com.prog.world - -> com.badlogic.gdx.maps.objects
    com.prog.world - -> com.prog.collision
    com.prog.world - -> com.badlogic.gdx.audio
    com.prog.world - -> com.crashinvaders.vfx
    com.prog.world - -> com.crashinvaders.vfx.effects
    com.prog.world - -> com.badlogic.gdx.math
    com.prog.world.UI - -> com.badlogic.gdx.graphics
    com.prog.world.UI - -> com.badlogic.gdx.math
    com.prog.world.UI - -> com.prog.entity
    com.prog.world.UI - -> com.badlogic.gdx.utils.viewport
    com.prog.world.UI - -> com.badlogic.gdx.utils
    com.prog.world.UI - -> com.badlogic.gdx.graphics.g2d

    class "com.prog.collision" [[..\com\prog\collision\package-summary.html]] {
    }
    class "com.prog.entity" [[..\com\prog\entity\package-summary.html]] {
    }
    class "com.prog.evilian" [[..\com\prog\evilian\package-summary.html]] {
    }
    class "com.prog.world" [[..\com\prog\world\package-summary.html]] {
    }
    class "com.prog.world.UI" [[..\com\prog\world\UI\package-summary.html]] {
    }

    center footer UMLDoclet 2.0.12, PlantUML 1.2020.16
@enduml

PlantUML version 1.2020.16(Sun Aug 23 22:20:43 CEST 2020)
(APACHE source distribution)
Java Runtime: Java(TM) SE Runtime Environment
JVM: Java HotSpot(TM) 64-Bit Server VM
Default Encoding: Cp1252
Language: it
Country: IT
--></g></svg>