<?xml version="1.0" encoding="UTF-8" standalone="no"?><svg xmlns="http://www.w3.org/2000/svg" xmlns:xlink="http://www.w3.org/1999/xlink" contentScriptType="application/ecmascript" contentStyleType="text/css" height="339px" preserveAspectRatio="none" style="width:305px;height:339px;" version="1.1" viewBox="0 0 305 339" width="305px" zoomAndPan="magnify"><defs><filter height="300%" id="fnnpbg661o0p" width="300%" x="-1" y="-1"><feGaussianBlur result="blurOut" stdDeviation="2.0"/><feColorMatrix in="blurOut" result="blurOut2" type="matrix" values="0 0 0 0 0 0 0 0 0 0 0 0 0 0 0 0 0 0 .4 0"/><feOffset dx="4.0" dy="4.0" in="blurOut2" result="blurOut3"/><feBlend in="SourceGraphic" in2="blurOut3" mode="normal"/></filter></defs><g><!--MD5=[4733e05bfe0dc1fd8165fbeb08555228]
class com.prog.entity.Button--><a href="..\..\..\..\com\prog\entity\Button.html" target="_top" title="..\..\..\..\com\prog\entity\Button.html" xlink:actuate="onRequest" xlink:href="..\..\..\..\com\prog\entity\Button.html" xlink:show="new" xlink:title="..\..\..\..\com\prog\entity\Button.html" xlink:type="simple"><rect codeLine="5" fill="#FEFECE" filter="url(#fnnpbg661o0p)" height="131.2031" id="com.prog.entity.Button" style="stroke: #A80036; stroke-width: 1.5;" width="279" x="7" y="171"/><ellipse cx="105.25" cy="191.0938" fill="#ADD1B2" rx="11" ry="11" style="stroke: #A80036; stroke-width: 1.0;"/><path d="M108.0156,186.9688 Q108.1719,186.75 108.3594,186.6406 Q108.5469,186.5313 108.7656,186.5313 Q109.1406,186.5313 109.375,186.7969 Q109.6094,187.0469 109.6094,187.6563 L109.6094,189.1094 Q109.6094,189.7188 109.375,189.9844 Q109.1406,190.25 108.7656,190.25 Q108.4219,190.25 108.2188,190.0469 Q108.0156,189.8594 107.9063,189.3438 Q107.8594,188.9844 107.6719,188.7969 Q107.3438,188.4219 106.7344,188.2031 Q106.125,187.9844 105.5,187.9844 Q104.7344,187.9844 104.0938,188.3125 Q103.4688,188.6406 102.9688,189.3906 Q102.4844,190.1406 102.4844,191.1719 L102.4844,192.2656 Q102.4844,193.5 103.375,194.3281 Q104.2656,195.1406 105.8594,195.1406 Q106.7969,195.1406 107.4531,194.8906 Q107.8438,194.7344 108.2656,194.2969 Q108.5313,194.0313 108.6719,193.9531 Q108.8281,193.875 109.0313,193.875 Q109.3594,193.875 109.6094,194.1406 Q109.875,194.3906 109.875,194.7344 Q109.875,195.0781 109.5313,195.4844 Q109.0313,196.0625 108.2344,196.3906 Q107.1563,196.8438 105.8594,196.8438 Q104.3438,196.8438 103.1406,196.2188 Q102.1563,195.7188 101.4688,194.6563 Q100.7813,193.5781 100.7813,192.2969 L100.7813,191.1406 Q100.7813,189.8125 101.3906,188.6719 Q102.0156,187.5156 103.1094,186.9063 Q104.2031,186.2813 105.4375,186.2813 Q106.1719,186.2813 106.8125,186.4531 Q107.4688,186.6094 108.0156,186.9688 Z "/><text fill="#000000" font-family="sans-serif" font-size="14" lengthAdjust="spacingAndGlyphs" textLength="41" x="142.25" y="190.5332">Button</text><text fill="#000000" font-family="sans-serif" font-size="10" lengthAdjust="spacingAndGlyphs" textLength="74" x="125.75" y="203.9902">com.prog.entity</text><line style="stroke: #A80036; stroke-width: 1.5;" x1="8" x2="285" y1="211.1875" y2="211.1875"/><ellipse cx="18" cy="222.1875" fill="#84BE84" rx="3" ry="3" style="stroke: #038048; stroke-width: 1.0;"/><text fill="#000000" font-family="sans-serif" font-size="11" lengthAdjust="spacingAndGlyphs" textLength="253" x="27" y="226.6064">Button(float, float, float, float, String, String, boolean)</text><ellipse cx="18" cy="236.0234" fill="#84BE84" rx="3" ry="3" style="stroke: #038048; stroke-width: 1.0;"/><text fill="#000000" font-family="sans-serif" font-size="11" lengthAdjust="spacingAndGlyphs" textLength="88" x="27" y="240.4424">update(float): void</text><ellipse cx="18" cy="249.8594" fill="#84BE84" rx="3" ry="3" style="stroke: #038048; stroke-width: 1.0;"/><text fill="#000000" font-family="sans-serif" font-size="11" lengthAdjust="spacingAndGlyphs" textLength="89" x="27" y="254.2783">handleInput(): void</text><ellipse cx="18" cy="263.6953" fill="#84BE84" rx="3" ry="3" style="stroke: #038048; stroke-width: 1.0;"/><text fill="#000000" font-family="sans-serif" font-size="11" lengthAdjust="spacingAndGlyphs" textLength="60" x="27" y="268.1143">draw(): void</text><ellipse cx="18" cy="277.5313" fill="#84BE84" rx="3" ry="3" style="stroke: #038048; stroke-width: 1.0;"/><text fill="#000000" font-family="sans-serif" font-size="11" lengthAdjust="spacingAndGlyphs" textLength="72" x="27" y="281.9502">dispose(): void</text><ellipse cx="18" cy="291.3672" fill="#84BE84" rx="3" ry="3" style="stroke: #038048; stroke-width: 1.0;"/><text fill="#000000" font-family="sans-serif" font-size="11" lengthAdjust="spacingAndGlyphs" textLength="118" x="27" y="295.7861">setActive(boolean): void</text></a><!--MD5=[0fc430f8d1fc4e9f568253e0381ace99]
class com.prog.entity.Entity--><a href="..\..\..\..\com\prog\entity\Entity.html" target="_top" title="..\..\..\..\com\prog\entity\Entity.html" xlink:actuate="onRequest" xlink:href="..\..\..\..\com\prog\entity\Entity.html" xlink:show="new" xlink:title="..\..\..\..\com\prog\entity\Entity.html" xlink:type="simple"><rect codeLine="14" fill="#FEFECE" filter="url(#fnnpbg661o0p)" height="103.5313" id="com.prog.entity.Entity" style="stroke: #A80036; stroke-width: 1.5;" width="117" x="88" y="7"/><ellipse cx="109.3" cy="27.0938" fill="#A9DCDF" rx="11" ry="11" style="stroke: #A80036; stroke-width: 1.0;"/><path d="M111.4875,28.8594 L107.3469,28.8594 L106.925,29.8906 L107.3469,29.8906 Q107.9563,29.8906 108.2219,30.125 Q108.4875,30.3594 108.4875,30.75 Q108.4875,31.125 108.2219,31.3594 Q107.9563,31.5938 107.3469,31.5938 L105.05,31.5938 Q104.4406,31.5938 104.1906,31.3594 Q103.925,31.125 103.925,30.7344 Q103.925,30.3594 104.2063,30.125 Q104.4719,29.875 105.0969,29.8906 L107.7688,23.2344 L106.6594,23.2344 Q106.05,23.2344 105.7844,23 Q105.5188,22.7656 105.5188,22.375 Q105.5188,22 105.7844,21.7656 Q106.05,21.5313 106.6594,21.5313 L110.3313,21.5313 L113.7219,29.8906 Q114.3156,29.8906 114.5031,30.0313 Q114.8938,30.2969 114.8938,30.75 Q114.8938,31.125 114.6281,31.3594 Q114.3781,31.5938 113.7688,31.5938 L111.4719,31.5938 Q110.8625,31.5938 110.5969,31.3594 Q110.3313,31.125 110.3313,30.7344 Q110.3313,30.3594 110.5969,30.125 Q110.8625,29.8906 111.4719,29.8906 L111.8938,29.8906 L111.4875,28.8594 Z M110.7688,27.1563 L109.4094,23.7813 L108.0344,27.1563 L110.7688,27.1563 Z "/><text fill="#000000" font-family="sans-serif" font-size="14" font-style="italic" lengthAdjust="spacingAndGlyphs" textLength="35" x="142.7" y="26.5332">Entity</text><text fill="#000000" font-family="sans-serif" font-size="10" font-style="italic" lengthAdjust="spacingAndGlyphs" textLength="71" x="124.7" y="39.9902">com.prog.entity</text><line style="stroke: #A80036; stroke-width: 1.5;" x1="89" x2="204" y1="47.1875" y2="47.1875"/><ellipse cx="99" cy="58.1875" fill="#84BE84" rx="3" ry="3" style="stroke: #038048; stroke-width: 1.0;"/><text fill="#000000" font-family="sans-serif" font-size="11" font-style="italic" lengthAdjust="spacingAndGlyphs" textLength="88" x="108" y="62.6064">update(float): void</text><ellipse cx="99" cy="72.0234" fill="#84BE84" rx="3" ry="3" style="stroke: #038048; stroke-width: 1.0;"/><text fill="#000000" font-family="sans-serif" font-size="11" font-style="italic" lengthAdjust="spacingAndGlyphs" textLength="91" x="108" y="76.4424">handleInput(): void</text><ellipse cx="99" cy="85.8594" fill="#84BE84" rx="3" ry="3" style="stroke: #038048; stroke-width: 1.0;"/><text fill="#000000" font-family="sans-serif" font-size="11" font-style="italic" lengthAdjust="spacingAndGlyphs" textLength="57" x="108" y="90.2783">draw(): void</text><ellipse cx="99" cy="99.6953" fill="#84BE84" rx="3" ry="3" style="stroke: #038048; stroke-width: 1.0;"/><text fill="#000000" font-family="sans-serif" font-size="11" font-style="italic" lengthAdjust="spacingAndGlyphs" textLength="73" x="108" y="104.1143">dispose(): void</text></a><!--MD5=[ada311083fe2b3e43e689518c011d23e]
reverse link com.prog.entity.Entity to com.prog.entity.Button--><path codeLine="21" d="M146.5,131.67 C146.5,144.61 146.5,158.04 146.5,170.77 " fill="none" id="com.prog.entity.Entity-backto-com.prog.entity.Button" style="stroke: #A80036; stroke-width: 1.0;"/><polygon fill="none" points="139.5,131.23,146.5,111.23,153.5,131.23,139.5,131.23" style="stroke: #A80036; stroke-width: 1.0;"/><text fill="#888888" font-family="sans-serif" font-size="10" lengthAdjust="spacingAndGlyphs" textLength="190" x="48.5" y="325.584">UMLDoclet 2.0.12, PlantUML 1.2020.16</text><!--MD5=[86b6bcf19d0aefd7f14f3fce685c0a4d]
@startuml
    set namespaceSeparator none
    hide empty fields
    hide empty methods

    class "<size:14>Button\n<size:10>com.prog.entity" as com.prog.entity.Button [[..\..\..\..\com\prog\entity\Button.html]] {
        +Button(float, float, float, float, String, String, boolean)
        +update(float): void
        +handleInput(): void
        +draw(): void
        +dispose(): void
        +setActive(boolean): void
    }

    abstract class "<size:14>Entity\n<size:10>com.prog.entity" as com.prog.entity.Entity [[..\..\..\..\com\prog\entity\Entity.html]] {
        {abstract} +update(float): void
        {abstract} +handleInput(): void
        {abstract} +draw(): void
        {abstract} +dispose(): void
    }

    com.prog.entity.Entity <|- - com.prog.entity.Button

    center footer UMLDoclet 2.0.12, PlantUML 1.2020.16
@enduml

PlantUML version 1.2020.16(Sun Aug 23 22:20:43 CEST 2020)
(APACHE source distribution)
Java Runtime: Java(TM) SE Runtime Environment
JVM: Java HotSpot(TM) 64-Bit Server VM
Default Encoding: Cp1252
Language: it
Country: IT
--></g></svg>