<?xml version="1.0" encoding="UTF-8" standalone="no"?><svg xmlns="http://www.w3.org/2000/svg" xmlns:xlink="http://www.w3.org/1999/xlink" contentScriptType="application/ecmascript" contentStyleType="text/css" height="269px" preserveAspectRatio="none" style="width:202px;height:269px;" version="1.1" viewBox="0 0 202 269" width="202px" zoomAndPan="magnify"><defs><filter height="300%" id="faei3rxy1jhtz" width="300%" x="-1" y="-1"><feGaussianBlur result="blurOut" stdDeviation="2.0"/><feColorMatrix in="blurOut" result="blurOut2" type="matrix" values="0 0 0 0 0 0 0 0 0 0 0 0 0 0 0 0 0 0 .4 0"/><feOffset dx="4.0" dy="4.0" in="blurOut2" result="blurOut3"/><feBlend in="SourceGraphic" in2="blurOut3" mode="normal"/></filter></defs><g><!--MD5=[762061c744275add898783b62902b19c]
class com.prog.entity.Cura--><a href="..\..\..\..\com\prog\entity\Cura.html" target="_top" title="..\..\..\..\com\prog\entity\Cura.html" xlink:actuate="onRequest" xlink:href="..\..\..\..\com\prog\entity\Cura.html" xlink:show="new" xlink:title="..\..\..\..\com\prog\entity\Cura.html" xlink:type="simple"><rect codeLine="5" fill="#FEFECE" filter="url(#faei3rxy1jhtz)" height="89.6953" id="com.prog.entity.Cura" style="stroke: #A80036; stroke-width: 1.5;" width="157" x="19.5" y="143"/><ellipse cx="57.45" cy="163.0938" fill="#ADD1B2" rx="11" ry="11" style="stroke: #A80036; stroke-width: 1.0;"/><path d="M60.2156,158.9688 Q60.3719,158.75 60.5594,158.6406 Q60.7469,158.5313 60.9656,158.5313 Q61.3406,158.5313 61.575,158.7969 Q61.8094,159.0469 61.8094,159.6563 L61.8094,161.1094 Q61.8094,161.7188 61.575,161.9844 Q61.3406,162.25 60.9656,162.25 Q60.6219,162.25 60.4188,162.0469 Q60.2156,161.8594 60.1063,161.3438 Q60.0594,160.9844 59.8719,160.7969 Q59.5438,160.4219 58.9344,160.2031 Q58.325,159.9844 57.7,159.9844 Q56.9344,159.9844 56.2938,160.3125 Q55.6688,160.6406 55.1688,161.3906 Q54.6844,162.1406 54.6844,163.1719 L54.6844,164.2656 Q54.6844,165.5 55.575,166.3281 Q56.4656,167.1406 58.0594,167.1406 Q58.9969,167.1406 59.6531,166.8906 Q60.0438,166.7344 60.4656,166.2969 Q60.7313,166.0313 60.8719,165.9531 Q61.0281,165.875 61.2313,165.875 Q61.5594,165.875 61.8094,166.1406 Q62.075,166.3906 62.075,166.7344 Q62.075,167.0781 61.7313,167.4844 Q61.2313,168.0625 60.4344,168.3906 Q59.3563,168.8438 58.0594,168.8438 Q56.5438,168.8438 55.3406,168.2188 Q54.3563,167.7188 53.6688,166.6563 Q52.9813,165.5781 52.9813,164.2969 L52.9813,163.1406 Q52.9813,161.8125 53.5906,160.6719 Q54.2156,159.5156 55.3094,158.9063 Q56.4031,158.2813 57.6375,158.2813 Q58.3719,158.2813 59.0125,158.4531 Q59.6688,158.6094 60.2156,158.9688 Z "/><text fill="#000000" font-family="sans-serif" font-size="14" lengthAdjust="spacingAndGlyphs" textLength="31" x="98.05" y="162.5332">Cura</text><text fill="#000000" font-family="sans-serif" font-size="10" lengthAdjust="spacingAndGlyphs" textLength="74" x="76.55" y="175.9902">com.prog.entity</text><line style="stroke: #A80036; stroke-width: 1.5;" x1="20.5" x2="175.5" y1="183.1875" y2="183.1875"/><ellipse cx="30.5" cy="194.1875" fill="#84BE84" rx="3" ry="3" style="stroke: #038048; stroke-width: 1.0;"/><text fill="#000000" font-family="sans-serif" font-size="11" lengthAdjust="spacingAndGlyphs" textLength="131" x="39.5" y="198.6064">init(Vector2, Vector2): void</text><ellipse cx="30.5" cy="208.0234" fill="#84BE84" rx="3" ry="3" style="stroke: #038048; stroke-width: 1.0;"/><text fill="#000000" font-family="sans-serif" font-size="11" lengthAdjust="spacingAndGlyphs" textLength="88" x="39.5" y="212.4424">update(float): void</text><ellipse cx="30.5" cy="221.8594" fill="#84BE84" rx="3" ry="3" style="stroke: #038048; stroke-width: 1.0;"/><text fill="#000000" font-family="sans-serif" font-size="11" lengthAdjust="spacingAndGlyphs" text-decoration="underline" textLength="63" x="39.5" y="226.2783">getCD(): long</text></a><!--MD5=[b25ecea9128c4ad15a9f726f48d58e97]
class com.prog.entity.Magia--><a href="..\..\..\..\com\prog\entity\Magia.html" target="_top" title="..\..\..\..\com\prog\entity\Magia.html" xlink:actuate="onRequest" xlink:href="..\..\..\..\com\prog\entity\Magia.html" xlink:show="new" xlink:title="..\..\..\..\com\prog\entity\Magia.html" xlink:type="simple"><rect codeLine="11" fill="#FEFECE" filter="url(#faei3rxy1jhtz)" height="75.8594" id="com.prog.entity.Magia" style="stroke: #A80036; stroke-width: 1.5;" width="157" x="19.5" y="7"/><ellipse cx="58.8" cy="27.0938" fill="#A9DCDF" rx="11" ry="11" style="stroke: #A80036; stroke-width: 1.0;"/><path d="M60.9875,28.8594 L56.8469,28.8594 L56.425,29.8906 L56.8469,29.8906 Q57.4563,29.8906 57.7219,30.125 Q57.9875,30.3594 57.9875,30.75 Q57.9875,31.125 57.7219,31.3594 Q57.4563,31.5938 56.8469,31.5938 L54.55,31.5938 Q53.9406,31.5938 53.6906,31.3594 Q53.425,31.125 53.425,30.7344 Q53.425,30.3594 53.7063,30.125 Q53.9719,29.875 54.5969,29.8906 L57.2688,23.2344 L56.1594,23.2344 Q55.55,23.2344 55.2844,23 Q55.0188,22.7656 55.0188,22.375 Q55.0188,22 55.2844,21.7656 Q55.55,21.5313 56.1594,21.5313 L59.8313,21.5313 L63.2219,29.8906 Q63.8156,29.8906 64.0031,30.0313 Q64.3938,30.2969 64.3938,30.75 Q64.3938,31.125 64.1281,31.3594 Q63.8781,31.5938 63.2688,31.5938 L60.9719,31.5938 Q60.3625,31.5938 60.0969,31.3594 Q59.8313,31.125 59.8313,30.7344 Q59.8313,30.3594 60.0969,30.125 Q60.3625,29.8906 60.9719,29.8906 L61.3938,29.8906 L60.9875,28.8594 Z M60.2688,27.1563 L58.9094,23.7813 L57.5344,27.1563 L60.2688,27.1563 Z "/><text fill="#000000" font-family="sans-serif" font-size="14" font-style="italic" lengthAdjust="spacingAndGlyphs" textLength="39" x="94.2" y="26.5332">Magia</text><text fill="#000000" font-family="sans-serif" font-size="10" font-style="italic" lengthAdjust="spacingAndGlyphs" textLength="71" x="78.2" y="39.9902">com.prog.entity</text><line style="stroke: #A80036; stroke-width: 1.5;" x1="20.5" x2="175.5" y1="47.1875" y2="47.1875"/><ellipse cx="30.5" cy="58.1875" fill="#84BE84" rx="3" ry="3" style="stroke: #038048; stroke-width: 1.0;"/><text fill="#000000" font-family="sans-serif" font-size="11" font-style="italic" lengthAdjust="spacingAndGlyphs" textLength="131" x="39.5" y="62.6064">init(Vector2, Vector2): void</text><ellipse cx="30.5" cy="72.0234" fill="#84BE84" rx="3" ry="3" style="stroke: #038048; stroke-width: 1.0;"/><text fill="#000000" font-family="sans-serif" font-size="11" font-style="italic" lengthAdjust="spacingAndGlyphs" textLength="88" x="39.5" y="76.4424">update(float): void</text></a><!--MD5=[584114542c6c92c38310b545db49d609]
reverse link com.prog.entity.Magia to com.prog.entity.Cura--><path codeLine="16" d="M98,103.09 C98,116.37 98,130.31 98,142.93 " fill="none" id="com.prog.entity.Magia-backto-com.prog.entity.Cura" style="stroke: #A80036; stroke-width: 1.0;"/><polygon fill="none" points="91,103.05,98,83.05,105,103.05,91,103.05" style="stroke: #A80036; stroke-width: 1.0;"/><text fill="#888888" font-family="sans-serif" font-size="10" lengthAdjust="spacingAndGlyphs" textLength="190" x="0" y="256.0762">UMLDoclet 2.0.12, PlantUML 1.2020.16</text><!--MD5=[bd746c4932ebc9d3dc7ab102074c981e]
@startuml
    set namespaceSeparator none
    hide empty fields
    hide empty methods

    class "<size:14>Cura\n<size:10>com.prog.entity" as com.prog.entity.Cura [[..\..\..\..\com\prog\entity\Cura.html]] {
        +init(Vector2, Vector2): void
        +update(float): void
        {static} +getCD(): long
    }

    abstract class "<size:14>Magia\n<size:10>com.prog.entity" as com.prog.entity.Magia [[..\..\..\..\com\prog\entity\Magia.html]] {
        {abstract} +init(Vector2, Vector2): void
        {abstract} +update(float): void
    }

    com.prog.entity.Magia <|- - com.prog.entity.Cura

    center footer UMLDoclet 2.0.12, PlantUML 1.2020.16
@enduml

PlantUML version 1.2020.16(Sun Aug 23 22:20:43 CEST 2020)
(APACHE source distribution)
Java Runtime: Java(TM) SE Runtime Environment
JVM: Java HotSpot(TM) 64-Bit Server VM
Default Encoding: Cp1252
Language: it
Country: IT
--></g></svg>