<?xml version="1.0" encoding="UTF-8" standalone="no"?><svg xmlns="http://www.w3.org/2000/svg" xmlns:xlink="http://www.w3.org/1999/xlink" contentScriptType="application/ecmascript" contentStyleType="text/css" height="261px" preserveAspectRatio="none" style="width:202px;height:261px;" version="1.1" viewBox="0 0 202 261" width="202px" zoomAndPan="magnify"><defs><filter height="300%" id="fgv0cvqtyrizf" width="300%" x="-1" y="-1"><feGaussianBlur result="blurOut" stdDeviation="2.0"/><feColorMatrix in="blurOut" result="blurOut2" type="matrix" values="0 0 0 0 0 0 0 0 0 0 0 0 0 0 0 0 0 0 .4 0"/><feOffset dx="4.0" dy="4.0" in="blurOut2" result="blurOut3"/><feBlend in="SourceGraphic" in2="blurOut3" mode="normal"/></filter></defs><g><!--MD5=[050249a2100ec61dbaeb6edb6b9a5d80]
class com.prog.entity.EnemyA--><a href="..\..\..\..\com\prog\entity\EnemyA.html" target="_top" title="..\..\..\..\com\prog\entity\EnemyA.html" xlink:actuate="onRequest" xlink:href="..\..\..\..\com\prog\entity\EnemyA.html" xlink:show="new" xlink:title="..\..\..\..\com\prog\entity\EnemyA.html" xlink:type="simple"><rect codeLine="5" fill="#FEFECE" filter="url(#fgv0cvqtyrizf)" height="117.3672" id="com.prog.entity.EnemyA" style="stroke: #A80036; stroke-width: 1.5;" width="115" x="40.5" y="107"/><ellipse cx="59.55" cy="127.0938" fill="#ADD1B2" rx="11" ry="11" style="stroke: #A80036; stroke-width: 1.0;"/><path d="M62.3156,122.9688 Q62.4719,122.75 62.6594,122.6406 Q62.8469,122.5313 63.0656,122.5313 Q63.4406,122.5313 63.675,122.7969 Q63.9094,123.0469 63.9094,123.6563 L63.9094,125.1094 Q63.9094,125.7188 63.675,125.9844 Q63.4406,126.25 63.0656,126.25 Q62.7219,126.25 62.5188,126.0469 Q62.3156,125.8594 62.2063,125.3438 Q62.1594,124.9844 61.9719,124.7969 Q61.6438,124.4219 61.0344,124.2031 Q60.425,123.9844 59.8,123.9844 Q59.0344,123.9844 58.3938,124.3125 Q57.7688,124.6406 57.2688,125.3906 Q56.7844,126.1406 56.7844,127.1719 L56.7844,128.2656 Q56.7844,129.5 57.675,130.3281 Q58.5656,131.1406 60.1594,131.1406 Q61.0969,131.1406 61.7531,130.8906 Q62.1438,130.7344 62.5656,130.2969 Q62.8313,130.0313 62.9719,129.9531 Q63.1281,129.875 63.3313,129.875 Q63.6594,129.875 63.9094,130.1406 Q64.175,130.3906 64.175,130.7344 Q64.175,131.0781 63.8313,131.4844 Q63.3313,132.0625 62.5344,132.3906 Q61.4563,132.8438 60.1594,132.8438 Q58.6438,132.8438 57.4406,132.2188 Q56.4563,131.7188 55.7688,130.6563 Q55.0813,129.5781 55.0813,128.2969 L55.0813,127.1406 Q55.0813,125.8125 55.6906,124.6719 Q56.3156,123.5156 57.4094,122.9063 Q58.5031,122.2813 59.7375,122.2813 Q60.4719,122.2813 61.1125,122.4531 Q61.7688,122.6094 62.3156,122.9688 Z "/><text fill="#000000" font-family="sans-serif" font-size="14" lengthAdjust="spacingAndGlyphs" textLength="52" x="85.45" y="126.5332">EnemyA</text><text fill="#000000" font-family="sans-serif" font-size="10" lengthAdjust="spacingAndGlyphs" textLength="74" x="74.45" y="139.9902">com.prog.entity</text><line style="stroke: #A80036; stroke-width: 1.5;" x1="41.5" x2="154.5" y1="147.1875" y2="147.1875"/><ellipse cx="51.5" cy="158.1875" fill="#84BE84" rx="3" ry="3" style="stroke: #038048; stroke-width: 1.0;"/><text fill="#000000" font-family="sans-serif" font-size="11" lengthAdjust="spacingAndGlyphs" textLength="88" x="60.5" y="162.6064">update(float): void</text><ellipse cx="51.5" cy="172.0234" fill="#84BE84" rx="3" ry="3" style="stroke: #038048; stroke-width: 1.0;"/><text fill="#000000" font-family="sans-serif" font-size="11" lengthAdjust="spacingAndGlyphs" textLength="89" x="60.5" y="176.4424">handleInput(): void</text><ellipse cx="51.5" cy="185.8594" fill="#84BE84" rx="3" ry="3" style="stroke: #038048; stroke-width: 1.0;"/><text fill="#000000" font-family="sans-serif" font-size="11" lengthAdjust="spacingAndGlyphs" textLength="60" x="60.5" y="190.2783">draw(): void</text><ellipse cx="51.5" cy="199.6953" fill="#84BE84" rx="3" ry="3" style="stroke: #038048; stroke-width: 1.0;"/><text fill="#000000" font-family="sans-serif" font-size="11" lengthAdjust="spacingAndGlyphs" textLength="72" x="60.5" y="204.1143">dispose(): void</text><ellipse cx="51.5" cy="213.5313" fill="#84BE84" rx="3" ry="3" style="stroke: #038048; stroke-width: 1.0;"/><text fill="#000000" font-family="sans-serif" font-size="11" lengthAdjust="spacingAndGlyphs" textLength="59" x="60.5" y="217.9502">reset(): void</text></a><!--MD5=[f8950589ff5f15716505ff64bca43bb6]
class com.prog.entity.Enemy--><a href="..\..\..\..\com\prog\entity\Enemy.html" target="_top" title="..\..\..\..\com\prog\entity\Enemy.html" xlink:actuate="onRequest" xlink:href="..\..\..\..\com\prog\entity\Enemy.html" xlink:show="new" xlink:title="..\..\..\..\com\prog\entity\Enemy.html" xlink:type="simple"><rect codeLine="13" fill="#FEFECE" filter="url(#fgv0cvqtyrizf)" height="40.1875" id="com.prog.entity.Enemy" style="stroke: #A80036; stroke-width: 1.5;" width="103" x="46.5" y="7"/><ellipse cx="61.5" cy="27.0938" fill="#A9DCDF" rx="11" ry="11" style="stroke: #A80036; stroke-width: 1.0;"/><path d="M63.6875,28.8594 L59.5469,28.8594 L59.125,29.8906 L59.5469,29.8906 Q60.1563,29.8906 60.4219,30.125 Q60.6875,30.3594 60.6875,30.75 Q60.6875,31.125 60.4219,31.3594 Q60.1563,31.5938 59.5469,31.5938 L57.25,31.5938 Q56.6406,31.5938 56.3906,31.3594 Q56.125,31.125 56.125,30.7344 Q56.125,30.3594 56.4063,30.125 Q56.6719,29.875 57.2969,29.8906 L59.9688,23.2344 L58.8594,23.2344 Q58.25,23.2344 57.9844,23 Q57.7188,22.7656 57.7188,22.375 Q57.7188,22 57.9844,21.7656 Q58.25,21.5313 58.8594,21.5313 L62.5313,21.5313 L65.9219,29.8906 Q66.5156,29.8906 66.7031,30.0313 Q67.0938,30.2969 67.0938,30.75 Q67.0938,31.125 66.8281,31.3594 Q66.5781,31.5938 65.9688,31.5938 L63.6719,31.5938 Q63.0625,31.5938 62.7969,31.3594 Q62.5313,31.125 62.5313,30.7344 Q62.5313,30.3594 62.7969,30.125 Q63.0625,29.8906 63.6719,29.8906 L64.0938,29.8906 L63.6875,28.8594 Z M62.9688,27.1563 L61.6094,23.7813 L60.2344,27.1563 L62.9688,27.1563 Z "/><text fill="#000000" font-family="sans-serif" font-size="14" font-style="italic" lengthAdjust="spacingAndGlyphs" textLength="43" x="89.5" y="26.5332">Enemy</text><text fill="#000000" font-family="sans-serif" font-size="10" font-style="italic" lengthAdjust="spacingAndGlyphs" textLength="71" x="75.5" y="39.9902">com.prog.entity</text></a><!--MD5=[ee48085c26813ba5f0ca8ea0018313e6]
reverse link com.prog.entity.Enemy to com.prog.entity.EnemyA--><path codeLine="16" d="M98,67.38 C98,79.73 98,93.63 98,106.97 " fill="none" id="com.prog.entity.Enemy-backto-com.prog.entity.EnemyA" style="stroke: #A80036; stroke-width: 1.0;"/><polygon fill="none" points="91,67.27,98,47.27,105,67.27,91,67.27" style="stroke: #A80036; stroke-width: 1.0;"/><text fill="#888888" font-family="sans-serif" font-size="10" lengthAdjust="spacingAndGlyphs" textLength="190" x="0" y="247.748">UMLDoclet 2.0.12, PlantUML 1.2020.16</text><!--MD5=[b6515cc765d298671ad627fbbb03d5e2]
@startuml
    set namespaceSeparator none
    hide empty fields
    hide empty methods

    class "<size:14>EnemyA\n<size:10>com.prog.entity" as com.prog.entity.EnemyA [[..\..\..\..\com\prog\entity\EnemyA.html]] {
        +update(float): void
        +handleInput(): void
        +draw(): void
        +dispose(): void
        +reset(): void
    }

    abstract class "<size:14>Enemy\n<size:10>com.prog.entity" as com.prog.entity.Enemy [[..\..\..\..\com\prog\entity\Enemy.html]] {
    }

    com.prog.entity.Enemy <|- - com.prog.entity.EnemyA

    center footer UMLDoclet 2.0.12, PlantUML 1.2020.16
@enduml

PlantUML version 1.2020.16(Sun Aug 23 22:20:43 CEST 2020)
(APACHE source distribution)
Java Runtime: Java(TM) SE Runtime Environment
JVM: Java HotSpot(TM) 64-Bit Server VM
Default Encoding: Cp1252
Language: it
Country: IT
--></g></svg>