<?xml version="1.0" encoding="UTF-8" standalone="no"?><svg xmlns="http://www.w3.org/2000/svg" xmlns:xlink="http://www.w3.org/1999/xlink" contentScriptType="application/ecmascript" contentStyleType="text/css" height="219px" preserveAspectRatio="none" style="width:228px;height:219px;" version="1.1" viewBox="0 0 228 219" width="228px" zoomAndPan="magnify"><defs><filter height="300%" id="f2ppzjoku7e8p" width="300%" x="-1" y="-1"><feGaussianBlur result="blurOut" stdDeviation="2.0"/><feColorMatrix in="blurOut" result="blurOut2" type="matrix" values="0 0 0 0 0 0 0 0 0 0 0 0 0 0 0 0 0 0 .4 0"/><feOffset dx="4.0" dy="4.0" in="blurOut2" result="blurOut3"/><feBlend in="SourceGraphic" in2="blurOut3" mode="normal"/></filter></defs><g><!--MD5=[5ed82ad8e39b8e9150e7bd128fcaf6c1]
class com.prog.entity.EnemyFactory.EnemyType--><a href="..\..\..\..\com\prog\entity\EnemyFactory.EnemyType.html" target="_top" title="..\..\..\..\com\prog\entity\EnemyFactory.EnemyType.html" xlink:actuate="onRequest" xlink:href="..\..\..\..\com\prog\entity\EnemyFactory.EnemyType.html" xlink:show="new" xlink:title="..\..\..\..\com\prog\entity\EnemyFactory.EnemyType.html" xlink:type="simple"><rect codeLine="5" fill="#FEFECE" filter="url(#f2ppzjoku7e8p)" height="75.8594" id="com.prog.entity.EnemyFactory.EnemyType" style="stroke: #A80036; stroke-width: 1.5;" width="202" x="7" y="107"/><ellipse cx="22" cy="127.0938" fill="#EB937F" rx="11" ry="11" style="stroke: #A80036; stroke-width: 1.0;"/><path d="M20.8594,127.8906 L20.8594,130.3906 L25.1875,130.3906 L25.1875,129.4688 Q25.1875,128.8594 25.4219,128.5938 Q25.6719,128.3281 26.0469,128.3281 Q26.4219,128.3281 26.6563,128.5938 Q26.8906,128.8594 26.8906,129.4688 L26.8906,132.0938 L18.8906,132.0938 Q18.2656,132.0938 18,131.8594 Q17.75,131.625 17.75,131.2344 Q17.75,130.8594 18.0156,130.625 Q18.2813,130.3906 18.8906,130.3906 L19.1563,130.3906 L19.1563,123.7344 L18.8906,123.7344 Q18.2656,123.7344 18,123.5 Q17.75,123.2656 17.75,122.875 Q17.75,122.5 18,122.2656 Q18.2656,122.0313 18.8906,122.0313 L26.5156,122.0313 L26.5156,124.625 Q26.5156,125.2344 26.2813,125.5 Q26.0625,125.75 25.6719,125.75 Q25.2969,125.75 25.0625,125.5 Q24.8281,125.2344 24.8281,124.625 L24.8281,123.7344 L20.8594,123.7344 L20.8594,126.1875 L22.3438,126.1875 Q22.3438,125.5313 22.4688,125.3438 Q22.7344,124.9375 23.2031,124.9375 Q23.5781,124.9375 23.8125,125.2031 Q24.0469,125.4531 24.0469,126.0625 L24.0469,128.0313 Q24.0469,128.5781 23.9219,128.7656 Q23.6563,129.1563 23.2031,129.1563 Q22.7344,129.1563 22.4688,128.75 Q22.3438,128.5625 22.3438,127.8906 L20.8594,127.8906 Z "/><text fill="#000000" font-family="sans-serif" font-size="14" lengthAdjust="spacingAndGlyphs" textLength="170" x="36" y="126.5332">EnemyFactory.EnemyType</text><text fill="#000000" font-family="sans-serif" font-size="10" lengthAdjust="spacingAndGlyphs" textLength="74" x="84" y="139.9902">com.prog.entity</text><line style="stroke: #A80036; stroke-width: 1.5;" x1="8" x2="208" y1="147.1875" y2="147.1875"/><text fill="#000000" font-family="sans-serif" font-size="11" lengthAdjust="spacingAndGlyphs" text-decoration="underline" textLength="14" x="13" y="162.6064">+A</text><text fill="#000000" font-family="sans-serif" font-size="11" lengthAdjust="spacingAndGlyphs" text-decoration="underline" textLength="13" x="13" y="176.4424">+B</text></a><!--MD5=[c63952c0437038c98de8e544fefbed1a]
class com.prog.entity.EnemyFactory--><a href="..\..\..\..\com\prog\entity\EnemyFactory.html" target="_top" title="..\..\..\..\com\prog\entity\EnemyFactory.html" xlink:actuate="onRequest" xlink:href="..\..\..\..\com\prog\entity\EnemyFactory.html" xlink:show="new" xlink:title="..\..\..\..\com\prog\entity\EnemyFactory.html" xlink:type="simple"><rect codeLine="10" fill="#FEFECE" filter="url(#f2ppzjoku7e8p)" height="40.1875" id="com.prog.entity.EnemyFactory" style="stroke: #A80036; stroke-width: 1.5;" width="123" x="46.5" y="7"/><ellipse cx="61.5" cy="27.0938" fill="#ADD1B2" rx="11" ry="11" style="stroke: #A80036; stroke-width: 1.0;"/><path d="M64.2656,22.9688 Q64.4219,22.75 64.6094,22.6406 Q64.7969,22.5313 65.0156,22.5313 Q65.3906,22.5313 65.625,22.7969 Q65.8594,23.0469 65.8594,23.6563 L65.8594,25.1094 Q65.8594,25.7188 65.625,25.9844 Q65.3906,26.25 65.0156,26.25 Q64.6719,26.25 64.4688,26.0469 Q64.2656,25.8594 64.1563,25.3438 Q64.1094,24.9844 63.9219,24.7969 Q63.5938,24.4219 62.9844,24.2031 Q62.375,23.9844 61.75,23.9844 Q60.9844,23.9844 60.3438,24.3125 Q59.7188,24.6406 59.2188,25.3906 Q58.7344,26.1406 58.7344,27.1719 L58.7344,28.2656 Q58.7344,29.5 59.625,30.3281 Q60.5156,31.1406 62.1094,31.1406 Q63.0469,31.1406 63.7031,30.8906 Q64.0938,30.7344 64.5156,30.2969 Q64.7813,30.0313 64.9219,29.9531 Q65.0781,29.875 65.2813,29.875 Q65.6094,29.875 65.8594,30.1406 Q66.125,30.3906 66.125,30.7344 Q66.125,31.0781 65.7813,31.4844 Q65.2813,32.0625 64.4844,32.3906 Q63.4063,32.8438 62.1094,32.8438 Q60.5938,32.8438 59.3906,32.2188 Q58.4063,31.7188 57.7188,30.6563 Q57.0313,29.5781 57.0313,28.2969 L57.0313,27.1406 Q57.0313,25.8125 57.6406,24.6719 Q58.2656,23.5156 59.3594,22.9063 Q60.4531,22.2813 61.6875,22.2813 Q62.4219,22.2813 63.0625,22.4531 Q63.7188,22.6094 64.2656,22.9688 Z "/><text fill="#000000" font-family="sans-serif" font-size="14" lengthAdjust="spacingAndGlyphs" textLength="91" x="75.5" y="26.5332">EnemyFactory</text><text fill="#000000" font-family="sans-serif" font-size="10" lengthAdjust="spacingAndGlyphs" textLength="74" x="84" y="39.9902">com.prog.entity</text></a><!--MD5=[f07d28a341387f7334a22ebd22d04412]
reverse link com.prog.entity.EnemyFactory to com.prog.entity.EnemyFactory.EnemyType--><path codeLine="12" d="M108,62.37 C108,76.41 108,92.68 108,106.99 " fill="none" id="com.prog.entity.EnemyFactory-backto-com.prog.entity.EnemyFactory.EnemyType" style="stroke: #A80036; stroke-width: 1.0;"/><ellipse cx="108" cy="55.16" fill="#FFFFFF" rx="8" ry="8" style="stroke: #A80036; stroke-width: 1.0;"/><line style="stroke: #A80036; stroke-width: 1.0;" x1="108" x2="108" y1="63.16" y2="47.16"/><line style="stroke: #A80036; stroke-width: 1.0;" x1="100" x2="116" y1="55.16" y2="55.16"/><text fill="#888888" font-family="sans-serif" font-size="10" lengthAdjust="spacingAndGlyphs" textLength="190" x="10" y="206.2402">UMLDoclet 2.0.12, PlantUML 1.2020.16</text><!--MD5=[9ac7c594fad577e07e94ff589ea9fdee]
@startuml
    set namespaceSeparator none
    hide empty fields
    hide empty methods

    enum "<size:14>EnemyFactory.EnemyType\n<size:10>com.prog.entity" as com.prog.entity.EnemyFactory.EnemyType [[..\..\..\..\com\prog\entity\EnemyFactory.EnemyType.html]] {
        {static} +A
        {static} +B
    }

    class "<size:14>EnemyFactory\n<size:10>com.prog.entity" as com.prog.entity.EnemyFactory [[..\..\..\..\com\prog\entity\EnemyFactory.html]]

    com.prog.entity.EnemyFactory +- - com.prog.entity.EnemyFactory.EnemyType

    center footer UMLDoclet 2.0.12, PlantUML 1.2020.16
@enduml

PlantUML version 1.2020.16(Sun Aug 23 22:20:43 CEST 2020)
(APACHE source distribution)
Java Runtime: Java(TM) SE Runtime Environment
JVM: Java HotSpot(TM) 64-Bit Server VM
Default Encoding: Cp1252
Language: it
Country: IT
--></g></svg>