<?xml version="1.0" encoding="UTF-8" standalone="no"?><svg xmlns="http://www.w3.org/2000/svg" xmlns:xlink="http://www.w3.org/1999/xlink" contentScriptType="application/ecmascript" contentStyleType="text/css" height="289px" preserveAspectRatio="none" style="width:273px;height:289px;" version="1.1" viewBox="0 0 273 289" width="273px" zoomAndPan="magnify"><defs><filter height="300%" id="f1g35xy8a1d83u" width="300%" x="-1" y="-1"><feGaussianBlur result="blurOut" stdDeviation="2.0"/><feColorMatrix in="blurOut" result="blurOut2" type="matrix" values="0 0 0 0 0 0 0 0 0 0 0 0 0 0 0 0 0 0 .4 0"/><feOffset dx="4.0" dy="4.0" in="blurOut2" result="blurOut3"/><feBlend in="SourceGraphic" in2="blurOut3" mode="normal"/></filter></defs><g><!--MD5=[c63952c0437038c98de8e544fefbed1a]
class com.prog.entity.EnemyFactory--><a href="..\..\..\..\com\prog\entity\EnemyFactory.html" target="_top" title="..\..\..\..\com\prog\entity\EnemyFactory.html" xlink:actuate="onRequest" xlink:href="..\..\..\..\com\prog\entity\EnemyFactory.html" xlink:show="new" xlink:title="..\..\..\..\com\prog\entity\EnemyFactory.html" xlink:type="simple"><rect codeLine="5" fill="#FEFECE" filter="url(#f1g35xy8a1d83u)" height="145.0391" id="com.prog.entity.EnemyFactory" style="stroke: #A80036; stroke-width: 1.5;" width="247" x="7" y="7"/><ellipse cx="80.75" cy="27.0938" fill="#ADD1B2" rx="11" ry="11" style="stroke: #A80036; stroke-width: 1.0;"/><path d="M83.5156,22.9688 Q83.6719,22.75 83.8594,22.6406 Q84.0469,22.5313 84.2656,22.5313 Q84.6406,22.5313 84.875,22.7969 Q85.1094,23.0469 85.1094,23.6563 L85.1094,25.1094 Q85.1094,25.7188 84.875,25.9844 Q84.6406,26.25 84.2656,26.25 Q83.9219,26.25 83.7188,26.0469 Q83.5156,25.8594 83.4063,25.3438 Q83.3594,24.9844 83.1719,24.7969 Q82.8438,24.4219 82.2344,24.2031 Q81.625,23.9844 81,23.9844 Q80.2344,23.9844 79.5938,24.3125 Q78.9688,24.6406 78.4688,25.3906 Q77.9844,26.1406 77.9844,27.1719 L77.9844,28.2656 Q77.9844,29.5 78.875,30.3281 Q79.7656,31.1406 81.3594,31.1406 Q82.2969,31.1406 82.9531,30.8906 Q83.3438,30.7344 83.7656,30.2969 Q84.0313,30.0313 84.1719,29.9531 Q84.3281,29.875 84.5313,29.875 Q84.8594,29.875 85.1094,30.1406 Q85.375,30.3906 85.375,30.7344 Q85.375,31.0781 85.0313,31.4844 Q84.5313,32.0625 83.7344,32.3906 Q82.6563,32.8438 81.3594,32.8438 Q79.8438,32.8438 78.6406,32.2188 Q77.6563,31.7188 76.9688,30.6563 Q76.2813,29.5781 76.2813,28.2969 L76.2813,27.1406 Q76.2813,25.8125 76.8906,24.6719 Q77.5156,23.5156 78.6094,22.9063 Q79.7031,22.2813 80.9375,22.2813 Q81.6719,22.2813 82.3125,22.4531 Q82.9688,22.6094 83.5156,22.9688 Z "/><text fill="#000000" font-family="sans-serif" font-size="14" lengthAdjust="spacingAndGlyphs" textLength="91" x="101.25" y="26.5332">EnemyFactory</text><text fill="#000000" font-family="sans-serif" font-size="10" lengthAdjust="spacingAndGlyphs" textLength="74" x="109.75" y="39.9902">com.prog.entity</text><line style="stroke: #A80036; stroke-width: 1.5;" x1="8" x2="253" y1="47.1875" y2="47.1875"/><ellipse cx="18" cy="58.1875" fill="#84BE84" rx="3" ry="3" style="stroke: #038048; stroke-width: 1.0;"/><text fill="#000000" font-family="sans-serif" font-size="11" lengthAdjust="spacingAndGlyphs" textLength="88" x="27" y="62.6064">update(float): void</text><ellipse cx="18" cy="72.0234" fill="#84BE84" rx="3" ry="3" style="stroke: #038048; stroke-width: 1.0;"/><text fill="#000000" font-family="sans-serif" font-size="11" lengthAdjust="spacingAndGlyphs" textLength="60" x="27" y="76.4424">draw(): void</text><ellipse cx="18" cy="85.8594" fill="#84BE84" rx="3" ry="3" style="stroke: #038048; stroke-width: 1.0;"/><text fill="#000000" font-family="sans-serif" font-size="11" lengthAdjust="spacingAndGlyphs" textLength="221" x="27" y="90.2783">addEnemy(float, float, float, EnemyType): void</text><ellipse cx="18" cy="99.6953" fill="#84BE84" rx="3" ry="3" style="stroke: #038048; stroke-width: 1.0;"/><text fill="#000000" font-family="sans-serif" font-size="11" lengthAdjust="spacingAndGlyphs" textLength="203" x="27" y="104.1143">addEnemies(Array&lt;StateContainer&gt;): void</text><ellipse cx="18" cy="113.5313" fill="#84BE84" rx="3" ry="3" style="stroke: #038048; stroke-width: 1.0;"/><text fill="#000000" font-family="sans-serif" font-size="11" lengthAdjust="spacingAndGlyphs" textLength="61" x="27" y="117.9502">getSize(): int</text><ellipse cx="18" cy="127.3672" fill="#84BE84" rx="3" ry="3" style="stroke: #038048; stroke-width: 1.0;"/><text fill="#000000" font-family="sans-serif" font-size="11" lengthAdjust="spacingAndGlyphs" textLength="172" x="27" y="131.7861">getActiveEnemies(): Array&lt;Enemy&gt;</text><ellipse cx="18" cy="141.2031" fill="#84BE84" rx="3" ry="3" style="stroke: #038048; stroke-width: 1.0;"/><text fill="#000000" font-family="sans-serif" font-size="11" lengthAdjust="spacingAndGlyphs" text-decoration="underline" textLength="139" x="27" y="145.6221">getInstance(): EnemyFactory</text></a><!--MD5=[5ed82ad8e39b8e9150e7bd128fcaf6c1]
class com.prog.entity.EnemyFactory.EnemyType--><a href="..\..\..\..\com\prog\entity\EnemyFactory.EnemyType.html" target="_top" title="..\..\..\..\com\prog\entity\EnemyFactory.EnemyType.html" xlink:actuate="onRequest" xlink:href="..\..\..\..\com\prog\entity\EnemyFactory.EnemyType.html" xlink:show="new" xlink:title="..\..\..\..\com\prog\entity\EnemyFactory.EnemyType.html" xlink:type="simple"><rect codeLine="14" fill="#FEFECE" filter="url(#f1g35xy8a1d83u)" height="40.1875" id="com.prog.entity.EnemyFactory.EnemyType" style="stroke: #A80036; stroke-width: 1.5;" width="202" x="29.5" y="212"/><ellipse cx="44.5" cy="232.0938" fill="#EB937F" rx="11" ry="11" style="stroke: #A80036; stroke-width: 1.0;"/><path d="M43.3594,232.8906 L43.3594,235.3906 L47.6875,235.3906 L47.6875,234.4688 Q47.6875,233.8594 47.9219,233.5938 Q48.1719,233.3281 48.5469,233.3281 Q48.9219,233.3281 49.1563,233.5938 Q49.3906,233.8594 49.3906,234.4688 L49.3906,237.0938 L41.3906,237.0938 Q40.7656,237.0938 40.5,236.8594 Q40.25,236.625 40.25,236.2344 Q40.25,235.8594 40.5156,235.625 Q40.7813,235.3906 41.3906,235.3906 L41.6563,235.3906 L41.6563,228.7344 L41.3906,228.7344 Q40.7656,228.7344 40.5,228.5 Q40.25,228.2656 40.25,227.875 Q40.25,227.5 40.5,227.2656 Q40.7656,227.0313 41.3906,227.0313 L49.0156,227.0313 L49.0156,229.625 Q49.0156,230.2344 48.7813,230.5 Q48.5625,230.75 48.1719,230.75 Q47.7969,230.75 47.5625,230.5 Q47.3281,230.2344 47.3281,229.625 L47.3281,228.7344 L43.3594,228.7344 L43.3594,231.1875 L44.8438,231.1875 Q44.8438,230.5313 44.9688,230.3438 Q45.2344,229.9375 45.7031,229.9375 Q46.0781,229.9375 46.3125,230.2031 Q46.5469,230.4531 46.5469,231.0625 L46.5469,233.0313 Q46.5469,233.5781 46.4219,233.7656 Q46.1563,234.1563 45.7031,234.1563 Q45.2344,234.1563 44.9688,233.75 Q44.8438,233.5625 44.8438,232.8906 L43.3594,232.8906 Z "/><text fill="#000000" font-family="sans-serif" font-size="14" lengthAdjust="spacingAndGlyphs" textLength="170" x="58.5" y="231.5332">EnemyFactory.EnemyType</text><text fill="#000000" font-family="sans-serif" font-size="10" lengthAdjust="spacingAndGlyphs" textLength="74" x="106.5" y="244.9902">com.prog.entity</text></a><!--MD5=[f07d28a341387f7334a22ebd22d04412]
reverse link com.prog.entity.EnemyFactory to com.prog.entity.EnemyFactory.EnemyType--><path codeLine="16" d="M130.5,167.38 C130.5,184.11 130.5,200.05 130.5,211.8 " fill="none" id="com.prog.entity.EnemyFactory-backto-com.prog.entity.EnemyFactory.EnemyType" style="stroke: #A80036; stroke-width: 1.0;"/><ellipse cx="130.5" cy="160.22" fill="#FFFFFF" rx="8" ry="8" style="stroke: #A80036; stroke-width: 1.0;"/><line style="stroke: #A80036; stroke-width: 1.0;" x1="130.5" x2="130.5" y1="168.22" y2="152.22"/><line style="stroke: #A80036; stroke-width: 1.0;" x1="122.5" x2="138.5" y1="160.22" y2="160.22"/><text fill="#888888" font-family="sans-serif" font-size="10" lengthAdjust="spacingAndGlyphs" textLength="190" x="32.5" y="275.5684">UMLDoclet 2.0.12, PlantUML 1.2020.16</text><!--MD5=[3b8f4f47b0fcd8c6e32db28341a25913]
@startuml
    set namespaceSeparator none
    hide empty fields
    hide empty methods

    class "<size:14>EnemyFactory\n<size:10>com.prog.entity" as com.prog.entity.EnemyFactory [[..\..\..\..\com\prog\entity\EnemyFactory.html]] {
        +update(float): void
        +draw(): void
        +addEnemy(float, float, float, EnemyType): void
        +addEnemies(Array<StateContainer>): void
        +getSize(): int
        +getActiveEnemies(): Array<Enemy>
        {static} +getInstance(): EnemyFactory
    }
    enum "<size:14>EnemyFactory.EnemyType\n<size:10>com.prog.entity" as com.prog.entity.EnemyFactory.EnemyType [[..\..\..\..\com\prog\entity\EnemyFactory.EnemyType.html]]

    com.prog.entity.EnemyFactory +- - com.prog.entity.EnemyFactory.EnemyType

    center footer UMLDoclet 2.0.12, PlantUML 1.2020.16
@enduml

PlantUML version 1.2020.16(Sun Aug 23 22:20:43 CEST 2020)
(APACHE source distribution)
Java Runtime: Java(TM) SE Runtime Environment
JVM: Java HotSpot(TM) 64-Bit Server VM
Default Encoding: Cp1252
Language: it
Country: IT
--></g></svg>