<?xml version="1.0" encoding="UTF-8" standalone="no"?><svg xmlns="http://www.w3.org/2000/svg" xmlns:xlink="http://www.w3.org/1999/xlink" contentScriptType="application/ecmascript" contentStyleType="text/css" height="305px" preserveAspectRatio="none" style="width:217px;height:305px;" version="1.1" viewBox="0 0 217 305" width="217px" zoomAndPan="magnify"><defs><filter height="300%" id="f1f3j206cg4nw0" width="300%" x="-1" y="-1"><feGaussianBlur result="blurOut" stdDeviation="2.0"/><feColorMatrix in="blurOut" result="blurOut2" type="matrix" values="0 0 0 0 0 0 0 0 0 0 0 0 0 0 0 0 0 0 .4 0"/><feOffset dx="4.0" dy="4.0" in="blurOut2" result="blurOut3"/><feBlend in="SourceGraphic" in2="blurOut3" mode="normal"/></filter></defs><g><!--MD5=[1429ebee93fb71983dd34eaf44f7f7b8]
class com.prog.entity.Entity.userDataContainer--><a href="..\..\..\..\com\prog\entity\Entity.userDataContainer.html" target="_top" title="..\..\..\..\com\prog\entity\Entity.userDataContainer.html" xlink:actuate="onRequest" xlink:href="..\..\..\..\com\prog\entity\Entity.userDataContainer.html" xlink:show="new" xlink:title="..\..\..\..\com\prog\entity\Entity.userDataContainer.html" xlink:type="simple"><rect codeLine="5" fill="#FEFECE" filter="url(#f1f3j206cg4nw0)" height="97.6953" id="com.prog.entity.Entity.userDataContainer" style="stroke: #A80036; stroke-width: 1.5;" width="191" x="7" y="171"/><ellipse cx="22" cy="191.0938" fill="#ADD1B2" rx="11" ry="11" style="stroke: #A80036; stroke-width: 1.0;"/><path d="M24.7656,186.9688 Q24.9219,186.75 25.1094,186.6406 Q25.2969,186.5313 25.5156,186.5313 Q25.8906,186.5313 26.125,186.7969 Q26.3594,187.0469 26.3594,187.6563 L26.3594,189.1094 Q26.3594,189.7188 26.125,189.9844 Q25.8906,190.25 25.5156,190.25 Q25.1719,190.25 24.9688,190.0469 Q24.7656,189.8594 24.6563,189.3438 Q24.6094,188.9844 24.4219,188.7969 Q24.0938,188.4219 23.4844,188.2031 Q22.875,187.9844 22.25,187.9844 Q21.4844,187.9844 20.8438,188.3125 Q20.2188,188.6406 19.7188,189.3906 Q19.2344,190.1406 19.2344,191.1719 L19.2344,192.2656 Q19.2344,193.5 20.125,194.3281 Q21.0156,195.1406 22.6094,195.1406 Q23.5469,195.1406 24.2031,194.8906 Q24.5938,194.7344 25.0156,194.2969 Q25.2813,194.0313 25.4219,193.9531 Q25.5781,193.875 25.7813,193.875 Q26.1094,193.875 26.3594,194.1406 Q26.625,194.3906 26.625,194.7344 Q26.625,195.0781 26.2813,195.4844 Q25.7813,196.0625 24.9844,196.3906 Q23.9063,196.8438 22.6094,196.8438 Q21.0938,196.8438 19.8906,196.2188 Q18.9063,195.7188 18.2188,194.6563 Q17.5313,193.5781 17.5313,192.2969 L17.5313,191.1406 Q17.5313,189.8125 18.1406,188.6719 Q18.7656,187.5156 19.8594,186.9063 Q20.9531,186.2813 22.1875,186.2813 Q22.9219,186.2813 23.5625,186.4531 Q24.2188,186.6094 24.7656,186.9688 Z "/><text fill="#000000" font-family="sans-serif" font-size="14" lengthAdjust="spacingAndGlyphs" textLength="159" x="36" y="190.5332">Entity.userDataContainer</text><text fill="#000000" font-family="sans-serif" font-size="10" lengthAdjust="spacingAndGlyphs" textLength="74" x="78.5" y="203.9902">com.prog.entity</text><line style="stroke: #A80036; stroke-width: 1.5;" x1="8" x2="197" y1="211.1875" y2="211.1875"/><ellipse cx="18" cy="222.1875" fill="none" rx="3" ry="3" style="stroke: #038048; stroke-width: 1.0;"/><text fill="#000000" font-family="sans-serif" font-size="11" lengthAdjust="spacingAndGlyphs" textLength="55" x="27" y="226.6064">type: String</text><ellipse cx="18" cy="236.0234" fill="none" rx="3" ry="3" style="stroke: #038048; stroke-width: 1.0;"/><text fill="#000000" font-family="sans-serif" font-size="11" lengthAdjust="spacingAndGlyphs" textLength="38" x="27" y="240.4424">e: Entity</text><line style="stroke: #A80036; stroke-width: 1.5;" x1="8" x2="197" y1="246.8594" y2="246.8594"/><ellipse cx="18" cy="257.8594" fill="#84BE84" rx="3" ry="3" style="stroke: #038048; stroke-width: 1.0;"/><text fill="#000000" font-family="sans-serif" font-size="11" lengthAdjust="spacingAndGlyphs" textLength="158" x="27" y="262.2783">userDataContainer(String, Entity)</text></a><!--MD5=[0fc430f8d1fc4e9f568253e0381ace99]
class com.prog.entity.Entity--><a href="..\..\..\..\com\prog\entity\Entity.html" target="_top" title="..\..\..\..\com\prog\entity\Entity.html" xlink:actuate="onRequest" xlink:href="..\..\..\..\com\prog\entity\Entity.html" xlink:show="new" xlink:title="..\..\..\..\com\prog\entity\Entity.html" xlink:type="simple"><rect codeLine="11" fill="#FEFECE" filter="url(#f1f3j206cg4nw0)" height="103.5313" id="com.prog.entity.Entity" style="stroke: #A80036; stroke-width: 1.5;" width="117" x="44" y="7"/><ellipse cx="65.3" cy="27.0938" fill="#A9DCDF" rx="11" ry="11" style="stroke: #A80036; stroke-width: 1.0;"/><path d="M67.4875,28.8594 L63.3469,28.8594 L62.925,29.8906 L63.3469,29.8906 Q63.9563,29.8906 64.2219,30.125 Q64.4875,30.3594 64.4875,30.75 Q64.4875,31.125 64.2219,31.3594 Q63.9563,31.5938 63.3469,31.5938 L61.05,31.5938 Q60.4406,31.5938 60.1906,31.3594 Q59.925,31.125 59.925,30.7344 Q59.925,30.3594 60.2063,30.125 Q60.4719,29.875 61.0969,29.8906 L63.7688,23.2344 L62.6594,23.2344 Q62.05,23.2344 61.7844,23 Q61.5188,22.7656 61.5188,22.375 Q61.5188,22 61.7844,21.7656 Q62.05,21.5313 62.6594,21.5313 L66.3313,21.5313 L69.7219,29.8906 Q70.3156,29.8906 70.5031,30.0313 Q70.8938,30.2969 70.8938,30.75 Q70.8938,31.125 70.6281,31.3594 Q70.3781,31.5938 69.7688,31.5938 L67.4719,31.5938 Q66.8625,31.5938 66.5969,31.3594 Q66.3313,31.125 66.3313,30.7344 Q66.3313,30.3594 66.5969,30.125 Q66.8625,29.8906 67.4719,29.8906 L67.8938,29.8906 L67.4875,28.8594 Z M66.7688,27.1563 L65.4094,23.7813 L64.0344,27.1563 L66.7688,27.1563 Z "/><text fill="#000000" font-family="sans-serif" font-size="14" font-style="italic" lengthAdjust="spacingAndGlyphs" textLength="35" x="98.7" y="26.5332">Entity</text><text fill="#000000" font-family="sans-serif" font-size="10" font-style="italic" lengthAdjust="spacingAndGlyphs" textLength="71" x="80.7" y="39.9902">com.prog.entity</text><line style="stroke: #A80036; stroke-width: 1.5;" x1="45" x2="160" y1="47.1875" y2="47.1875"/><ellipse cx="55" cy="58.1875" fill="#84BE84" rx="3" ry="3" style="stroke: #038048; stroke-width: 1.0;"/><text fill="#000000" font-family="sans-serif" font-size="11" font-style="italic" lengthAdjust="spacingAndGlyphs" textLength="88" x="64" y="62.6064">update(float): void</text><ellipse cx="55" cy="72.0234" fill="#84BE84" rx="3" ry="3" style="stroke: #038048; stroke-width: 1.0;"/><text fill="#000000" font-family="sans-serif" font-size="11" font-style="italic" lengthAdjust="spacingAndGlyphs" textLength="91" x="64" y="76.4424">handleInput(): void</text><ellipse cx="55" cy="85.8594" fill="#84BE84" rx="3" ry="3" style="stroke: #038048; stroke-width: 1.0;"/><text fill="#000000" font-family="sans-serif" font-size="11" font-style="italic" lengthAdjust="spacingAndGlyphs" textLength="57" x="64" y="90.2783">draw(): void</text><ellipse cx="55" cy="99.6953" fill="#84BE84" rx="3" ry="3" style="stroke: #038048; stroke-width: 1.0;"/><text fill="#000000" font-family="sans-serif" font-size="11" font-style="italic" lengthAdjust="spacingAndGlyphs" textLength="73" x="64" y="104.1143">dispose(): void</text></a><!--MD5=[89aa12faa239cd7c991463d574a2e63e]
reverse link com.prog.entity.Entity to com.prog.entity.Entity.userDataContainer--><path codeLine="18" d="M102.5,126.41 C102.5,141.33 102.5,156.88 102.5,170.89 " fill="none" id="com.prog.entity.Entity-backto-com.prog.entity.Entity.userDataContainer" style="stroke: #A80036; stroke-width: 1.0;"/><ellipse cx="102.5" cy="119.18" fill="#FFFFFF" rx="8" ry="8" style="stroke: #A80036; stroke-width: 1.0;"/><line style="stroke: #A80036; stroke-width: 1.0;" x1="102.5" x2="102.5" y1="127.18" y2="111.18"/><line style="stroke: #A80036; stroke-width: 1.0;" x1="94.5" x2="110.5" y1="119.18" y2="119.18"/><text fill="#888888" font-family="sans-serif" font-size="10" lengthAdjust="spacingAndGlyphs" textLength="190" x="4.5" y="292.0762">UMLDoclet 2.0.12, PlantUML 1.2020.16</text><!--MD5=[50e12aa1a1f3243c58a277949637a989]
@startuml
    set namespaceSeparator none
    hide empty fields
    hide empty methods

    class "<size:14>Entity.userDataContainer\n<size:10>com.prog.entity" as com.prog.entity.Entity.userDataContainer [[..\..\..\..\com\prog\entity\Entity.userDataContainer.html]] {
        +type: String
        +e: Entity
        +userDataContainer(String, Entity)
    }

    abstract class "<size:14>Entity\n<size:10>com.prog.entity" as com.prog.entity.Entity [[..\..\..\..\com\prog\entity\Entity.html]] {
        {abstract} +update(float): void
        {abstract} +handleInput(): void
        {abstract} +draw(): void
        {abstract} +dispose(): void
    }

    com.prog.entity.Entity +- - com.prog.entity.Entity.userDataContainer

    center footer UMLDoclet 2.0.12, PlantUML 1.2020.16
@enduml

PlantUML version 1.2020.16(Sun Aug 23 22:20:43 CEST 2020)
(APACHE source distribution)
Java Runtime: Java(TM) SE Runtime Environment
JVM: Java HotSpot(TM) 64-Bit Server VM
Default Encoding: Cp1252
Language: it
Country: IT
--></g></svg>