<?xml version="1.0" encoding="UTF-8" standalone="no"?><svg xmlns="http://www.w3.org/2000/svg" xmlns:xlink="http://www.w3.org/1999/xlink" contentScriptType="application/ecmascript" contentStyleType="text/css" height="524px" preserveAspectRatio="none" style="width:440px;height:524px;" version="1.1" viewBox="0 0 440 524" width="440px" zoomAndPan="magnify"><defs><filter height="300%" id="f13bcp823y5gw9" width="300%" x="-1" y="-1"><feGaussianBlur result="blurOut" stdDeviation="2.0"/><feColorMatrix in="blurOut" result="blurOut2" type="matrix" values="0 0 0 0 0 0 0 0 0 0 0 0 0 0 0 0 0 0 .4 0"/><feOffset dx="4.0" dy="4.0" in="blurOut2" result="blurOut3"/><feBlend in="SourceGraphic" in2="blurOut3" mode="normal"/></filter></defs><g><!--MD5=[0fc430f8d1fc4e9f568253e0381ace99]
class com.prog.entity.Entity--><a href="..\..\..\..\com\prog\entity\Entity.html" target="_top" title="..\..\..\..\com\prog\entity\Entity.html" xlink:actuate="onRequest" xlink:href="..\..\..\..\com\prog\entity\Entity.html" xlink:show="new" xlink:title="..\..\..\..\com\prog\entity\Entity.html" xlink:type="simple"><rect codeLine="5" fill="#FEFECE" filter="url(#f13bcp823y5gw9)" height="380.25" id="com.prog.entity.Entity" style="stroke: #A80036; stroke-width: 1.5;" width="412" x="9" y="7"/><ellipse cx="175.25" cy="27.0938" fill="#A9DCDF" rx="11" ry="11" style="stroke: #A80036; stroke-width: 1.0;"/><path d="M177.4375,28.8594 L173.2969,28.8594 L172.875,29.8906 L173.2969,29.8906 Q173.9063,29.8906 174.1719,30.125 Q174.4375,30.3594 174.4375,30.75 Q174.4375,31.125 174.1719,31.3594 Q173.9063,31.5938 173.2969,31.5938 L171,31.5938 Q170.3906,31.5938 170.1406,31.3594 Q169.875,31.125 169.875,30.7344 Q169.875,30.3594 170.1563,30.125 Q170.4219,29.875 171.0469,29.8906 L173.7188,23.2344 L172.6094,23.2344 Q172,23.2344 171.7344,23 Q171.4688,22.7656 171.4688,22.375 Q171.4688,22 171.7344,21.7656 Q172,21.5313 172.6094,21.5313 L176.2813,21.5313 L179.6719,29.8906 Q180.2656,29.8906 180.4531,30.0313 Q180.8438,30.2969 180.8438,30.75 Q180.8438,31.125 180.5781,31.3594 Q180.3281,31.5938 179.7188,31.5938 L177.4219,31.5938 Q176.8125,31.5938 176.5469,31.3594 Q176.2813,31.125 176.2813,30.7344 Q176.2813,30.3594 176.5469,30.125 Q176.8125,29.8906 177.4219,29.8906 L177.8438,29.8906 L177.4375,28.8594 Z M176.7188,27.1563 L175.3594,23.7813 L173.9844,27.1563 L176.7188,27.1563 Z "/><text fill="#000000" font-family="sans-serif" font-size="14" font-style="italic" lengthAdjust="spacingAndGlyphs" textLength="35" x="213.75" y="26.5332">Entity</text><text fill="#000000" font-family="sans-serif" font-size="10" font-style="italic" lengthAdjust="spacingAndGlyphs" textLength="71" x="195.75" y="39.9902">com.prog.entity</text><line style="stroke: #A80036; stroke-width: 1.5;" x1="10" x2="420" y1="47.1875" y2="47.1875"/><ellipse cx="20" cy="58.1875" fill="#84BE84" rx="3" ry="3" style="stroke: #038048; stroke-width: 1.0;"/><text fill="#000000" font-family="sans-serif" font-size="11" font-style="italic" lengthAdjust="spacingAndGlyphs" textLength="88" x="29" y="62.6064">update(float): void</text><ellipse cx="20" cy="72.0234" fill="#84BE84" rx="3" ry="3" style="stroke: #038048; stroke-width: 1.0;"/><text fill="#000000" font-family="sans-serif" font-size="11" font-style="italic" lengthAdjust="spacingAndGlyphs" textLength="91" x="29" y="76.4424">handleInput(): void</text><ellipse cx="20" cy="85.8594" fill="#84BE84" rx="3" ry="3" style="stroke: #038048; stroke-width: 1.0;"/><text fill="#000000" font-family="sans-serif" font-size="11" font-style="italic" lengthAdjust="spacingAndGlyphs" textLength="57" x="29" y="90.2783">draw(): void</text><ellipse cx="20" cy="99.6953" fill="#84BE84" rx="3" ry="3" style="stroke: #038048; stroke-width: 1.0;"/><text fill="#000000" font-family="sans-serif" font-size="11" font-style="italic" lengthAdjust="spacingAndGlyphs" textLength="73" x="29" y="104.1143">dispose(): void</text><ellipse cx="20" cy="113.5313" fill="#84BE84" rx="3" ry="3" style="stroke: #038048; stroke-width: 1.0;"/><text fill="#000000" font-family="sans-serif" font-size="11" lengthAdjust="spacingAndGlyphs" textLength="386" x="29" y="117.9502">createBody(float, float, float, float, int, String, float, float, float, short, short): void</text><ellipse cx="20" cy="127.3672" fill="#84BE84" rx="3" ry="3" style="stroke: #038048; stroke-width: 1.0;"/><text fill="#000000" font-family="sans-serif" font-size="11" lengthAdjust="spacingAndGlyphs" textLength="359" x="29" y="131.7861">createBody(float, float, float, int, String, float, float, float, short, short): void</text><ellipse cx="20" cy="141.2031" fill="#84BE84" rx="3" ry="3" style="stroke: #038048; stroke-width: 1.0;"/><text fill="#000000" font-family="sans-serif" font-size="11" lengthAdjust="spacingAndGlyphs" textLength="380" x="29" y="145.6221">attachFixture(Body, Vector2, boolean, String, float, float, float, float, float): void</text><ellipse cx="20" cy="155.0391" fill="#84BE84" rx="3" ry="3" style="stroke: #038048; stroke-width: 1.0;"/><text fill="#000000" font-family="sans-serif" font-size="11" lengthAdjust="spacingAndGlyphs" textLength="353" x="29" y="159.458">attachFixture(Body, Vector2, boolean, String, float, float, float, float): void</text><ellipse cx="20" cy="168.875" fill="#84BE84" rx="3" ry="3" style="stroke: #038048; stroke-width: 1.0;"/><text fill="#000000" font-family="sans-serif" font-size="11" lengthAdjust="spacingAndGlyphs" textLength="79" x="29" y="173.2939">getBody(): Body</text><ellipse cx="20" cy="182.7109" fill="#84BE84" rx="3" ry="3" style="stroke: #038048; stroke-width: 1.0;"/><text fill="#000000" font-family="sans-serif" font-size="11" lengthAdjust="spacingAndGlyphs" textLength="95" x="29" y="187.1299">getPos(): Rectangle</text><ellipse cx="20" cy="196.5469" fill="#84BE84" rx="3" ry="3" style="stroke: #038048; stroke-width: 1.0;"/><text fill="#000000" font-family="sans-serif" font-size="11" lengthAdjust="spacingAndGlyphs" textLength="169" x="29" y="200.9658">setPos(float, float, float, float): void</text><ellipse cx="20" cy="210.3828" fill="#84BE84" rx="3" ry="3" style="stroke: #038048; stroke-width: 1.0;"/><text fill="#000000" font-family="sans-serif" font-size="11" lengthAdjust="spacingAndGlyphs" textLength="95" x="29" y="214.8018">setPosX(float): void</text><ellipse cx="20" cy="224.2188" fill="#84BE84" rx="3" ry="3" style="stroke: #038048; stroke-width: 1.0;"/><text fill="#000000" font-family="sans-serif" font-size="11" lengthAdjust="spacingAndGlyphs" textLength="96" x="29" y="228.6377">setPosY(float): void</text><ellipse cx="20" cy="238.0547" fill="#84BE84" rx="3" ry="3" style="stroke: #038048; stroke-width: 1.0;"/><text fill="#000000" font-family="sans-serif" font-size="11" lengthAdjust="spacingAndGlyphs" textLength="115" x="29" y="242.4736">setPosWidth(float): void</text><ellipse cx="20" cy="251.8906" fill="#84BE84" rx="3" ry="3" style="stroke: #038048; stroke-width: 1.0;"/><text fill="#000000" font-family="sans-serif" font-size="11" lengthAdjust="spacingAndGlyphs" textLength="118" x="29" y="256.3096">setPosHeight(float): void</text><ellipse cx="20" cy="265.7266" fill="#84BE84" rx="3" ry="3" style="stroke: #038048; stroke-width: 1.0;"/><text fill="#000000" font-family="sans-serif" font-size="11" lengthAdjust="spacingAndGlyphs" textLength="115" x="29" y="270.1455">setPos(float, float): void</text><polygon fill="#FFFF44" points="20,274.5625,24,278.5625,20,282.5625,16,278.5625" style="stroke: #B38D22; stroke-width: 1.0;"/><text fill="#000000" font-family="sans-serif" font-size="11" lengthAdjust="spacingAndGlyphs" textLength="190" x="29" y="283.9814">setAnim(Animation&lt;AtlasRegion&gt;): void</text><polygon fill="#FFFF44" points="20,288.3984,24,292.3984,20,296.3984,16,292.3984" style="stroke: #B38D22; stroke-width: 1.0;"/><text fill="#000000" font-family="sans-serif" font-size="11" lengthAdjust="spacingAndGlyphs" textLength="170" x="29" y="297.8174">getAnim(): Animation&lt;AtlasRegion&gt;</text><polygon fill="#FFFF44" points="20,302.2344,24,306.2344,20,310.2344,16,306.2344" style="stroke: #B38D22; stroke-width: 1.0;"/><text fill="#000000" font-family="sans-serif" font-size="11" lengthAdjust="spacingAndGlyphs" textLength="119" x="29" y="311.6533">getAnimationTime(): float</text><polygon fill="#FFFF44" points="20,316.0703,24,320.0703,20,324.0703,16,320.0703" style="stroke: #B38D22; stroke-width: 1.0;"/><text fill="#000000" font-family="sans-serif" font-size="11" lengthAdjust="spacingAndGlyphs" textLength="154" x="29" y="325.4893">addToAnimationTime(float): void</text><polygon fill="#FFFF44" points="20,329.9063,24,333.9063,20,337.9063,16,333.9063" style="stroke: #B38D22; stroke-width: 1.0;"/><text fill="#000000" font-family="sans-serif" font-size="11" lengthAdjust="spacingAndGlyphs" textLength="90" x="29" y="339.3252">getFlipX(): boolean</text><polygon fill="#FFFF44" points="20,343.7422,24,347.7422,20,351.7422,16,347.7422" style="stroke: #B38D22; stroke-width: 1.0;"/><text fill="#000000" font-family="sans-serif" font-size="11" lengthAdjust="spacingAndGlyphs" textLength="91" x="29" y="353.1611">getFlipY(): boolean</text><polygon fill="#FFFF44" points="20,357.5781,24,361.5781,20,365.5781,16,361.5781" style="stroke: #B38D22; stroke-width: 1.0;"/><text fill="#000000" font-family="sans-serif" font-size="11" lengthAdjust="spacingAndGlyphs" textLength="110" x="29" y="366.9971">setFlipX(boolean): void</text><polygon fill="#FFFF44" points="20,371.4141,24,375.4141,20,379.4141,16,375.4141" style="stroke: #B38D22; stroke-width: 1.0;"/><text fill="#000000" font-family="sans-serif" font-size="11" lengthAdjust="spacingAndGlyphs" textLength="111" x="29" y="380.833">setFlipY(boolean): void</text></a><!--MD5=[1429ebee93fb71983dd34eaf44f7f7b8]
class com.prog.entity.Entity.userDataContainer--><a href="..\..\..\..\com\prog\entity\Entity.userDataContainer.html" target="_top" title="..\..\..\..\com\prog\entity\Entity.userDataContainer.html" xlink:actuate="onRequest" xlink:href="..\..\..\..\com\prog\entity\Entity.userDataContainer.html" xlink:show="new" xlink:title="..\..\..\..\com\prog\entity\Entity.userDataContainer.html" xlink:type="simple"><rect codeLine="31" fill="#FEFECE" filter="url(#f13bcp823y5gw9)" height="40.1875" id="com.prog.entity.Entity.userDataContainer" style="stroke: #A80036; stroke-width: 1.5;" width="191" x="119.5" y="447"/><ellipse cx="134.5" cy="467.0938" fill="#ADD1B2" rx="11" ry="11" style="stroke: #A80036; stroke-width: 1.0;"/><path d="M137.2656,462.9688 Q137.4219,462.75 137.6094,462.6406 Q137.7969,462.5313 138.0156,462.5313 Q138.3906,462.5313 138.625,462.7969 Q138.8594,463.0469 138.8594,463.6563 L138.8594,465.1094 Q138.8594,465.7188 138.625,465.9844 Q138.3906,466.25 138.0156,466.25 Q137.6719,466.25 137.4688,466.0469 Q137.2656,465.8594 137.1563,465.3438 Q137.1094,464.9844 136.9219,464.7969 Q136.5938,464.4219 135.9844,464.2031 Q135.375,463.9844 134.75,463.9844 Q133.9844,463.9844 133.3438,464.3125 Q132.7188,464.6406 132.2188,465.3906 Q131.7344,466.1406 131.7344,467.1719 L131.7344,468.2656 Q131.7344,469.5 132.625,470.3281 Q133.5156,471.1406 135.1094,471.1406 Q136.0469,471.1406 136.7031,470.8906 Q137.0938,470.7344 137.5156,470.2969 Q137.7813,470.0313 137.9219,469.9531 Q138.0781,469.875 138.2813,469.875 Q138.6094,469.875 138.8594,470.1406 Q139.125,470.3906 139.125,470.7344 Q139.125,471.0781 138.7813,471.4844 Q138.2813,472.0625 137.4844,472.3906 Q136.4063,472.8438 135.1094,472.8438 Q133.5938,472.8438 132.3906,472.2188 Q131.4063,471.7188 130.7188,470.6563 Q130.0313,469.5781 130.0313,468.2969 L130.0313,467.1406 Q130.0313,465.8125 130.6406,464.6719 Q131.2656,463.5156 132.3594,462.9063 Q133.4531,462.2813 134.6875,462.2813 Q135.4219,462.2813 136.0625,462.4531 Q136.7188,462.6094 137.2656,462.9688 Z "/><text fill="#000000" font-family="sans-serif" font-size="14" lengthAdjust="spacingAndGlyphs" textLength="159" x="148.5" y="466.5332">Entity.userDataContainer</text><text fill="#000000" font-family="sans-serif" font-size="10" lengthAdjust="spacingAndGlyphs" textLength="74" x="191" y="479.9902">com.prog.entity</text></a><!--MD5=[89aa12faa239cd7c991463d574a2e63e]
reverse link com.prog.entity.Entity to com.prog.entity.Entity.userDataContainer--><path codeLine="33" d="M215,402.23 C215,420.14 215,435.72 215,446.99 " fill="none" id="com.prog.entity.Entity-backto-com.prog.entity.Entity.userDataContainer" style="stroke: #A80036; stroke-width: 1.0;"/><ellipse cx="215" cy="395.04" fill="#FFFFFF" rx="8" ry="8" style="stroke: #A80036; stroke-width: 1.0;"/><line style="stroke: #A80036; stroke-width: 1.0;" x1="215" x2="215" y1="403.04" y2="387.04"/><line style="stroke: #A80036; stroke-width: 1.0;" x1="207" x2="223" y1="395.04" y2="395.04"/><text fill="#888888" font-family="sans-serif" font-size="10" lengthAdjust="spacingAndGlyphs" textLength="190" x="116" y="510.5684">UMLDoclet 2.0.12, PlantUML 1.2020.16</text><!--MD5=[a7aec730c70ec3dde9459fb55585d39d]
@startuml
    set namespaceSeparator none
    hide empty fields
    hide empty methods

    abstract class "<size:14>Entity\n<size:10>com.prog.entity" as com.prog.entity.Entity [[..\..\..\..\com\prog\entity\Entity.html]] {
        {abstract} +update(float): void
        {abstract} +handleInput(): void
        {abstract} +draw(): void
        {abstract} +dispose(): void
        +createBody(float, float, float, float, int, String, float, float, float, short, short): void
        +createBody(float, float, float, int, String, float, float, float, short, short): void
        +attachFixture(Body, Vector2, boolean, String, float, float, float, float, float): void
        +attachFixture(Body, Vector2, boolean, String, float, float, float, float): void
        +getBody(): Body
        +getPos(): Rectangle
        +setPos(float, float, float, float): void
        +setPosX(float): void
        +setPosY(float): void
        +setPosWidth(float): void
        +setPosHeight(float): void
        +setPos(float, float): void
        #setAnim(Animation<AtlasRegion>): void
        #getAnim(): Animation<AtlasRegion>
        #getAnimationTime(): float
        #addToAnimationTime(float): void
        #getFlipX(): boolean
        #getFlipY(): boolean
        #setFlipX(boolean): void
        #setFlipY(boolean): void
    }
    class "<size:14>Entity.userDataContainer\n<size:10>com.prog.entity" as com.prog.entity.Entity.userDataContainer [[..\..\..\..\com\prog\entity\Entity.userDataContainer.html]]

    com.prog.entity.Entity +- - com.prog.entity.Entity.userDataContainer

    center footer UMLDoclet 2.0.12, PlantUML 1.2020.16
@enduml

PlantUML version 1.2020.16(Sun Aug 23 22:20:43 CEST 2020)
(APACHE source distribution)
Java Runtime: Java(TM) SE Runtime Environment
JVM: Java HotSpot(TM) 64-Bit Server VM
Default Encoding: Cp1252
Language: it
Country: IT
--></g></svg>