<?xml version="1.0" encoding="UTF-8" standalone="no"?><svg xmlns="http://www.w3.org/2000/svg" xmlns:xlink="http://www.w3.org/1999/xlink" contentScriptType="application/ecmascript" contentStyleType="text/css" height="485px" preserveAspectRatio="none" style="width:315px;height:485px;" version="1.1" viewBox="0 0 315 485" width="315px" zoomAndPan="magnify"><defs><filter height="300%" id="f1hz5c9pt2n0m2" width="300%" x="-1" y="-1"><feGaussianBlur result="blurOut" stdDeviation="2.0"/><feColorMatrix in="blurOut" result="blurOut2" type="matrix" values="0 0 0 0 0 0 0 0 0 0 0 0 0 0 0 0 0 0 .4 0"/><feOffset dx="4.0" dy="4.0" in="blurOut2" result="blurOut3"/><feBlend in="SourceGraphic" in2="blurOut3" mode="normal"/></filter></defs><g><!--MD5=[b25ecea9128c4ad15a9f726f48d58e97]
class com.prog.entity.Magia--><a href="..\..\..\..\com\prog\entity\Magia.html" target="_top" title="..\..\..\..\com\prog\entity\Magia.html" xlink:actuate="onRequest" xlink:href="..\..\..\..\com\prog\entity\Magia.html" xlink:show="new" xlink:title="..\..\..\..\com\prog\entity\Magia.html" xlink:type="simple"><rect codeLine="5" fill="#FEFECE" filter="url(#f1hz5c9pt2n0m2)" height="277.5625" id="com.prog.entity.Magia" style="stroke: #A80036; stroke-width: 1.5;" width="157" x="68" y="171"/><ellipse cx="107.3" cy="191.0938" fill="#A9DCDF" rx="11" ry="11" style="stroke: #A80036; stroke-width: 1.0;"/><path d="M109.4875,192.8594 L105.3469,192.8594 L104.925,193.8906 L105.3469,193.8906 Q105.9563,193.8906 106.2219,194.125 Q106.4875,194.3594 106.4875,194.75 Q106.4875,195.125 106.2219,195.3594 Q105.9563,195.5938 105.3469,195.5938 L103.05,195.5938 Q102.4406,195.5938 102.1906,195.3594 Q101.925,195.125 101.925,194.7344 Q101.925,194.3594 102.2063,194.125 Q102.4719,193.875 103.0969,193.8906 L105.7688,187.2344 L104.6594,187.2344 Q104.05,187.2344 103.7844,187 Q103.5188,186.7656 103.5188,186.375 Q103.5188,186 103.7844,185.7656 Q104.05,185.5313 104.6594,185.5313 L108.3313,185.5313 L111.7219,193.8906 Q112.3156,193.8906 112.5031,194.0313 Q112.8938,194.2969 112.8938,194.75 Q112.8938,195.125 112.6281,195.3594 Q112.3781,195.5938 111.7688,195.5938 L109.4719,195.5938 Q108.8625,195.5938 108.5969,195.3594 Q108.3313,195.125 108.3313,194.7344 Q108.3313,194.3594 108.5969,194.125 Q108.8625,193.8906 109.4719,193.8906 L109.8938,193.8906 L109.4875,192.8594 Z M108.7688,191.1563 L107.4094,187.7813 L106.0344,191.1563 L108.7688,191.1563 Z "/><text fill="#000000" font-family="sans-serif" font-size="14" font-style="italic" lengthAdjust="spacingAndGlyphs" textLength="39" x="142.7" y="190.5332">Magia</text><text fill="#000000" font-family="sans-serif" font-size="10" font-style="italic" lengthAdjust="spacingAndGlyphs" textLength="71" x="126.7" y="203.9902">com.prog.entity</text><line style="stroke: #A80036; stroke-width: 1.5;" x1="69" x2="224" y1="211.1875" y2="211.1875"/><polygon fill="none" points="79,217.1875,83,221.1875,79,225.1875,75,221.1875" style="stroke: #B38D22; stroke-width: 1.0;"/><text fill="#000000" font-family="sans-serif" font-size="11" lengthAdjust="spacingAndGlyphs" textLength="79" x="88" y="226.6064">lastLaunch: long</text><line style="stroke: #A80036; stroke-width: 1.5;" x1="69" x2="224" y1="233.0234" y2="233.0234"/><ellipse cx="79" cy="244.0234" fill="#84BE84" rx="3" ry="3" style="stroke: #038048; stroke-width: 1.0;"/><text fill="#000000" font-family="sans-serif" font-size="11" font-style="italic" lengthAdjust="spacingAndGlyphs" textLength="131" x="88" y="248.4424">init(Vector2, Vector2): void</text><ellipse cx="79" cy="257.8594" fill="#84BE84" rx="3" ry="3" style="stroke: #038048; stroke-width: 1.0;"/><text fill="#000000" font-family="sans-serif" font-size="11" font-style="italic" lengthAdjust="spacingAndGlyphs" textLength="88" x="88" y="262.2783">update(float): void</text><ellipse cx="79" cy="271.6953" fill="#84BE84" rx="3" ry="3" style="stroke: #038048; stroke-width: 1.0;"/><text fill="#000000" font-family="sans-serif" font-size="11" lengthAdjust="spacingAndGlyphs" textLength="89" x="88" y="276.1143">handleInput(): void</text><ellipse cx="79" cy="285.5313" fill="#84BE84" rx="3" ry="3" style="stroke: #038048; stroke-width: 1.0;"/><text fill="#000000" font-family="sans-serif" font-size="11" lengthAdjust="spacingAndGlyphs" textLength="60" x="88" y="289.9502">draw(): void</text><ellipse cx="79" cy="299.3672" fill="#84BE84" rx="3" ry="3" style="stroke: #038048; stroke-width: 1.0;"/><text fill="#000000" font-family="sans-serif" font-size="11" lengthAdjust="spacingAndGlyphs" textLength="72" x="88" y="303.7861">dispose(): void</text><ellipse cx="79" cy="313.2031" fill="#84BE84" rx="3" ry="3" style="stroke: #038048; stroke-width: 1.0;"/><text fill="#000000" font-family="sans-serif" font-size="11" lengthAdjust="spacingAndGlyphs" textLength="59" x="88" y="317.6221">reset(): void</text><polygon fill="#FFFF44" points="79,322.0391,83,326.0391,79,330.0391,75,326.0391" style="stroke: #B38D22; stroke-width: 1.0;"/><text fill="#000000" font-family="sans-serif" font-size="11" lengthAdjust="spacingAndGlyphs" textLength="82" x="88" y="331.458">getPower(): float</text><polygon fill="#FFFF44" points="79,335.875,83,339.875,79,343.875,75,339.875" style="stroke: #B38D22; stroke-width: 1.0;"/><text fill="#000000" font-family="sans-serif" font-size="11" lengthAdjust="spacingAndGlyphs" textLength="102" x="88" y="345.2939">setPower(float): void</text><polygon fill="#FFFF44" points="79,349.7109,83,353.7109,79,357.7109,75,353.7109" style="stroke: #B38D22; stroke-width: 1.0;"/><text fill="#000000" font-family="sans-serif" font-size="11" lengthAdjust="spacingAndGlyphs" textLength="98" x="88" y="359.1299">setAngle(float): void</text><polygon fill="#FFFF44" points="79,363.5469,83,367.5469,79,371.5469,75,367.5469" style="stroke: #B38D22; stroke-width: 1.0;"/><text fill="#000000" font-family="sans-serif" font-size="11" lengthAdjust="spacingAndGlyphs" textLength="84" x="88" y="372.9658">isAlive(): boolean</text><ellipse cx="79" cy="382.3828" fill="#84BE84" rx="3" ry="3" style="stroke: #038048; stroke-width: 1.0;"/><text fill="#000000" font-family="sans-serif" font-size="11" lengthAdjust="spacingAndGlyphs" textLength="111" x="88" y="386.8018">setAlive(boolean): void</text><polygon fill="#FFFF44" points="79,391.2188,83,395.2188,79,399.2188,75,395.2188" style="stroke: #B38D22; stroke-width: 1.0;"/><text fill="#000000" font-family="sans-serif" font-size="11" lengthAdjust="spacingAndGlyphs" textLength="71" x="88" y="400.6377">getTime(): long</text><polygon fill="#FFFF44" points="79,405.0547,83,409.0547,79,413.0547,75,409.0547" style="stroke: #B38D22; stroke-width: 1.0;"/><text fill="#000000" font-family="sans-serif" font-size="11" lengthAdjust="spacingAndGlyphs" textLength="91" x="88" y="414.4736">setTime(long): void</text><polygon fill="#FFFF44" points="79,418.8906,83,422.8906,79,426.8906,75,422.8906" style="stroke: #B38D22; stroke-width: 1.0;"/><text fill="#000000" font-family="sans-serif" font-size="11" lengthAdjust="spacingAndGlyphs" textLength="119" x="88" y="428.3096">setCoolDown(long): void</text><polygon fill="#FFFF44" points="79,432.7266,83,436.7266,79,440.7266,75,436.7266" style="stroke: #B38D22; stroke-width: 1.0;"/><text fill="#000000" font-family="sans-serif" font-size="11" lengthAdjust="spacingAndGlyphs" textLength="99" x="88" y="442.1455">getCoolDown(): long</text></a><!--MD5=[0fc430f8d1fc4e9f568253e0381ace99]
class com.prog.entity.Entity--><a href="..\..\..\..\com\prog\entity\Entity.html" target="_top" title="..\..\..\..\com\prog\entity\Entity.html" xlink:actuate="onRequest" xlink:href="..\..\..\..\com\prog\entity\Entity.html" xlink:show="new" xlink:title="..\..\..\..\com\prog\entity\Entity.html" xlink:type="simple"><rect codeLine="24" fill="#FEFECE" filter="url(#f1hz5c9pt2n0m2)" height="103.5313" id="com.prog.entity.Entity" style="stroke: #A80036; stroke-width: 1.5;" width="117" x="7" y="7"/><ellipse cx="28.3" cy="27.0938" fill="#A9DCDF" rx="11" ry="11" style="stroke: #A80036; stroke-width: 1.0;"/><path d="M30.4875,28.8594 L26.3469,28.8594 L25.925,29.8906 L26.3469,29.8906 Q26.9563,29.8906 27.2219,30.125 Q27.4875,30.3594 27.4875,30.75 Q27.4875,31.125 27.2219,31.3594 Q26.9563,31.5938 26.3469,31.5938 L24.05,31.5938 Q23.4406,31.5938 23.1906,31.3594 Q22.925,31.125 22.925,30.7344 Q22.925,30.3594 23.2063,30.125 Q23.4719,29.875 24.0969,29.8906 L26.7688,23.2344 L25.6594,23.2344 Q25.05,23.2344 24.7844,23 Q24.5188,22.7656 24.5188,22.375 Q24.5188,22 24.7844,21.7656 Q25.05,21.5313 25.6594,21.5313 L29.3313,21.5313 L32.7219,29.8906 Q33.3156,29.8906 33.5031,30.0313 Q33.8938,30.2969 33.8938,30.75 Q33.8938,31.125 33.6281,31.3594 Q33.3781,31.5938 32.7688,31.5938 L30.4719,31.5938 Q29.8625,31.5938 29.5969,31.3594 Q29.3313,31.125 29.3313,30.7344 Q29.3313,30.3594 29.5969,30.125 Q29.8625,29.8906 30.4719,29.8906 L30.8938,29.8906 L30.4875,28.8594 Z M29.7688,27.1563 L28.4094,23.7813 L27.0344,27.1563 L29.7688,27.1563 Z "/><text fill="#000000" font-family="sans-serif" font-size="14" font-style="italic" lengthAdjust="spacingAndGlyphs" textLength="35" x="61.7" y="26.5332">Entity</text><text fill="#000000" font-family="sans-serif" font-size="10" font-style="italic" lengthAdjust="spacingAndGlyphs" textLength="71" x="43.7" y="39.9902">com.prog.entity</text><line style="stroke: #A80036; stroke-width: 1.5;" x1="8" x2="123" y1="47.1875" y2="47.1875"/><ellipse cx="18" cy="58.1875" fill="#84BE84" rx="3" ry="3" style="stroke: #038048; stroke-width: 1.0;"/><text fill="#000000" font-family="sans-serif" font-size="11" font-style="italic" lengthAdjust="spacingAndGlyphs" textLength="88" x="27" y="62.6064">update(float): void</text><ellipse cx="18" cy="72.0234" fill="#84BE84" rx="3" ry="3" style="stroke: #038048; stroke-width: 1.0;"/><text fill="#000000" font-family="sans-serif" font-size="11" font-style="italic" lengthAdjust="spacingAndGlyphs" textLength="91" x="27" y="76.4424">handleInput(): void</text><ellipse cx="18" cy="85.8594" fill="#84BE84" rx="3" ry="3" style="stroke: #038048; stroke-width: 1.0;"/><text fill="#000000" font-family="sans-serif" font-size="11" font-style="italic" lengthAdjust="spacingAndGlyphs" textLength="57" x="27" y="90.2783">draw(): void</text><ellipse cx="18" cy="99.6953" fill="#84BE84" rx="3" ry="3" style="stroke: #038048; stroke-width: 1.0;"/><text fill="#000000" font-family="sans-serif" font-size="11" font-style="italic" lengthAdjust="spacingAndGlyphs" textLength="73" x="27" y="104.1143">dispose(): void</text></a><!--MD5=[c2af06f0b1931a35e474cd7aad173a98]
class com.badlogic.gdx.utils.Pool.Poolable--><rect codeLine="30" fill="#FEFECE" filter="url(#f1hz5c9pt2n0m2)" height="62.0234" id="com.badlogic.gdx.utils.Pool.Poolable" style="stroke: #A80036; stroke-width: 1.5;" width="137" x="159" y="28"/><ellipse cx="174" cy="48.0938" fill="#B4A7E5" rx="11" ry="11" style="stroke: #A80036; stroke-width: 1.0;"/><path d="M174.9531,44.7344 L174.9531,51.3906 L176.6719,51.3906 Q177.2813,51.3906 177.5469,51.625 Q177.8125,51.8594 177.8125,52.25 Q177.8125,52.625 177.5469,52.8594 Q177.2813,53.0938 176.6719,53.0938 L171.5313,53.0938 Q170.9219,53.0938 170.6563,52.8594 Q170.3906,52.625 170.3906,52.2344 Q170.3906,51.8594 170.6563,51.625 Q170.9219,51.3906 171.5313,51.3906 L173.25,51.3906 L173.25,44.7344 L171.5313,44.7344 Q170.9219,44.7344 170.6563,44.5 Q170.3906,44.2656 170.3906,43.875 Q170.3906,43.5 170.6563,43.2656 Q170.9219,43.0313 171.5313,43.0313 L176.6719,43.0313 Q177.2813,43.0313 177.5469,43.2656 Q177.8125,43.5 177.8125,43.875 Q177.8125,44.2656 177.5469,44.5 Q177.2813,44.7344 176.6719,44.7344 L174.9531,44.7344 Z "/><text fill="#000000" font-family="sans-serif" font-size="14" font-style="italic" lengthAdjust="spacingAndGlyphs" textLength="87" x="197" y="47.5332">Pool.Poolable</text><text fill="#000000" font-family="sans-serif" font-size="10" font-style="italic" lengthAdjust="spacingAndGlyphs" textLength="105" x="188" y="60.9902">com.badlogic.gdx.utils</text><line style="stroke: #A80036; stroke-width: 1.5;" x1="160" x2="295" y1="68.1875" y2="68.1875"/><ellipse cx="170" cy="79.1875" fill="#84BE84" rx="3" ry="3" style="stroke: #038048; stroke-width: 1.0;"/><text fill="#000000" font-family="sans-serif" font-size="11" font-style="italic" lengthAdjust="spacingAndGlyphs" textLength="59" x="179" y="83.6064">reset(): void</text><!--MD5=[70dc5dfa4b142a7796e250b92ffae8b3]
reverse link com.prog.entity.Entity to com.prog.entity.Magia--><path codeLine="34" d="M88.43,130.47 C92.58,143.24 97.04,156.94 101.57,170.88 " fill="none" id="com.prog.entity.Entity-backto-com.prog.entity.Magia" style="stroke: #A80036; stroke-width: 1.0;"/><polygon fill="none" points="81.72,132.48,82.19,111.29,95.03,128.14,81.72,132.48" style="stroke: #A80036; stroke-width: 1.0;"/><!--MD5=[f7ebc9b47016ae85016acc52e8ff847e]
reverse link com.badlogic.gdx.utils.Pool.Poolable to com.prog.entity.Magia--><path codeLine="35" d="M211.5,109.18 C205.63,127.24 198.65,148.7 191.48,170.73 " fill="none" id="com.badlogic.gdx.utils.Pool.Poolable-backto-com.prog.entity.Magia" style="stroke: #A80036; stroke-width: 1.0; stroke-dasharray: 7.0,7.0;"/><polygon fill="none" points="204.89,106.89,217.73,90.04,218.2,111.22,204.89,106.89" style="stroke: #A80036; stroke-width: 1.0;"/><text fill="#888888" font-family="sans-serif" font-size="10" lengthAdjust="spacingAndGlyphs" textLength="190" x="53.5" y="471.9434">UMLDoclet 2.0.12, PlantUML 1.2020.16</text><!--MD5=[436b3c9652b764583faeabe39bf78466]
@startuml
    set namespaceSeparator none
    hide empty fields
    hide empty methods

    abstract class "<size:14>Magia\n<size:10>com.prog.entity" as com.prog.entity.Magia [[..\..\..\..\com\prog\entity\Magia.html]] {
        #lastLaunch: long
        {abstract} +init(Vector2, Vector2): void
        {abstract} +update(float): void
        +handleInput(): void
        +draw(): void
        +dispose(): void
        +reset(): void
        #getPower(): float
        #setPower(float): void
        #setAngle(float): void
        #isAlive(): boolean
        +setAlive(boolean): void
        #getTime(): long
        #setTime(long): void
        #setCoolDown(long): void
        #getCoolDown(): long
    }

    abstract class "<size:14>Entity\n<size:10>com.prog.entity" as com.prog.entity.Entity [[..\..\..\..\com\prog\entity\Entity.html]] {
        {abstract} +update(float): void
        {abstract} +handleInput(): void
        {abstract} +draw(): void
        {abstract} +dispose(): void
    }
    interface "<size:14>Pool.Poolable\n<size:10>com.badlogic.gdx.utils" as com.badlogic.gdx.utils.Pool.Poolable {
        {abstract} +reset(): void
    }

    com.prog.entity.Entity <|- - com.prog.entity.Magia
    com.badlogic.gdx.utils.Pool.Poolable <|.. com.prog.entity.Magia

    center footer UMLDoclet 2.0.12, PlantUML 1.2020.16
@enduml

PlantUML version 1.2020.16(Sun Aug 23 22:20:43 CEST 2020)
(APACHE source distribution)
Java Runtime: Java(TM) SE Runtime Environment
JVM: Java HotSpot(TM) 64-Bit Server VM
Default Encoding: Cp1252
Language: it
Country: IT
--></g></svg>