<?xml version="1.0" encoding="UTF-8" standalone="no"?><svg xmlns="http://www.w3.org/2000/svg" xmlns:xlink="http://www.w3.org/1999/xlink" contentScriptType="application/ecmascript" contentStyleType="text/css" height="394px" preserveAspectRatio="none" style="width:322px;height:394px;" version="1.1" viewBox="0 0 322 394" width="322px" zoomAndPan="magnify"><defs><filter height="300%" id="fgov37l5ja3r5" width="300%" x="-1" y="-1"><feGaussianBlur result="blurOut" stdDeviation="2.0"/><feColorMatrix in="blurOut" result="blurOut2" type="matrix" values="0 0 0 0 0 0 0 0 0 0 0 0 0 0 0 0 0 0 .4 0"/><feOffset dx="4.0" dy="4.0" in="blurOut2" result="blurOut3"/><feBlend in="SourceGraphic" in2="blurOut3" mode="normal"/></filter></defs><g><!--MD5=[df37601218527bf450d7305b322f6f63]
class com.prog.entity.Mouse--><a href="..\..\..\..\com\prog\entity\Mouse.html" target="_top" title="..\..\..\..\com\prog\entity\Mouse.html" xlink:actuate="onRequest" xlink:href="..\..\..\..\com\prog\entity\Mouse.html" xlink:show="new" xlink:title="..\..\..\..\com\prog\entity\Mouse.html" xlink:type="simple"><rect codeLine="5" fill="#FEFECE" filter="url(#fgov37l5ja3r5)" height="186.5469" id="com.prog.entity.Mouse" style="stroke: #A80036; stroke-width: 1.5;" width="294" x="9" y="171"/><ellipse cx="114.75" cy="191.0938" fill="#ADD1B2" rx="11" ry="11" style="stroke: #A80036; stroke-width: 1.0;"/><path d="M117.5156,186.9688 Q117.6719,186.75 117.8594,186.6406 Q118.0469,186.5313 118.2656,186.5313 Q118.6406,186.5313 118.875,186.7969 Q119.1094,187.0469 119.1094,187.6563 L119.1094,189.1094 Q119.1094,189.7188 118.875,189.9844 Q118.6406,190.25 118.2656,190.25 Q117.9219,190.25 117.7188,190.0469 Q117.5156,189.8594 117.4063,189.3438 Q117.3594,188.9844 117.1719,188.7969 Q116.8438,188.4219 116.2344,188.2031 Q115.625,187.9844 115,187.9844 Q114.2344,187.9844 113.5938,188.3125 Q112.9688,188.6406 112.4688,189.3906 Q111.9844,190.1406 111.9844,191.1719 L111.9844,192.2656 Q111.9844,193.5 112.875,194.3281 Q113.7656,195.1406 115.3594,195.1406 Q116.2969,195.1406 116.9531,194.8906 Q117.3438,194.7344 117.7656,194.2969 Q118.0313,194.0313 118.1719,193.9531 Q118.3281,193.875 118.5313,193.875 Q118.8594,193.875 119.1094,194.1406 Q119.375,194.3906 119.375,194.7344 Q119.375,195.0781 119.0313,195.4844 Q118.5313,196.0625 117.7344,196.3906 Q116.6563,196.8438 115.3594,196.8438 Q113.8438,196.8438 112.6406,196.2188 Q111.6563,195.7188 110.9688,194.6563 Q110.2813,193.5781 110.2813,192.2969 L110.2813,191.1406 Q110.2813,189.8125 110.8906,188.6719 Q111.5156,187.5156 112.6094,186.9063 Q113.7031,186.2813 114.9375,186.2813 Q115.6719,186.2813 116.3125,186.4531 Q116.9688,186.6094 117.5156,186.9688 Z "/><text fill="#000000" font-family="sans-serif" font-size="14" lengthAdjust="spacingAndGlyphs" textLength="42" x="151.25" y="190.5332">Mouse</text><text fill="#000000" font-family="sans-serif" font-size="10" lengthAdjust="spacingAndGlyphs" textLength="74" x="135.25" y="203.9902">com.prog.entity</text><line style="stroke: #A80036; stroke-width: 1.5;" x1="10" x2="302" y1="211.1875" y2="211.1875"/><ellipse cx="20" cy="222.1875" fill="#84BE84" rx="3" ry="3" style="stroke: #038048; stroke-width: 1.0;"/><text fill="#000000" font-family="sans-serif" font-size="11" lengthAdjust="spacingAndGlyphs" textLength="217" x="29" y="226.6064">addCamToMouse(OrthographicCamera): void</text><ellipse cx="20" cy="236.0234" fill="#84BE84" rx="3" ry="3" style="stroke: #038048; stroke-width: 1.0;"/><text fill="#000000" font-family="sans-serif" font-size="11" lengthAdjust="spacingAndGlyphs" textLength="268" x="29" y="240.4424">fixedPosition(float, float, OrthographicCamera): Vector3</text><ellipse cx="20" cy="249.8594" fill="#84BE84" rx="3" ry="3" style="stroke: #038048; stroke-width: 1.0;"/><text fill="#000000" font-family="sans-serif" font-size="11" lengthAdjust="spacingAndGlyphs" textLength="88" x="29" y="254.2783">update(float): void</text><ellipse cx="20" cy="263.6953" fill="#84BE84" rx="3" ry="3" style="stroke: #038048; stroke-width: 1.0;"/><text fill="#000000" font-family="sans-serif" font-size="11" lengthAdjust="spacingAndGlyphs" textLength="89" x="29" y="268.1143">handleInput(): void</text><ellipse cx="20" cy="277.5313" fill="#84BE84" rx="3" ry="3" style="stroke: #038048; stroke-width: 1.0;"/><text fill="#000000" font-family="sans-serif" font-size="11" lengthAdjust="spacingAndGlyphs" textLength="60" x="29" y="281.9502">draw(): void</text><ellipse cx="20" cy="291.3672" fill="#84BE84" rx="3" ry="3" style="stroke: #038048; stroke-width: 1.0;"/><text fill="#000000" font-family="sans-serif" font-size="11" lengthAdjust="spacingAndGlyphs" textLength="72" x="29" y="295.7861">dispose(): void</text><ellipse cx="20" cy="305.2031" fill="#84BE84" rx="3" ry="3" style="stroke: #038048; stroke-width: 1.0;"/><text fill="#000000" font-family="sans-serif" font-size="11" lengthAdjust="spacingAndGlyphs" text-decoration="underline" textLength="102" x="29" y="309.6221">getInstance(): Mouse</text><ellipse cx="20" cy="319.0391" fill="#84BE84" rx="3" ry="3" style="stroke: #038048; stroke-width: 1.0;"/><text fill="#000000" font-family="sans-serif" font-size="11" lengthAdjust="spacingAndGlyphs" textLength="92" x="29" y="323.458">addToWorld(): void</text><ellipse cx="20" cy="332.875" fill="#84BE84" rx="3" ry="3" style="stroke: #038048; stroke-width: 1.0;"/><text fill="#000000" font-family="sans-serif" font-size="11" lengthAdjust="spacingAndGlyphs" textLength="149" x="29" y="337.2939">setToReposition(boolean): void</text><polygon fill="#FFFF44" points="20,341.7109,24,345.7109,20,349.7109,16,345.7109" style="stroke: #B38D22; stroke-width: 1.0;"/><text fill="#000000" font-family="sans-serif" font-size="11" lengthAdjust="spacingAndGlyphs" textLength="150" x="29" y="351.1299">getCam(): OrthographicCamera</text></a><!--MD5=[0fc430f8d1fc4e9f568253e0381ace99]
class com.prog.entity.Entity--><a href="..\..\..\..\com\prog\entity\Entity.html" target="_top" title="..\..\..\..\com\prog\entity\Entity.html" xlink:actuate="onRequest" xlink:href="..\..\..\..\com\prog\entity\Entity.html" xlink:show="new" xlink:title="..\..\..\..\com\prog\entity\Entity.html" xlink:type="simple"><rect codeLine="18" fill="#FEFECE" filter="url(#fgov37l5ja3r5)" height="103.5313" id="com.prog.entity.Entity" style="stroke: #A80036; stroke-width: 1.5;" width="117" x="97.5" y="7"/><ellipse cx="118.8" cy="27.0938" fill="#A9DCDF" rx="11" ry="11" style="stroke: #A80036; stroke-width: 1.0;"/><path d="M120.9875,28.8594 L116.8469,28.8594 L116.425,29.8906 L116.8469,29.8906 Q117.4563,29.8906 117.7219,30.125 Q117.9875,30.3594 117.9875,30.75 Q117.9875,31.125 117.7219,31.3594 Q117.4563,31.5938 116.8469,31.5938 L114.55,31.5938 Q113.9406,31.5938 113.6906,31.3594 Q113.425,31.125 113.425,30.7344 Q113.425,30.3594 113.7063,30.125 Q113.9719,29.875 114.5969,29.8906 L117.2688,23.2344 L116.1594,23.2344 Q115.55,23.2344 115.2844,23 Q115.0188,22.7656 115.0188,22.375 Q115.0188,22 115.2844,21.7656 Q115.55,21.5313 116.1594,21.5313 L119.8313,21.5313 L123.2219,29.8906 Q123.8156,29.8906 124.0031,30.0313 Q124.3938,30.2969 124.3938,30.75 Q124.3938,31.125 124.1281,31.3594 Q123.8781,31.5938 123.2688,31.5938 L120.9719,31.5938 Q120.3625,31.5938 120.0969,31.3594 Q119.8313,31.125 119.8313,30.7344 Q119.8313,30.3594 120.0969,30.125 Q120.3625,29.8906 120.9719,29.8906 L121.3938,29.8906 L120.9875,28.8594 Z M120.2688,27.1563 L118.9094,23.7813 L117.5344,27.1563 L120.2688,27.1563 Z "/><text fill="#000000" font-family="sans-serif" font-size="14" font-style="italic" lengthAdjust="spacingAndGlyphs" textLength="35" x="152.2" y="26.5332">Entity</text><text fill="#000000" font-family="sans-serif" font-size="10" font-style="italic" lengthAdjust="spacingAndGlyphs" textLength="71" x="134.2" y="39.9902">com.prog.entity</text><line style="stroke: #A80036; stroke-width: 1.5;" x1="98.5" x2="213.5" y1="47.1875" y2="47.1875"/><ellipse cx="108.5" cy="58.1875" fill="#84BE84" rx="3" ry="3" style="stroke: #038048; stroke-width: 1.0;"/><text fill="#000000" font-family="sans-serif" font-size="11" font-style="italic" lengthAdjust="spacingAndGlyphs" textLength="88" x="117.5" y="62.6064">update(float): void</text><ellipse cx="108.5" cy="72.0234" fill="#84BE84" rx="3" ry="3" style="stroke: #038048; stroke-width: 1.0;"/><text fill="#000000" font-family="sans-serif" font-size="11" font-style="italic" lengthAdjust="spacingAndGlyphs" textLength="91" x="117.5" y="76.4424">handleInput(): void</text><ellipse cx="108.5" cy="85.8594" fill="#84BE84" rx="3" ry="3" style="stroke: #038048; stroke-width: 1.0;"/><text fill="#000000" font-family="sans-serif" font-size="11" font-style="italic" lengthAdjust="spacingAndGlyphs" textLength="57" x="117.5" y="90.2783">draw(): void</text><ellipse cx="108.5" cy="99.6953" fill="#84BE84" rx="3" ry="3" style="stroke: #038048; stroke-width: 1.0;"/><text fill="#000000" font-family="sans-serif" font-size="11" font-style="italic" lengthAdjust="spacingAndGlyphs" textLength="73" x="117.5" y="104.1143">dispose(): void</text></a><!--MD5=[32b77c9025359b6ed5e6dbd29428a9a1]
reverse link com.prog.entity.Entity to com.prog.entity.Mouse--><path codeLine="25" d="M156,131.13 C156,143.93 156,157.45 156,170.75 " fill="none" id="com.prog.entity.Entity-backto-com.prog.entity.Mouse" style="stroke: #A80036; stroke-width: 1.0;"/><polygon fill="none" points="149,131.09,156,111.09,163,131.09,149,131.09" style="stroke: #A80036; stroke-width: 1.0;"/><text fill="#888888" font-family="sans-serif" font-size="10" lengthAdjust="spacingAndGlyphs" textLength="190" x="57" y="380.9277">UMLDoclet 2.0.12, PlantUML 1.2020.16</text><!--MD5=[daf8287501db8e38779a3620557f9717]
@startuml
    set namespaceSeparator none
    hide empty fields
    hide empty methods

    class "<size:14>Mouse\n<size:10>com.prog.entity" as com.prog.entity.Mouse [[..\..\..\..\com\prog\entity\Mouse.html]] {
        +addCamToMouse(OrthographicCamera): void
        +fixedPosition(float, float, OrthographicCamera): Vector3
        +update(float): void
        +handleInput(): void
        +draw(): void
        +dispose(): void
        {static} +getInstance(): Mouse
        +addToWorld(): void
        +setToReposition(boolean): void
        #getCam(): OrthographicCamera
    }

    abstract class "<size:14>Entity\n<size:10>com.prog.entity" as com.prog.entity.Entity [[..\..\..\..\com\prog\entity\Entity.html]] {
        {abstract} +update(float): void
        {abstract} +handleInput(): void
        {abstract} +draw(): void
        {abstract} +dispose(): void
    }

    com.prog.entity.Entity <|- - com.prog.entity.Mouse

    center footer UMLDoclet 2.0.12, PlantUML 1.2020.16
@enduml

PlantUML version 1.2020.16(Sun Aug 23 22:20:43 CEST 2020)
(APACHE source distribution)
Java Runtime: Java(TM) SE Runtime Environment
JVM: Java HotSpot(TM) 64-Bit Server VM
Default Encoding: Cp1252
Language: it
Country: IT
--></g></svg>