<?xml version="1.0" encoding="UTF-8" standalone="no"?><svg xmlns="http://www.w3.org/2000/svg" xmlns:xlink="http://www.w3.org/1999/xlink" contentScriptType="application/ecmascript" contentStyleType="text/css" height="394px" preserveAspectRatio="none" style="width:320px;height:394px;" version="1.1" viewBox="0 0 320 394" width="320px" zoomAndPan="magnify"><defs><filter height="300%" id="f1v0ejekurp1uh" width="300%" x="-1" y="-1"><feGaussianBlur result="blurOut" stdDeviation="2.0"/><feColorMatrix in="blurOut" result="blurOut2" type="matrix" values="0 0 0 0 0 0 0 0 0 0 0 0 0 0 0 0 0 0 .4 0"/><feOffset dx="4.0" dy="4.0" in="blurOut2" result="blurOut3"/><feBlend in="SourceGraphic" in2="blurOut3" mode="normal"/></filter></defs><g><!--MD5=[df37601218527bf450d7305b322f6f63]
class com.prog.entity.Mouse--><a href="..\..\..\..\com\prog\entity\Mouse.html" target="_top" title="..\..\..\..\com\prog\entity\Mouse.html" xlink:actuate="onRequest" xlink:href="..\..\..\..\com\prog\entity\Mouse.html" xlink:show="new" xlink:title="..\..\..\..\com\prog\entity\Mouse.html" xlink:type="simple"><rect codeLine="5" fill="#FEFECE" filter="url(#f1v0ejekurp1uh)" height="186.5469" id="com.prog.entity.Mouse" style="stroke: #A80036; stroke-width: 1.5;" width="294" x="7" y="171"/><ellipse cx="112.75" cy="191.0938" fill="#ADD1B2" rx="11" ry="11" style="stroke: #A80036; stroke-width: 1.0;"/><path d="M115.5156,186.9688 Q115.6719,186.75 115.8594,186.6406 Q116.0469,186.5313 116.2656,186.5313 Q116.6406,186.5313 116.875,186.7969 Q117.1094,187.0469 117.1094,187.6563 L117.1094,189.1094 Q117.1094,189.7188 116.875,189.9844 Q116.6406,190.25 116.2656,190.25 Q115.9219,190.25 115.7188,190.0469 Q115.5156,189.8594 115.4063,189.3438 Q115.3594,188.9844 115.1719,188.7969 Q114.8438,188.4219 114.2344,188.2031 Q113.625,187.9844 113,187.9844 Q112.2344,187.9844 111.5938,188.3125 Q110.9688,188.6406 110.4688,189.3906 Q109.9844,190.1406 109.9844,191.1719 L109.9844,192.2656 Q109.9844,193.5 110.875,194.3281 Q111.7656,195.1406 113.3594,195.1406 Q114.2969,195.1406 114.9531,194.8906 Q115.3438,194.7344 115.7656,194.2969 Q116.0313,194.0313 116.1719,193.9531 Q116.3281,193.875 116.5313,193.875 Q116.8594,193.875 117.1094,194.1406 Q117.375,194.3906 117.375,194.7344 Q117.375,195.0781 117.0313,195.4844 Q116.5313,196.0625 115.7344,196.3906 Q114.6563,196.8438 113.3594,196.8438 Q111.8438,196.8438 110.6406,196.2188 Q109.6563,195.7188 108.9688,194.6563 Q108.2813,193.5781 108.2813,192.2969 L108.2813,191.1406 Q108.2813,189.8125 108.8906,188.6719 Q109.5156,187.5156 110.6094,186.9063 Q111.7031,186.2813 112.9375,186.2813 Q113.6719,186.2813 114.3125,186.4531 Q114.9688,186.6094 115.5156,186.9688 Z "/><text fill="#000000" font-family="sans-serif" font-size="14" lengthAdjust="spacingAndGlyphs" textLength="42" x="149.25" y="190.5332">Mouse</text><text fill="#000000" font-family="sans-serif" font-size="10" lengthAdjust="spacingAndGlyphs" textLength="74" x="133.25" y="203.9902">com.prog.entity</text><line style="stroke: #A80036; stroke-width: 1.5;" x1="8" x2="300" y1="211.1875" y2="211.1875"/><ellipse cx="18" cy="222.1875" fill="#84BE84" rx="3" ry="3" style="stroke: #038048; stroke-width: 1.0;"/><text fill="#000000" font-family="sans-serif" font-size="11" lengthAdjust="spacingAndGlyphs" textLength="217" x="27" y="226.6064">addCamToMouse(OrthographicCamera): void</text><ellipse cx="18" cy="236.0234" fill="#84BE84" rx="3" ry="3" style="stroke: #038048; stroke-width: 1.0;"/><text fill="#000000" font-family="sans-serif" font-size="11" lengthAdjust="spacingAndGlyphs" textLength="268" x="27" y="240.4424">fixedPosition(float, float, OrthographicCamera): Vector3</text><ellipse cx="18" cy="249.8594" fill="#84BE84" rx="3" ry="3" style="stroke: #038048; stroke-width: 1.0;"/><text fill="#000000" font-family="sans-serif" font-size="11" lengthAdjust="spacingAndGlyphs" textLength="88" x="27" y="254.2783">update(float): void</text><ellipse cx="18" cy="263.6953" fill="#84BE84" rx="3" ry="3" style="stroke: #038048; stroke-width: 1.0;"/><text fill="#000000" font-family="sans-serif" font-size="11" lengthAdjust="spacingAndGlyphs" textLength="89" x="27" y="268.1143">handleInput(): void</text><ellipse cx="18" cy="277.5313" fill="#84BE84" rx="3" ry="3" style="stroke: #038048; stroke-width: 1.0;"/><text fill="#000000" font-family="sans-serif" font-size="11" lengthAdjust="spacingAndGlyphs" textLength="60" x="27" y="281.9502">draw(): void</text><ellipse cx="18" cy="291.3672" fill="#84BE84" rx="3" ry="3" style="stroke: #038048; stroke-width: 1.0;"/><text fill="#000000" font-family="sans-serif" font-size="11" lengthAdjust="spacingAndGlyphs" textLength="72" x="27" y="295.7861">dispose(): void</text><ellipse cx="18" cy="305.2031" fill="#84BE84" rx="3" ry="3" style="stroke: #038048; stroke-width: 1.0;"/><text fill="#000000" font-family="sans-serif" font-size="11" lengthAdjust="spacingAndGlyphs" textLength="150" x="27" y="309.6221">getCam(): OrthographicCamera</text><ellipse cx="18" cy="319.0391" fill="#84BE84" rx="3" ry="3" style="stroke: #038048; stroke-width: 1.0;"/><text fill="#000000" font-family="sans-serif" font-size="11" lengthAdjust="spacingAndGlyphs" text-decoration="underline" textLength="102" x="27" y="323.458">getInstance(): Mouse</text><ellipse cx="18" cy="332.875" fill="#84BE84" rx="3" ry="3" style="stroke: #038048; stroke-width: 1.0;"/><text fill="#000000" font-family="sans-serif" font-size="11" lengthAdjust="spacingAndGlyphs" textLength="92" x="27" y="337.2939">addToWorld(): void</text><ellipse cx="18" cy="346.7109" fill="#84BE84" rx="3" ry="3" style="stroke: #038048; stroke-width: 1.0;"/><text fill="#000000" font-family="sans-serif" font-size="11" lengthAdjust="spacingAndGlyphs" textLength="149" x="27" y="351.1299">setToReposition(boolean): void</text></a><!--MD5=[0fc430f8d1fc4e9f568253e0381ace99]
class com.prog.entity.Entity--><a href="..\..\..\..\com\prog\entity\Entity.html" target="_top" title="..\..\..\..\com\prog\entity\Entity.html" xlink:actuate="onRequest" xlink:href="..\..\..\..\com\prog\entity\Entity.html" xlink:show="new" xlink:title="..\..\..\..\com\prog\entity\Entity.html" xlink:type="simple"><rect codeLine="18" fill="#FEFECE" filter="url(#f1v0ejekurp1uh)" height="103.5313" id="com.prog.entity.Entity" style="stroke: #A80036; stroke-width: 1.5;" width="117" x="95.5" y="7"/><ellipse cx="116.8" cy="27.0938" fill="#A9DCDF" rx="11" ry="11" style="stroke: #A80036; stroke-width: 1.0;"/><path d="M118.9875,28.8594 L114.8469,28.8594 L114.425,29.8906 L114.8469,29.8906 Q115.4563,29.8906 115.7219,30.125 Q115.9875,30.3594 115.9875,30.75 Q115.9875,31.125 115.7219,31.3594 Q115.4563,31.5938 114.8469,31.5938 L112.55,31.5938 Q111.9406,31.5938 111.6906,31.3594 Q111.425,31.125 111.425,30.7344 Q111.425,30.3594 111.7063,30.125 Q111.9719,29.875 112.5969,29.8906 L115.2688,23.2344 L114.1594,23.2344 Q113.55,23.2344 113.2844,23 Q113.0188,22.7656 113.0188,22.375 Q113.0188,22 113.2844,21.7656 Q113.55,21.5313 114.1594,21.5313 L117.8313,21.5313 L121.2219,29.8906 Q121.8156,29.8906 122.0031,30.0313 Q122.3938,30.2969 122.3938,30.75 Q122.3938,31.125 122.1281,31.3594 Q121.8781,31.5938 121.2688,31.5938 L118.9719,31.5938 Q118.3625,31.5938 118.0969,31.3594 Q117.8313,31.125 117.8313,30.7344 Q117.8313,30.3594 118.0969,30.125 Q118.3625,29.8906 118.9719,29.8906 L119.3938,29.8906 L118.9875,28.8594 Z M118.2688,27.1563 L116.9094,23.7813 L115.5344,27.1563 L118.2688,27.1563 Z "/><text fill="#000000" font-family="sans-serif" font-size="14" font-style="italic" lengthAdjust="spacingAndGlyphs" textLength="35" x="150.2" y="26.5332">Entity</text><text fill="#000000" font-family="sans-serif" font-size="10" font-style="italic" lengthAdjust="spacingAndGlyphs" textLength="71" x="132.2" y="39.9902">com.prog.entity</text><line style="stroke: #A80036; stroke-width: 1.5;" x1="96.5" x2="211.5" y1="47.1875" y2="47.1875"/><ellipse cx="106.5" cy="58.1875" fill="#84BE84" rx="3" ry="3" style="stroke: #038048; stroke-width: 1.0;"/><text fill="#000000" font-family="sans-serif" font-size="11" font-style="italic" lengthAdjust="spacingAndGlyphs" textLength="88" x="115.5" y="62.6064">update(float): void</text><ellipse cx="106.5" cy="72.0234" fill="#84BE84" rx="3" ry="3" style="stroke: #038048; stroke-width: 1.0;"/><text fill="#000000" font-family="sans-serif" font-size="11" font-style="italic" lengthAdjust="spacingAndGlyphs" textLength="91" x="115.5" y="76.4424">handleInput(): void</text><ellipse cx="106.5" cy="85.8594" fill="#84BE84" rx="3" ry="3" style="stroke: #038048; stroke-width: 1.0;"/><text fill="#000000" font-family="sans-serif" font-size="11" font-style="italic" lengthAdjust="spacingAndGlyphs" textLength="57" x="115.5" y="90.2783">draw(): void</text><ellipse cx="106.5" cy="99.6953" fill="#84BE84" rx="3" ry="3" style="stroke: #038048; stroke-width: 1.0;"/><text fill="#000000" font-family="sans-serif" font-size="11" font-style="italic" lengthAdjust="spacingAndGlyphs" textLength="73" x="115.5" y="104.1143">dispose(): void</text></a><!--MD5=[32b77c9025359b6ed5e6dbd29428a9a1]
reverse link com.prog.entity.Entity to com.prog.entity.Mouse--><path codeLine="25" d="M154,131.13 C154,143.93 154,157.45 154,170.75 " fill="none" id="com.prog.entity.Entity-backto-com.prog.entity.Mouse" style="stroke: #A80036; stroke-width: 1.0;"/><polygon fill="none" points="147,131.09,154,111.09,161,131.09,147,131.09" style="stroke: #A80036; stroke-width: 1.0;"/><text fill="#888888" font-family="sans-serif" font-size="10" lengthAdjust="spacingAndGlyphs" textLength="190" x="56" y="380.9277">UMLDoclet 2.0.12, PlantUML 1.2020.16</text><!--MD5=[3a9e81922ad3f300c1bc4ed04b92269a]
@startuml
    set namespaceSeparator none
    hide empty fields
    hide empty methods

    class "<size:14>Mouse\n<size:10>com.prog.entity" as com.prog.entity.Mouse [[..\..\..\..\com\prog\entity\Mouse.html]] {
        +addCamToMouse(OrthographicCamera): void
        +fixedPosition(float, float, OrthographicCamera): Vector3
        +update(float): void
        +handleInput(): void
        +draw(): void
        +dispose(): void
        +getCam(): OrthographicCamera
        {static} +getInstance(): Mouse
        +addToWorld(): void
        +setToReposition(boolean): void
    }

    abstract class "<size:14>Entity\n<size:10>com.prog.entity" as com.prog.entity.Entity [[..\..\..\..\com\prog\entity\Entity.html]] {
        {abstract} +update(float): void
        {abstract} +handleInput(): void
        {abstract} +draw(): void
        {abstract} +dispose(): void
    }

    com.prog.entity.Entity <|- - com.prog.entity.Mouse

    center footer UMLDoclet 2.0.12, PlantUML 1.2020.16
@enduml

PlantUML version 1.2020.16(Sun Aug 23 22:20:43 CEST 2020)
(APACHE source distribution)
Java Runtime: Java(TM) SE Runtime Environment
JVM: Java HotSpot(TM) 64-Bit Server VM
Default Encoding: Cp1252
Language: it
Country: IT
--></g></svg>