<?xml version="1.0" encoding="UTF-8" standalone="no"?><svg xmlns="http://www.w3.org/2000/svg" xmlns:xlink="http://www.w3.org/1999/xlink" contentScriptType="application/ecmascript" contentStyleType="text/css" height="269px" preserveAspectRatio="none" style="width:202px;height:269px;" version="1.1" viewBox="0 0 202 269" width="202px" zoomAndPan="magnify"><defs><filter height="300%" id="f8x37e87w81mx" width="300%" x="-1" y="-1"><feGaussianBlur result="blurOut" stdDeviation="2.0"/><feColorMatrix in="blurOut" result="blurOut2" type="matrix" values="0 0 0 0 0 0 0 0 0 0 0 0 0 0 0 0 0 0 .4 0"/><feOffset dx="4.0" dy="4.0" in="blurOut2" result="blurOut3"/><feBlend in="SourceGraphic" in2="blurOut3" mode="normal"/></filter></defs><g><!--MD5=[1c798f02b97fa9f4f32c0b2bc9e38898]
class com.prog.entity.PallaDiGhiaccio--><a href="..\..\..\..\com\prog\entity\PallaDiGhiaccio.html" target="_top" title="..\..\..\..\com\prog\entity\PallaDiGhiaccio.html" xlink:actuate="onRequest" xlink:href="..\..\..\..\com\prog\entity\PallaDiGhiaccio.html" xlink:show="new" xlink:title="..\..\..\..\com\prog\entity\PallaDiGhiaccio.html" xlink:type="simple"><rect codeLine="5" fill="#FEFECE" filter="url(#f8x37e87w81mx)" height="89.6953" id="com.prog.entity.PallaDiGhiaccio" style="stroke: #A80036; stroke-width: 1.5;" width="157" x="19.5" y="143"/><ellipse cx="46.2" cy="163.0938" fill="#ADD1B2" rx="11" ry="11" style="stroke: #A80036; stroke-width: 1.0;"/><path d="M48.9656,158.9688 Q49.1219,158.75 49.3094,158.6406 Q49.4969,158.5313 49.7156,158.5313 Q50.0906,158.5313 50.325,158.7969 Q50.5594,159.0469 50.5594,159.6563 L50.5594,161.1094 Q50.5594,161.7188 50.325,161.9844 Q50.0906,162.25 49.7156,162.25 Q49.3719,162.25 49.1688,162.0469 Q48.9656,161.8594 48.8563,161.3438 Q48.8094,160.9844 48.6219,160.7969 Q48.2938,160.4219 47.6844,160.2031 Q47.075,159.9844 46.45,159.9844 Q45.6844,159.9844 45.0438,160.3125 Q44.4188,160.6406 43.9188,161.3906 Q43.4344,162.1406 43.4344,163.1719 L43.4344,164.2656 Q43.4344,165.5 44.325,166.3281 Q45.2156,167.1406 46.8094,167.1406 Q47.7469,167.1406 48.4031,166.8906 Q48.7938,166.7344 49.2156,166.2969 Q49.4813,166.0313 49.6219,165.9531 Q49.7781,165.875 49.9813,165.875 Q50.3094,165.875 50.5594,166.1406 Q50.825,166.3906 50.825,166.7344 Q50.825,167.0781 50.4813,167.4844 Q49.9813,168.0625 49.1844,168.3906 Q48.1063,168.8438 46.8094,168.8438 Q45.2938,168.8438 44.0906,168.2188 Q43.1063,167.7188 42.4188,166.6563 Q41.7313,165.5781 41.7313,164.2969 L41.7313,163.1406 Q41.7313,161.8125 42.3406,160.6719 Q42.9656,159.5156 44.0594,158.9063 Q45.1531,158.2813 46.3875,158.2813 Q47.1219,158.2813 47.7625,158.4531 Q48.4188,158.6094 48.9656,158.9688 Z "/><text fill="#000000" font-family="sans-serif" font-size="14" lengthAdjust="spacingAndGlyphs" textLength="99" x="62.8" y="162.5332">PallaDiGhiaccio</text><text fill="#000000" font-family="sans-serif" font-size="10" lengthAdjust="spacingAndGlyphs" textLength="74" x="75.3" y="175.9902">com.prog.entity</text><line style="stroke: #A80036; stroke-width: 1.5;" x1="20.5" x2="175.5" y1="183.1875" y2="183.1875"/><ellipse cx="30.5" cy="194.1875" fill="#84BE84" rx="3" ry="3" style="stroke: #038048; stroke-width: 1.0;"/><text fill="#000000" font-family="sans-serif" font-size="11" lengthAdjust="spacingAndGlyphs" textLength="131" x="39.5" y="198.6064">init(Vector2, Vector2): void</text><ellipse cx="30.5" cy="208.0234" fill="#84BE84" rx="3" ry="3" style="stroke: #038048; stroke-width: 1.0;"/><text fill="#000000" font-family="sans-serif" font-size="11" lengthAdjust="spacingAndGlyphs" textLength="88" x="39.5" y="212.4424">update(float): void</text><ellipse cx="30.5" cy="221.8594" fill="#84BE84" rx="3" ry="3" style="stroke: #038048; stroke-width: 1.0;"/><text fill="#000000" font-family="sans-serif" font-size="11" lengthAdjust="spacingAndGlyphs" text-decoration="underline" textLength="63" x="39.5" y="226.2783">getCD(): long</text></a><!--MD5=[b25ecea9128c4ad15a9f726f48d58e97]
class com.prog.entity.Magia--><a href="..\..\..\..\com\prog\entity\Magia.html" target="_top" title="..\..\..\..\com\prog\entity\Magia.html" xlink:actuate="onRequest" xlink:href="..\..\..\..\com\prog\entity\Magia.html" xlink:show="new" xlink:title="..\..\..\..\com\prog\entity\Magia.html" xlink:type="simple"><rect codeLine="11" fill="#FEFECE" filter="url(#f8x37e87w81mx)" height="75.8594" id="com.prog.entity.Magia" style="stroke: #A80036; stroke-width: 1.5;" width="157" x="19.5" y="7"/><ellipse cx="58.8" cy="27.0938" fill="#A9DCDF" rx="11" ry="11" style="stroke: #A80036; stroke-width: 1.0;"/><path d="M60.9875,28.8594 L56.8469,28.8594 L56.425,29.8906 L56.8469,29.8906 Q57.4563,29.8906 57.7219,30.125 Q57.9875,30.3594 57.9875,30.75 Q57.9875,31.125 57.7219,31.3594 Q57.4563,31.5938 56.8469,31.5938 L54.55,31.5938 Q53.9406,31.5938 53.6906,31.3594 Q53.425,31.125 53.425,30.7344 Q53.425,30.3594 53.7063,30.125 Q53.9719,29.875 54.5969,29.8906 L57.2688,23.2344 L56.1594,23.2344 Q55.55,23.2344 55.2844,23 Q55.0188,22.7656 55.0188,22.375 Q55.0188,22 55.2844,21.7656 Q55.55,21.5313 56.1594,21.5313 L59.8313,21.5313 L63.2219,29.8906 Q63.8156,29.8906 64.0031,30.0313 Q64.3938,30.2969 64.3938,30.75 Q64.3938,31.125 64.1281,31.3594 Q63.8781,31.5938 63.2688,31.5938 L60.9719,31.5938 Q60.3625,31.5938 60.0969,31.3594 Q59.8313,31.125 59.8313,30.7344 Q59.8313,30.3594 60.0969,30.125 Q60.3625,29.8906 60.9719,29.8906 L61.3938,29.8906 L60.9875,28.8594 Z M60.2688,27.1563 L58.9094,23.7813 L57.5344,27.1563 L60.2688,27.1563 Z "/><text fill="#000000" font-family="sans-serif" font-size="14" font-style="italic" lengthAdjust="spacingAndGlyphs" textLength="39" x="94.2" y="26.5332">Magia</text><text fill="#000000" font-family="sans-serif" font-size="10" font-style="italic" lengthAdjust="spacingAndGlyphs" textLength="71" x="78.2" y="39.9902">com.prog.entity</text><line style="stroke: #A80036; stroke-width: 1.5;" x1="20.5" x2="175.5" y1="47.1875" y2="47.1875"/><ellipse cx="30.5" cy="58.1875" fill="#84BE84" rx="3" ry="3" style="stroke: #038048; stroke-width: 1.0;"/><text fill="#000000" font-family="sans-serif" font-size="11" font-style="italic" lengthAdjust="spacingAndGlyphs" textLength="131" x="39.5" y="62.6064">init(Vector2, Vector2): void</text><ellipse cx="30.5" cy="72.0234" fill="#84BE84" rx="3" ry="3" style="stroke: #038048; stroke-width: 1.0;"/><text fill="#000000" font-family="sans-serif" font-size="11" font-style="italic" lengthAdjust="spacingAndGlyphs" textLength="88" x="39.5" y="76.4424">update(float): void</text></a><!--MD5=[9bc27a1bdf1d13119a789910882f547e]
reverse link com.prog.entity.Magia to com.prog.entity.PallaDiGhiaccio--><path codeLine="16" d="M98,103.09 C98,116.37 98,130.31 98,142.93 " fill="none" id="com.prog.entity.Magia-backto-com.prog.entity.PallaDiGhiaccio" style="stroke: #A80036; stroke-width: 1.0;"/><polygon fill="none" points="91,103.05,98,83.05,105,103.05,91,103.05" style="stroke: #A80036; stroke-width: 1.0;"/><text fill="#888888" font-family="sans-serif" font-size="10" lengthAdjust="spacingAndGlyphs" textLength="190" x="0" y="256.0762">UMLDoclet 2.0.12, PlantUML 1.2020.16</text><!--MD5=[84ee875ffd7c6181512791a12f108df2]
@startuml
    set namespaceSeparator none
    hide empty fields
    hide empty methods

    class "<size:14>PallaDiGhiaccio\n<size:10>com.prog.entity" as com.prog.entity.PallaDiGhiaccio [[..\..\..\..\com\prog\entity\PallaDiGhiaccio.html]] {
        +init(Vector2, Vector2): void
        +update(float): void
        {static} +getCD(): long
    }

    abstract class "<size:14>Magia\n<size:10>com.prog.entity" as com.prog.entity.Magia [[..\..\..\..\com\prog\entity\Magia.html]] {
        {abstract} +init(Vector2, Vector2): void
        {abstract} +update(float): void
    }

    com.prog.entity.Magia <|- - com.prog.entity.PallaDiGhiaccio

    center footer UMLDoclet 2.0.12, PlantUML 1.2020.16
@enduml

PlantUML version 1.2020.16(Sun Aug 23 22:20:43 CEST 2020)
(APACHE source distribution)
Java Runtime: Java(TM) SE Runtime Environment
JVM: Java HotSpot(TM) 64-Bit Server VM
Default Encoding: Cp1252
Language: it
Country: IT
--></g></svg>