<?xml version="1.0" encoding="UTF-8" standalone="no"?><svg xmlns="http://www.w3.org/2000/svg" xmlns:xlink="http://www.w3.org/1999/xlink" contentScriptType="application/ecmascript" contentStyleType="text/css" height="491px" preserveAspectRatio="none" style="width:215px;height:491px;" version="1.1" viewBox="0 0 215 491" width="215px" zoomAndPan="magnify"><defs><filter height="300%" id="f1hb79oshyb6i9" width="300%" x="-1" y="-1"><feGaussianBlur result="blurOut" stdDeviation="2.0"/><feColorMatrix in="blurOut" result="blurOut2" type="matrix" values="0 0 0 0 0 0 0 0 0 0 0 0 0 0 0 0 0 0 .4 0"/><feOffset dx="4.0" dy="4.0" in="blurOut2" result="blurOut3"/><feBlend in="SourceGraphic" in2="blurOut3" mode="normal"/></filter></defs><g><!--MD5=[9720dc1c011eca10bdc5aa4a837ef66d]
class com.prog.entity.Player--><a href="..\..\..\..\com\prog\entity\Player.html" target="_top" title="..\..\..\..\com\prog\entity\Player.html" xlink:actuate="onRequest" xlink:href="..\..\..\..\com\prog\entity\Player.html" xlink:show="new" xlink:title="..\..\..\..\com\prog\entity\Player.html" xlink:type="simple"><rect codeLine="5" fill="#FEFECE" filter="url(#f1hb79oshyb6i9)" height="283.3984" id="com.prog.entity.Player" style="stroke: #A80036; stroke-width: 1.5;" width="189" x="7" y="171"/><ellipse cx="60.25" cy="191.0938" fill="#ADD1B2" rx="11" ry="11" style="stroke: #A80036; stroke-width: 1.0;"/><path d="M63.0156,186.9688 Q63.1719,186.75 63.3594,186.6406 Q63.5469,186.5313 63.7656,186.5313 Q64.1406,186.5313 64.375,186.7969 Q64.6094,187.0469 64.6094,187.6563 L64.6094,189.1094 Q64.6094,189.7188 64.375,189.9844 Q64.1406,190.25 63.7656,190.25 Q63.4219,190.25 63.2188,190.0469 Q63.0156,189.8594 62.9063,189.3438 Q62.8594,188.9844 62.6719,188.7969 Q62.3438,188.4219 61.7344,188.2031 Q61.125,187.9844 60.5,187.9844 Q59.7344,187.9844 59.0938,188.3125 Q58.4688,188.6406 57.9688,189.3906 Q57.4844,190.1406 57.4844,191.1719 L57.4844,192.2656 Q57.4844,193.5 58.375,194.3281 Q59.2656,195.1406 60.8594,195.1406 Q61.7969,195.1406 62.4531,194.8906 Q62.8438,194.7344 63.2656,194.2969 Q63.5313,194.0313 63.6719,193.9531 Q63.8281,193.875 64.0313,193.875 Q64.3594,193.875 64.6094,194.1406 Q64.875,194.3906 64.875,194.7344 Q64.875,195.0781 64.5313,195.4844 Q64.0313,196.0625 63.2344,196.3906 Q62.1563,196.8438 60.8594,196.8438 Q59.3438,196.8438 58.1406,196.2188 Q57.1563,195.7188 56.4688,194.6563 Q55.7813,193.5781 55.7813,192.2969 L55.7813,191.1406 Q55.7813,189.8125 56.3906,188.6719 Q57.0156,187.5156 58.1094,186.9063 Q59.2031,186.2813 60.4375,186.2813 Q61.1719,186.2813 61.8125,186.4531 Q62.4688,186.6094 63.0156,186.9688 Z "/><text fill="#000000" font-family="sans-serif" font-size="14" lengthAdjust="spacingAndGlyphs" textLength="40" x="97.75" y="190.5332">Player</text><text fill="#000000" font-family="sans-serif" font-size="10" lengthAdjust="spacingAndGlyphs" textLength="74" x="80.75" y="203.9902">com.prog.entity</text><line style="stroke: #A80036; stroke-width: 1.5;" x1="8" x2="195" y1="211.1875" y2="211.1875"/><ellipse cx="18" cy="222.1875" fill="#84BE84" rx="3" ry="3" style="stroke: #038048; stroke-width: 1.0;"/><text fill="#000000" font-family="sans-serif" font-size="11" lengthAdjust="spacingAndGlyphs" textLength="113" x="27" y="226.6064">Player(float, float, float)</text><ellipse cx="18" cy="236.0234" fill="#84BE84" rx="3" ry="3" style="stroke: #038048; stroke-width: 1.0;"/><text fill="#000000" font-family="sans-serif" font-size="11" lengthAdjust="spacingAndGlyphs" textLength="88" x="27" y="240.4424">update(float): void</text><ellipse cx="18" cy="249.8594" fill="#84BE84" rx="3" ry="3" style="stroke: #038048; stroke-width: 1.0;"/><text fill="#000000" font-family="sans-serif" font-size="11" lengthAdjust="spacingAndGlyphs" textLength="89" x="27" y="254.2783">handleInput(): void</text><ellipse cx="18" cy="263.6953" fill="#84BE84" rx="3" ry="3" style="stroke: #038048; stroke-width: 1.0;"/><text fill="#000000" font-family="sans-serif" font-size="11" lengthAdjust="spacingAndGlyphs" textLength="60" x="27" y="268.1143">draw(): void</text><ellipse cx="18" cy="277.5313" fill="#84BE84" rx="3" ry="3" style="stroke: #038048; stroke-width: 1.0;"/><text fill="#000000" font-family="sans-serif" font-size="11" lengthAdjust="spacingAndGlyphs" textLength="72" x="27" y="281.9502">dispose(): void</text><ellipse cx="18" cy="291.3672" fill="#84BE84" rx="3" ry="3" style="stroke: #038048; stroke-width: 1.0;"/><text fill="#000000" font-family="sans-serif" font-size="11" lengthAdjust="spacingAndGlyphs" textLength="83" x="27" y="295.7861">saveState(): void</text><ellipse cx="18" cy="305.2031" fill="#84BE84" rx="3" ry="3" style="stroke: #038048; stroke-width: 1.0;"/><text fill="#000000" font-family="sans-serif" font-size="11" lengthAdjust="spacingAndGlyphs" textLength="102" x="27" y="309.6221">applyDmg(float): void</text><ellipse cx="18" cy="319.0391" fill="#84BE84" rx="3" ry="3" style="stroke: #038048; stroke-width: 1.0;"/><text fill="#000000" font-family="sans-serif" font-size="11" lengthAdjust="spacingAndGlyphs" textLength="163" x="27" y="323.458">setLevelCompleted(boolean): void</text><ellipse cx="18" cy="332.875" fill="#84BE84" rx="3" ry="3" style="stroke: #038048; stroke-width: 1.0;"/><text fill="#000000" font-family="sans-serif" font-size="11" lengthAdjust="spacingAndGlyphs" textLength="136" x="27" y="337.2939">isLevelCompleted(): boolean</text><ellipse cx="18" cy="346.7109" fill="#84BE84" rx="3" ry="3" style="stroke: #038048; stroke-width: 1.0;"/><text fill="#000000" font-family="sans-serif" font-size="11" lengthAdjust="spacingAndGlyphs" textLength="82" x="27" y="351.1299">isInAir(): boolean</text><ellipse cx="18" cy="360.5469" fill="#84BE84" rx="3" ry="3" style="stroke: #038048; stroke-width: 1.0;"/><text fill="#000000" font-family="sans-serif" font-size="11" lengthAdjust="spacingAndGlyphs" textLength="84" x="27" y="364.9658">isAlive(): boolean</text><ellipse cx="18" cy="374.3828" fill="#84BE84" rx="3" ry="3" style="stroke: #038048; stroke-width: 1.0;"/><text fill="#000000" font-family="sans-serif" font-size="11" lengthAdjust="spacingAndGlyphs" text-decoration="underline" textLength="83" x="27" y="378.8018">getMaxHp(): float</text><ellipse cx="18" cy="388.2188" fill="#84BE84" rx="3" ry="3" style="stroke: #038048; stroke-width: 1.0;"/><text fill="#000000" font-family="sans-serif" font-size="11" lengthAdjust="spacingAndGlyphs" text-decoration="underline" textLength="96" x="27" y="392.6377">getHealPosX(): float</text><ellipse cx="18" cy="402.0547" fill="#84BE84" rx="3" ry="3" style="stroke: #038048; stroke-width: 1.0;"/><text fill="#000000" font-family="sans-serif" font-size="11" lengthAdjust="spacingAndGlyphs" text-decoration="underline" textLength="97" x="27" y="406.4736">getHealPosY(): float</text><ellipse cx="18" cy="415.8906" fill="#84BE84" rx="3" ry="3" style="stroke: #038048; stroke-width: 1.0;"/><text fill="#000000" font-family="sans-serif" font-size="11" lengthAdjust="spacingAndGlyphs" textLength="109" x="27" y="420.3096">setInAir(boolean): void</text><ellipse cx="18" cy="429.7266" fill="#84BE84" rx="3" ry="3" style="stroke: #038048; stroke-width: 1.0;"/><text fill="#000000" font-family="sans-serif" font-size="11" lengthAdjust="spacingAndGlyphs" text-decoration="underline" textLength="63" x="27" y="434.1455">getHP(): float</text><ellipse cx="18" cy="443.5625" fill="#84BE84" rx="3" ry="3" style="stroke: #038048; stroke-width: 1.0;"/><text fill="#000000" font-family="sans-serif" font-size="11" lengthAdjust="spacingAndGlyphs" text-decoration="underline" textLength="83" x="27" y="447.9814">setHP(float): void</text></a><!--MD5=[0fc430f8d1fc4e9f568253e0381ace99]
class com.prog.entity.Entity--><a href="..\..\..\..\com\prog\entity\Entity.html" target="_top" title="..\..\..\..\com\prog\entity\Entity.html" xlink:actuate="onRequest" xlink:href="..\..\..\..\com\prog\entity\Entity.html" xlink:show="new" xlink:title="..\..\..\..\com\prog\entity\Entity.html" xlink:type="simple"><rect codeLine="25" fill="#FEFECE" filter="url(#f1hb79oshyb6i9)" height="103.5313" id="com.prog.entity.Entity" style="stroke: #A80036; stroke-width: 1.5;" width="117" x="43" y="7"/><ellipse cx="64.3" cy="27.0938" fill="#A9DCDF" rx="11" ry="11" style="stroke: #A80036; stroke-width: 1.0;"/><path d="M66.4875,28.8594 L62.3469,28.8594 L61.925,29.8906 L62.3469,29.8906 Q62.9563,29.8906 63.2219,30.125 Q63.4875,30.3594 63.4875,30.75 Q63.4875,31.125 63.2219,31.3594 Q62.9563,31.5938 62.3469,31.5938 L60.05,31.5938 Q59.4406,31.5938 59.1906,31.3594 Q58.925,31.125 58.925,30.7344 Q58.925,30.3594 59.2063,30.125 Q59.4719,29.875 60.0969,29.8906 L62.7688,23.2344 L61.6594,23.2344 Q61.05,23.2344 60.7844,23 Q60.5188,22.7656 60.5188,22.375 Q60.5188,22 60.7844,21.7656 Q61.05,21.5313 61.6594,21.5313 L65.3313,21.5313 L68.7219,29.8906 Q69.3156,29.8906 69.5031,30.0313 Q69.8938,30.2969 69.8938,30.75 Q69.8938,31.125 69.6281,31.3594 Q69.3781,31.5938 68.7688,31.5938 L66.4719,31.5938 Q65.8625,31.5938 65.5969,31.3594 Q65.3313,31.125 65.3313,30.7344 Q65.3313,30.3594 65.5969,30.125 Q65.8625,29.8906 66.4719,29.8906 L66.8938,29.8906 L66.4875,28.8594 Z M65.7688,27.1563 L64.4094,23.7813 L63.0344,27.1563 L65.7688,27.1563 Z "/><text fill="#000000" font-family="sans-serif" font-size="14" font-style="italic" lengthAdjust="spacingAndGlyphs" textLength="35" x="97.7" y="26.5332">Entity</text><text fill="#000000" font-family="sans-serif" font-size="10" font-style="italic" lengthAdjust="spacingAndGlyphs" textLength="71" x="79.7" y="39.9902">com.prog.entity</text><line style="stroke: #A80036; stroke-width: 1.5;" x1="44" x2="159" y1="47.1875" y2="47.1875"/><ellipse cx="54" cy="58.1875" fill="#84BE84" rx="3" ry="3" style="stroke: #038048; stroke-width: 1.0;"/><text fill="#000000" font-family="sans-serif" font-size="11" font-style="italic" lengthAdjust="spacingAndGlyphs" textLength="88" x="63" y="62.6064">update(float): void</text><ellipse cx="54" cy="72.0234" fill="#84BE84" rx="3" ry="3" style="stroke: #038048; stroke-width: 1.0;"/><text fill="#000000" font-family="sans-serif" font-size="11" font-style="italic" lengthAdjust="spacingAndGlyphs" textLength="91" x="63" y="76.4424">handleInput(): void</text><ellipse cx="54" cy="85.8594" fill="#84BE84" rx="3" ry="3" style="stroke: #038048; stroke-width: 1.0;"/><text fill="#000000" font-family="sans-serif" font-size="11" font-style="italic" lengthAdjust="spacingAndGlyphs" textLength="57" x="63" y="90.2783">draw(): void</text><ellipse cx="54" cy="99.6953" fill="#84BE84" rx="3" ry="3" style="stroke: #038048; stroke-width: 1.0;"/><text fill="#000000" font-family="sans-serif" font-size="11" font-style="italic" lengthAdjust="spacingAndGlyphs" textLength="73" x="63" y="104.1143">dispose(): void</text></a><!--MD5=[a3b91fedc3bc69a41c2f80438761c8fe]
reverse link com.prog.entity.Entity to com.prog.entity.Player--><path codeLine="32" d="M101.5,131.32 C101.5,143.84 101.5,157.26 101.5,170.92 " fill="none" id="com.prog.entity.Entity-backto-com.prog.entity.Player" style="stroke: #A80036; stroke-width: 1.0;"/><polygon fill="none" points="94.5,131.2,101.5,111.2,108.5,131.2,94.5,131.2" style="stroke: #A80036; stroke-width: 1.0;"/><text fill="#888888" font-family="sans-serif" font-size="10" lengthAdjust="spacingAndGlyphs" textLength="190" x="3.5" y="477.7793">UMLDoclet 2.0.12, PlantUML 1.2020.16</text><!--MD5=[15c434c20d6beea4e4fe4fa63db61e9c]
@startuml
    set namespaceSeparator none
    hide empty fields
    hide empty methods

    class "<size:14>Player\n<size:10>com.prog.entity" as com.prog.entity.Player [[..\..\..\..\com\prog\entity\Player.html]] {
        +Player(float, float, float)
        +update(float): void
        +handleInput(): void
        +draw(): void
        +dispose(): void
        +saveState(): void
        +applyDmg(float): void
        +setLevelCompleted(boolean): void
        +isLevelCompleted(): boolean
        +isInAir(): boolean
        +isAlive(): boolean
        {static} +getMaxHp(): float
        {static} +getHealPosX(): float
        {static} +getHealPosY(): float
        +setInAir(boolean): void
        {static} +getHP(): float
        {static} +setHP(float): void
    }

    abstract class "<size:14>Entity\n<size:10>com.prog.entity" as com.prog.entity.Entity [[..\..\..\..\com\prog\entity\Entity.html]] {
        {abstract} +update(float): void
        {abstract} +handleInput(): void
        {abstract} +draw(): void
        {abstract} +dispose(): void
    }

    com.prog.entity.Entity <|- - com.prog.entity.Player

    center footer UMLDoclet 2.0.12, PlantUML 1.2020.16
@enduml

PlantUML version 1.2020.16(Sun Aug 23 22:20:43 CEST 2020)
(APACHE source distribution)
Java Runtime: Java(TM) SE Runtime Environment
JVM: Java HotSpot(TM) 64-Bit Server VM
Default Encoding: Cp1252
Language: it
Country: IT
--></g></svg>