<?xml version="1.0" encoding="UTF-8" standalone="no"?><svg xmlns="http://www.w3.org/2000/svg" xmlns:xlink="http://www.w3.org/1999/xlink" contentScriptType="application/ecmascript" contentStyleType="text/css" height="238px" preserveAspectRatio="none" style="width:260px;height:238px;" version="1.1" viewBox="0 0 260 238" width="260px" zoomAndPan="magnify"><defs><filter height="300%" id="fg26dntxktnf9" width="300%" x="-1" y="-1"><feGaussianBlur result="blurOut" stdDeviation="2.0"/><feColorMatrix in="blurOut" result="blurOut2" type="matrix" values="0 0 0 0 0 0 0 0 0 0 0 0 0 0 0 0 0 0 .4 0"/><feOffset dx="4.0" dy="4.0" in="blurOut2" result="blurOut3"/><feBlend in="SourceGraphic" in2="blurOut3" mode="normal"/></filter></defs><g><!--MD5=[e5db937e89e4211e9c3b7fc5416cf448]
class com.prog.entity.SpellFactory--><a href="..\..\..\..\com\prog\entity\SpellFactory.html" target="_top" title="..\..\..\..\com\prog\entity\SpellFactory.html" xlink:actuate="onRequest" xlink:href="..\..\..\..\com\prog\entity\SpellFactory.html" xlink:show="new" xlink:title="..\..\..\..\com\prog\entity\SpellFactory.html" xlink:type="simple"><rect codeLine="5" fill="#FEFECE" filter="url(#fg26dntxktnf9)" height="200.3828" id="com.prog.entity.SpellFactory" style="stroke: #A80036; stroke-width: 1.5;" width="234" x="7" y="7"/><ellipse cx="80.25" cy="27.0938" fill="#ADD1B2" rx="11" ry="11" style="stroke: #A80036; stroke-width: 1.0;"/><path d="M83.0156,22.9688 Q83.1719,22.75 83.3594,22.6406 Q83.5469,22.5313 83.7656,22.5313 Q84.1406,22.5313 84.375,22.7969 Q84.6094,23.0469 84.6094,23.6563 L84.6094,25.1094 Q84.6094,25.7188 84.375,25.9844 Q84.1406,26.25 83.7656,26.25 Q83.4219,26.25 83.2188,26.0469 Q83.0156,25.8594 82.9063,25.3438 Q82.8594,24.9844 82.6719,24.7969 Q82.3438,24.4219 81.7344,24.2031 Q81.125,23.9844 80.5,23.9844 Q79.7344,23.9844 79.0938,24.3125 Q78.4688,24.6406 77.9688,25.3906 Q77.4844,26.1406 77.4844,27.1719 L77.4844,28.2656 Q77.4844,29.5 78.375,30.3281 Q79.2656,31.1406 80.8594,31.1406 Q81.7969,31.1406 82.4531,30.8906 Q82.8438,30.7344 83.2656,30.2969 Q83.5313,30.0313 83.6719,29.9531 Q83.8281,29.875 84.0313,29.875 Q84.3594,29.875 84.6094,30.1406 Q84.875,30.3906 84.875,30.7344 Q84.875,31.0781 84.5313,31.4844 Q84.0313,32.0625 83.2344,32.3906 Q82.1563,32.8438 80.8594,32.8438 Q79.3438,32.8438 78.1406,32.2188 Q77.1563,31.7188 76.4688,30.6563 Q75.7813,29.5781 75.7813,28.2969 L75.7813,27.1406 Q75.7813,25.8125 76.3906,24.6719 Q77.0156,23.5156 78.1094,22.9063 Q79.2031,22.2813 80.4375,22.2813 Q81.1719,22.2813 81.8125,22.4531 Q82.4688,22.6094 83.0156,22.9688 Z "/><text fill="#000000" font-family="sans-serif" font-size="14" lengthAdjust="spacingAndGlyphs" textLength="79" x="100.75" y="26.5332">SpellFactory</text><text fill="#000000" font-family="sans-serif" font-size="10" lengthAdjust="spacingAndGlyphs" textLength="74" x="103.25" y="39.9902">com.prog.entity</text><line style="stroke: #A80036; stroke-width: 1.5;" x1="8" x2="240" y1="47.1875" y2="47.1875"/><ellipse cx="18" cy="58.1875" fill="#84BE84" rx="3" ry="3" style="stroke: #038048; stroke-width: 1.0;"/><text fill="#000000" font-family="sans-serif" font-size="11" lengthAdjust="spacingAndGlyphs" textLength="138" x="27" y="62.6064">addToSpellSelector(int): void</text><ellipse cx="18" cy="72.0234" fill="#84BE84" rx="3" ry="3" style="stroke: #038048; stroke-width: 1.0;"/><text fill="#000000" font-family="sans-serif" font-size="11" lengthAdjust="spacingAndGlyphs" textLength="208" x="27" y="76.4424">computeDistanceVector(Vector2): Vector2</text><ellipse cx="18" cy="85.8594" fill="#84BE84" rx="3" ry="3" style="stroke: #038048; stroke-width: 1.0;"/><text fill="#000000" font-family="sans-serif" font-size="11" lengthAdjust="spacingAndGlyphs" textLength="88" x="27" y="90.2783">update(float): void</text><ellipse cx="18" cy="99.6953" fill="#84BE84" rx="3" ry="3" style="stroke: #038048; stroke-width: 1.0;"/><text fill="#000000" font-family="sans-serif" font-size="11" lengthAdjust="spacingAndGlyphs" textLength="167" x="27" y="104.1143">setSelectorPressed(boolean): void</text><ellipse cx="18" cy="113.5313" fill="#84BE84" rx="3" ry="3" style="stroke: #038048; stroke-width: 1.0;"/><text fill="#000000" font-family="sans-serif" font-size="11" lengthAdjust="spacingAndGlyphs" textLength="60" x="27" y="117.9502">draw(): void</text><ellipse cx="18" cy="127.3672" fill="#84BE84" rx="3" ry="3" style="stroke: #038048; stroke-width: 1.0;"/><text fill="#000000" font-family="sans-serif" font-size="11" lengthAdjust="spacingAndGlyphs" textLength="118" x="27" y="131.7861">clearActiveSpells(): void</text><ellipse cx="18" cy="141.2031" fill="#84BE84" rx="3" ry="3" style="stroke: #038048; stroke-width: 1.0;"/><text fill="#000000" font-family="sans-serif" font-size="11" lengthAdjust="spacingAndGlyphs" text-decoration="underline" textLength="130" x="27" y="145.6221">getInstance(): SpellFactory</text><ellipse cx="18" cy="155.0391" fill="#84BE84" rx="3" ry="3" style="stroke: #038048; stroke-width: 1.0;"/><text fill="#000000" font-family="sans-serif" font-size="11" lengthAdjust="spacingAndGlyphs" textLength="112" x="27" y="159.458">getLastLaunch(): long[]</text><ellipse cx="18" cy="168.875" fill="#84BE84" rx="3" ry="3" style="stroke: #038048; stroke-width: 1.0;"/><text fill="#000000" font-family="sans-serif" font-size="11" lengthAdjust="spacingAndGlyphs" textLength="147" x="27" y="173.2939">getSelectorPressed(): boolean</text><ellipse cx="18" cy="182.7109" fill="#84BE84" rx="3" ry="3" style="stroke: #038048; stroke-width: 1.0;"/><text fill="#000000" font-family="sans-serif" font-size="11" lengthAdjust="spacingAndGlyphs" textLength="103" x="27" y="187.1299">getSpellSelector(): int</text><ellipse cx="18" cy="196.5469" fill="#84BE84" rx="3" ry="3" style="stroke: #038048; stroke-width: 1.0;"/><text fill="#000000" font-family="sans-serif" font-size="11" lengthAdjust="spacingAndGlyphs" textLength="71" x="27" y="200.9658">getTime(): long</text></a><text fill="#888888" font-family="sans-serif" font-size="10" lengthAdjust="spacingAndGlyphs" textLength="190" x="29" y="224.7637">UMLDoclet 2.0.12, PlantUML 1.2020.16</text><!--MD5=[3d98800554d05e46106298f1d6f3aafd]
@startuml
    set namespaceSeparator none
    hide empty fields
    hide empty methods

    class "<size:14>SpellFactory\n<size:10>com.prog.entity" as com.prog.entity.SpellFactory [[..\..\..\..\com\prog\entity\SpellFactory.html]] {
        +addToSpellSelector(int): void
        +computeDistanceVector(Vector2): Vector2
        +update(float): void
        +setSelectorPressed(boolean): void
        +draw(): void
        +clearActiveSpells(): void
        {static} +getInstance(): SpellFactory
        +getLastLaunch(): long[]
        +getSelectorPressed(): boolean
        +getSpellSelector(): int
        +getTime(): long
    }

    center footer UMLDoclet 2.0.12, PlantUML 1.2020.16
@enduml

PlantUML version 1.2020.16(Sun Aug 23 22:20:43 CEST 2020)
(APACHE source distribution)
Java Runtime: Java(TM) SE Runtime Environment
JVM: Java HotSpot(TM) 64-Bit Server VM
Default Encoding: Cp1252
Language: it
Country: IT
--></g></svg>