<?xml version="1.0" encoding="UTF-8" standalone="no"?><svg xmlns="http://www.w3.org/2000/svg" xmlns:xlink="http://www.w3.org/1999/xlink" contentScriptType="application/ecmascript" contentStyleType="text/css" height="296px" preserveAspectRatio="none" style="width:202px;height:296px;" version="1.1" viewBox="0 0 202 296" width="202px" zoomAndPan="magnify"><defs><filter height="300%" id="f9ya6leglsqe1" width="300%" x="-1" y="-1"><feGaussianBlur result="blurOut" stdDeviation="2.0"/><feColorMatrix in="blurOut" result="blurOut2" type="matrix" values="0 0 0 0 0 0 0 0 0 0 0 0 0 0 0 0 0 0 .4 0"/><feOffset dx="4.0" dy="4.0" in="blurOut2" result="blurOut3"/><feBlend in="SourceGraphic" in2="blurOut3" mode="normal"/></filter></defs><g><!--MD5=[0689b722162ea25d2ce18c1c619d4c4a]
class com.prog.evilian.Evilian--><a href="..\..\..\..\com\prog\evilian\Evilian.html" target="_top" title="..\..\..\..\com\prog\evilian\Evilian.html" xlink:actuate="onRequest" xlink:href="..\..\..\..\com\prog\evilian\Evilian.html" xlink:show="new" xlink:title="..\..\..\..\com\prog\evilian\Evilian.html" xlink:type="simple"><rect codeLine="5" fill="#FEFECE" filter="url(#f9ya6leglsqe1)" height="153.0391" id="com.prog.evilian.Evilian" style="stroke: #A80036; stroke-width: 1.5;" width="131" x="32.5" y="107"/><ellipse cx="56.05" cy="127.0938" fill="#ADD1B2" rx="11" ry="11" style="stroke: #A80036; stroke-width: 1.0;"/><path d="M58.8156,122.9688 Q58.9719,122.75 59.1594,122.6406 Q59.3469,122.5313 59.5656,122.5313 Q59.9406,122.5313 60.175,122.7969 Q60.4094,123.0469 60.4094,123.6563 L60.4094,125.1094 Q60.4094,125.7188 60.175,125.9844 Q59.9406,126.25 59.5656,126.25 Q59.2219,126.25 59.0188,126.0469 Q58.8156,125.8594 58.7063,125.3438 Q58.6594,124.9844 58.4719,124.7969 Q58.1438,124.4219 57.5344,124.2031 Q56.925,123.9844 56.3,123.9844 Q55.5344,123.9844 54.8938,124.3125 Q54.2688,124.6406 53.7688,125.3906 Q53.2844,126.1406 53.2844,127.1719 L53.2844,128.2656 Q53.2844,129.5 54.175,130.3281 Q55.0656,131.1406 56.6594,131.1406 Q57.5969,131.1406 58.2531,130.8906 Q58.6438,130.7344 59.0656,130.2969 Q59.3313,130.0313 59.4719,129.9531 Q59.6281,129.875 59.8313,129.875 Q60.1594,129.875 60.4094,130.1406 Q60.675,130.3906 60.675,130.7344 Q60.675,131.0781 60.3313,131.4844 Q59.8313,132.0625 59.0344,132.3906 Q57.9563,132.8438 56.6594,132.8438 Q55.1438,132.8438 53.9406,132.2188 Q52.9563,131.7188 52.2688,130.6563 Q51.5813,129.5781 51.5813,128.2969 L51.5813,127.1406 Q51.5813,125.8125 52.1906,124.6719 Q52.8156,123.5156 53.9094,122.9063 Q55.0031,122.2813 56.2375,122.2813 Q56.9719,122.2813 57.6125,122.4531 Q58.2688,122.6094 58.8156,122.9688 Z "/><text fill="#000000" font-family="sans-serif" font-size="14" lengthAdjust="spacingAndGlyphs" textLength="41" x="91.45" y="126.5332">Evilian</text><text fill="#000000" font-family="sans-serif" font-size="10" lengthAdjust="spacingAndGlyphs" textLength="80" x="71.95" y="139.9902">com.prog.evilian</text><line style="stroke: #A80036; stroke-width: 1.5;" x1="33.5" x2="162.5" y1="147.1875" y2="147.1875"/><ellipse cx="43.5" cy="158.1875" fill="none" rx="3" ry="3" style="stroke: #038048; stroke-width: 1.0;"/><text fill="#000000" font-family="sans-serif" font-size="11" lengthAdjust="spacingAndGlyphs" text-decoration="underline" textLength="89" x="52.5" y="162.6064">batch: SpriteBatch</text><ellipse cx="43.5" cy="172.0234" fill="none" rx="3" ry="3" style="stroke: #038048; stroke-width: 1.0;"/><text fill="#000000" font-family="sans-serif" font-size="11" lengthAdjust="spacingAndGlyphs" text-decoration="underline" textLength="47" x="52.5" y="176.4424">PPM: float</text><line style="stroke: #A80036; stroke-width: 1.5;" x1="33.5" x2="162.5" y1="182.8594" y2="182.8594"/><ellipse cx="43.5" cy="193.8594" fill="#84BE84" rx="3" ry="3" style="stroke: #038048; stroke-width: 1.0;"/><text fill="#000000" font-family="sans-serif" font-size="11" lengthAdjust="spacingAndGlyphs" textLength="65" x="52.5" y="198.2783">create(): void</text><ellipse cx="43.5" cy="207.6953" fill="#84BE84" rx="3" ry="3" style="stroke: #038048; stroke-width: 1.0;"/><text fill="#000000" font-family="sans-serif" font-size="11" lengthAdjust="spacingAndGlyphs" textLength="66" x="52.5" y="212.1143">render(): void</text><ellipse cx="43.5" cy="221.5313" fill="#84BE84" rx="3" ry="3" style="stroke: #038048; stroke-width: 1.0;"/><text fill="#000000" font-family="sans-serif" font-size="11" lengthAdjust="spacingAndGlyphs" textLength="72" x="52.5" y="225.9502">dispose(): void</text><ellipse cx="43.5" cy="235.3672" fill="#84BE84" rx="3" ry="3" style="stroke: #038048; stroke-width: 1.0;"/><text fill="#000000" font-family="sans-serif" font-size="11" lengthAdjust="spacingAndGlyphs" textLength="102" x="52.5" y="239.7861">getScreenWidth(): int</text><ellipse cx="43.5" cy="249.2031" fill="#84BE84" rx="3" ry="3" style="stroke: #038048; stroke-width: 1.0;"/><text fill="#000000" font-family="sans-serif" font-size="11" lengthAdjust="spacingAndGlyphs" textLength="105" x="52.5" y="253.6221">getScreenHeight(): int</text></a><!--MD5=[c95a7271274d3a6c4700df2c4cee6386]
class com.badlogic.gdx.Game--><rect codeLine="15" fill="#FEFECE" filter="url(#f9ya6leglsqe1)" height="40.1875" id="com.badlogic.gdx.Game" style="stroke: #A80036; stroke-width: 1.5;" width="114" x="41" y="7"/><ellipse cx="56" cy="27.0938" fill="#A9DCDF" rx="11" ry="11" style="stroke: #A80036; stroke-width: 1.0;"/><path d="M58.1875,28.8594 L54.0469,28.8594 L53.625,29.8906 L54.0469,29.8906 Q54.6563,29.8906 54.9219,30.125 Q55.1875,30.3594 55.1875,30.75 Q55.1875,31.125 54.9219,31.3594 Q54.6563,31.5938 54.0469,31.5938 L51.75,31.5938 Q51.1406,31.5938 50.8906,31.3594 Q50.625,31.125 50.625,30.7344 Q50.625,30.3594 50.9063,30.125 Q51.1719,29.875 51.7969,29.8906 L54.4688,23.2344 L53.3594,23.2344 Q52.75,23.2344 52.4844,23 Q52.2188,22.7656 52.2188,22.375 Q52.2188,22 52.4844,21.7656 Q52.75,21.5313 53.3594,21.5313 L57.0313,21.5313 L60.4219,29.8906 Q61.0156,29.8906 61.2031,30.0313 Q61.5938,30.2969 61.5938,30.75 Q61.5938,31.125 61.3281,31.3594 Q61.0781,31.5938 60.4688,31.5938 L58.1719,31.5938 Q57.5625,31.5938 57.2969,31.3594 Q57.0313,31.125 57.0313,30.7344 Q57.0313,30.3594 57.2969,30.125 Q57.5625,29.8906 58.1719,29.8906 L58.5938,29.8906 L58.1875,28.8594 Z M57.4688,27.1563 L56.1094,23.7813 L54.7344,27.1563 L57.4688,27.1563 Z "/><text fill="#000000" font-family="sans-serif" font-size="14" font-style="italic" lengthAdjust="spacingAndGlyphs" textLength="38" x="92" y="26.5332">Game</text><text fill="#000000" font-family="sans-serif" font-size="10" font-style="italic" lengthAdjust="spacingAndGlyphs" textLength="82" x="70" y="39.9902">com.badlogic.gdx</text><!--MD5=[966988fbedd8c51f70d1b86e5b6d6101]
reverse link com.badlogic.gdx.Game to com.prog.evilian.Evilian--><path codeLine="17" d="M98,67.42 C98,79.49 98,93.2 98,106.84 " fill="none" id="com.badlogic.gdx.Game-backto-com.prog.evilian.Evilian" style="stroke: #A80036; stroke-width: 1.0;"/><polygon fill="none" points="91,67.26,98,47.26,105,67.26,91,67.26" style="stroke: #A80036; stroke-width: 1.0;"/><text fill="#888888" font-family="sans-serif" font-size="10" lengthAdjust="spacingAndGlyphs" textLength="190" x="0" y="283.4199">UMLDoclet 2.0.12, PlantUML 1.2020.16</text><!--MD5=[9b3ef65a7057ef3dc9e9886b0d773ce9]
@startuml
    set namespaceSeparator none
    hide empty fields
    hide empty methods

    class "<size:14>Evilian\n<size:10>com.prog.evilian" as com.prog.evilian.Evilian [[..\..\..\..\com\prog\evilian\Evilian.html]] {
        {static} +batch: SpriteBatch
        {static} +PPM: float
        +create(): void
        +render(): void
        +dispose(): void
        +getScreenWidth(): int
        +getScreenHeight(): int
    }

    abstract class "<size:14>Game\n<size:10>com.badlogic.gdx" as com.badlogic.gdx.Game

    com.badlogic.gdx.Game <|- - com.prog.evilian.Evilian

    center footer UMLDoclet 2.0.12, PlantUML 1.2020.16
@enduml

PlantUML version 1.2020.16(Sun Aug 23 22:20:43 CEST 2020)
(APACHE source distribution)
Java Runtime: Java(TM) SE Runtime Environment
JVM: Java HotSpot(TM) 64-Bit Server VM
Default Encoding: Cp1252
Language: it
Country: IT
--></g></svg>