<?xml version="1.0" encoding="UTF-8" standalone="no"?><svg xmlns="http://www.w3.org/2000/svg" xmlns:xlink="http://www.w3.org/1999/xlink" contentScriptType="application/ecmascript" contentStyleType="text/css" height="370px" preserveAspectRatio="none" style="width:205px;height:370px;" version="1.1" viewBox="0 0 205 370" width="205px" zoomAndPan="magnify"><defs><filter height="300%" id="fr8zumoca54f4" width="300%" x="-1" y="-1"><feGaussianBlur result="blurOut" stdDeviation="2.0"/><feColorMatrix in="blurOut" result="blurOut2" type="matrix" values="0 0 0 0 0 0 0 0 0 0 0 0 0 0 0 0 0 0 .4 0"/><feOffset dx="4.0" dy="4.0" in="blurOut2" result="blurOut3"/><feBlend in="SourceGraphic" in2="blurOut3" mode="normal"/></filter></defs><g><!--MD5=[08004b439690bf640572f7f60e40efe3]
cluster com.prog.evilian--><polygon fill="#FFFFFF" filter="url(#fr8zumoca54f4)" points="19,144,142,144,149,167.6094,183,167.6094,183,341,19,341,19,144" style="stroke: #000000; stroke-width: 1.5;"/><line style="stroke: #000000; stroke-width: 1.5;" x1="19" x2="149" y1="167.6094" y2="167.6094"/><text fill="#000000" font-family="sans-serif" font-size="14" font-weight="bold" lengthAdjust="spacingAndGlyphs" textLength="117" x="23" y="160.5332">com.prog.evilian</text><!--MD5=[f8b53aa7b2a766c69db211df11581f60]
cluster com.badlogic.gdx--><polygon fill="#FFFFFF" filter="url(#fr8zumoca54f4)" points="32,6,161,6,168,29.6094,171,29.6094,171,120,32,120,32,6" style="stroke: #000000; stroke-width: 1.5;"/><line style="stroke: #000000; stroke-width: 1.5;" x1="32" x2="168" y1="29.6094" y2="29.6094"/><text fill="#000000" font-family="sans-serif" font-size="14" font-weight="bold" lengthAdjust="spacingAndGlyphs" textLength="123" x="36" y="22.5332">com.badlogic.gdx</text><!--MD5=[0689b722162ea25d2ce18c1c619d4c4a]
class com.prog.evilian.Evilian--><a href="file:/C:/Users/Utente/Desktop/Evilian/core/build/docs/javadoc/com/prog/evilian/Evilian.html" target="_top" title="file:/C:/Users/Utente/Desktop/Evilian/core/build/docs/javadoc/com/prog/evilian/Evilian.html" xlink:actuate="onRequest" xlink:href="file:/C:/Users/Utente/Desktop/Evilian/core/build/docs/javadoc/com/prog/evilian/Evilian.html" xlink:show="new" xlink:title="file:/C:/Users/Utente/Desktop/Evilian/core/build/docs/javadoc/com/prog/evilian/Evilian.html" xlink:type="simple"><rect codeLine="3" fill="#FEFECE" filter="url(#fr8zumoca54f4)" height="144.8516" id="com.prog.evilian.Evilian" style="stroke: #A80036; stroke-width: 1.5;" width="131" x="35.5" y="180"/><ellipse cx="78.85" cy="196" fill="#ADD1B2" rx="11" ry="11" style="stroke: #A80036; stroke-width: 1.0;"/><path d="M81.6156,191.875 Q81.7719,191.6563 81.9594,191.5469 Q82.1469,191.4375 82.3656,191.4375 Q82.7406,191.4375 82.975,191.7031 Q83.2094,191.9531 83.2094,192.5625 L83.2094,194.0156 Q83.2094,194.625 82.975,194.8906 Q82.7406,195.1563 82.3656,195.1563 Q82.0219,195.1563 81.8188,194.9531 Q81.6156,194.7656 81.5063,194.25 Q81.4594,193.8906 81.2719,193.7031 Q80.9438,193.3281 80.3344,193.1094 Q79.725,192.8906 79.1,192.8906 Q78.3344,192.8906 77.6938,193.2188 Q77.0688,193.5469 76.5688,194.2969 Q76.0844,195.0469 76.0844,196.0781 L76.0844,197.1719 Q76.0844,198.4063 76.975,199.2344 Q77.8656,200.0469 79.4594,200.0469 Q80.3969,200.0469 81.0531,199.7969 Q81.4438,199.6406 81.8656,199.2031 Q82.1313,198.9375 82.2719,198.8594 Q82.4281,198.7813 82.6313,198.7813 Q82.9594,198.7813 83.2094,199.0469 Q83.475,199.2969 83.475,199.6406 Q83.475,199.9844 83.1313,200.3906 Q82.6313,200.9688 81.8344,201.2969 Q80.7563,201.75 79.4594,201.75 Q77.9438,201.75 76.7406,201.125 Q75.7563,200.625 75.0688,199.5625 Q74.3813,198.4844 74.3813,197.2031 L74.3813,196.0469 Q74.3813,194.7188 74.9906,193.5781 Q75.6156,192.4219 76.7094,191.8125 Q77.8031,191.1875 79.0375,191.1875 Q79.7719,191.1875 80.4125,191.3594 Q81.0688,191.5156 81.6156,191.875 Z "/><text fill="#000000" font-family="sans-serif" font-size="12" lengthAdjust="spacingAndGlyphs" textLength="36" x="99.15" y="200.9102">Evilian</text><line style="stroke: #A80036; stroke-width: 1.5;" x1="36.5" x2="165.5" y1="212" y2="212"/><ellipse cx="46.5" cy="223" fill="none" rx="3" ry="3" style="stroke: #038048; stroke-width: 1.0;"/><text fill="#000000" font-family="sans-serif" font-size="11" lengthAdjust="spacingAndGlyphs" text-decoration="underline" textLength="89" x="55.5" y="227.4189">batch: SpriteBatch</text><ellipse cx="46.5" cy="236.8359" fill="none" rx="3" ry="3" style="stroke: #038048; stroke-width: 1.0;"/><text fill="#000000" font-family="sans-serif" font-size="11" lengthAdjust="spacingAndGlyphs" text-decoration="underline" textLength="47" x="55.5" y="241.2549">PPM: float</text><line style="stroke: #A80036; stroke-width: 1.5;" x1="36.5" x2="165.5" y1="247.6719" y2="247.6719"/><ellipse cx="46.5" cy="258.6719" fill="#84BE84" rx="3" ry="3" style="stroke: #038048; stroke-width: 1.0;"/><text fill="#000000" font-family="sans-serif" font-size="11" lengthAdjust="spacingAndGlyphs" textLength="65" x="55.5" y="263.0908">create(): void</text><ellipse cx="46.5" cy="272.5078" fill="#84BE84" rx="3" ry="3" style="stroke: #038048; stroke-width: 1.0;"/><text fill="#000000" font-family="sans-serif" font-size="11" lengthAdjust="spacingAndGlyphs" textLength="66" x="55.5" y="276.9268">render(): void</text><ellipse cx="46.5" cy="286.3438" fill="#84BE84" rx="3" ry="3" style="stroke: #038048; stroke-width: 1.0;"/><text fill="#000000" font-family="sans-serif" font-size="11" lengthAdjust="spacingAndGlyphs" textLength="72" x="55.5" y="290.7627">dispose(): void</text><ellipse cx="46.5" cy="300.1797" fill="#84BE84" rx="3" ry="3" style="stroke: #038048; stroke-width: 1.0;"/><text fill="#000000" font-family="sans-serif" font-size="11" lengthAdjust="spacingAndGlyphs" textLength="102" x="55.5" y="304.5986">getScreenWidth(): int</text><ellipse cx="46.5" cy="314.0156" fill="#84BE84" rx="3" ry="3" style="stroke: #038048; stroke-width: 1.0;"/><text fill="#000000" font-family="sans-serif" font-size="11" lengthAdjust="spacingAndGlyphs" textLength="105" x="55.5" y="318.4346">getScreenHeight(): int</text></a><!--MD5=[c95a7271274d3a6c4700df2c4cee6386]
class com.badlogic.gdx.Game--><rect codeLine="17" fill="#FEFECE" filter="url(#fr8zumoca54f4)" height="61.8359" id="com.badlogic.gdx.Game" style="stroke: #A80036; stroke-width: 1.5;" width="101" x="50.5" y="42"/><ellipse cx="81.25" cy="58" fill="#A9DCDF" rx="11" ry="11" style="stroke: #A80036; stroke-width: 1.0;"/><path d="M83.4375,59.7656 L79.2969,59.7656 L78.875,60.7969 L79.2969,60.7969 Q79.9063,60.7969 80.1719,61.0313 Q80.4375,61.2656 80.4375,61.6563 Q80.4375,62.0313 80.1719,62.2656 Q79.9063,62.5 79.2969,62.5 L77,62.5 Q76.3906,62.5 76.1406,62.2656 Q75.875,62.0313 75.875,61.6406 Q75.875,61.2656 76.1563,61.0313 Q76.4219,60.7813 77.0469,60.7969 L79.7188,54.1406 L78.6094,54.1406 Q78,54.1406 77.7344,53.9063 Q77.4688,53.6719 77.4688,53.2813 Q77.4688,52.9063 77.7344,52.6719 Q78,52.4375 78.6094,52.4375 L82.2813,52.4375 L85.6719,60.7969 Q86.2656,60.7969 86.4531,60.9375 Q86.8438,61.2031 86.8438,61.6563 Q86.8438,62.0313 86.5781,62.2656 Q86.3281,62.5 85.7188,62.5 L83.4219,62.5 Q82.8125,62.5 82.5469,62.2656 Q82.2813,62.0313 82.2813,61.6406 Q82.2813,61.2656 82.5469,61.0313 Q82.8125,60.7969 83.4219,60.7969 L83.8438,60.7969 L83.4375,59.7656 Z M82.7188,58.0625 L81.3594,54.6875 L79.9844,58.0625 L82.7188,58.0625 Z "/><text fill="#000000" font-family="sans-serif" font-size="12" font-style="italic" lengthAdjust="spacingAndGlyphs" textLength="34" x="98.75" y="62.9102">Game</text><line style="stroke: #A80036; stroke-width: 1.5;" x1="51.5" x2="150.5" y1="74" y2="74"/><polygon fill="none" points="61.5,80,65.5,84,61.5,88,57.5,84" style="stroke: #B38D22; stroke-width: 1.0;"/><text fill="#000000" font-family="sans-serif" font-size="11" lengthAdjust="spacingAndGlyphs" textLength="75" x="70.5" y="89.4189">screen: Screen</text><line style="stroke: #A80036; stroke-width: 1.5;" x1="51.5" x2="150.5" y1="95.8359" y2="95.8359"/><!--MD5=[966988fbedd8c51f70d1b86e5b6d6101]
reverse link com.badlogic.gdx.Game to com.prog.evilian.Evilian--><path codeLine="13" d="M101,124.12 C101,141.42 101,161.15 101,179.84 " fill="none" id="com.badlogic.gdx.Game-backto-com.prog.evilian.Evilian" style="stroke: #A80036; stroke-width: 1.0;"/><polygon fill="none" points="94,124.11,101,104.11,108,124.11,94,124.11" style="stroke: #A80036; stroke-width: 1.0;"/><text fill="#888888" font-family="sans-serif" font-size="10" lengthAdjust="spacingAndGlyphs" textLength="190" x="0" y="357.3809">UMLDoclet 2.0.12, PlantUML 1.2020.16</text><!--MD5=[1fd83f9ecafd93b39a71380c43bd2150]
@startuml
    namespace com.prog.evilian {

        class Evilian [[file:/C:/Users/Utente/Desktop/Evilian/core/build/docs/javadoc/com/prog/evilian/Evilian.html]] {
            {static} +batch: SpriteBatch
            {static} +PPM: float
            +create(): void
            +render(): void
            +dispose(): void
            +getScreenWidth(): int
            +getScreenHeight(): int
        }

        com.badlogic.gdx.Game <|- - Evilian
    }

    namespace com.badlogic.gdx {
        abstract class Game {
            #screen: Screen
        }
    }

    center footer UMLDoclet 2.0.12, PlantUML 1.2020.16
@enduml

PlantUML version 1.2020.16(Sun Aug 23 22:20:43 CEST 2020)
(APACHE source distribution)
Java Runtime: Java(TM) SE Runtime Environment
JVM: Java HotSpot(TM) 64-Bit Server VM
Default Encoding: Cp1252
Language: it
Country: IT
--></g></svg>