<?xml version="1.0" encoding="UTF-8" standalone="no"?><svg xmlns="http://www.w3.org/2000/svg" xmlns:xlink="http://www.w3.org/1999/xlink" contentScriptType="application/ecmascript" contentStyleType="text/css" height="421px" preserveAspectRatio="none" style="width:383px;height:421px;" version="1.1" viewBox="0 0 383 421" width="383px" zoomAndPan="magnify"><defs><filter height="300%" id="fi2s39b628x1x" width="300%" x="-1" y="-1"><feGaussianBlur result="blurOut" stdDeviation="2.0"/><feColorMatrix in="blurOut" result="blurOut2" type="matrix" values="0 0 0 0 0 0 0 0 0 0 0 0 0 0 0 0 0 0 .4 0"/><feOffset dx="4.0" dy="4.0" in="blurOut2" result="blurOut3"/><feBlend in="SourceGraphic" in2="blurOut3" mode="normal"/></filter></defs><g><!--MD5=[22505c0a97783975138d6a99350e31bd]
class com.prog.world.Livello1--><a href="..\..\..\..\com\prog\world\Livello1.html" target="_top" title="..\..\..\..\com\prog\world\Livello1.html" xlink:actuate="onRequest" xlink:href="..\..\..\..\com\prog\world\Livello1.html" xlink:show="new" xlink:title="..\..\..\..\com\prog\world\Livello1.html" xlink:type="simple"><rect codeLine="5" fill="#FEFECE" filter="url(#fi2s39b628x1x)" height="172.7109" id="com.prog.world.Livello1" style="stroke: #A80036; stroke-width: 1.5;" width="357" x="7" y="212"/><ellipse cx="144.75" cy="232.0938" fill="#ADD1B2" rx="11" ry="11" style="stroke: #A80036; stroke-width: 1.0;"/><path d="M147.5156,227.9688 Q147.6719,227.75 147.8594,227.6406 Q148.0469,227.5313 148.2656,227.5313 Q148.6406,227.5313 148.875,227.7969 Q149.1094,228.0469 149.1094,228.6563 L149.1094,230.1094 Q149.1094,230.7188 148.875,230.9844 Q148.6406,231.25 148.2656,231.25 Q147.9219,231.25 147.7188,231.0469 Q147.5156,230.8594 147.4063,230.3438 Q147.3594,229.9844 147.1719,229.7969 Q146.8438,229.4219 146.2344,229.2031 Q145.625,228.9844 145,228.9844 Q144.2344,228.9844 143.5938,229.3125 Q142.9688,229.6406 142.4688,230.3906 Q141.9844,231.1406 141.9844,232.1719 L141.9844,233.2656 Q141.9844,234.5 142.875,235.3281 Q143.7656,236.1406 145.3594,236.1406 Q146.2969,236.1406 146.9531,235.8906 Q147.3438,235.7344 147.7656,235.2969 Q148.0313,235.0313 148.1719,234.9531 Q148.3281,234.875 148.5313,234.875 Q148.8594,234.875 149.1094,235.1406 Q149.375,235.3906 149.375,235.7344 Q149.375,236.0781 149.0313,236.4844 Q148.5313,237.0625 147.7344,237.3906 Q146.6563,237.8438 145.3594,237.8438 Q143.8438,237.8438 142.6406,237.2188 Q141.6563,236.7188 140.9688,235.6563 Q140.2813,234.5781 140.2813,233.2969 L140.2813,232.1406 Q140.2813,230.8125 140.8906,229.6719 Q141.5156,228.5156 142.6094,227.9063 Q143.7031,227.2813 144.9375,227.2813 Q145.6719,227.2813 146.3125,227.4531 Q146.9688,227.6094 147.5156,227.9688 Z "/><text fill="#000000" font-family="sans-serif" font-size="14" lengthAdjust="spacingAndGlyphs" textLength="48" x="177.75" y="231.5332">Livello1</text><text fill="#000000" font-family="sans-serif" font-size="10" lengthAdjust="spacingAndGlyphs" textLength="73" x="165.25" y="244.9902">com.prog.world</text><line style="stroke: #A80036; stroke-width: 1.5;" x1="8" x2="363" y1="252.1875" y2="252.1875"/><ellipse cx="18" cy="263.1875" fill="#84BE84" rx="3" ry="3" style="stroke: #038048; stroke-width: 1.0;"/><text fill="#000000" font-family="sans-serif" font-size="11" lengthAdjust="spacingAndGlyphs" textLength="331" x="27" y="267.6064">Livello1(float, boolean, String, float, float, float, float, Evilian, boolean)</text><ellipse cx="18" cy="277.0234" fill="#84BE84" rx="3" ry="3" style="stroke: #038048; stroke-width: 1.0;"/><text fill="#000000" font-family="sans-serif" font-size="11" lengthAdjust="spacingAndGlyphs" textLength="62" x="27" y="281.4424">show(): void</text><ellipse cx="18" cy="290.8594" fill="#84BE84" rx="3" ry="3" style="stroke: #038048; stroke-width: 1.0;"/><text fill="#000000" font-family="sans-serif" font-size="11" lengthAdjust="spacingAndGlyphs" textLength="87" x="27" y="295.2783">render(float): void</text><ellipse cx="18" cy="304.6953" fill="#84BE84" rx="3" ry="3" style="stroke: #038048; stroke-width: 1.0;"/><text fill="#000000" font-family="sans-serif" font-size="11" lengthAdjust="spacingAndGlyphs" textLength="92" x="27" y="309.1143">resize(int, int): void</text><ellipse cx="18" cy="318.5313" fill="#84BE84" rx="3" ry="3" style="stroke: #038048; stroke-width: 1.0;"/><text fill="#000000" font-family="sans-serif" font-size="11" lengthAdjust="spacingAndGlyphs" textLength="64" x="27" y="322.9502">pause(): void</text><ellipse cx="18" cy="332.3672" fill="#84BE84" rx="3" ry="3" style="stroke: #038048; stroke-width: 1.0;"/><text fill="#000000" font-family="sans-serif" font-size="11" lengthAdjust="spacingAndGlyphs" textLength="70" x="27" y="336.7861">resume(): void</text><ellipse cx="18" cy="346.2031" fill="#84BE84" rx="3" ry="3" style="stroke: #038048; stroke-width: 1.0;"/><text fill="#000000" font-family="sans-serif" font-size="11" lengthAdjust="spacingAndGlyphs" textLength="54" x="27" y="350.6221">hide(): void</text><ellipse cx="18" cy="360.0391" fill="#84BE84" rx="3" ry="3" style="stroke: #038048; stroke-width: 1.0;"/><text fill="#000000" font-family="sans-serif" font-size="11" lengthAdjust="spacingAndGlyphs" textLength="72" x="27" y="364.458">dispose(): void</text><ellipse cx="18" cy="373.875" fill="#84BE84" rx="3" ry="3" style="stroke: #038048; stroke-width: 1.0;"/><text fill="#000000" font-family="sans-serif" font-size="11" lengthAdjust="spacingAndGlyphs" textLength="60" x="27" y="378.2939">draw(): void</text></a><!--MD5=[f65d97758bb9aa9596fa78ba4135dd13]
class com.prog.world.Livello--><a href="..\..\..\..\com\prog\world\Livello.html" target="_top" title="..\..\..\..\com\prog\world\Livello.html" xlink:actuate="onRequest" xlink:href="..\..\..\..\com\prog\world\Livello.html" xlink:show="new" xlink:title="..\..\..\..\com\prog\world\Livello.html" xlink:type="simple"><rect codeLine="17" fill="#FEFECE" filter="url(#fi2s39b628x1x)" height="40.1875" id="com.prog.world.Livello" style="stroke: #A80036; stroke-width: 1.5;" width="105" x="59" y="59.5"/><ellipse cx="74" cy="79.5938" fill="#ADD1B2" rx="11" ry="11" style="stroke: #A80036; stroke-width: 1.0;"/><path d="M76.7656,75.4688 Q76.9219,75.25 77.1094,75.1406 Q77.2969,75.0313 77.5156,75.0313 Q77.8906,75.0313 78.125,75.2969 Q78.3594,75.5469 78.3594,76.1563 L78.3594,77.6094 Q78.3594,78.2188 78.125,78.4844 Q77.8906,78.75 77.5156,78.75 Q77.1719,78.75 76.9688,78.5469 Q76.7656,78.3594 76.6563,77.8438 Q76.6094,77.4844 76.4219,77.2969 Q76.0938,76.9219 75.4844,76.7031 Q74.875,76.4844 74.25,76.4844 Q73.4844,76.4844 72.8438,76.8125 Q72.2188,77.1406 71.7188,77.8906 Q71.2344,78.6406 71.2344,79.6719 L71.2344,80.7656 Q71.2344,82 72.125,82.8281 Q73.0156,83.6406 74.6094,83.6406 Q75.5469,83.6406 76.2031,83.3906 Q76.5938,83.2344 77.0156,82.7969 Q77.2813,82.5313 77.4219,82.4531 Q77.5781,82.375 77.7813,82.375 Q78.1094,82.375 78.3594,82.6406 Q78.625,82.8906 78.625,83.2344 Q78.625,83.5781 78.2813,83.9844 Q77.7813,84.5625 76.9844,84.8906 Q75.9063,85.3438 74.6094,85.3438 Q73.0938,85.3438 71.8906,84.7188 Q70.9063,84.2188 70.2188,83.1563 Q69.5313,82.0781 69.5313,80.7969 L69.5313,79.6406 Q69.5313,78.3125 70.1406,77.1719 Q70.7656,76.0156 71.8594,75.4063 Q72.9531,74.7813 74.1875,74.7813 Q74.9219,74.7813 75.5625,74.9531 Q76.2188,75.1094 76.7656,75.4688 Z "/><text fill="#000000" font-family="sans-serif" font-size="14" lengthAdjust="spacingAndGlyphs" textLength="40" x="104.5" y="79.0332">Livello</text><text fill="#000000" font-family="sans-serif" font-size="10" lengthAdjust="spacingAndGlyphs" textLength="73" x="88" y="92.4902">com.prog.world</text></a><!--MD5=[447f55fdc71fc94ba0b5f60ff0d02faa]
class com.badlogic.gdx.Screen--><rect codeLine="18" fill="#FEFECE" filter="url(#fi2s39b628x1x)" height="145.0391" id="com.badlogic.gdx.Screen" style="stroke: #A80036; stroke-width: 1.5;" width="121" x="199" y="7"/><ellipse cx="217.15" cy="27.0938" fill="#B4A7E5" rx="11" ry="11" style="stroke: #A80036; stroke-width: 1.0;"/><path d="M218.1031,23.7344 L218.1031,30.3906 L219.8219,30.3906 Q220.4313,30.3906 220.6969,30.625 Q220.9625,30.8594 220.9625,31.25 Q220.9625,31.625 220.6969,31.8594 Q220.4313,32.0938 219.8219,32.0938 L214.6813,32.0938 Q214.0719,32.0938 213.8063,31.8594 Q213.5406,31.625 213.5406,31.2344 Q213.5406,30.8594 213.8063,30.625 Q214.0719,30.3906 214.6813,30.3906 L216.4,30.3906 L216.4,23.7344 L214.6813,23.7344 Q214.0719,23.7344 213.8063,23.5 Q213.5406,23.2656 213.5406,22.875 Q213.5406,22.5 213.8063,22.2656 Q214.0719,22.0313 214.6813,22.0313 L219.8219,22.0313 Q220.4313,22.0313 220.6969,22.2656 Q220.9625,22.5 220.9625,22.875 Q220.9625,23.2656 220.6969,23.5 Q220.4313,23.7344 219.8219,23.7344 L218.1031,23.7344 Z "/><text fill="#000000" font-family="sans-serif" font-size="14" font-style="italic" lengthAdjust="spacingAndGlyphs" textLength="45" x="250.35" y="26.5332">Screen</text><text fill="#000000" font-family="sans-serif" font-size="10" font-style="italic" lengthAdjust="spacingAndGlyphs" textLength="82" x="231.85" y="39.9902">com.badlogic.gdx</text><line style="stroke: #A80036; stroke-width: 1.5;" x1="200" x2="319" y1="47.1875" y2="47.1875"/><ellipse cx="210" cy="58.1875" fill="#84BE84" rx="3" ry="3" style="stroke: #038048; stroke-width: 1.0;"/><text fill="#000000" font-family="sans-serif" font-size="11" font-style="italic" lengthAdjust="spacingAndGlyphs" textLength="59" x="219" y="62.6064">show(): void</text><ellipse cx="210" cy="72.0234" fill="#84BE84" rx="3" ry="3" style="stroke: #038048; stroke-width: 1.0;"/><text fill="#000000" font-family="sans-serif" font-size="11" font-style="italic" lengthAdjust="spacingAndGlyphs" textLength="87" x="219" y="76.4424">render(float): void</text><ellipse cx="210" cy="85.8594" fill="#84BE84" rx="3" ry="3" style="stroke: #038048; stroke-width: 1.0;"/><text fill="#000000" font-family="sans-serif" font-size="11" font-style="italic" lengthAdjust="spacingAndGlyphs" textLength="95" x="219" y="90.2783">resize(int, int): void</text><ellipse cx="210" cy="99.6953" fill="#84BE84" rx="3" ry="3" style="stroke: #038048; stroke-width: 1.0;"/><text fill="#000000" font-family="sans-serif" font-size="11" font-style="italic" lengthAdjust="spacingAndGlyphs" textLength="64" x="219" y="104.1143">pause(): void</text><ellipse cx="210" cy="113.5313" fill="#84BE84" rx="3" ry="3" style="stroke: #038048; stroke-width: 1.0;"/><text fill="#000000" font-family="sans-serif" font-size="11" font-style="italic" lengthAdjust="spacingAndGlyphs" textLength="71" x="219" y="117.9502">resume(): void</text><ellipse cx="210" cy="127.3672" fill="#84BE84" rx="3" ry="3" style="stroke: #038048; stroke-width: 1.0;"/><text fill="#000000" font-family="sans-serif" font-size="11" font-style="italic" lengthAdjust="spacingAndGlyphs" textLength="55" x="219" y="131.7861">hide(): void</text><ellipse cx="210" cy="141.2031" fill="#84BE84" rx="3" ry="3" style="stroke: #038048; stroke-width: 1.0;"/><text fill="#000000" font-family="sans-serif" font-size="11" font-style="italic" lengthAdjust="spacingAndGlyphs" textLength="73" x="219" y="145.6221">dispose(): void</text><!--MD5=[d6ed56a063ae68b7a8f2668526785cd7]
reverse link com.prog.world.Livello to com.prog.world.Livello1--><path codeLine="28" d="M124.63,118.99 C133.42,144.79 145.36,179.8 156.34,211.98 " fill="none" id="com.prog.world.Livello-backto-com.prog.world.Livello1" style="stroke: #A80036; stroke-width: 1.0;"/><polygon fill="none" points="117.9,120.95,118.07,99.76,131.15,116.43,117.9,120.95" style="stroke: #A80036; stroke-width: 1.0;"/><!--MD5=[89d504ffeac0aa9a2cc9a6ce43a5dcf4]
reverse link com.badlogic.gdx.Screen to com.prog.world.Livello1--><path codeLine="29" d="M228.48,171.45 C223.91,184.87 219.21,198.66 214.67,211.96 " fill="none" id="com.badlogic.gdx.Screen-backto-com.prog.world.Livello1" style="stroke: #A80036; stroke-width: 1.0; stroke-dasharray: 7.0,7.0;"/><polygon fill="none" points="221.98,168.83,235.06,152.16,235.23,173.34,221.98,168.83" style="stroke: #A80036; stroke-width: 1.0;"/><text fill="#888888" font-family="sans-serif" font-size="10" lengthAdjust="spacingAndGlyphs" textLength="190" x="87.5" y="408.0918">UMLDoclet 2.0.12, PlantUML 1.2020.16</text><!--MD5=[509eddc0979263c517c228aaeb146def]
@startuml
    set namespaceSeparator none
    hide empty fields
    hide empty methods

    class "<size:14>Livello1\n<size:10>com.prog.world" as com.prog.world.Livello1 [[..\..\..\..\com\prog\world\Livello1.html]] {
        +Livello1(float, boolean, String, float, float, float, float, Evilian, boolean)
        +show(): void
        +render(float): void
        +resize(int, int): void
        +pause(): void
        +resume(): void
        +hide(): void
        +dispose(): void
        +draw(): void
    }

    class "<size:14>Livello\n<size:10>com.prog.world" as com.prog.world.Livello [[..\..\..\..\com\prog\world\Livello.html]]
    interface "<size:14>Screen\n<size:10>com.badlogic.gdx" as com.badlogic.gdx.Screen {
        {abstract} +show(): void
        {abstract} +render(float): void
        {abstract} +resize(int, int): void
        {abstract} +pause(): void
        {abstract} +resume(): void
        {abstract} +hide(): void
        {abstract} +dispose(): void
    }

    com.prog.world.Livello <|- - com.prog.world.Livello1
    com.badlogic.gdx.Screen <|.. com.prog.world.Livello1

    center footer UMLDoclet 2.0.12, PlantUML 1.2020.16
@enduml

PlantUML version 1.2020.16(Sun Aug 23 22:20:43 CEST 2020)
(APACHE source distribution)
Java Runtime: Java(TM) SE Runtime Environment
JVM: Java HotSpot(TM) 64-Bit Server VM
Default Encoding: Cp1252
Language: it
Country: IT
--></g></svg>