<?xml version="1.0" encoding="UTF-8" standalone="no"?><svg xmlns="http://www.w3.org/2000/svg" xmlns:xlink="http://www.w3.org/1999/xlink" contentScriptType="application/ecmascript" contentStyleType="text/css" height="362px" preserveAspectRatio="none" style="width:333px;height:362px;" version="1.1" viewBox="0 0 333 362" width="333px" zoomAndPan="magnify"><defs><filter height="300%" id="f1wq8te2qgq6yg" width="300%" x="-1" y="-1"><feGaussianBlur result="blurOut" stdDeviation="2.0"/><feColorMatrix in="blurOut" result="blurOut2" type="matrix" values="0 0 0 0 0 0 0 0 0 0 0 0 0 0 0 0 0 0 .4 0"/><feOffset dx="4.0" dy="4.0" in="blurOut2" result="blurOut3"/><feBlend in="SourceGraphic" in2="blurOut3" mode="normal"/></filter></defs><g><!--MD5=[f65d97758bb9aa9596fa78ba4135dd13]
class com.prog.world.Livello--><a href="..\..\..\..\com\prog\world\Livello.html" target="_top" title="..\..\..\..\com\prog\world\Livello.html" xlink:actuate="onRequest" xlink:href="..\..\..\..\com\prog\world\Livello.html" xlink:show="new" xlink:title="..\..\..\..\com\prog\world\Livello.html" xlink:type="simple"><rect codeLine="5" fill="#FEFECE" filter="url(#f1wq8te2qgq6yg)" height="324.9063" id="com.prog.world.Livello" style="stroke: #A80036; stroke-width: 1.5;" width="307" x="7" y="7"/><ellipse cx="119.75" cy="27.0938" fill="#ADD1B2" rx="11" ry="11" style="stroke: #A80036; stroke-width: 1.0;"/><path d="M122.5156,22.9688 Q122.6719,22.75 122.8594,22.6406 Q123.0469,22.5313 123.2656,22.5313 Q123.6406,22.5313 123.875,22.7969 Q124.1094,23.0469 124.1094,23.6563 L124.1094,25.1094 Q124.1094,25.7188 123.875,25.9844 Q123.6406,26.25 123.2656,26.25 Q122.9219,26.25 122.7188,26.0469 Q122.5156,25.8594 122.4063,25.3438 Q122.3594,24.9844 122.1719,24.7969 Q121.8438,24.4219 121.2344,24.2031 Q120.625,23.9844 120,23.9844 Q119.2344,23.9844 118.5938,24.3125 Q117.9688,24.6406 117.4688,25.3906 Q116.9844,26.1406 116.9844,27.1719 L116.9844,28.2656 Q116.9844,29.5 117.875,30.3281 Q118.7656,31.1406 120.3594,31.1406 Q121.2969,31.1406 121.9531,30.8906 Q122.3438,30.7344 122.7656,30.2969 Q123.0313,30.0313 123.1719,29.9531 Q123.3281,29.875 123.5313,29.875 Q123.8594,29.875 124.1094,30.1406 Q124.375,30.3906 124.375,30.7344 Q124.375,31.0781 124.0313,31.4844 Q123.5313,32.0625 122.7344,32.3906 Q121.6563,32.8438 120.3594,32.8438 Q118.8438,32.8438 117.6406,32.2188 Q116.6563,31.7188 115.9688,30.6563 Q115.2813,29.5781 115.2813,28.2969 L115.2813,27.1406 Q115.2813,25.8125 115.8906,24.6719 Q116.5156,23.5156 117.6094,22.9063 Q118.7031,22.2813 119.9375,22.2813 Q120.6719,22.2813 121.3125,22.4531 Q121.9688,22.6094 122.5156,22.9688 Z "/><text fill="#000000" font-family="sans-serif" font-size="14" lengthAdjust="spacingAndGlyphs" textLength="40" x="156.75" y="26.5332">Livello</text><text fill="#000000" font-family="sans-serif" font-size="10" lengthAdjust="spacingAndGlyphs" textLength="73" x="140.25" y="39.9902">com.prog.world</text><line style="stroke: #A80036; stroke-width: 1.5;" x1="8" x2="313" y1="47.1875" y2="47.1875"/><ellipse cx="18" cy="58.1875" fill="#84BE84" rx="3" ry="3" style="stroke: #038048; stroke-width: 1.0;"/><text fill="#000000" font-family="sans-serif" font-size="11" lengthAdjust="spacingAndGlyphs" textLength="281" x="27" y="62.6064">Livello(float, boolean, String, float, float, float, float, Evilian)</text><ellipse cx="18" cy="72.0234" fill="#84BE84" rx="3" ry="3" style="stroke: #038048; stroke-width: 1.0;"/><text fill="#000000" font-family="sans-serif" font-size="11" lengthAdjust="spacingAndGlyphs" textLength="146" x="27" y="76.4424">Livello(boolean, int, int, Evilian)</text><ellipse cx="18" cy="85.8594" fill="#84BE84" rx="3" ry="3" style="stroke: #038048; stroke-width: 1.0;"/><text fill="#000000" font-family="sans-serif" font-size="11" lengthAdjust="spacingAndGlyphs" textLength="72" x="27" y="90.2783">dispose(): void</text><ellipse cx="18" cy="99.6953" fill="#84BE84" rx="3" ry="3" style="stroke: #038048; stroke-width: 1.0;"/><text fill="#000000" font-family="sans-serif" font-size="11" lengthAdjust="spacingAndGlyphs" textLength="164" x="27" y="104.1143">parseCollisions(MapObjects): void</text><ellipse cx="18" cy="113.5313" fill="#84BE84" rx="3" ry="3" style="stroke: #038048; stroke-width: 1.0;"/><text fill="#000000" font-family="sans-serif" font-size="11" lengthAdjust="spacingAndGlyphs" textLength="223" x="27" y="117.9502">parseEnemiesSpawnPoints(MapObjects): void</text><ellipse cx="18" cy="127.3672" fill="#84BE84" rx="3" ry="3" style="stroke: #038048; stroke-width: 1.0;"/><text fill="#000000" font-family="sans-serif" font-size="11" lengthAdjust="spacingAndGlyphs" textLength="89" x="27" y="131.7861">handleInput(): void</text><ellipse cx="18" cy="141.2031" fill="#84BE84" rx="3" ry="3" style="stroke: #038048; stroke-width: 1.0;"/><text fill="#000000" font-family="sans-serif" font-size="11" lengthAdjust="spacingAndGlyphs" textLength="170" x="27" y="145.6221">caricaStatoPlayer(): StateContainer</text><ellipse cx="18" cy="155.0391" fill="#84BE84" rx="3" ry="3" style="stroke: #038048; stroke-width: 1.0;"/><text fill="#000000" font-family="sans-serif" font-size="11" lengthAdjust="spacingAndGlyphs" textLength="215" x="27" y="159.458">caricaStatoNemico(): Array&lt;StateContainer&gt;</text><ellipse cx="18" cy="168.875" fill="#84BE84" rx="3" ry="3" style="stroke: #038048; stroke-width: 1.0;"/><text fill="#000000" font-family="sans-serif" font-size="11" lengthAdjust="spacingAndGlyphs" textLength="115" x="27" y="173.2939">saveEnemyState(): void</text><polygon fill="#FFFF44" points="18,177.7109,22,181.7109,18,185.7109,14,181.7109" style="stroke: #B38D22; stroke-width: 1.0;"/><text fill="#000000" font-family="sans-serif" font-size="11" lengthAdjust="spacingAndGlyphs" textLength="78" x="27" y="187.1299">endLevel(): void</text><ellipse cx="18" cy="196.5469" fill="#84BE84" rx="3" ry="3" style="stroke: #038048; stroke-width: 1.0;"/><text fill="#000000" font-family="sans-serif" font-size="11" lengthAdjust="spacingAndGlyphs" text-decoration="underline" textLength="92" x="27" y="200.9658">addPoints(int): void</text><ellipse cx="18" cy="210.3828" fill="#84BE84" rx="3" ry="3" style="stroke: #038048; stroke-width: 1.0;"/><text fill="#000000" font-family="sans-serif" font-size="11" lengthAdjust="spacingAndGlyphs" text-decoration="underline" textLength="85" x="27" y="214.8018">getWorld(): World</text><ellipse cx="18" cy="224.2188" fill="#84BE84" rx="3" ry="3" style="stroke: #038048; stroke-width: 1.0;"/><text fill="#000000" font-family="sans-serif" font-size="11" lengthAdjust="spacingAndGlyphs" text-decoration="underline" textLength="168" x="27" y="228.6377">getDebug(): Box2DDebugRenderer</text><ellipse cx="18" cy="238.0547" fill="#84BE84" rx="3" ry="3" style="stroke: #038048; stroke-width: 1.0;"/><text fill="#000000" font-family="sans-serif" font-size="11" lengthAdjust="spacingAndGlyphs" text-decoration="underline" textLength="116" x="27" y="242.4736">getAtlas(): TextureAtlas</text><ellipse cx="18" cy="251.8906" fill="#84BE84" rx="3" ry="3" style="stroke: #038048; stroke-width: 1.0;"/><text fill="#000000" font-family="sans-serif" font-size="11" lengthAdjust="spacingAndGlyphs" text-decoration="underline" textLength="120" x="27" y="256.3096">getGameplayTime(): float</text><polygon fill="#FFFF44" points="18,260.7266,22,264.7266,18,268.7266,14,264.7266" style="stroke: #B38D22; stroke-width: 1.0;"/><text fill="#000000" font-family="sans-serif" font-size="11" lengthAdjust="spacingAndGlyphs" textLength="121" x="27" y="270.1455">addToGPTime(float): void</text><polygon fill="#FFFF44" points="18,274.5625,22,278.5625,18,282.5625,14,278.5625" style="stroke: #B38D22; stroke-width: 1.0;"/><text fill="#000000" font-family="sans-serif" font-size="11" lengthAdjust="spacingAndGlyphs" textLength="91" x="27" y="283.9814">getMap(): TiledMap</text><polygon fill="#FFFF44" points="18,288.3984,22,292.3984,18,296.3984,14,292.3984" style="stroke: #B38D22; stroke-width: 1.0;"/><text fill="#000000" font-family="sans-serif" font-size="11" lengthAdjust="spacingAndGlyphs" textLength="234" x="27" y="297.8174">getMapRenderer(): OrthogonalTiledMapRenderer</text><polygon fill="#FFFF44" points="18,302.2344,22,306.2344,18,310.2344,14,306.2344" style="stroke: #B38D22; stroke-width: 1.0;"/><text fill="#000000" font-family="sans-serif" font-size="11" lengthAdjust="spacingAndGlyphs" textLength="150" x="27" y="311.6533">getCam(): OrthographicCamera</text><polygon fill="#FFFF44" points="18,316.0703,22,320.0703,18,324.0703,14,320.0703" style="stroke: #B38D22; stroke-width: 1.0;"/><text fill="#000000" font-family="sans-serif" font-size="11" lengthAdjust="spacingAndGlyphs" textLength="73" x="27" y="325.4893">getLevelUI(): UI</text></a><text fill="#888888" font-family="sans-serif" font-size="10" lengthAdjust="spacingAndGlyphs" textLength="190" x="65.5" y="349.2871">UMLDoclet 2.0.12, PlantUML 1.2020.16</text><!--MD5=[739dabf3e0e02ce9a0a4e48f0f706cfc]
@startuml
    set namespaceSeparator none
    hide empty fields
    hide empty methods

    class "<size:14>Livello\n<size:10>com.prog.world" as com.prog.world.Livello [[..\..\..\..\com\prog\world\Livello.html]] {
        +Livello(float, boolean, String, float, float, float, float, Evilian)
        +Livello(boolean, int, int, Evilian)
        +dispose(): void
        +parseCollisions(MapObjects): void
        +parseEnemiesSpawnPoints(MapObjects): void
        +handleInput(): void
        +caricaStatoPlayer(): StateContainer
        +caricaStatoNemico(): Array<StateContainer>
        +saveEnemyState(): void
        #endLevel(): void
        {static} +addPoints(int): void
        {static} +getWorld(): World
        {static} +getDebug(): Box2DDebugRenderer
        {static} +getAtlas(): TextureAtlas
        {static} +getGameplayTime(): float
        #addToGPTime(float): void
        #getMap(): TiledMap
        #getMapRenderer(): OrthogonalTiledMapRenderer
        #getCam(): OrthographicCamera
        #getLevelUI(): UI
    }

    center footer UMLDoclet 2.0.12, PlantUML 1.2020.16
@enduml

PlantUML version 1.2020.16(Sun Aug 23 22:20:43 CEST 2020)
(APACHE source distribution)
Java Runtime: Java(TM) SE Runtime Environment
JVM: Java HotSpot(TM) 64-Bit Server VM
Default Encoding: Cp1252
Language: it
Country: IT
--></g></svg>