<?xml version="1.0" encoding="UTF-8" standalone="no"?><svg xmlns="http://www.w3.org/2000/svg" xmlns:xlink="http://www.w3.org/1999/xlink" contentScriptType="application/ecmascript" contentStyleType="text/css" height="196px" preserveAspectRatio="none" style="width:202px;height:196px;" version="1.1" viewBox="0 0 202 196" width="202px" zoomAndPan="magnify"><defs><filter height="300%" id="f1412v1eur8fpj" width="300%" x="-1" y="-1"><feGaussianBlur result="blurOut" stdDeviation="2.0"/><feColorMatrix in="blurOut" result="blurOut2" type="matrix" values="0 0 0 0 0 0 0 0 0 0 0 0 0 0 0 0 0 0 .4 0"/><feOffset dx="4.0" dy="4.0" in="blurOut2" result="blurOut3"/><feBlend in="SourceGraphic" in2="blurOut3" mode="normal"/></filter></defs><g><!--MD5=[55fc6c8f5a8726554f64bb23a596008b]
class com.prog.world.ManagerSound--><a href="..\..\..\..\com\prog\world\ManagerSound.html" target="_top" title="..\..\..\..\com\prog\world\ManagerSound.html" xlink:actuate="onRequest" xlink:href="..\..\..\..\com\prog\world\ManagerSound.html" xlink:show="new" xlink:title="..\..\..\..\com\prog\world\ManagerSound.html" xlink:type="simple"><rect codeLine="5" fill="#FEFECE" filter="url(#f1412v1eur8fpj)" height="158.875" id="com.prog.world.ManagerSound" style="stroke: #A80036; stroke-width: 1.5;" width="169" x="10.5" y="7"/><ellipse cx="43.5" cy="27.0938" fill="#ADD1B2" rx="11" ry="11" style="stroke: #A80036; stroke-width: 1.0;"/><path d="M46.2656,22.9688 Q46.4219,22.75 46.6094,22.6406 Q46.7969,22.5313 47.0156,22.5313 Q47.3906,22.5313 47.625,22.7969 Q47.8594,23.0469 47.8594,23.6563 L47.8594,25.1094 Q47.8594,25.7188 47.625,25.9844 Q47.3906,26.25 47.0156,26.25 Q46.6719,26.25 46.4688,26.0469 Q46.2656,25.8594 46.1563,25.3438 Q46.1094,24.9844 45.9219,24.7969 Q45.5938,24.4219 44.9844,24.2031 Q44.375,23.9844 43.75,23.9844 Q42.9844,23.9844 42.3438,24.3125 Q41.7188,24.6406 41.2188,25.3906 Q40.7344,26.1406 40.7344,27.1719 L40.7344,28.2656 Q40.7344,29.5 41.625,30.3281 Q42.5156,31.1406 44.1094,31.1406 Q45.0469,31.1406 45.7031,30.8906 Q46.0938,30.7344 46.5156,30.2969 Q46.7813,30.0313 46.9219,29.9531 Q47.0781,29.875 47.2813,29.875 Q47.6094,29.875 47.8594,30.1406 Q48.125,30.3906 48.125,30.7344 Q48.125,31.0781 47.7813,31.4844 Q47.2813,32.0625 46.4844,32.3906 Q45.4063,32.8438 44.1094,32.8438 Q42.5938,32.8438 41.3906,32.2188 Q40.4063,31.7188 39.7188,30.6563 Q39.0313,29.5781 39.0313,28.2969 L39.0313,27.1406 Q39.0313,25.8125 39.6406,24.6719 Q40.2656,23.5156 41.3594,22.9063 Q42.4531,22.2813 43.6875,22.2813 Q44.4219,22.2813 45.0625,22.4531 Q45.7188,22.6094 46.2656,22.9688 Z "/><text fill="#000000" font-family="sans-serif" font-size="14" lengthAdjust="spacingAndGlyphs" textLength="97" x="61.5" y="26.5332">ManagerSound</text><text fill="#000000" font-family="sans-serif" font-size="10" lengthAdjust="spacingAndGlyphs" textLength="73" x="73.5" y="39.9902">com.prog.world</text><line style="stroke: #A80036; stroke-width: 1.5;" x1="11.5" x2="178.5" y1="47.1875" y2="47.1875"/><ellipse cx="21.5" cy="58.1875" fill="#84BE84" rx="3" ry="3" style="stroke: #038048; stroke-width: 1.0;"/><text fill="#000000" font-family="sans-serif" font-size="11" lengthAdjust="spacingAndGlyphs" textLength="111" x="30.5" y="62.6064">addSound(String): void</text><ellipse cx="21.5" cy="72.0234" fill="#84BE84" rx="3" ry="3" style="stroke: #038048; stroke-width: 1.0;"/><text fill="#000000" font-family="sans-serif" font-size="11" lengthAdjust="spacingAndGlyphs" textLength="105" x="30.5" y="76.4424">selectSound(int): void</text><ellipse cx="21.5" cy="85.8594" fill="#84BE84" rx="3" ry="3" style="stroke: #038048; stroke-width: 1.0;"/><text fill="#000000" font-family="sans-serif" font-size="11" lengthAdjust="spacingAndGlyphs" textLength="72" x="30.5" y="90.2783">dispose(): void</text><ellipse cx="21.5" cy="99.6953" fill="#84BE84" rx="3" ry="3" style="stroke: #038048; stroke-width: 1.0;"/><text fill="#000000" font-family="sans-serif" font-size="11" lengthAdjust="spacingAndGlyphs" textLength="105" x="30.5" y="104.1143">isSoundOn(): boolean</text><ellipse cx="21.5" cy="113.5313" fill="#84BE84" rx="3" ry="3" style="stroke: #038048; stroke-width: 1.0;"/><text fill="#000000" font-family="sans-serif" font-size="11" lengthAdjust="spacingAndGlyphs" textLength="132" x="30.5" y="117.9502">setSoundOn(boolean): void</text><polygon fill="#FFFF44" points="21.5,122.3672,25.5,126.3672,21.5,130.3672,17.5,126.3672" style="stroke: #B38D22; stroke-width: 1.0;"/><text fill="#000000" font-family="sans-serif" font-size="11" lengthAdjust="spacingAndGlyphs" textLength="106" x="30.5" y="131.7861">setVolume(float): void</text><ellipse cx="21.5" cy="141.2031" fill="#84BE84" rx="3" ry="3" style="stroke: #038048; stroke-width: 1.0;"/><text fill="#000000" font-family="sans-serif" font-size="11" lengthAdjust="spacingAndGlyphs" textLength="86" x="30.5" y="145.6221">getVolume(): float</text><ellipse cx="21.5" cy="155.0391" fill="#84BE84" rx="3" ry="3" style="stroke: #038048; stroke-width: 1.0;"/><text fill="#000000" font-family="sans-serif" font-size="11" lengthAdjust="spacingAndGlyphs" text-decoration="underline" textLength="143" x="30.5" y="159.458">getInstance(): ManagerSound</text></a><text fill="#888888" font-family="sans-serif" font-size="10" lengthAdjust="spacingAndGlyphs" textLength="190" x="0" y="183.2559">UMLDoclet 2.0.12, PlantUML 1.2020.16</text><!--MD5=[fed6b007500be1f5faba49ebf9842be1]
@startuml
    set namespaceSeparator none
    hide empty fields
    hide empty methods

    class "<size:14>ManagerSound\n<size:10>com.prog.world" as com.prog.world.ManagerSound [[..\..\..\..\com\prog\world\ManagerSound.html]] {
        +addSound(String): void
        +selectSound(int): void
        +dispose(): void
        +isSoundOn(): boolean
        +setSoundOn(boolean): void
        #setVolume(float): void
        +getVolume(): float
        {static} +getInstance(): ManagerSound
    }

    center footer UMLDoclet 2.0.12, PlantUML 1.2020.16
@enduml

PlantUML version 1.2020.16(Sun Aug 23 22:20:43 CEST 2020)
(APACHE source distribution)
Java Runtime: Java(TM) SE Runtime Environment
JVM: Java HotSpot(TM) 64-Bit Server VM
Default Encoding: Cp1252
Language: it
Country: IT
--></g></svg>