<?xml version="1.0" encoding="UTF-8" standalone="no"?><svg xmlns="http://www.w3.org/2000/svg" xmlns:xlink="http://www.w3.org/1999/xlink" contentScriptType="application/ecmascript" contentStyleType="text/css" height="356px" preserveAspectRatio="none" style="width:224px;height:356px;" version="1.1" viewBox="0 0 224 356" width="224px" zoomAndPan="magnify"><defs><filter height="300%" id="f82x4olaewzv9" width="300%" x="-1" y="-1"><feGaussianBlur result="blurOut" stdDeviation="2.0"/><feColorMatrix in="blurOut" result="blurOut2" type="matrix" values="0 0 0 0 0 0 0 0 0 0 0 0 0 0 0 0 0 0 .4 0"/><feOffset dx="4.0" dy="4.0" in="blurOut2" result="blurOut3"/><feBlend in="SourceGraphic" in2="blurOut3" mode="normal"/></filter></defs><g><!--MD5=[66b8131584d3c4b6dc18ad1411bbea5d]
class com.prog.world.ManagerVfx--><a href="..\..\..\..\com\prog\world\ManagerVfx.html" target="_top" title="..\..\..\..\com\prog\world\ManagerVfx.html" xlink:actuate="onRequest" xlink:href="..\..\..\..\com\prog\world\ManagerVfx.html" xlink:show="new" xlink:title="..\..\..\..\com\prog\world\ManagerVfx.html" xlink:type="simple"><rect codeLine="5" fill="#FEFECE" filter="url(#f82x4olaewzv9)" height="319.0703" id="com.prog.world.ManagerVfx" style="stroke: #A80036; stroke-width: 1.5;" width="198" x="7" y="7"/><ellipse cx="64.25" cy="27.0938" fill="#ADD1B2" rx="11" ry="11" style="stroke: #A80036; stroke-width: 1.0;"/><path d="M67.0156,22.9688 Q67.1719,22.75 67.3594,22.6406 Q67.5469,22.5313 67.7656,22.5313 Q68.1406,22.5313 68.375,22.7969 Q68.6094,23.0469 68.6094,23.6563 L68.6094,25.1094 Q68.6094,25.7188 68.375,25.9844 Q68.1406,26.25 67.7656,26.25 Q67.4219,26.25 67.2188,26.0469 Q67.0156,25.8594 66.9063,25.3438 Q66.8594,24.9844 66.6719,24.7969 Q66.3438,24.4219 65.7344,24.2031 Q65.125,23.9844 64.5,23.9844 Q63.7344,23.9844 63.0938,24.3125 Q62.4688,24.6406 61.9688,25.3906 Q61.4844,26.1406 61.4844,27.1719 L61.4844,28.2656 Q61.4844,29.5 62.375,30.3281 Q63.2656,31.1406 64.8594,31.1406 Q65.7969,31.1406 66.4531,30.8906 Q66.8438,30.7344 67.2656,30.2969 Q67.5313,30.0313 67.6719,29.9531 Q67.8281,29.875 68.0313,29.875 Q68.3594,29.875 68.6094,30.1406 Q68.875,30.3906 68.875,30.7344 Q68.875,31.0781 68.5313,31.4844 Q68.0313,32.0625 67.2344,32.3906 Q66.1563,32.8438 64.8594,32.8438 Q63.3438,32.8438 62.1406,32.2188 Q61.1563,31.7188 60.4688,30.6563 Q59.7813,29.5781 59.7813,28.2969 L59.7813,27.1406 Q59.7813,25.8125 60.3906,24.6719 Q61.0156,23.5156 62.1094,22.9063 Q63.2031,22.2813 64.4375,22.2813 Q65.1719,22.2813 65.8125,22.4531 Q66.4688,22.6094 67.0156,22.9688 Z "/><text fill="#000000" font-family="sans-serif" font-size="14" lengthAdjust="spacingAndGlyphs" textLength="75" x="84.75" y="26.5332">ManagerVfx</text><text fill="#000000" font-family="sans-serif" font-size="10" lengthAdjust="spacingAndGlyphs" textLength="73" x="85.75" y="39.9902">com.prog.world</text><line style="stroke: #A80036; stroke-width: 1.5;" x1="8" x2="204" y1="47.1875" y2="47.1875"/><ellipse cx="18" cy="58.1875" fill="none" rx="3" ry="3" style="stroke: #038048; stroke-width: 1.0;"/><text fill="#000000" font-family="sans-serif" font-size="11" lengthAdjust="spacingAndGlyphs" text-decoration="underline" textLength="97" x="27" y="62.6064">BLOOM_EFFECT: int</text><ellipse cx="18" cy="72.0234" fill="none" rx="3" ry="3" style="stroke: #038048; stroke-width: 1.0;"/><text fill="#000000" font-family="sans-serif" font-size="11" lengthAdjust="spacingAndGlyphs" text-decoration="underline" textLength="95" x="27" y="76.4424">GBLUR_EFFECT: int</text><ellipse cx="18" cy="85.8594" fill="none" rx="3" ry="3" style="stroke: #038048; stroke-width: 1.0;"/><text fill="#000000" font-family="sans-serif" font-size="11" lengthAdjust="spacingAndGlyphs" text-decoration="underline" textLength="95" x="27" y="90.2783">MBLUR_EFFECT: int</text><ellipse cx="18" cy="99.6953" fill="none" rx="3" ry="3" style="stroke: #038048; stroke-width: 1.0;"/><text fill="#000000" font-family="sans-serif" font-size="11" lengthAdjust="spacingAndGlyphs" text-decoration="underline" textLength="103" x="27" y="104.1143">CHROME_EFFECT: int</text><ellipse cx="18" cy="113.5313" fill="none" rx="3" ry="3" style="stroke: #038048; stroke-width: 1.0;"/><text fill="#000000" font-family="sans-serif" font-size="11" lengthAdjust="spacingAndGlyphs" text-decoration="underline" textLength="95" x="27" y="117.9502">OLDTV_EFFECT: int</text><line style="stroke: #A80036; stroke-width: 1.5;" x1="8" x2="204" y1="124.3672" y2="124.3672"/><ellipse cx="18" cy="135.3672" fill="#84BE84" rx="3" ry="3" style="stroke: #038048; stroke-width: 1.0;"/><text fill="#000000" font-family="sans-serif" font-size="11" lengthAdjust="spacingAndGlyphs" textLength="92" x="27" y="139.7861">addEffect(int): void</text><ellipse cx="18" cy="149.2031" fill="#84BE84" rx="3" ry="3" style="stroke: #038048; stroke-width: 1.0;"/><text fill="#000000" font-family="sans-serif" font-size="11" lengthAdjust="spacingAndGlyphs" textLength="110" x="27" y="153.6221">removeEffect(int): void</text><ellipse cx="18" cy="163.0391" fill="#84BE84" rx="3" ry="3" style="stroke: #038048; stroke-width: 1.0;"/><text fill="#000000" font-family="sans-serif" font-size="11" lengthAdjust="spacingAndGlyphs" textLength="85" x="27" y="167.458">initCapture(): void</text><ellipse cx="18" cy="176.875" fill="#84BE84" rx="3" ry="3" style="stroke: #038048; stroke-width: 1.0;"/><text fill="#000000" font-family="sans-serif" font-size="11" lengthAdjust="spacingAndGlyphs" textLength="90" x="27" y="181.2939">endCapture(): void</text><ellipse cx="18" cy="190.7109" fill="#84BE84" rx="3" ry="3" style="stroke: #038048; stroke-width: 1.0;"/><text fill="#000000" font-family="sans-serif" font-size="11" lengthAdjust="spacingAndGlyphs" textLength="131" x="27" y="195.1299">enableBlend(boolean): void</text><ellipse cx="18" cy="204.5469" fill="#84BE84" rx="3" ry="3" style="stroke: #038048; stroke-width: 1.0;"/><text fill="#000000" font-family="sans-serif" font-size="11" lengthAdjust="spacingAndGlyphs" textLength="95" x="27" y="208.9658">applyEffects(): void</text><ellipse cx="18" cy="218.3828" fill="#84BE84" rx="3" ry="3" style="stroke: #038048; stroke-width: 1.0;"/><text fill="#000000" font-family="sans-serif" font-size="11" lengthAdjust="spacingAndGlyphs" textLength="66" x="27" y="222.8018">render(): void</text><ellipse cx="18" cy="232.2188" fill="#84BE84" rx="3" ry="3" style="stroke: #038048; stroke-width: 1.0;"/><text fill="#000000" font-family="sans-serif" font-size="11" lengthAdjust="spacingAndGlyphs" textLength="128" x="27" y="236.6377">render(int, int, int, int): void</text><ellipse cx="18" cy="246.0547" fill="#84BE84" rx="3" ry="3" style="stroke: #038048; stroke-width: 1.0;"/><text fill="#000000" font-family="sans-serif" font-size="11" lengthAdjust="spacingAndGlyphs" textLength="92" x="27" y="250.4736">resize(int, int): void</text><ellipse cx="18" cy="259.8906" fill="#84BE84" rx="3" ry="3" style="stroke: #038048; stroke-width: 1.0;"/><text fill="#000000" font-family="sans-serif" font-size="11" lengthAdjust="spacingAndGlyphs" textLength="117" x="27" y="264.3096">removeAllEffects(): void</text><ellipse cx="18" cy="273.7266" fill="#84BE84" rx="3" ry="3" style="stroke: #038048; stroke-width: 1.0;"/><text fill="#000000" font-family="sans-serif" font-size="11" lengthAdjust="spacingAndGlyphs" textLength="172" x="27" y="278.1455">editBloom(float, float, float, int): void</text><ellipse cx="18" cy="287.5625" fill="#84BE84" rx="3" ry="3" style="stroke: #038048; stroke-width: 1.0;"/><text fill="#000000" font-family="sans-serif" font-size="11" lengthAdjust="spacingAndGlyphs" textLength="160" x="27" y="291.9814">renderToTexture(int, int): Texture</text><ellipse cx="18" cy="301.3984" fill="#84BE84" rx="3" ry="3" style="stroke: #038048; stroke-width: 1.0;"/><text fill="#000000" font-family="sans-serif" font-size="11" lengthAdjust="spacingAndGlyphs" textLength="72" x="27" y="305.8174">dispose(): void</text><ellipse cx="18" cy="315.2344" fill="#84BE84" rx="3" ry="3" style="stroke: #038048; stroke-width: 1.0;"/><text fill="#000000" font-family="sans-serif" font-size="11" lengthAdjust="spacingAndGlyphs" text-decoration="underline" textLength="130" x="27" y="319.6533">getInstance(): ManagerVfx</text></a><text fill="#888888" font-family="sans-serif" font-size="10" lengthAdjust="spacingAndGlyphs" textLength="190" x="11" y="343.4512">UMLDoclet 2.0.12, PlantUML 1.2020.16</text><!--MD5=[31f2a3c2eb5c6a452321143233c95f54]
@startuml
    set namespaceSeparator none
    hide empty fields
    hide empty methods

    class "<size:14>ManagerVfx\n<size:10>com.prog.world" as com.prog.world.ManagerVfx [[..\..\..\..\com\prog\world\ManagerVfx.html]] {
        {static} +BLOOM_EFFECT: int
        {static} +GBLUR_EFFECT: int
        {static} +MBLUR_EFFECT: int
        {static} +CHROME_EFFECT: int
        {static} +OLDTV_EFFECT: int
        +addEffect(int): void
        +removeEffect(int): void
        +initCapture(): void
        +endCapture(): void
        +enableBlend(boolean): void
        +applyEffects(): void
        +render(): void
        +render(int, int, int, int): void
        +resize(int, int): void
        +removeAllEffects(): void
        +editBloom(float, float, float, int): void
        +renderToTexture(int, int): Texture
        +dispose(): void
        {static} +getInstance(): ManagerVfx
    }

    center footer UMLDoclet 2.0.12, PlantUML 1.2020.16
@enduml

PlantUML version 1.2020.16(Sun Aug 23 22:20:43 CEST 2020)
(APACHE source distribution)
Java Runtime: Java(TM) SE Runtime Environment
JVM: Java HotSpot(TM) 64-Bit Server VM
Default Encoding: Cp1252
Language: it
Country: IT
--></g></svg>