<?xml version="1.0" encoding="UTF-8" standalone="no"?><svg xmlns="http://www.w3.org/2000/svg" xmlns:xlink="http://www.w3.org/1999/xlink" contentScriptType="application/ecmascript" contentStyleType="text/css" height="421px" preserveAspectRatio="none" style="width:287px;height:421px;" version="1.1" viewBox="0 0 287 421" width="287px" zoomAndPan="magnify"><defs><filter height="300%" id="fneghcx44vr3m" width="300%" x="-1" y="-1"><feGaussianBlur result="blurOut" stdDeviation="2.0"/><feColorMatrix in="blurOut" result="blurOut2" type="matrix" values="0 0 0 0 0 0 0 0 0 0 0 0 0 0 0 0 0 0 .4 0"/><feOffset dx="4.0" dy="4.0" in="blurOut2" result="blurOut3"/><feBlend in="SourceGraphic" in2="blurOut3" mode="normal"/></filter></defs><g><!--MD5=[b2e7c7b8c119fdf3646a77455fc7c32f]
class com.prog.world.Opzioni--><a href="..\..\..\..\com\prog\world\Opzioni.html" target="_top" title="..\..\..\..\com\prog\world\Opzioni.html" xlink:actuate="onRequest" xlink:href="..\..\..\..\com\prog\world\Opzioni.html" xlink:show="new" xlink:title="..\..\..\..\com\prog\world\Opzioni.html" xlink:type="simple"><rect codeLine="5" fill="#FEFECE" filter="url(#fneghcx44vr3m)" height="172.7109" id="com.prog.world.Opzioni" style="stroke: #A80036; stroke-width: 1.5;" width="134" x="66.5" y="212"/><ellipse cx="94.55" cy="232.0938" fill="#ADD1B2" rx="11" ry="11" style="stroke: #A80036; stroke-width: 1.0;"/><path d="M97.3156,227.9688 Q97.4719,227.75 97.6594,227.6406 Q97.8469,227.5313 98.0656,227.5313 Q98.4406,227.5313 98.675,227.7969 Q98.9094,228.0469 98.9094,228.6563 L98.9094,230.1094 Q98.9094,230.7188 98.675,230.9844 Q98.4406,231.25 98.0656,231.25 Q97.7219,231.25 97.5188,231.0469 Q97.3156,230.8594 97.2063,230.3438 Q97.1594,229.9844 96.9719,229.7969 Q96.6438,229.4219 96.0344,229.2031 Q95.425,228.9844 94.8,228.9844 Q94.0344,228.9844 93.3938,229.3125 Q92.7688,229.6406 92.2688,230.3906 Q91.7844,231.1406 91.7844,232.1719 L91.7844,233.2656 Q91.7844,234.5 92.675,235.3281 Q93.5656,236.1406 95.1594,236.1406 Q96.0969,236.1406 96.7531,235.8906 Q97.1438,235.7344 97.5656,235.2969 Q97.8313,235.0313 97.9719,234.9531 Q98.1281,234.875 98.3313,234.875 Q98.6594,234.875 98.9094,235.1406 Q99.175,235.3906 99.175,235.7344 Q99.175,236.0781 98.8313,236.4844 Q98.3313,237.0625 97.5344,237.3906 Q96.4563,237.8438 95.1594,237.8438 Q93.6438,237.8438 92.4406,237.2188 Q91.4563,236.7188 90.7688,235.6563 Q90.0813,234.5781 90.0813,233.2969 L90.0813,232.1406 Q90.0813,230.8125 90.6906,229.6719 Q91.3156,228.5156 92.4094,227.9063 Q93.5031,227.2813 94.7375,227.2813 Q95.4719,227.2813 96.1125,227.4531 Q96.7688,227.6094 97.3156,227.9688 Z "/><text fill="#000000" font-family="sans-serif" font-size="14" lengthAdjust="spacingAndGlyphs" textLength="47" x="124.45" y="231.5332">Opzioni</text><text fill="#000000" font-family="sans-serif" font-size="10" lengthAdjust="spacingAndGlyphs" textLength="73" x="111.45" y="244.9902">com.prog.world</text><line style="stroke: #A80036; stroke-width: 1.5;" x1="67.5" x2="199.5" y1="252.1875" y2="252.1875"/><ellipse cx="77.5" cy="263.1875" fill="#84BE84" rx="3" ry="3" style="stroke: #038048; stroke-width: 1.0;"/><text fill="#000000" font-family="sans-serif" font-size="11" lengthAdjust="spacingAndGlyphs" textLength="108" x="86.5" y="267.6064">Opzioni(int, int, Evilian)</text><ellipse cx="77.5" cy="277.0234" fill="#84BE84" rx="3" ry="3" style="stroke: #038048; stroke-width: 1.0;"/><text fill="#000000" font-family="sans-serif" font-size="11" lengthAdjust="spacingAndGlyphs" textLength="62" x="86.5" y="281.4424">show(): void</text><ellipse cx="77.5" cy="290.8594" fill="#84BE84" rx="3" ry="3" style="stroke: #038048; stroke-width: 1.0;"/><text fill="#000000" font-family="sans-serif" font-size="11" lengthAdjust="spacingAndGlyphs" textLength="87" x="86.5" y="295.2783">render(float): void</text><ellipse cx="77.5" cy="304.6953" fill="#84BE84" rx="3" ry="3" style="stroke: #038048; stroke-width: 1.0;"/><text fill="#000000" font-family="sans-serif" font-size="11" lengthAdjust="spacingAndGlyphs" textLength="60" x="86.5" y="309.1143">draw(): void</text><ellipse cx="77.5" cy="318.5313" fill="#84BE84" rx="3" ry="3" style="stroke: #038048; stroke-width: 1.0;"/><text fill="#000000" font-family="sans-serif" font-size="11" lengthAdjust="spacingAndGlyphs" textLength="92" x="86.5" y="322.9502">resize(int, int): void</text><ellipse cx="77.5" cy="332.3672" fill="#84BE84" rx="3" ry="3" style="stroke: #038048; stroke-width: 1.0;"/><text fill="#000000" font-family="sans-serif" font-size="11" lengthAdjust="spacingAndGlyphs" textLength="64" x="86.5" y="336.7861">pause(): void</text><ellipse cx="77.5" cy="346.2031" fill="#84BE84" rx="3" ry="3" style="stroke: #038048; stroke-width: 1.0;"/><text fill="#000000" font-family="sans-serif" font-size="11" lengthAdjust="spacingAndGlyphs" textLength="70" x="86.5" y="350.6221">resume(): void</text><ellipse cx="77.5" cy="360.0391" fill="#84BE84" rx="3" ry="3" style="stroke: #038048; stroke-width: 1.0;"/><text fill="#000000" font-family="sans-serif" font-size="11" lengthAdjust="spacingAndGlyphs" textLength="54" x="86.5" y="364.458">hide(): void</text><ellipse cx="77.5" cy="373.875" fill="#84BE84" rx="3" ry="3" style="stroke: #038048; stroke-width: 1.0;"/><text fill="#000000" font-family="sans-serif" font-size="11" lengthAdjust="spacingAndGlyphs" textLength="72" x="86.5" y="378.2939">dispose(): void</text></a><!--MD5=[f65d97758bb9aa9596fa78ba4135dd13]
class com.prog.world.Livello--><a href="..\..\..\..\com\prog\world\Livello.html" target="_top" title="..\..\..\..\com\prog\world\Livello.html" xlink:actuate="onRequest" xlink:href="..\..\..\..\com\prog\world\Livello.html" xlink:show="new" xlink:title="..\..\..\..\com\prog\world\Livello.html" xlink:type="simple"><rect codeLine="17" fill="#FEFECE" filter="url(#fneghcx44vr3m)" height="40.1875" id="com.prog.world.Livello" style="stroke: #A80036; stroke-width: 1.5;" width="105" x="7" y="59.5"/><ellipse cx="22" cy="79.5938" fill="#ADD1B2" rx="11" ry="11" style="stroke: #A80036; stroke-width: 1.0;"/><path d="M24.7656,75.4688 Q24.9219,75.25 25.1094,75.1406 Q25.2969,75.0313 25.5156,75.0313 Q25.8906,75.0313 26.125,75.2969 Q26.3594,75.5469 26.3594,76.1563 L26.3594,77.6094 Q26.3594,78.2188 26.125,78.4844 Q25.8906,78.75 25.5156,78.75 Q25.1719,78.75 24.9688,78.5469 Q24.7656,78.3594 24.6563,77.8438 Q24.6094,77.4844 24.4219,77.2969 Q24.0938,76.9219 23.4844,76.7031 Q22.875,76.4844 22.25,76.4844 Q21.4844,76.4844 20.8438,76.8125 Q20.2188,77.1406 19.7188,77.8906 Q19.2344,78.6406 19.2344,79.6719 L19.2344,80.7656 Q19.2344,82 20.125,82.8281 Q21.0156,83.6406 22.6094,83.6406 Q23.5469,83.6406 24.2031,83.3906 Q24.5938,83.2344 25.0156,82.7969 Q25.2813,82.5313 25.4219,82.4531 Q25.5781,82.375 25.7813,82.375 Q26.1094,82.375 26.3594,82.6406 Q26.625,82.8906 26.625,83.2344 Q26.625,83.5781 26.2813,83.9844 Q25.7813,84.5625 24.9844,84.8906 Q23.9063,85.3438 22.6094,85.3438 Q21.0938,85.3438 19.8906,84.7188 Q18.9063,84.2188 18.2188,83.1563 Q17.5313,82.0781 17.5313,80.7969 L17.5313,79.6406 Q17.5313,78.3125 18.1406,77.1719 Q18.7656,76.0156 19.8594,75.4063 Q20.9531,74.7813 22.1875,74.7813 Q22.9219,74.7813 23.5625,74.9531 Q24.2188,75.1094 24.7656,75.4688 Z "/><text fill="#000000" font-family="sans-serif" font-size="14" lengthAdjust="spacingAndGlyphs" textLength="40" x="52.5" y="79.0332">Livello</text><text fill="#000000" font-family="sans-serif" font-size="10" lengthAdjust="spacingAndGlyphs" textLength="73" x="36" y="92.4902">com.prog.world</text></a><!--MD5=[447f55fdc71fc94ba0b5f60ff0d02faa]
class com.badlogic.gdx.Screen--><rect codeLine="18" fill="#FEFECE" filter="url(#fneghcx44vr3m)" height="145.0391" id="com.badlogic.gdx.Screen" style="stroke: #A80036; stroke-width: 1.5;" width="121" x="147" y="7"/><ellipse cx="165.15" cy="27.0938" fill="#B4A7E5" rx="11" ry="11" style="stroke: #A80036; stroke-width: 1.0;"/><path d="M166.1031,23.7344 L166.1031,30.3906 L167.8219,30.3906 Q168.4313,30.3906 168.6969,30.625 Q168.9625,30.8594 168.9625,31.25 Q168.9625,31.625 168.6969,31.8594 Q168.4313,32.0938 167.8219,32.0938 L162.6813,32.0938 Q162.0719,32.0938 161.8063,31.8594 Q161.5406,31.625 161.5406,31.2344 Q161.5406,30.8594 161.8063,30.625 Q162.0719,30.3906 162.6813,30.3906 L164.4,30.3906 L164.4,23.7344 L162.6813,23.7344 Q162.0719,23.7344 161.8063,23.5 Q161.5406,23.2656 161.5406,22.875 Q161.5406,22.5 161.8063,22.2656 Q162.0719,22.0313 162.6813,22.0313 L167.8219,22.0313 Q168.4313,22.0313 168.6969,22.2656 Q168.9625,22.5 168.9625,22.875 Q168.9625,23.2656 168.6969,23.5 Q168.4313,23.7344 167.8219,23.7344 L166.1031,23.7344 Z "/><text fill="#000000" font-family="sans-serif" font-size="14" font-style="italic" lengthAdjust="spacingAndGlyphs" textLength="45" x="198.35" y="26.5332">Screen</text><text fill="#000000" font-family="sans-serif" font-size="10" font-style="italic" lengthAdjust="spacingAndGlyphs" textLength="82" x="179.85" y="39.9902">com.badlogic.gdx</text><line style="stroke: #A80036; stroke-width: 1.5;" x1="148" x2="267" y1="47.1875" y2="47.1875"/><ellipse cx="158" cy="58.1875" fill="#84BE84" rx="3" ry="3" style="stroke: #038048; stroke-width: 1.0;"/><text fill="#000000" font-family="sans-serif" font-size="11" font-style="italic" lengthAdjust="spacingAndGlyphs" textLength="59" x="167" y="62.6064">show(): void</text><ellipse cx="158" cy="72.0234" fill="#84BE84" rx="3" ry="3" style="stroke: #038048; stroke-width: 1.0;"/><text fill="#000000" font-family="sans-serif" font-size="11" font-style="italic" lengthAdjust="spacingAndGlyphs" textLength="87" x="167" y="76.4424">render(float): void</text><ellipse cx="158" cy="85.8594" fill="#84BE84" rx="3" ry="3" style="stroke: #038048; stroke-width: 1.0;"/><text fill="#000000" font-family="sans-serif" font-size="11" font-style="italic" lengthAdjust="spacingAndGlyphs" textLength="95" x="167" y="90.2783">resize(int, int): void</text><ellipse cx="158" cy="99.6953" fill="#84BE84" rx="3" ry="3" style="stroke: #038048; stroke-width: 1.0;"/><text fill="#000000" font-family="sans-serif" font-size="11" font-style="italic" lengthAdjust="spacingAndGlyphs" textLength="64" x="167" y="104.1143">pause(): void</text><ellipse cx="158" cy="113.5313" fill="#84BE84" rx="3" ry="3" style="stroke: #038048; stroke-width: 1.0;"/><text fill="#000000" font-family="sans-serif" font-size="11" font-style="italic" lengthAdjust="spacingAndGlyphs" textLength="71" x="167" y="117.9502">resume(): void</text><ellipse cx="158" cy="127.3672" fill="#84BE84" rx="3" ry="3" style="stroke: #038048; stroke-width: 1.0;"/><text fill="#000000" font-family="sans-serif" font-size="11" font-style="italic" lengthAdjust="spacingAndGlyphs" textLength="55" x="167" y="131.7861">hide(): void</text><ellipse cx="158" cy="141.2031" fill="#84BE84" rx="3" ry="3" style="stroke: #038048; stroke-width: 1.0;"/><text fill="#000000" font-family="sans-serif" font-size="11" font-style="italic" lengthAdjust="spacingAndGlyphs" textLength="73" x="167" y="145.6221">dispose(): void</text><!--MD5=[d0b1d4ff4777365d08dda1ce08401f7d]
reverse link com.prog.world.Livello to com.prog.world.Opzioni--><path codeLine="28" d="M72.63,118.99 C81.42,144.79 93.36,179.8 104.34,211.98 " fill="none" id="com.prog.world.Livello-backto-com.prog.world.Opzioni" style="stroke: #A80036; stroke-width: 1.0;"/><polygon fill="none" points="65.9,120.95,66.07,99.76,79.15,116.43,65.9,120.95" style="stroke: #A80036; stroke-width: 1.0;"/><!--MD5=[e9a6bf8a04152c334049d8ff2dfc54b3]
reverse link com.badlogic.gdx.Screen to com.prog.world.Opzioni--><path codeLine="29" d="M176.48,171.45 C171.91,184.87 167.21,198.66 162.67,211.96 " fill="none" id="com.badlogic.gdx.Screen-backto-com.prog.world.Opzioni" style="stroke: #A80036; stroke-width: 1.0; stroke-dasharray: 7.0,7.0;"/><polygon fill="none" points="169.98,168.83,183.06,152.16,183.23,173.34,169.98,168.83" style="stroke: #A80036; stroke-width: 1.0;"/><text fill="#888888" font-family="sans-serif" font-size="10" lengthAdjust="spacingAndGlyphs" textLength="190" x="39.5" y="408.0918">UMLDoclet 2.0.12, PlantUML 1.2020.16</text><!--MD5=[10e7b62bb86bcbf625d454343cf1ca10]
@startuml
    set namespaceSeparator none
    hide empty fields
    hide empty methods

    class "<size:14>Opzioni\n<size:10>com.prog.world" as com.prog.world.Opzioni [[..\..\..\..\com\prog\world\Opzioni.html]] {
        +Opzioni(int, int, Evilian)
        +show(): void
        +render(float): void
        +draw(): void
        +resize(int, int): void
        +pause(): void
        +resume(): void
        +hide(): void
        +dispose(): void
    }

    class "<size:14>Livello\n<size:10>com.prog.world" as com.prog.world.Livello [[..\..\..\..\com\prog\world\Livello.html]]
    interface "<size:14>Screen\n<size:10>com.badlogic.gdx" as com.badlogic.gdx.Screen {
        {abstract} +show(): void
        {abstract} +render(float): void
        {abstract} +resize(int, int): void
        {abstract} +pause(): void
        {abstract} +resume(): void
        {abstract} +hide(): void
        {abstract} +dispose(): void
    }

    com.prog.world.Livello <|- - com.prog.world.Opzioni
    com.badlogic.gdx.Screen <|.. com.prog.world.Opzioni

    center footer UMLDoclet 2.0.12, PlantUML 1.2020.16
@enduml

PlantUML version 1.2020.16(Sun Aug 23 22:20:43 CEST 2020)
(APACHE source distribution)
Java Runtime: Java(TM) SE Runtime Environment
JVM: Java HotSpot(TM) 64-Bit Server VM
Default Encoding: Cp1252
Language: it
Country: IT
--></g></svg>