<?xml version="1.0" encoding="UTF-8" standalone="no"?><svg xmlns="http://www.w3.org/2000/svg" xmlns:xlink="http://www.w3.org/1999/xlink" contentScriptType="application/ecmascript" contentStyleType="text/css" height="155px" preserveAspectRatio="none" style="width:231px;height:155px;" version="1.1" viewBox="0 0 231 155" width="231px" zoomAndPan="magnify"><defs><filter height="300%" id="fs3dlw64mv85a" width="300%" x="-1" y="-1"><feGaussianBlur result="blurOut" stdDeviation="2.0"/><feColorMatrix in="blurOut" result="blurOut2" type="matrix" values="0 0 0 0 0 0 0 0 0 0 0 0 0 0 0 0 0 0 .4 0"/><feOffset dx="4.0" dy="4.0" in="blurOut2" result="blurOut3"/><feBlend in="SourceGraphic" in2="blurOut3" mode="normal"/></filter></defs><g><!--MD5=[859ec3ba7de3ffba347680fdc7995c6d]
class com.prog.world.StateContainer--><a href="..\..\..\..\com\prog\world\StateContainer.html" target="_top" title="..\..\..\..\com\prog\world\StateContainer.html" xlink:actuate="onRequest" xlink:href="..\..\..\..\com\prog\world\StateContainer.html" xlink:show="new" xlink:title="..\..\..\..\com\prog\world\StateContainer.html" xlink:type="simple"><rect codeLine="5" fill="#FEFECE" filter="url(#fs3dlw64mv85a)" height="117.3672" id="com.prog.world.StateContainer" style="stroke: #A80036; stroke-width: 1.5;" width="205" x="7" y="7"/><ellipse cx="57.75" cy="27.0938" fill="#ADD1B2" rx="11" ry="11" style="stroke: #A80036; stroke-width: 1.0;"/><path d="M60.5156,22.9688 Q60.6719,22.75 60.8594,22.6406 Q61.0469,22.5313 61.2656,22.5313 Q61.6406,22.5313 61.875,22.7969 Q62.1094,23.0469 62.1094,23.6563 L62.1094,25.1094 Q62.1094,25.7188 61.875,25.9844 Q61.6406,26.25 61.2656,26.25 Q60.9219,26.25 60.7188,26.0469 Q60.5156,25.8594 60.4063,25.3438 Q60.3594,24.9844 60.1719,24.7969 Q59.8438,24.4219 59.2344,24.2031 Q58.625,23.9844 58,23.9844 Q57.2344,23.9844 56.5938,24.3125 Q55.9688,24.6406 55.4688,25.3906 Q54.9844,26.1406 54.9844,27.1719 L54.9844,28.2656 Q54.9844,29.5 55.875,30.3281 Q56.7656,31.1406 58.3594,31.1406 Q59.2969,31.1406 59.9531,30.8906 Q60.3438,30.7344 60.7656,30.2969 Q61.0313,30.0313 61.1719,29.9531 Q61.3281,29.875 61.5313,29.875 Q61.8594,29.875 62.1094,30.1406 Q62.375,30.3906 62.375,30.7344 Q62.375,31.0781 62.0313,31.4844 Q61.5313,32.0625 60.7344,32.3906 Q59.6563,32.8438 58.3594,32.8438 Q56.8438,32.8438 55.6406,32.2188 Q54.6563,31.7188 53.9688,30.6563 Q53.2813,29.5781 53.2813,28.2969 L53.2813,27.1406 Q53.2813,25.8125 53.8906,24.6719 Q54.5156,23.5156 55.6094,22.9063 Q56.7031,22.2813 57.9375,22.2813 Q58.6719,22.2813 59.3125,22.4531 Q59.9688,22.6094 60.5156,22.9688 Z "/><text fill="#000000" font-family="sans-serif" font-size="14" lengthAdjust="spacingAndGlyphs" textLength="95" x="78.25" y="26.5332">StateContainer</text><text fill="#000000" font-family="sans-serif" font-size="10" lengthAdjust="spacingAndGlyphs" textLength="73" x="89.25" y="39.9902">com.prog.world</text><line style="stroke: #A80036; stroke-width: 1.5;" x1="8" x2="211" y1="47.1875" y2="47.1875"/><ellipse cx="18" cy="58.1875" fill="#84BE84" rx="3" ry="3" style="stroke: #038048; stroke-width: 1.0;"/><text fill="#000000" font-family="sans-serif" font-size="11" lengthAdjust="spacingAndGlyphs" textLength="145" x="27" y="62.6064">StateContainer(Vector2, float)</text><ellipse cx="18" cy="72.0234" fill="#84BE84" rx="3" ry="3" style="stroke: #038048; stroke-width: 1.0;"/><text fill="#000000" font-family="sans-serif" font-size="11" lengthAdjust="spacingAndGlyphs" textLength="179" x="27" y="76.4424">StateContainer(Vector2, float, String)</text><ellipse cx="18" cy="85.8594" fill="#84BE84" rx="3" ry="3" style="stroke: #038048; stroke-width: 1.0;"/><text fill="#000000" font-family="sans-serif" font-size="11" lengthAdjust="spacingAndGlyphs" textLength="63" x="27" y="90.2783">getHp(): float</text><ellipse cx="18" cy="99.6953" fill="#84BE84" rx="3" ry="3" style="stroke: #038048; stroke-width: 1.0;"/><text fill="#000000" font-family="sans-serif" font-size="11" lengthAdjust="spacingAndGlyphs" textLength="86" x="27" y="104.1143">getPos(): Vector2</text><ellipse cx="18" cy="113.5313" fill="#84BE84" rx="3" ry="3" style="stroke: #038048; stroke-width: 1.0;"/><text fill="#000000" font-family="sans-serif" font-size="11" lengthAdjust="spacingAndGlyphs" textLength="81" x="27" y="117.9502">getType(): String</text></a><text fill="#888888" font-family="sans-serif" font-size="10" lengthAdjust="spacingAndGlyphs" textLength="190" x="14.5" y="141.748">UMLDoclet 2.0.12, PlantUML 1.2020.16</text><!--MD5=[2c67d44a9d6d7830570023b594922d58]
@startuml
    set namespaceSeparator none
    hide empty fields
    hide empty methods

    class "<size:14>StateContainer\n<size:10>com.prog.world" as com.prog.world.StateContainer [[..\..\..\..\com\prog\world\StateContainer.html]] {
        +StateContainer(Vector2, float)
        +StateContainer(Vector2, float, String)
        +getHp(): float
        +getPos(): Vector2
        +getType(): String
    }

    center footer UMLDoclet 2.0.12, PlantUML 1.2020.16
@enduml

PlantUML version 1.2020.16(Sun Aug 23 22:20:43 CEST 2020)
(APACHE source distribution)
Java Runtime: Java(TM) SE Runtime Environment
JVM: Java HotSpot(TM) 64-Bit Server VM
Default Encoding: Cp1252
Language: it
Country: IT
--></g></svg>